%TF.GenerationSoftware,KiCad,Pcbnew,(5.1.4)-1*%
%TF.CreationDate,2020-10-02T23:36:46+08:00*%
%TF.ProjectId,odometer_project,6f646f6d-6574-4657-925f-70726f6a6563,rev?*%
%TF.SameCoordinates,Original*%
%TF.FileFunction,Copper,L2,Bot*%
%TF.FilePolarity,Positive*%
%FSLAX46Y46*%
G04 Gerber Fmt 4.6, Leading zero omitted, Abs format (unit mm)*
G04 Created by KiCad (PCBNEW (5.1.4)-1) date 2020-10-02 23:36:46*
%MOMM*%
%LPD*%
G04 APERTURE LIST*
%TA.AperFunction,ComponentPad*%
%ADD10C,0.800000*%
%TD*%
%TA.AperFunction,ComponentPad*%
%ADD11C,6.000000*%
%TD*%
%TA.AperFunction,ComponentPad*%
%ADD12C,3.000000*%
%TD*%
%TA.AperFunction,ComponentPad*%
%ADD13O,1.800000X2.600000*%
%TD*%
%TA.AperFunction,ComponentPad*%
%ADD14R,1.800000X2.600000*%
%TD*%
%TA.AperFunction,ComponentPad*%
%ADD15C,2.000000*%
%TD*%
%TA.AperFunction,ComponentPad*%
%ADD16O,1.600000X2.400000*%
%TD*%
%TA.AperFunction,ComponentPad*%
%ADD17R,1.600000X2.400000*%
%TD*%
%TA.AperFunction,ComponentPad*%
%ADD18O,1.700000X1.700000*%
%TD*%
%TA.AperFunction,ComponentPad*%
%ADD19R,1.700000X1.700000*%
%TD*%
%TA.AperFunction,ComponentPad*%
%ADD20O,1.600000X1.600000*%
%TD*%
%TA.AperFunction,ComponentPad*%
%ADD21R,1.600000X1.600000*%
%TD*%
%TA.AperFunction,ViaPad*%
%ADD22C,0.800000*%
%TD*%
%TA.AperFunction,Conductor*%
%ADD23C,0.500000*%
%TD*%
%TA.AperFunction,Conductor*%
%ADD24C,1.000000*%
%TD*%
%TA.AperFunction,Conductor*%
%ADD25C,0.254000*%
%TD*%
G04 APERTURE END LIST*
D10*
%TO.P,REF\002A\002A,1*%
%TO.N,N/C*%
X246192990Y-101025010D03*
X244602000Y-100366000D03*
X243011010Y-101025010D03*
X242352000Y-102616000D03*
X243011010Y-104206990D03*
X244602000Y-104866000D03*
X246192990Y-104206990D03*
X246852000Y-102616000D03*
D11*
X244602000Y-102616000D03*
%TD*%
D10*
%TO.P,REF\002A\002A,1*%
%TO.N,N/C*%
X240604990Y-143189010D03*
X239014000Y-142530000D03*
X237423010Y-143189010D03*
X236764000Y-144780000D03*
X237423010Y-146370990D03*
X239014000Y-147030000D03*
X240604990Y-146370990D03*
X241264000Y-144780000D03*
D11*
X239014000Y-144780000D03*
%TD*%
D10*
%TO.P,REF\002A\002A,1*%
%TO.N,N/C*%
X187264990Y-131759010D03*
X185674000Y-131100000D03*
X184083010Y-131759010D03*
X183424000Y-133350000D03*
X184083010Y-134940990D03*
X185674000Y-135600000D03*
X187264990Y-134940990D03*
X187924000Y-133350000D03*
D11*
X185674000Y-133350000D03*
%TD*%
D10*
%TO.P,REF\002A\002A,1*%
%TO.N,N/C*%
X200726990Y-96453010D03*
X199136000Y-95794000D03*
X197545010Y-96453010D03*
X196886000Y-98044000D03*
X197545010Y-99634990D03*
X199136000Y-100294000D03*
X200726990Y-99634990D03*
X201386000Y-98044000D03*
D11*
X199136000Y-98044000D03*
%TD*%
D12*
%TO.P,DS1,*%
%TO.N,*%
X190850000Y-118110000D03*
X190850520Y-87109300D03*
X265849100Y-87109300D03*
X265849100Y-118110000D03*
D13*
%TO.P,DS1,16*%
%TO.N,GND*%
X222250000Y-118110000D03*
%TO.P,DS1,15*%
%TO.N,Net-(DS1-Pad15)*%
X224790000Y-118110000D03*
%TO.P,DS1,14*%
%TO.N,Net-(DS1-Pad14)*%
X227330000Y-118110000D03*
%TO.P,DS1,13*%
%TO.N,Net-(DS1-Pad13)*%
X229870000Y-118110000D03*
%TO.P,DS1,12*%
%TO.N,Net-(DS1-Pad12)*%
X232410000Y-118110000D03*
%TO.P,DS1,11*%
%TO.N,Net-(DS1-Pad11)*%
X234950000Y-118110000D03*
%TO.P,DS1,10*%
%TO.N,lcd_bit4*%
X237490000Y-118110000D03*
%TO.P,DS1,9*%
%TO.N,lcd_bit3*%
X240030000Y-118110000D03*
%TO.P,DS1,8*%
%TO.N,lcd_bit2*%
X242570000Y-118110000D03*
%TO.P,DS1,7*%
%TO.N,lcd_bit1*%
X245110000Y-118110000D03*
%TO.P,DS1,6*%
%TO.N,lcd_enable*%
X247650000Y-118110000D03*
%TO.P,DS1,5*%
%TO.N,lcd_rw*%
X250190000Y-118110000D03*
%TO.P,DS1,4*%
%TO.N,lcd_rs*%
X252730000Y-118110000D03*
%TO.P,DS1,3*%
%TO.N,Net-(DS1-Pad3)*%
X255270000Y-118110000D03*
%TO.P,DS1,2*%
%TO.N,+5V*%
X257810000Y-118110000D03*
D14*
%TO.P,DS1,1*%
%TO.N,GND*%
X260350000Y-118110000D03*
%TD*%
D15*
%TO.P,SW2,1*%
%TO.N,Net-(R4-Pad2)*%
X203304000Y-146304000D03*
%TO.P,SW2,2*%
%TO.N,GND*%
X203304000Y-141804000D03*
%TO.P,SW2,1*%
%TO.N,Net-(R4-Pad2)*%
X209804000Y-146304000D03*
%TO.P,SW2,2*%
%TO.N,GND*%
X209804000Y-141804000D03*
%TD*%
D16*
%TO.P,U1,14*%
%TO.N,+5V*%
X199644000Y-124714000D03*
%TO.P,U1,7*%
%TO.N,GND*%
X214884000Y-132334000D03*
%TO.P,U1,13*%
%TO.N,Net-(U1-Pad13)*%
X202184000Y-124714000D03*
%TO.P,U1,6*%
%TO.N,soft_reset*%
X212344000Y-132334000D03*
%TO.P,U1,12*%
%TO.N,Net-(U1-Pad12)*%
X204724000Y-124714000D03*
%TO.P,U1,5*%
%TO.N,/sheet5F7CF7B9/vout*%
X209804000Y-132334000D03*
%TO.P,U1,11*%
%TO.N,Net-(U1-Pad11)*%
X207264000Y-124714000D03*
%TO.P,U1,4*%
%TO.N,state_down*%
X207264000Y-132334000D03*
%TO.P,U1,10*%
%TO.N,Net-(U1-Pad10)*%
X209804000Y-124714000D03*
%TO.P,U1,3*%
%TO.N,/sheet5F7CC05F/vout*%
X204724000Y-132334000D03*
%TO.P,U1,9*%
%TO.N,Net-(U1-Pad9)*%
X212344000Y-124714000D03*
%TO.P,U1,2*%
%TO.N,state_up*%
X202184000Y-132334000D03*
%TO.P,U1,8*%
%TO.N,Net-(U1-Pad8)*%
X214884000Y-124714000D03*
D17*
%TO.P,U1,1*%
%TO.N,/vout*%
X199644000Y-132334000D03*
%TD*%
D18*
%TO.P,J4,20*%
%TO.N,GND*%
X273558000Y-108712000D03*
%TO.P,J4,19*%
%TO.N,+5V*%
X271018000Y-108712000D03*
%TO.P,J4,18*%
%TO.N,GND*%
X273558000Y-106172000D03*
%TO.P,J4,17*%
%TO.N,+5V*%
X271018000Y-106172000D03*
%TO.P,J4,16*%
%TO.N,GND*%
X273558000Y-103632000D03*
%TO.P,J4,15*%
%TO.N,+5V*%
X271018000Y-103632000D03*
%TO.P,J4,14*%
%TO.N,GND*%
X273558000Y-101092000D03*
%TO.P,J4,13*%
%TO.N,+5V*%
X271018000Y-101092000D03*
%TO.P,J4,12*%
%TO.N,GND*%
X273558000Y-98552000D03*
%TO.P,J4,11*%
%TO.N,+5V*%
X271018000Y-98552000D03*
%TO.P,J4,10*%
%TO.N,GND*%
X273558000Y-96012000D03*
%TO.P,J4,9*%
%TO.N,+5V*%
X271018000Y-96012000D03*
%TO.P,J4,8*%
%TO.N,GND*%
X273558000Y-93472000D03*
%TO.P,J4,7*%
%TO.N,+5V*%
X271018000Y-93472000D03*
%TO.P,J4,6*%
%TO.N,GND*%
X273558000Y-90932000D03*
%TO.P,J4,5*%
%TO.N,+5V*%
X271018000Y-90932000D03*
%TO.P,J4,4*%
%TO.N,GND*%
X273558000Y-88392000D03*
%TO.P,J4,3*%
%TO.N,+5V*%
X271018000Y-88392000D03*
%TO.P,J4,2*%
%TO.N,GND*%
X273558000Y-85852000D03*
D19*
%TO.P,J4,1*%
%TO.N,+5V*%
X271018000Y-85852000D03*
%TD*%
D18*
%TO.P,J3,20*%
%TO.N,SCL*%
X185928000Y-108712000D03*
%TO.P,J3,19*%
%TO.N,SDA*%
X183388000Y-108712000D03*
%TO.P,J3,18*%
%TO.N,SCL*%
X185928000Y-106172000D03*
%TO.P,J3,17*%
%TO.N,SDA*%
X183388000Y-106172000D03*
%TO.P,J3,16*%
%TO.N,SCL*%
X185928000Y-103632000D03*
%TO.P,J3,15*%
%TO.N,SDA*%
X183388000Y-103632000D03*
%TO.P,J3,14*%
%TO.N,SCL*%
X185928000Y-101092000D03*
%TO.P,J3,13*%
%TO.N,SDA*%
X183388000Y-101092000D03*
%TO.P,J3,12*%
%TO.N,SCL*%
X185928000Y-98552000D03*
%TO.P,J3,11*%
%TO.N,SDA*%
X183388000Y-98552000D03*
%TO.P,J3,10*%
%TO.N,SCL*%
X185928000Y-96012000D03*
%TO.P,J3,9*%
%TO.N,SDA*%
X183388000Y-96012000D03*
%TO.P,J3,8*%
%TO.N,SCL*%
X185928000Y-93472000D03*
%TO.P,J3,7*%
%TO.N,SDA*%
X183388000Y-93472000D03*
%TO.P,J3,6*%
%TO.N,SCL*%
X185928000Y-90932000D03*
%TO.P,J3,5*%
%TO.N,SDA*%
X183388000Y-90932000D03*
%TO.P,J3,4*%
%TO.N,SCL*%
X185928000Y-88392000D03*
%TO.P,J3,3*%
%TO.N,SDA*%
X183388000Y-88392000D03*
%TO.P,J3,2*%
%TO.N,SCL*%
X185928000Y-85852000D03*
D19*
%TO.P,J3,1*%
%TO.N,SDA*%
X183388000Y-85852000D03*
%TD*%
D18*
%TO.P,J2,3*%
%TO.N,GND*%
X272034000Y-125730000D03*
%TO.P,J2,2*%
%TO.N,Net-(A1-Pad6)*%
X272034000Y-123190000D03*
D19*
%TO.P,J2,1*%
%TO.N,+5V*%
X272034000Y-120650000D03*
%TD*%
D20*
%TO.P,A1,16*%
%TO.N,Net-(A1-Pad16)*%
X271272000Y-136652000D03*
%TO.P,A1,15*%
%TO.N,state_up*%
X271272000Y-151892000D03*
%TO.P,A1,30*%
%TO.N,Net-(A1-Pad30)*%
X235712000Y-136652000D03*
%TO.P,A1,14*%
%TO.N,state_down*%
X268732000Y-151892000D03*
%TO.P,A1,29*%
%TO.N,GND*%
X238252000Y-136652000D03*
%TO.P,A1,13*%
%TO.N,lcd_enable*%
X266192000Y-151892000D03*
%TO.P,A1,28*%
%TO.N,Net-(A1-Pad28)*%
X240792000Y-136652000D03*
%TO.P,A1,12*%
%TO.N,lcd_rw*%
X263652000Y-151892000D03*
%TO.P,A1,27*%
%TO.N,+5V*%
X243332000Y-136652000D03*
%TO.P,A1,11*%
%TO.N,lcd_rs*%
X261112000Y-151892000D03*
%TO.P,A1,26*%
%TO.N,Net-(A1-Pad26)*%
X245872000Y-136652000D03*
%TO.P,A1,10*%
%TO.N,lcd_bit4*%
X258572000Y-151892000D03*
%TO.P,A1,25*%
%TO.N,Net-(A1-Pad25)*%
X248412000Y-136652000D03*
%TO.P,A1,9*%
%TO.N,lcd_bit3*%
X256032000Y-151892000D03*
%TO.P,A1,24*%
%TO.N,SCL*%
X250952000Y-136652000D03*
%TO.P,A1,8*%
%TO.N,lcd_bit2*%
X253492000Y-151892000D03*
%TO.P,A1,23*%
%TO.N,SDA*%
X253492000Y-136652000D03*
%TO.P,A1,7*%
%TO.N,lcd_bit1*%
X250952000Y-151892000D03*
%TO.P,A1,22*%
%TO.N,Net-(A1-Pad22)*%
X256032000Y-136652000D03*
%TO.P,A1,6*%
%TO.N,Net-(A1-Pad6)*%
X248412000Y-151892000D03*
%TO.P,A1,21*%
%TO.N,Net-(A1-Pad21)*%
X258572000Y-136652000D03*
%TO.P,A1,5*%
%TO.N,soft_reset*%
X245872000Y-151892000D03*
%TO.P,A1,20*%
%TO.N,Net-(A1-Pad20)*%
X261112000Y-136652000D03*
%TO.P,A1,4*%
%TO.N,Net-(A1-Pad4)*%
X243332000Y-151892000D03*
%TO.P,A1,19*%
%TO.N,Net-(A1-Pad19)*%
X263652000Y-136652000D03*
%TO.P,A1,3*%
%TO.N,Net-(A1-Pad3)*%
X240792000Y-151892000D03*
%TO.P,A1,18*%
%TO.N,Net-(A1-Pad18)*%
X266192000Y-136652000D03*
%TO.P,A1,2*%
%TO.N,Net-(A1-Pad2)*%
X238252000Y-151892000D03*
%TO.P,A1,17*%
%TO.N,Net-(A1-Pad17)*%
X268732000Y-136652000D03*
D21*
%TO.P,A1,1*%
%TO.N,Net-(A1-Pad1)*%
X235712000Y-151892000D03*
%TD*%
D15*
%TO.P,SW3,1*%
%TO.N,Net-(R6-Pad2)*%
X220980000Y-146304000D03*
%TO.P,SW3,2*%
%TO.N,GND*%
X220980000Y-141804000D03*
%TO.P,SW3,1*%
%TO.N,Net-(R6-Pad2)*%
X227480000Y-146304000D03*
%TO.P,SW3,2*%
%TO.N,GND*%
X227480000Y-141804000D03*
%TD*%
%TO.P,SW1,1*%
%TO.N,Net-(R1-Pad2)*%
X187810000Y-146304000D03*
%TO.P,SW1,2*%
%TO.N,GND*%
X187810000Y-141804000D03*
%TO.P,SW1,1*%
%TO.N,Net-(R1-Pad2)*%
X194310000Y-146304000D03*
%TO.P,SW1,2*%
%TO.N,GND*%
X194310000Y-141804000D03*
%TD*%
D22*
%TO.N,GND*%
X206774000Y-138684000D03*
X194328000Y-138938000D03*
X220490000Y-138938000D03*
X196850000Y-129549000D03*
X207527000Y-151882000D03*
X191779000Y-151892000D03*
X225319000Y-151638000D03*
%TO.N,+5V*%
X242570000Y-140462000D03*
X246380000Y-120396000D03*
%TD*%
D23*
%TO.N,+5V*%
X257810000Y-119910000D02*
X256816000Y-120904000D01*
X257810000Y-118110000D02*
X257810000Y-119910000D01*
X256816000Y-120904000D02*
X246888000Y-120904000D01*
X246888000Y-120904000D02*
X246380000Y-120396000D01*
%TO.N,SCL*%
X185928000Y-110490000D02*
X185928000Y-108712000D01*
X184150000Y-112268000D02*
X185928000Y-110490000D01*
X184150000Y-125756038D02*
X184150000Y-112268000D01*
X185963952Y-127569990D02*
X184150000Y-125756038D01*
X255051953Y-127569990D02*
X185963952Y-127569990D01*
X250952000Y-137783370D02*
X253568640Y-140400010D01*
X250952000Y-136652000D02*
X250952000Y-137783370D01*
X253568640Y-140400010D02*
X256673992Y-140400010D01*
X256673992Y-140400010D02*
X259822001Y-137252001D01*
X259822001Y-137252001D02*
X259822001Y-132340038D01*
X259822001Y-132340038D02*
X255051953Y-127569990D01*
D24*
X185928000Y-85852000D02*
X185928000Y-108712000D01*
D23*
%TO.N,SDA*%
X183388000Y-125984000D02*
X183388000Y-112040037D01*
X253492000Y-138684000D02*
X254508000Y-139700000D01*
X253492000Y-136652000D02*
X253492000Y-138684000D01*
X254508000Y-139700000D02*
X256286000Y-139700000D01*
X254762000Y-128270000D02*
X185674000Y-128270000D01*
X256286000Y-139700000D02*
X257321999Y-138664001D01*
X257321999Y-138664001D02*
X257321999Y-130829999D01*
X183388000Y-112040037D02*
X183388000Y-108712000D01*
X185674000Y-128270000D02*
X183388000Y-125984000D01*
X257321999Y-130829999D02*
X254762000Y-128270000D01*
D24*
X183388000Y-108712000D02*
X183388000Y-85852000D01*
D23*
%TO.N,Net-(A1-Pad6)*%
X248412000Y-151892000D02*
X248412000Y-142748000D01*
X262362001Y-137252001D02*
X262362001Y-135108001D01*
X258513982Y-141100020D02*
X262362001Y-137252001D01*
X248412000Y-142748000D02*
X250059980Y-141100020D01*
X250059980Y-141100020D02*
X258513982Y-141100020D01*
X262362001Y-135108001D02*
X262382000Y-135088002D01*
X262382000Y-135088002D02*
X262382000Y-124714000D01*
X263906000Y-123190000D02*
X271018000Y-123190000D01*
X262382000Y-124714000D02*
X263906000Y-123190000D01*
X271018000Y-123190000D02*
X272034000Y-123190000D01*
%TO.N,state_up*%
X203532000Y-135382000D02*
X211712076Y-135382000D01*
X202184000Y-132334000D02*
X202184000Y-134034000D01*
X202184000Y-134034000D02*
X203532000Y-135382000D01*
X211712076Y-135382000D02*
X212598000Y-136267924D01*
X270472001Y-152691999D02*
X271272000Y-151892000D01*
X266569980Y-156594020D02*
X270472001Y-152691999D01*
X216590094Y-156594020D02*
X266569980Y-156594020D01*
X212598000Y-152601926D02*
X216590094Y-156594020D01*
X212598000Y-136267924D02*
X212598000Y-152601926D01*
%TO.N,state_down*%
X207264000Y-132734000D02*
X207264000Y-132334000D01*
X209150000Y-134620000D02*
X207264000Y-132734000D01*
X268732000Y-151892000D02*
X264729990Y-155894010D01*
X264729990Y-155894010D02*
X216880047Y-155894010D01*
X216880047Y-155894010D02*
X213421990Y-152435953D01*
X213421990Y-152435953D02*
X213421990Y-136101952D01*
X213421990Y-136101952D02*
X211940038Y-134620000D01*
X211940038Y-134620000D02*
X209150000Y-134620000D01*
%TO.N,soft_reset*%
X245872000Y-153416000D02*
X244094000Y-155194000D01*
X245872000Y-151892000D02*
X245872000Y-153416000D01*
X244094000Y-155194000D02*
X217170000Y-155194000D01*
X217170000Y-155194000D02*
X214122000Y-152146000D01*
X214122000Y-152146000D02*
X214122000Y-135812000D01*
X212344000Y-134034000D02*
X212344000Y-132334000D01*
X214122000Y-135812000D02*
X212344000Y-134034000D01*
%TD*%
D25*
%TO.N,GND*%
G36*
X275707869Y-81954722D02*
G01*
X275821246Y-81988953D01*
X275925819Y-82044555D01*
X276017596Y-82119407D01*
X276093091Y-82210664D01*
X276149419Y-82314844D01*
X276184440Y-82427976D01*
X276200001Y-82576031D01*
X276200000Y-156431719D01*
X276190115Y-156532531D01*
X276170211Y-156598458D01*
X276137885Y-156659255D01*
X276094362Y-156712618D01*
X276041300Y-156756515D01*
X275980727Y-156789266D01*
X275914947Y-156809628D01*
X275816269Y-156820000D01*
X267595578Y-156820000D01*
X271098704Y-153316875D01*
X271201508Y-153327000D01*
X271342492Y-153327000D01*
X271553309Y-153306236D01*
X271823808Y-153224182D01*
X272073101Y-153090932D01*
X272291608Y-152911608D01*
X272470932Y-152693101D01*
X272604182Y-152443808D01*
X272686236Y-152173309D01*
X272713943Y-151892000D01*
X272686236Y-151610691D01*
X272604182Y-151340192D01*
X272470932Y-151090899D01*
X272291608Y-150872392D01*
X272073101Y-150693068D01*
X271823808Y-150559818D01*
X271553309Y-150477764D01*
X271342492Y-150457000D01*
X271201508Y-150457000D01*
X270990691Y-150477764D01*
X270720192Y-150559818D01*
X270470899Y-150693068D01*
X270252392Y-150872392D01*
X270073068Y-151090899D01*
X270002000Y-151223858D01*
X269930932Y-151090899D01*
X269751608Y-150872392D01*
X269533101Y-150693068D01*
X269283808Y-150559818D01*
X269013309Y-150477764D01*
X268802492Y-150457000D01*
X268661508Y-150457000D01*
X268450691Y-150477764D01*
X268180192Y-150559818D01*
X267930899Y-150693068D01*
X267712392Y-150872392D01*
X267533068Y-151090899D01*
X267462000Y-151223858D01*
X267390932Y-151090899D01*
X267211608Y-150872392D01*
X266993101Y-150693068D01*
X266743808Y-150559818D01*
X266473309Y-150477764D01*
X266262492Y-150457000D01*
X266121508Y-150457000D01*
X265910691Y-150477764D01*
X265640192Y-150559818D01*
X265390899Y-150693068D01*
X265172392Y-150872392D01*
X264993068Y-151090899D01*
X264922000Y-151223858D01*
X264850932Y-151090899D01*
X264671608Y-150872392D01*
X264453101Y-150693068D01*
X264203808Y-150559818D01*
X263933309Y-150477764D01*
X263722492Y-150457000D01*
X263581508Y-150457000D01*
X263370691Y-150477764D01*
X263100192Y-150559818D01*
X262850899Y-150693068D01*
X262632392Y-150872392D01*
X262453068Y-151090899D01*
X262382000Y-151223858D01*
X262310932Y-151090899D01*
X262131608Y-150872392D01*
X261913101Y-150693068D01*
X261663808Y-150559818D01*
X261393309Y-150477764D01*
X261182492Y-150457000D01*
X261041508Y-150457000D01*
X260830691Y-150477764D01*
X260560192Y-150559818D01*
X260310899Y-150693068D01*
X260092392Y-150872392D01*
X259913068Y-151090899D01*
X259842000Y-151223858D01*
X259770932Y-151090899D01*
X259591608Y-150872392D01*
X259373101Y-150693068D01*
X259123808Y-150559818D01*
X258853309Y-150477764D01*
X258642492Y-150457000D01*
X258501508Y-150457000D01*
X258290691Y-150477764D01*
X258020192Y-150559818D01*
X257770899Y-150693068D01*
X257552392Y-150872392D01*
X257373068Y-151090899D01*
X257302000Y-151223858D01*
X257230932Y-151090899D01*
X257051608Y-150872392D01*
X256833101Y-150693068D01*
X256583808Y-150559818D01*
X256313309Y-150477764D01*
X256102492Y-150457000D01*
X255961508Y-150457000D01*
X255750691Y-150477764D01*
X255480192Y-150559818D01*
X255230899Y-150693068D01*
X255012392Y-150872392D01*
X254833068Y-151090899D01*
X254762000Y-151223858D01*
X254690932Y-151090899D01*
X254511608Y-150872392D01*
X254293101Y-150693068D01*
X254043808Y-150559818D01*
X253773309Y-150477764D01*
X253562492Y-150457000D01*
X253421508Y-150457000D01*
X253210691Y-150477764D01*
X252940192Y-150559818D01*
X252690899Y-150693068D01*
X252472392Y-150872392D01*
X252293068Y-151090899D01*
X252222000Y-151223858D01*
X252150932Y-151090899D01*
X251971608Y-150872392D01*
X251753101Y-150693068D01*
X251503808Y-150559818D01*
X251233309Y-150477764D01*
X251022492Y-150457000D01*
X250881508Y-150457000D01*
X250670691Y-150477764D01*
X250400192Y-150559818D01*
X250150899Y-150693068D01*
X249932392Y-150872392D01*
X249753068Y-151090899D01*
X249682000Y-151223858D01*
X249610932Y-151090899D01*
X249431608Y-150872392D01*
X249297000Y-150761922D01*
X249297000Y-143114578D01*
X250426559Y-141985020D01*
X258470513Y-141985020D01*
X258513982Y-141989301D01*
X258557451Y-141985020D01*
X258557459Y-141985020D01*
X258687472Y-141972215D01*
X258854295Y-141921609D01*
X259008041Y-141839431D01*
X259142799Y-141728837D01*
X259170516Y-141695064D01*
X262957051Y-137908530D01*
X262957684Y-137908010D01*
X263100192Y-137984182D01*
X263370691Y-138066236D01*
X263581508Y-138087000D01*
X263722492Y-138087000D01*
X263933309Y-138066236D01*
X264203808Y-137984182D01*
X264453101Y-137850932D01*
X264671608Y-137671608D01*
X264850932Y-137453101D01*
X264922000Y-137320142D01*
X264993068Y-137453101D01*
X265172392Y-137671608D01*
X265390899Y-137850932D01*
X265640192Y-137984182D01*
X265910691Y-138066236D01*
X266121508Y-138087000D01*
X266262492Y-138087000D01*
X266473309Y-138066236D01*
X266743808Y-137984182D01*
X266993101Y-137850932D01*
X267211608Y-137671608D01*
X267390932Y-137453101D01*
X267462000Y-137320142D01*
X267533068Y-137453101D01*
X267712392Y-137671608D01*
X267930899Y-137850932D01*
X268180192Y-137984182D01*
X268450691Y-138066236D01*
X268661508Y-138087000D01*
X268802492Y-138087000D01*
X269013309Y-138066236D01*
X269283808Y-137984182D01*
X269533101Y-137850932D01*
X269751608Y-137671608D01*
X269930932Y-137453101D01*
X270002000Y-137320142D01*
X270073068Y-137453101D01*
X270252392Y-137671608D01*
X270470899Y-137850932D01*
X270720192Y-137984182D01*
X270990691Y-138066236D01*
X271201508Y-138087000D01*
X271342492Y-138087000D01*
X271553309Y-138066236D01*
X271823808Y-137984182D01*
X272073101Y-137850932D01*
X272291608Y-137671608D01*
X272470932Y-137453101D01*
X272604182Y-137203808D01*
X272686236Y-136933309D01*
X272713943Y-136652000D01*
X272686236Y-136370691D01*
X272604182Y-136100192D01*
X272470932Y-135850899D01*
X272291608Y-135632392D01*
X272073101Y-135453068D01*
X271823808Y-135319818D01*
X271553309Y-135237764D01*
X271342492Y-135217000D01*
X271201508Y-135217000D01*
X270990691Y-135237764D01*
X270720192Y-135319818D01*
X270470899Y-135453068D01*
X270252392Y-135632392D01*
X270073068Y-135850899D01*
X270002000Y-135983858D01*
X269930932Y-135850899D01*
X269751608Y-135632392D01*
X269533101Y-135453068D01*
X269283808Y-135319818D01*
X269013309Y-135237764D01*
X268802492Y-135217000D01*
X268661508Y-135217000D01*
X268450691Y-135237764D01*
X268180192Y-135319818D01*
X267930899Y-135453068D01*
X267712392Y-135632392D01*
X267533068Y-135850899D01*
X267462000Y-135983858D01*
X267390932Y-135850899D01*
X267211608Y-135632392D01*
X266993101Y-135453068D01*
X266743808Y-135319818D01*
X266473309Y-135237764D01*
X266262492Y-135217000D01*
X266121508Y-135217000D01*
X265910691Y-135237764D01*
X265640192Y-135319818D01*
X265390899Y-135453068D01*
X265172392Y-135632392D01*
X264993068Y-135850899D01*
X264922000Y-135983858D01*
X264850932Y-135850899D01*
X264671608Y-135632392D01*
X264453101Y-135453068D01*
X264203808Y-135319818D01*
X263933309Y-135237764D01*
X263722492Y-135217000D01*
X263581508Y-135217000D01*
X263370691Y-135237764D01*
X263250316Y-135274279D01*
X263254195Y-135261492D01*
X263267000Y-135131479D01*
X263267000Y-135131471D01*
X263271281Y-135088002D01*
X263267000Y-135044533D01*
X263267000Y-126086890D01*
X270592524Y-126086890D01*
X270637175Y-126234099D01*
X270762359Y-126496920D01*
X270936412Y-126730269D01*
X271152645Y-126925178D01*
X271402748Y-127074157D01*
X271677109Y-127171481D01*
X271907000Y-127050814D01*
X271907000Y-125857000D01*
X272161000Y-125857000D01*
X272161000Y-127050814D01*
X272390891Y-127171481D01*
X272665252Y-127074157D01*
X272915355Y-126925178D01*
X273131588Y-126730269D01*
X273305641Y-126496920D01*
X273430825Y-126234099D01*
X273475476Y-126086890D01*
X273354155Y-125857000D01*
X272161000Y-125857000D01*
X271907000Y-125857000D01*
X270713845Y-125857000D01*
X270592524Y-126086890D01*
X263267000Y-126086890D01*
X263267000Y-125080578D01*
X264272579Y-124075000D01*
X270839241Y-124075000D01*
X270978866Y-124245134D01*
X271204986Y-124430706D01*
X271269523Y-124465201D01*
X271152645Y-124534822D01*
X270936412Y-124729731D01*
X270762359Y-124963080D01*
X270637175Y-125225901D01*
X270592524Y-125373110D01*
X270713845Y-125603000D01*
X271907000Y-125603000D01*
X271907000Y-125583000D01*
X272161000Y-125583000D01*
X272161000Y-125603000D01*
X273354155Y-125603000D01*
X273475476Y-125373110D01*
X273430825Y-125225901D01*
X273305641Y-124963080D01*
X273131588Y-124729731D01*
X272915355Y-124534822D01*
X272798477Y-124465201D01*
X272863014Y-124430706D01*
X273089134Y-124245134D01*
X273274706Y-124019014D01*
X273412599Y-123761034D01*
X273497513Y-123481111D01*
X273526185Y-123190000D01*
X273497513Y-122898889D01*
X273412599Y-122618966D01*
X273274706Y-122360986D01*
X273089134Y-122134866D01*
X273059313Y-122110393D01*
X273128180Y-122089502D01*
X273238494Y-122030537D01*
X273335185Y-121951185D01*
X273414537Y-121854494D01*
X273473502Y-121744180D01*
X273509812Y-121624482D01*
X273522072Y-121500000D01*
X273522072Y-119800000D01*
X273509812Y-119675518D01*
X273473502Y-119555820D01*
X273414537Y-119445506D01*
X273335185Y-119348815D01*
X273238494Y-119269463D01*
X273128180Y-119210498D01*
X273008482Y-119174188D01*
X272884000Y-119161928D01*
X271184000Y-119161928D01*
X271059518Y-119174188D01*
X270939820Y-119210498D01*
X270829506Y-119269463D01*
X270732815Y-119348815D01*
X270653463Y-119445506D01*
X270594498Y-119555820D01*
X270558188Y-119675518D01*
X270545928Y-119800000D01*
X270545928Y-121500000D01*
X270558188Y-121624482D01*
X270594498Y-121744180D01*
X270653463Y-121854494D01*
X270732815Y-121951185D01*
X270829506Y-122030537D01*
X270939820Y-122089502D01*
X271008687Y-122110393D01*
X270978866Y-122134866D01*
X270839241Y-122305000D01*
X263949465Y-122305000D01*
X263905999Y-122300719D01*
X263862533Y-122305000D01*
X263862523Y-122305000D01*
X263732510Y-122317805D01*
X263565687Y-122368411D01*
X263411941Y-122450589D01*
X263411939Y-122450590D01*
X263411940Y-122450590D01*
X263310953Y-122533468D01*
X263310951Y-122533470D01*
X263277183Y-122561183D01*
X263249470Y-122594951D01*
X261786951Y-124057471D01*
X261753184Y-124085183D01*
X261725471Y-124118951D01*
X261725468Y-124118954D01*
X261642590Y-124219941D01*
X261560412Y-124373687D01*
X261509805Y-124540510D01*
X261492719Y-124714000D01*
X261497001Y-124757479D01*
X261497000Y-134910796D01*
X261489806Y-134934511D01*
X261472720Y-135108001D01*
X261477002Y-135151480D01*
X261477002Y-135263152D01*
X261393309Y-135237764D01*
X261182492Y-135217000D01*
X261041508Y-135217000D01*
X260830691Y-135237764D01*
X260707001Y-135275285D01*
X260707001Y-132383507D01*
X260711282Y-132340038D01*
X260707001Y-132296569D01*
X260707001Y-132296561D01*
X260694196Y-132166548D01*
X260672560Y-132095226D01*
X260643590Y-131999724D01*
X260561412Y-131845979D01*
X260478533Y-131744991D01*
X260478531Y-131744989D01*
X260450818Y-131711221D01*
X260417050Y-131683508D01*
X255708487Y-126974946D01*
X255680770Y-126941173D01*
X255546012Y-126830579D01*
X255392266Y-126748401D01*
X255225443Y-126697795D01*
X255095430Y-126684990D01*
X255095422Y-126684990D01*
X255051953Y-126680709D01*
X255008484Y-126684990D01*
X186330531Y-126684990D01*
X185035000Y-125389460D01*
X185035000Y-124243509D01*
X198209000Y-124243509D01*
X198209000Y-125184492D01*
X198229764Y-125395309D01*
X198311818Y-125665808D01*
X198445068Y-125915101D01*
X198624393Y-126133608D01*
X198842900Y-126312932D01*
X199092193Y-126446182D01*
X199362692Y-126528236D01*
X199644000Y-126555943D01*
X199925309Y-126528236D01*
X200195808Y-126446182D01*
X200445101Y-126312932D01*
X200663608Y-126133608D01*
X200842932Y-125915101D01*
X200914000Y-125782142D01*
X200985068Y-125915101D01*
X201164393Y-126133608D01*
X201382900Y-126312932D01*
X201632193Y-126446182D01*
X201902692Y-126528236D01*
X202184000Y-126555943D01*
X202465309Y-126528236D01*
X202735808Y-126446182D01*
X202985101Y-126312932D01*
X203203608Y-126133608D01*
X203382932Y-125915101D01*
X203454000Y-125782142D01*
X203525068Y-125915101D01*
X203704393Y-126133608D01*
X203922900Y-126312932D01*
X204172193Y-126446182D01*
X204442692Y-126528236D01*
X204724000Y-126555943D01*
X205005309Y-126528236D01*
X205275808Y-126446182D01*
X205525101Y-126312932D01*
X205743608Y-126133608D01*
X205922932Y-125915101D01*
X205994000Y-125782142D01*
X206065068Y-125915101D01*
X206244393Y-126133608D01*
X206462900Y-126312932D01*
X206712193Y-126446182D01*
X206982692Y-126528236D01*
X207264000Y-126555943D01*
X207545309Y-126528236D01*
X207815808Y-126446182D01*
X208065101Y-126312932D01*
X208283608Y-126133608D01*
X208462932Y-125915101D01*
X208534000Y-125782142D01*
X208605068Y-125915101D01*
X208784393Y-126133608D01*
X209002900Y-126312932D01*
X209252193Y-126446182D01*
X209522692Y-126528236D01*
X209804000Y-126555943D01*
X210085309Y-126528236D01*
X210355808Y-126446182D01*
X210605101Y-126312932D01*
X210823608Y-126133608D01*
X211002932Y-125915101D01*
X211074000Y-125782142D01*
X211145068Y-125915101D01*
X211324393Y-126133608D01*
X211542900Y-126312932D01*
X211792193Y-126446182D01*
X212062692Y-126528236D01*
X212344000Y-126555943D01*
X212625309Y-126528236D01*
X212895808Y-126446182D01*
X213145101Y-126312932D01*
X213363608Y-126133608D01*
X213542932Y-125915101D01*
X213614000Y-125782142D01*
X213685068Y-125915101D01*
X213864393Y-126133608D01*
X214082900Y-126312932D01*
X214332193Y-126446182D01*
X214602692Y-126528236D01*
X214884000Y-126555943D01*
X215165309Y-126528236D01*
X215435808Y-126446182D01*
X215685101Y-126312932D01*
X215903608Y-126133608D01*
X216082932Y-125915101D01*
X216216182Y-125665808D01*
X216298236Y-125395309D01*
X216319000Y-125184491D01*
X216319000Y-124243508D01*
X216298236Y-124032691D01*
X216216182Y-123762192D01*
X216082932Y-123512899D01*
X215903607Y-123294392D01*
X215685100Y-123115068D01*
X215435807Y-122981818D01*
X215165308Y-122899764D01*
X214884000Y-122872057D01*
X214602691Y-122899764D01*
X214332192Y-122981818D01*
X214082899Y-123115068D01*
X213864392Y-123294393D01*
X213685068Y-123512900D01*
X213614000Y-123645858D01*
X213542932Y-123512899D01*
X213363607Y-123294392D01*
X213145100Y-123115068D01*
X212895807Y-122981818D01*
X212625308Y-122899764D01*
X212344000Y-122872057D01*
X212062691Y-122899764D01*
X211792192Y-122981818D01*
X211542899Y-123115068D01*
X211324392Y-123294393D01*
X211145068Y-123512900D01*
X211074000Y-123645858D01*
X211002932Y-123512899D01*
X210823607Y-123294392D01*
X210605100Y-123115068D01*
X210355807Y-122981818D01*
X210085308Y-122899764D01*
X209804000Y-122872057D01*
X209522691Y-122899764D01*
X209252192Y-122981818D01*
X209002899Y-123115068D01*
X208784392Y-123294393D01*
X208605068Y-123512900D01*
X208534000Y-123645858D01*
X208462932Y-123512899D01*
X208283607Y-123294392D01*
X208065100Y-123115068D01*
X207815807Y-122981818D01*
X207545308Y-122899764D01*
X207264000Y-122872057D01*
X206982691Y-122899764D01*
X206712192Y-122981818D01*
X206462899Y-123115068D01*
X206244392Y-123294393D01*
X206065068Y-123512900D01*
X205994000Y-123645858D01*
X205922932Y-123512899D01*
X205743607Y-123294392D01*
X205525100Y-123115068D01*
X205275807Y-122981818D01*
X205005308Y-122899764D01*
X204724000Y-122872057D01*
X204442691Y-122899764D01*
X204172192Y-122981818D01*
X203922899Y-123115068D01*
X203704392Y-123294393D01*
X203525068Y-123512900D01*
X203454000Y-123645858D01*
X203382932Y-123512899D01*
X203203607Y-123294392D01*
X202985100Y-123115068D01*
X202735807Y-122981818D01*
X202465308Y-122899764D01*
X202184000Y-122872057D01*
X201902691Y-122899764D01*
X201632192Y-122981818D01*
X201382899Y-123115068D01*
X201164392Y-123294393D01*
X200985068Y-123512900D01*
X200914000Y-123645858D01*
X200842932Y-123512899D01*
X200663607Y-123294392D01*
X200445100Y-123115068D01*
X200195807Y-122981818D01*
X199925308Y-122899764D01*
X199644000Y-122872057D01*
X199362691Y-122899764D01*
X199092192Y-122981818D01*
X198842899Y-123115068D01*
X198624392Y-123294393D01*
X198445068Y-123512900D01*
X198311818Y-123762193D01*
X198229764Y-124032692D01*
X198209000Y-124243509D01*
X185035000Y-124243509D01*
X185035000Y-117899721D01*
X188715000Y-117899721D01*
X188715000Y-118320279D01*
X188797047Y-118732756D01*
X188957988Y-119121302D01*
X189191637Y-119470983D01*
X189489017Y-119768363D01*
X189838698Y-120002012D01*
X190227244Y-120162953D01*
X190639721Y-120245000D01*
X191060279Y-120245000D01*
X191472756Y-120162953D01*
X191861302Y-120002012D01*
X192210983Y-119768363D01*
X192508363Y-119470983D01*
X192742012Y-119121302D01*
X192902953Y-118732756D01*
X192985000Y-118320279D01*
X192985000Y-118237000D01*
X220715000Y-118237000D01*
X220715000Y-118637000D01*
X220769271Y-118934023D01*
X220880446Y-119214751D01*
X221044252Y-119468396D01*
X221254394Y-119685210D01*
X221502796Y-119856862D01*
X221779913Y-119976755D01*
X221885260Y-120001036D01*
X222123000Y-119880378D01*
X222123000Y-118237000D01*
X220715000Y-118237000D01*
X192985000Y-118237000D01*
X192985000Y-117899721D01*
X192922001Y-117583000D01*
X220715000Y-117583000D01*
X220715000Y-117983000D01*
X222123000Y-117983000D01*
X222123000Y-116339622D01*
X222377000Y-116339622D01*
X222377000Y-117983000D01*
X222397000Y-117983000D01*
X222397000Y-118237000D01*
X222377000Y-118237000D01*
X222377000Y-119880378D01*
X222614740Y-120001036D01*
X222720087Y-119976755D01*
X222997204Y-119856862D01*
X223245606Y-119685210D01*
X223455748Y-119468396D01*
X223515219Y-119376308D01*
X223699339Y-119600661D01*
X223933073Y-119792481D01*
X224199739Y-119935017D01*
X224489087Y-120022790D01*
X224790000Y-120052427D01*
X225090912Y-120022790D01*
X225380260Y-119935017D01*
X225646926Y-119792481D01*
X225880661Y-119600661D01*
X226060000Y-119382135D01*
X226239339Y-119600661D01*
X226473073Y-119792481D01*
X226739739Y-119935017D01*
X227029087Y-120022790D01*
X227330000Y-120052427D01*
X227630912Y-120022790D01*
X227920260Y-119935017D01*
X228186926Y-119792481D01*
X228420661Y-119600661D01*
X228600000Y-119382135D01*
X228779339Y-119600661D01*
X229013073Y-119792481D01*
X229279739Y-119935017D01*
X229569087Y-120022790D01*
X229870000Y-120052427D01*
X230170912Y-120022790D01*
X230460260Y-119935017D01*
X230726926Y-119792481D01*
X230960661Y-119600661D01*
X231140000Y-119382135D01*
X231319339Y-119600661D01*
X231553073Y-119792481D01*
X231819739Y-119935017D01*
X232109087Y-120022790D01*
X232410000Y-120052427D01*
X232710912Y-120022790D01*
X233000260Y-119935017D01*
X233266926Y-119792481D01*
X233500661Y-119600661D01*
X233680000Y-119382135D01*
X233859339Y-119600661D01*
X234093073Y-119792481D01*
X234359739Y-119935017D01*
X234649087Y-120022790D01*
X234950000Y-120052427D01*
X235250912Y-120022790D01*
X235540260Y-119935017D01*
X235806926Y-119792481D01*
X236040661Y-119600661D01*
X236220000Y-119382135D01*
X236399339Y-119600661D01*
X236633073Y-119792481D01*
X236899739Y-119935017D01*
X237189087Y-120022790D01*
X237490000Y-120052427D01*
X237790912Y-120022790D01*
X238080260Y-119935017D01*
X238346926Y-119792481D01*
X238580661Y-119600661D01*
X238760000Y-119382135D01*
X238939339Y-119600661D01*
X239173073Y-119792481D01*
X239439739Y-119935017D01*
X239729087Y-120022790D01*
X240030000Y-120052427D01*
X240330912Y-120022790D01*
X240620260Y-119935017D01*
X240886926Y-119792481D01*
X241120661Y-119600661D01*
X241300000Y-119382135D01*
X241479339Y-119600661D01*
X241713073Y-119792481D01*
X241979739Y-119935017D01*
X242269087Y-120022790D01*
X242570000Y-120052427D01*
X242870912Y-120022790D01*
X243160260Y-119935017D01*
X243426926Y-119792481D01*
X243660661Y-119600661D01*
X243840000Y-119382135D01*
X244019339Y-119600661D01*
X244253073Y-119792481D01*
X244519739Y-119935017D01*
X244809087Y-120022790D01*
X245110000Y-120052427D01*
X245410912Y-120022790D01*
X245414801Y-120021610D01*
X245384774Y-120094102D01*
X245345000Y-120294061D01*
X245345000Y-120497939D01*
X245384774Y-120697898D01*
X245462795Y-120886256D01*
X245576063Y-121055774D01*
X245720226Y-121199937D01*
X245889744Y-121313205D01*
X246078102Y-121391226D01*
X246134957Y-121402535D01*
X246231466Y-121499044D01*
X246259183Y-121532817D01*
X246393941Y-121643411D01*
X246547687Y-121725589D01*
X246714510Y-121776195D01*
X246844523Y-121789000D01*
X246844533Y-121789000D01*
X246887999Y-121793281D01*
X246931465Y-121789000D01*
X256772531Y-121789000D01*
X256816000Y-121793281D01*
X256859469Y-121789000D01*
X256859477Y-121789000D01*
X256989490Y-121776195D01*
X257156313Y-121725589D01*
X257310059Y-121643411D01*
X257444817Y-121532817D01*
X257472534Y-121499044D01*
X258405049Y-120566530D01*
X258438817Y-120538817D01*
X258549411Y-120404059D01*
X258631589Y-120250313D01*
X258682195Y-120083490D01*
X258695000Y-119953477D01*
X258695000Y-119953467D01*
X258699281Y-119910001D01*
X258695000Y-119866535D01*
X258695000Y-119769441D01*
X258855505Y-119637720D01*
X258860498Y-119654180D01*
X258919463Y-119764494D01*
X258998815Y-119861185D01*
X259095506Y-119940537D01*
X259205820Y-119999502D01*
X259325518Y-120035812D01*
X259450000Y-120048072D01*
X260064250Y-120045000D01*
X260223000Y-119886250D01*
X260223000Y-118237000D01*
X260477000Y-118237000D01*
X260477000Y-119886250D01*
X260635750Y-120045000D01*
X261250000Y-120048072D01*
X261374482Y-120035812D01*
X261494180Y-119999502D01*
X261604494Y-119940537D01*
X261701185Y-119861185D01*
X261780537Y-119764494D01*
X261839502Y-119654180D01*
X261875812Y-119534482D01*
X261888072Y-119410000D01*
X261885000Y-118395750D01*
X261726250Y-118237000D01*
X260477000Y-118237000D01*
X260223000Y-118237000D01*
X260203000Y-118237000D01*
X260203000Y-117983000D01*
X260223000Y-117983000D01*
X260223000Y-116333750D01*
X260477000Y-116333750D01*
X260477000Y-117983000D01*
X261726250Y-117983000D01*
X261809529Y-117899721D01*
X263714100Y-117899721D01*
X263714100Y-118320279D01*
X263796147Y-118732756D01*
X263957088Y-119121302D01*
X264190737Y-119470983D01*
X264488117Y-119768363D01*
X264837798Y-120002012D01*
X265226344Y-120162953D01*
X265638821Y-120245000D01*
X266059379Y-120245000D01*
X266471856Y-120162953D01*
X266860402Y-120002012D01*
X267210083Y-119768363D01*
X267507463Y-119470983D01*
X267741112Y-119121302D01*
X267902053Y-118732756D01*
X267984100Y-118320279D01*
X267984100Y-117899721D01*
X267902053Y-117487244D01*
X267741112Y-117098698D01*
X267507463Y-116749017D01*
X267210083Y-116451637D01*
X266860402Y-116217988D01*
X266471856Y-116057047D01*
X266059379Y-115975000D01*
X265638821Y-115975000D01*
X265226344Y-116057047D01*
X264837798Y-116217988D01*
X264488117Y-116451637D01*
X264190737Y-116749017D01*
X263957088Y-117098698D01*
X263796147Y-117487244D01*
X263714100Y-117899721D01*
X261809529Y-117899721D01*
X261885000Y-117824250D01*
X261888072Y-116810000D01*
X261875812Y-116685518D01*
X261839502Y-116565820D01*
X261780537Y-116455506D01*
X261701185Y-116358815D01*
X261604494Y-116279463D01*
X261494180Y-116220498D01*
X261374482Y-116184188D01*
X261250000Y-116171928D01*
X260635750Y-116175000D01*
X260477000Y-116333750D01*
X260223000Y-116333750D01*
X260064250Y-116175000D01*
X259450000Y-116171928D01*
X259325518Y-116184188D01*
X259205820Y-116220498D01*
X259095506Y-116279463D01*
X258998815Y-116358815D01*
X258919463Y-116455506D01*
X258860498Y-116565820D01*
X258855505Y-116582280D01*
X258666927Y-116427519D01*
X258400261Y-116284983D01*
X258110913Y-116197210D01*
X257810000Y-116167573D01*
X257509088Y-116197210D01*
X257219740Y-116284983D01*
X256953074Y-116427519D01*
X256719339Y-116619339D01*
X256540000Y-116837865D01*
X256360661Y-116619339D01*
X256126927Y-116427519D01*
X255860261Y-116284983D01*
X255570913Y-116197210D01*
X255270000Y-116167573D01*
X254969088Y-116197210D01*
X254679740Y-116284983D01*
X254413074Y-116427519D01*
X254179339Y-116619339D01*
X254000000Y-116837865D01*
X253820661Y-116619339D01*
X253586927Y-116427519D01*
X253320261Y-116284983D01*
X253030913Y-116197210D01*
X252730000Y-116167573D01*
X252429088Y-116197210D01*
X252139740Y-116284983D01*
X251873074Y-116427519D01*
X251639339Y-116619339D01*
X251460000Y-116837865D01*
X251280661Y-116619339D01*
X251046927Y-116427519D01*
X250780261Y-116284983D01*
X250490913Y-116197210D01*
X250190000Y-116167573D01*
X249889088Y-116197210D01*
X249599740Y-116284983D01*
X249333074Y-116427519D01*
X249099339Y-116619339D01*
X248920000Y-116837865D01*
X248740661Y-116619339D01*
X248506927Y-116427519D01*
X248240261Y-116284983D01*
X247950913Y-116197210D01*
X247650000Y-116167573D01*
X247349088Y-116197210D01*
X247059740Y-116284983D01*
X246793074Y-116427519D01*
X246559339Y-116619339D01*
X246380000Y-116837865D01*
X246200661Y-116619339D01*
X245966927Y-116427519D01*
X245700261Y-116284983D01*
X245410913Y-116197210D01*
X245110000Y-116167573D01*
X244809088Y-116197210D01*
X244519740Y-116284983D01*
X244253074Y-116427519D01*
X244019339Y-116619339D01*
X243840000Y-116837865D01*
X243660661Y-116619339D01*
X243426927Y-116427519D01*
X243160261Y-116284983D01*
X242870913Y-116197210D01*
X242570000Y-116167573D01*
X242269088Y-116197210D01*
X241979740Y-116284983D01*
X241713074Y-116427519D01*
X241479339Y-116619339D01*
X241300000Y-116837865D01*
X241120661Y-116619339D01*
X240886927Y-116427519D01*
X240620261Y-116284983D01*
X240330913Y-116197210D01*
X240030000Y-116167573D01*
X239729088Y-116197210D01*
X239439740Y-116284983D01*
X239173074Y-116427519D01*
X238939339Y-116619339D01*
X238760000Y-116837865D01*
X238580661Y-116619339D01*
X238346927Y-116427519D01*
X238080261Y-116284983D01*
X237790913Y-116197210D01*
X237490000Y-116167573D01*
X237189088Y-116197210D01*
X236899740Y-116284983D01*
X236633074Y-116427519D01*
X236399339Y-116619339D01*
X236220000Y-116837865D01*
X236040661Y-116619339D01*
X235806927Y-116427519D01*
X235540261Y-116284983D01*
X235250913Y-116197210D01*
X234950000Y-116167573D01*
X234649088Y-116197210D01*
X234359740Y-116284983D01*
X234093074Y-116427519D01*
X233859339Y-116619339D01*
X233680000Y-116837865D01*
X233500661Y-116619339D01*
X233266927Y-116427519D01*
X233000261Y-116284983D01*
X232710913Y-116197210D01*
X232410000Y-116167573D01*
X232109088Y-116197210D01*
X231819740Y-116284983D01*
X231553074Y-116427519D01*
X231319339Y-116619339D01*
X231140000Y-116837865D01*
X230960661Y-116619339D01*
X230726927Y-116427519D01*
X230460261Y-116284983D01*
X230170913Y-116197210D01*
X229870000Y-116167573D01*
X229569088Y-116197210D01*
X229279740Y-116284983D01*
X229013074Y-116427519D01*
X228779339Y-116619339D01*
X228600000Y-116837865D01*
X228420661Y-116619339D01*
X228186927Y-116427519D01*
X227920261Y-116284983D01*
X227630913Y-116197210D01*
X227330000Y-116167573D01*
X227029088Y-116197210D01*
X226739740Y-116284983D01*
X226473074Y-116427519D01*
X226239339Y-116619339D01*
X226060000Y-116837865D01*
X225880661Y-116619339D01*
X225646927Y-116427519D01*
X225380261Y-116284983D01*
X225090913Y-116197210D01*
X224790000Y-116167573D01*
X224489088Y-116197210D01*
X224199740Y-116284983D01*
X223933074Y-116427519D01*
X223699339Y-116619339D01*
X223515219Y-116843691D01*
X223455748Y-116751604D01*
X223245606Y-116534790D01*
X222997204Y-116363138D01*
X222720087Y-116243245D01*
X222614740Y-116218964D01*
X222377000Y-116339622D01*
X222123000Y-116339622D01*
X221885260Y-116218964D01*
X221779913Y-116243245D01*
X221502796Y-116363138D01*
X221254394Y-116534790D01*
X221044252Y-116751604D01*
X220880446Y-117005249D01*
X220769271Y-117285977D01*
X220715000Y-117583000D01*
X192922001Y-117583000D01*
X192902953Y-117487244D01*
X192742012Y-117098698D01*
X192508363Y-116749017D01*
X192210983Y-116451637D01*
X191861302Y-116217988D01*
X191472756Y-116057047D01*
X191060279Y-115975000D01*
X190639721Y-115975000D01*
X190227244Y-116057047D01*
X189838698Y-116217988D01*
X189489017Y-116451637D01*
X189191637Y-116749017D01*
X188957988Y-117098698D01*
X188797047Y-117487244D01*
X188715000Y-117899721D01*
X185035000Y-117899721D01*
X185035000Y-112634578D01*
X186523050Y-111146529D01*
X186556817Y-111118817D01*
X186667411Y-110984059D01*
X186749589Y-110830313D01*
X186800195Y-110663490D01*
X186813000Y-110533477D01*
X186813000Y-110533469D01*
X186817281Y-110490000D01*
X186813000Y-110446531D01*
X186813000Y-109906759D01*
X186983134Y-109767134D01*
X187168706Y-109541014D01*
X187306599Y-109283034D01*
X187391513Y-109003111D01*
X187420185Y-108712000D01*
X187391513Y-108420889D01*
X187306599Y-108140966D01*
X187168706Y-107882986D01*
X187063000Y-107754183D01*
X187063000Y-107129817D01*
X187168706Y-107001014D01*
X187306599Y-106743034D01*
X187391513Y-106463111D01*
X187420185Y-106172000D01*
X187391513Y-105880889D01*
X187306599Y-105600966D01*
X187168706Y-105342986D01*
X187063000Y-105214183D01*
X187063000Y-104589817D01*
X187168706Y-104461014D01*
X187306599Y-104203034D01*
X187391513Y-103923111D01*
X187420185Y-103632000D01*
X187391513Y-103340889D01*
X187306599Y-103060966D01*
X187168706Y-102802986D01*
X187063000Y-102674183D01*
X187063000Y-102257984D01*
X240967000Y-102257984D01*
X240967000Y-102974016D01*
X241106691Y-103676290D01*
X241380705Y-104337818D01*
X241778511Y-104933177D01*
X242284823Y-105439489D01*
X242880182Y-105837295D01*
X243541710Y-106111309D01*
X244243984Y-106251000D01*
X244960016Y-106251000D01*
X245662290Y-106111309D01*
X246323818Y-105837295D01*
X246919177Y-105439489D01*
X247425489Y-104933177D01*
X247823295Y-104337818D01*
X248097309Y-103676290D01*
X248237000Y-102974016D01*
X248237000Y-102257984D01*
X248097309Y-101555710D01*
X247823295Y-100894182D01*
X247425489Y-100298823D01*
X246919177Y-99792511D01*
X246323818Y-99394705D01*
X245662290Y-99120691D01*
X244960016Y-98981000D01*
X244243984Y-98981000D01*
X243541710Y-99120691D01*
X242880182Y-99394705D01*
X242284823Y-99792511D01*
X241778511Y-100298823D01*
X241380705Y-100894182D01*
X241106691Y-101555710D01*
X240967000Y-102257984D01*
X187063000Y-102257984D01*
X187063000Y-102049817D01*
X187168706Y-101921014D01*
X187306599Y-101663034D01*
X187391513Y-101383111D01*
X187420185Y-101092000D01*
X187391513Y-100800889D01*
X187306599Y-100520966D01*
X187168706Y-100262986D01*
X187063000Y-100134183D01*
X187063000Y-99509817D01*
X187168706Y-99381014D01*
X187306599Y-99123034D01*
X187391513Y-98843111D01*
X187420185Y-98552000D01*
X187391513Y-98260889D01*
X187306599Y-97980966D01*
X187168706Y-97722986D01*
X187138340Y-97685984D01*
X195501000Y-97685984D01*
X195501000Y-98402016D01*
X195640691Y-99104290D01*
X195914705Y-99765818D01*
X196312511Y-100361177D01*
X196818823Y-100867489D01*
X197414182Y-101265295D01*
X198075710Y-101539309D01*
X198777984Y-101679000D01*
X199494016Y-101679000D01*
X200196290Y-101539309D01*
X200857818Y-101265295D01*
X201453177Y-100867489D01*
X201959489Y-100361177D01*
X202357295Y-99765818D01*
X202631309Y-99104290D01*
X202771000Y-98402016D01*
X202771000Y-97685984D01*
X202631309Y-96983710D01*
X202357295Y-96322182D01*
X201959489Y-95726823D01*
X201453177Y-95220511D01*
X200857818Y-94822705D01*
X200196290Y-94548691D01*
X199494016Y-94409000D01*
X198777984Y-94409000D01*
X198075710Y-94548691D01*
X197414182Y-94822705D01*
X196818823Y-95220511D01*
X196312511Y-95726823D01*
X195914705Y-96322182D01*
X195640691Y-96983710D01*
X195501000Y-97685984D01*
X187138340Y-97685984D01*
X187063000Y-97594183D01*
X187063000Y-96969817D01*
X187168706Y-96841014D01*
X187306599Y-96583034D01*
X187391513Y-96303111D01*
X187420185Y-96012000D01*
X187391513Y-95720889D01*
X187306599Y-95440966D01*
X187168706Y-95182986D01*
X187063000Y-95054183D01*
X187063000Y-94429817D01*
X187168706Y-94301014D01*
X187306599Y-94043034D01*
X187391513Y-93763111D01*
X187420185Y-93472000D01*
X187391513Y-93180889D01*
X187306599Y-92900966D01*
X187168706Y-92642986D01*
X187063000Y-92514183D01*
X187063000Y-91889817D01*
X187168706Y-91761014D01*
X187306599Y-91503034D01*
X187391513Y-91223111D01*
X187420185Y-90932000D01*
X187391513Y-90640889D01*
X187306599Y-90360966D01*
X187168706Y-90102986D01*
X187063000Y-89974183D01*
X187063000Y-89349817D01*
X187168706Y-89221014D01*
X187306599Y-88963034D01*
X187391513Y-88683111D01*
X187420185Y-88392000D01*
X187391513Y-88100889D01*
X187306599Y-87820966D01*
X187168706Y-87562986D01*
X187063000Y-87434183D01*
X187063000Y-86899021D01*
X188715520Y-86899021D01*
X188715520Y-87319579D01*
X188797567Y-87732056D01*
X188958508Y-88120602D01*
X189192157Y-88470283D01*
X189489537Y-88767663D01*
X189839218Y-89001312D01*
X190227764Y-89162253D01*
X190640241Y-89244300D01*
X191060799Y-89244300D01*
X191473276Y-89162253D01*
X191861822Y-89001312D01*
X192211503Y-88767663D01*
X192508883Y-88470283D01*
X192742532Y-88120602D01*
X192903473Y-87732056D01*
X192985520Y-87319579D01*
X192985520Y-86899021D01*
X263714100Y-86899021D01*
X263714100Y-87319579D01*
X263796147Y-87732056D01*
X263957088Y-88120602D01*
X264190737Y-88470283D01*
X264488117Y-88767663D01*
X264837798Y-89001312D01*
X265226344Y-89162253D01*
X265638821Y-89244300D01*
X266059379Y-89244300D01*
X266471856Y-89162253D01*
X266860402Y-89001312D01*
X267210083Y-88767663D01*
X267507463Y-88470283D01*
X267559769Y-88392000D01*
X269525815Y-88392000D01*
X269554487Y-88683111D01*
X269639401Y-88963034D01*
X269777294Y-89221014D01*
X269962866Y-89447134D01*
X270188986Y-89632706D01*
X270243791Y-89662000D01*
X270188986Y-89691294D01*
X269962866Y-89876866D01*
X269777294Y-90102986D01*
X269639401Y-90360966D01*
X269554487Y-90640889D01*
X269525815Y-90932000D01*
X269554487Y-91223111D01*
X269639401Y-91503034D01*
X269777294Y-91761014D01*
X269962866Y-91987134D01*
X270188986Y-92172706D01*
X270243791Y-92202000D01*
X270188986Y-92231294D01*
X269962866Y-92416866D01*
X269777294Y-92642986D01*
X269639401Y-92900966D01*
X269554487Y-93180889D01*
X269525815Y-93472000D01*
X269554487Y-93763111D01*
X269639401Y-94043034D01*
X269777294Y-94301014D01*
X269962866Y-94527134D01*
X270188986Y-94712706D01*
X270243791Y-94742000D01*
X270188986Y-94771294D01*
X269962866Y-94956866D01*
X269777294Y-95182986D01*
X269639401Y-95440966D01*
X269554487Y-95720889D01*
X269525815Y-96012000D01*
X269554487Y-96303111D01*
X269639401Y-96583034D01*
X269777294Y-96841014D01*
X269962866Y-97067134D01*
X270188986Y-97252706D01*
X270243791Y-97282000D01*
X270188986Y-97311294D01*
X269962866Y-97496866D01*
X269777294Y-97722986D01*
X269639401Y-97980966D01*
X269554487Y-98260889D01*
X269525815Y-98552000D01*
X269554487Y-98843111D01*
X269639401Y-99123034D01*
X269777294Y-99381014D01*
X269962866Y-99607134D01*
X270188986Y-99792706D01*
X270243791Y-99822000D01*
X270188986Y-99851294D01*
X269962866Y-100036866D01*
X269777294Y-100262986D01*
X269639401Y-100520966D01*
X269554487Y-100800889D01*
X269525815Y-101092000D01*
X269554487Y-101383111D01*
X269639401Y-101663034D01*
X269777294Y-101921014D01*
X269962866Y-102147134D01*
X270188986Y-102332706D01*
X270243791Y-102362000D01*
X270188986Y-102391294D01*
X269962866Y-102576866D01*
X269777294Y-102802986D01*
X269639401Y-103060966D01*
X269554487Y-103340889D01*
X269525815Y-103632000D01*
X269554487Y-103923111D01*
X269639401Y-104203034D01*
X269777294Y-104461014D01*
X269962866Y-104687134D01*
X270188986Y-104872706D01*
X270243791Y-104902000D01*
X270188986Y-104931294D01*
X269962866Y-105116866D01*
X269777294Y-105342986D01*
X269639401Y-105600966D01*
X269554487Y-105880889D01*
X269525815Y-106172000D01*
X269554487Y-106463111D01*
X269639401Y-106743034D01*
X269777294Y-107001014D01*
X269962866Y-107227134D01*
X270188986Y-107412706D01*
X270243791Y-107442000D01*
X270188986Y-107471294D01*
X269962866Y-107656866D01*
X269777294Y-107882986D01*
X269639401Y-108140966D01*
X269554487Y-108420889D01*
X269525815Y-108712000D01*
X269554487Y-109003111D01*
X269639401Y-109283034D01*
X269777294Y-109541014D01*
X269962866Y-109767134D01*
X270188986Y-109952706D01*
X270446966Y-110090599D01*
X270726889Y-110175513D01*
X270945050Y-110197000D01*
X271090950Y-110197000D01*
X271309111Y-110175513D01*
X271589034Y-110090599D01*
X271847014Y-109952706D01*
X272073134Y-109767134D01*
X272258706Y-109541014D01*
X272289584Y-109483244D01*
X272460412Y-109712269D01*
X272676645Y-109907178D01*
X272926748Y-110056157D01*
X273201109Y-110153481D01*
X273431000Y-110032814D01*
X273431000Y-108839000D01*
X273685000Y-108839000D01*
X273685000Y-110032814D01*
X273914891Y-110153481D01*
X274189252Y-110056157D01*
X274439355Y-109907178D01*
X274655588Y-109712269D01*
X274829641Y-109478920D01*
X274954825Y-109216099D01*
X274999476Y-109068890D01*
X274878155Y-108839000D01*
X273685000Y-108839000D01*
X273431000Y-108839000D01*
X273411000Y-108839000D01*
X273411000Y-108585000D01*
X273431000Y-108585000D01*
X273431000Y-106299000D01*
X273685000Y-106299000D01*
X273685000Y-108585000D01*
X274878155Y-108585000D01*
X274999476Y-108355110D01*
X274954825Y-108207901D01*
X274829641Y-107945080D01*
X274655588Y-107711731D01*
X274439355Y-107516822D01*
X274313745Y-107442000D01*
X274439355Y-107367178D01*
X274655588Y-107172269D01*
X274829641Y-106938920D01*
X274954825Y-106676099D01*
X274999476Y-106528890D01*
X274878155Y-106299000D01*
X273685000Y-106299000D01*
X273431000Y-106299000D01*
X273411000Y-106299000D01*
X273411000Y-106045000D01*
X273431000Y-106045000D01*
X273431000Y-103759000D01*
X273685000Y-103759000D01*
X273685000Y-106045000D01*
X274878155Y-106045000D01*
X274999476Y-105815110D01*
X274954825Y-105667901D01*
X274829641Y-105405080D01*
X274655588Y-105171731D01*
X274439355Y-104976822D01*
X274313745Y-104902000D01*
X274439355Y-104827178D01*
X274655588Y-104632269D01*
X274829641Y-104398920D01*
X274954825Y-104136099D01*
X274999476Y-103988890D01*
X274878155Y-103759000D01*
X273685000Y-103759000D01*
X273431000Y-103759000D01*
X273411000Y-103759000D01*
X273411000Y-103505000D01*
X273431000Y-103505000D01*
X273431000Y-101219000D01*
X273685000Y-101219000D01*
X273685000Y-103505000D01*
X274878155Y-103505000D01*
X274999476Y-103275110D01*
X274954825Y-103127901D01*
X274829641Y-102865080D01*
X274655588Y-102631731D01*
X274439355Y-102436822D01*
X274313745Y-102362000D01*
X274439355Y-102287178D01*
X274655588Y-102092269D01*
X274829641Y-101858920D01*
X274954825Y-101596099D01*
X274999476Y-101448890D01*
X274878155Y-101219000D01*
X273685000Y-101219000D01*
X273431000Y-101219000D01*
X273411000Y-101219000D01*
X273411000Y-100965000D01*
X273431000Y-100965000D01*
X273431000Y-98679000D01*
X273685000Y-98679000D01*
X273685000Y-100965000D01*
X274878155Y-100965000D01*
X274999476Y-100735110D01*
X274954825Y-100587901D01*
X274829641Y-100325080D01*
X274655588Y-100091731D01*
X274439355Y-99896822D01*
X274313745Y-99822000D01*
X274439355Y-99747178D01*
X274655588Y-99552269D01*
X274829641Y-99318920D01*
X274954825Y-99056099D01*
X274999476Y-98908890D01*
X274878155Y-98679000D01*
X273685000Y-98679000D01*
X273431000Y-98679000D01*
X273411000Y-98679000D01*
X273411000Y-98425000D01*
X273431000Y-98425000D01*
X273431000Y-96139000D01*
X273685000Y-96139000D01*
X273685000Y-98425000D01*
X274878155Y-98425000D01*
X274999476Y-98195110D01*
X274954825Y-98047901D01*
X274829641Y-97785080D01*
X274655588Y-97551731D01*
X274439355Y-97356822D01*
X274313745Y-97282000D01*
X274439355Y-97207178D01*
X274655588Y-97012269D01*
X274829641Y-96778920D01*
X274954825Y-96516099D01*
X274999476Y-96368890D01*
X274878155Y-96139000D01*
X273685000Y-96139000D01*
X273431000Y-96139000D01*
X273411000Y-96139000D01*
X273411000Y-95885000D01*
X273431000Y-95885000D01*
X273431000Y-93599000D01*
X273685000Y-93599000D01*
X273685000Y-95885000D01*
X274878155Y-95885000D01*
X274999476Y-95655110D01*
X274954825Y-95507901D01*
X274829641Y-95245080D01*
X274655588Y-95011731D01*
X274439355Y-94816822D01*
X274313745Y-94742000D01*
X274439355Y-94667178D01*
X274655588Y-94472269D01*
X274829641Y-94238920D01*
X274954825Y-93976099D01*
X274999476Y-93828890D01*
X274878155Y-93599000D01*
X273685000Y-93599000D01*
X273431000Y-93599000D01*
X273411000Y-93599000D01*
X273411000Y-93345000D01*
X273431000Y-93345000D01*
X273431000Y-91059000D01*
X273685000Y-91059000D01*
X273685000Y-93345000D01*
X274878155Y-93345000D01*
X274999476Y-93115110D01*
X274954825Y-92967901D01*
X274829641Y-92705080D01*
X274655588Y-92471731D01*
X274439355Y-92276822D01*
X274313745Y-92202000D01*
X274439355Y-92127178D01*
X274655588Y-91932269D01*
X274829641Y-91698920D01*
X274954825Y-91436099D01*
X274999476Y-91288890D01*
X274878155Y-91059000D01*
X273685000Y-91059000D01*
X273431000Y-91059000D01*
X273411000Y-91059000D01*
X273411000Y-90805000D01*
X273431000Y-90805000D01*
X273431000Y-88519000D01*
X273685000Y-88519000D01*
X273685000Y-90805000D01*
X274878155Y-90805000D01*
X274999476Y-90575110D01*
X274954825Y-90427901D01*
X274829641Y-90165080D01*
X274655588Y-89931731D01*
X274439355Y-89736822D01*
X274313745Y-89662000D01*
X274439355Y-89587178D01*
X274655588Y-89392269D01*
X274829641Y-89158920D01*
X274954825Y-88896099D01*
X274999476Y-88748890D01*
X274878155Y-88519000D01*
X273685000Y-88519000D01*
X273431000Y-88519000D01*
X273411000Y-88519000D01*
X273411000Y-88265000D01*
X273431000Y-88265000D01*
X273431000Y-85979000D01*
X273685000Y-85979000D01*
X273685000Y-88265000D01*
X274878155Y-88265000D01*
X274999476Y-88035110D01*
X274954825Y-87887901D01*
X274829641Y-87625080D01*
X274655588Y-87391731D01*
X274439355Y-87196822D01*
X274313745Y-87122000D01*
X274439355Y-87047178D01*
X274655588Y-86852269D01*
X274829641Y-86618920D01*
X274954825Y-86356099D01*
X274999476Y-86208890D01*
X274878155Y-85979000D01*
X273685000Y-85979000D01*
X273431000Y-85979000D01*
X273411000Y-85979000D01*
X273411000Y-85725000D01*
X273431000Y-85725000D01*
X273431000Y-84531186D01*
X273685000Y-84531186D01*
X273685000Y-85725000D01*
X274878155Y-85725000D01*
X274999476Y-85495110D01*
X274954825Y-85347901D01*
X274829641Y-85085080D01*
X274655588Y-84851731D01*
X274439355Y-84656822D01*
X274189252Y-84507843D01*
X273914891Y-84410519D01*
X273685000Y-84531186D01*
X273431000Y-84531186D01*
X273201109Y-84410519D01*
X272926748Y-84507843D01*
X272676645Y-84656822D01*
X272480498Y-84833626D01*
X272457502Y-84757820D01*
X272398537Y-84647506D01*
X272319185Y-84550815D01*
X272222494Y-84471463D01*
X272112180Y-84412498D01*
X271992482Y-84376188D01*
X271868000Y-84363928D01*
X270168000Y-84363928D01*
X270043518Y-84376188D01*
X269923820Y-84412498D01*
X269813506Y-84471463D01*
X269716815Y-84550815D01*
X269637463Y-84647506D01*
X269578498Y-84757820D01*
X269542188Y-84877518D01*
X269529928Y-85002000D01*
X269529928Y-86702000D01*
X269542188Y-86826482D01*
X269578498Y-86946180D01*
X269637463Y-87056494D01*
X269716815Y-87153185D01*
X269813506Y-87232537D01*
X269923820Y-87291502D01*
X269992687Y-87312393D01*
X269962866Y-87336866D01*
X269777294Y-87562986D01*
X269639401Y-87820966D01*
X269554487Y-88100889D01*
X269525815Y-88392000D01*
X267559769Y-88392000D01*
X267741112Y-88120602D01*
X267902053Y-87732056D01*
X267984100Y-87319579D01*
X267984100Y-86899021D01*
X267902053Y-86486544D01*
X267741112Y-86097998D01*
X267507463Y-85748317D01*
X267210083Y-85450937D01*
X266860402Y-85217288D01*
X266471856Y-85056347D01*
X266059379Y-84974300D01*
X265638821Y-84974300D01*
X265226344Y-85056347D01*
X264837798Y-85217288D01*
X264488117Y-85450937D01*
X264190737Y-85748317D01*
X263957088Y-86097998D01*
X263796147Y-86486544D01*
X263714100Y-86899021D01*
X192985520Y-86899021D01*
X192903473Y-86486544D01*
X192742532Y-86097998D01*
X192508883Y-85748317D01*
X192211503Y-85450937D01*
X191861822Y-85217288D01*
X191473276Y-85056347D01*
X191060799Y-84974300D01*
X190640241Y-84974300D01*
X190227764Y-85056347D01*
X189839218Y-85217288D01*
X189489537Y-85450937D01*
X189192157Y-85748317D01*
X188958508Y-86097998D01*
X188797567Y-86486544D01*
X188715520Y-86899021D01*
X187063000Y-86899021D01*
X187063000Y-86809817D01*
X187168706Y-86681014D01*
X187306599Y-86423034D01*
X187391513Y-86143111D01*
X187420185Y-85852000D01*
X187391513Y-85560889D01*
X187306599Y-85280966D01*
X187168706Y-85022986D01*
X186983134Y-84796866D01*
X186757014Y-84611294D01*
X186499034Y-84473401D01*
X186219111Y-84388487D01*
X186000950Y-84367000D01*
X185855050Y-84367000D01*
X185636889Y-84388487D01*
X185356966Y-84473401D01*
X185098986Y-84611294D01*
X184872866Y-84796866D01*
X184848393Y-84826687D01*
X184827502Y-84757820D01*
X184768537Y-84647506D01*
X184689185Y-84550815D01*
X184592494Y-84471463D01*
X184482180Y-84412498D01*
X184362482Y-84376188D01*
X184238000Y-84363928D01*
X182538000Y-84363928D01*
X182413518Y-84376188D01*
X182293820Y-84412498D01*
X182183506Y-84471463D01*
X182086815Y-84550815D01*
X182007463Y-84647506D01*
X181948498Y-84757820D01*
X181912188Y-84877518D01*
X181899928Y-85002000D01*
X181899928Y-86702000D01*
X181912188Y-86826482D01*
X181948498Y-86946180D01*
X182007463Y-87056494D01*
X182086815Y-87153185D01*
X182183506Y-87232537D01*
X182253001Y-87269683D01*
X182253001Y-87434182D01*
X182147294Y-87562986D01*
X182009401Y-87820966D01*
X181924487Y-88100889D01*
X181895815Y-88392000D01*
X181924487Y-88683111D01*
X182009401Y-88963034D01*
X182147294Y-89221014D01*
X182253001Y-89349818D01*
X182253001Y-89974182D01*
X182147294Y-90102986D01*
X182009401Y-90360966D01*
X181924487Y-90640889D01*
X181895815Y-90932000D01*
X181924487Y-91223111D01*
X182009401Y-91503034D01*
X182147294Y-91761014D01*
X182253001Y-91889818D01*
X182253001Y-92514182D01*
X182147294Y-92642986D01*
X182009401Y-92900966D01*
X181924487Y-93180889D01*
X181895815Y-93472000D01*
X181924487Y-93763111D01*
X182009401Y-94043034D01*
X182147294Y-94301014D01*
X182253001Y-94429818D01*
X182253001Y-95054182D01*
X182147294Y-95182986D01*
X182009401Y-95440966D01*
X181924487Y-95720889D01*
X181895815Y-96012000D01*
X181924487Y-96303111D01*
X182009401Y-96583034D01*
X182147294Y-96841014D01*
X182253001Y-96969818D01*
X182253000Y-97594182D01*
X182147294Y-97722986D01*
X182009401Y-97980966D01*
X181924487Y-98260889D01*
X181895815Y-98552000D01*
X181924487Y-98843111D01*
X182009401Y-99123034D01*
X182147294Y-99381014D01*
X182253000Y-99509818D01*
X182253000Y-100134182D01*
X182147294Y-100262986D01*
X182009401Y-100520966D01*
X181924487Y-100800889D01*
X181895815Y-101092000D01*
X181924487Y-101383111D01*
X182009401Y-101663034D01*
X182147294Y-101921014D01*
X182253000Y-102049817D01*
X182253000Y-102674183D01*
X182147294Y-102802986D01*
X182009401Y-103060966D01*
X181924487Y-103340889D01*
X181895815Y-103632000D01*
X181924487Y-103923111D01*
X182009401Y-104203034D01*
X182147294Y-104461014D01*
X182253000Y-104589817D01*
X182253000Y-105214183D01*
X182147294Y-105342986D01*
X182009401Y-105600966D01*
X181924487Y-105880889D01*
X181895815Y-106172000D01*
X181924487Y-106463111D01*
X182009401Y-106743034D01*
X182147294Y-107001014D01*
X182253000Y-107129817D01*
X182253000Y-107754183D01*
X182147294Y-107882986D01*
X182009401Y-108140966D01*
X181924487Y-108420889D01*
X181895815Y-108712000D01*
X181924487Y-109003111D01*
X182009401Y-109283034D01*
X182147294Y-109541014D01*
X182332866Y-109767134D01*
X182503001Y-109906760D01*
X182503000Y-112083513D01*
X182503001Y-112083523D01*
X182503000Y-125940531D01*
X182498719Y-125984000D01*
X182503000Y-126027469D01*
X182503000Y-126027476D01*
X182515805Y-126157489D01*
X182566411Y-126324312D01*
X182648589Y-126478058D01*
X182759183Y-126612817D01*
X182792956Y-126640534D01*
X185017470Y-128865049D01*
X185045183Y-128898817D01*
X185078951Y-128926530D01*
X185078953Y-128926532D01*
X185150452Y-128985210D01*
X185179941Y-129009411D01*
X185333687Y-129091589D01*
X185500510Y-129142195D01*
X185630523Y-129155000D01*
X185630533Y-129155000D01*
X185673999Y-129159281D01*
X185717465Y-129155000D01*
X254395422Y-129155000D01*
X256437000Y-131196579D01*
X256436999Y-135275285D01*
X256313309Y-135237764D01*
X256102492Y-135217000D01*
X255961508Y-135217000D01*
X255750691Y-135237764D01*
X255480192Y-135319818D01*
X255230899Y-135453068D01*
X255012392Y-135632392D01*
X254833068Y-135850899D01*
X254762000Y-135983858D01*
X254690932Y-135850899D01*
X254511608Y-135632392D01*
X254293101Y-135453068D01*
X254043808Y-135319818D01*
X253773309Y-135237764D01*
X253562492Y-135217000D01*
X253421508Y-135217000D01*
X253210691Y-135237764D01*
X252940192Y-135319818D01*
X252690899Y-135453068D01*
X252472392Y-135632392D01*
X252293068Y-135850899D01*
X252222000Y-135983858D01*
X252150932Y-135850899D01*
X251971608Y-135632392D01*
X251753101Y-135453068D01*
X251503808Y-135319818D01*
X251233309Y-135237764D01*
X251022492Y-135217000D01*
X250881508Y-135217000D01*
X250670691Y-135237764D01*
X250400192Y-135319818D01*
X250150899Y-135453068D01*
X249932392Y-135632392D01*
X249753068Y-135850899D01*
X249682000Y-135983858D01*
X249610932Y-135850899D01*
X249431608Y-135632392D01*
X249213101Y-135453068D01*
X248963808Y-135319818D01*
X248693309Y-135237764D01*
X248482492Y-135217000D01*
X248341508Y-135217000D01*
X248130691Y-135237764D01*
X247860192Y-135319818D01*
X247610899Y-135453068D01*
X247392392Y-135632392D01*
X247213068Y-135850899D01*
X247142000Y-135983858D01*
X247070932Y-135850899D01*
X246891608Y-135632392D01*
X246673101Y-135453068D01*
X246423808Y-135319818D01*
X246153309Y-135237764D01*
X245942492Y-135217000D01*
X245801508Y-135217000D01*
X245590691Y-135237764D01*
X245320192Y-135319818D01*
X245070899Y-135453068D01*
X244852392Y-135632392D01*
X244673068Y-135850899D01*
X244602000Y-135983858D01*
X244530932Y-135850899D01*
X244351608Y-135632392D01*
X244133101Y-135453068D01*
X243883808Y-135319818D01*
X243613309Y-135237764D01*
X243402492Y-135217000D01*
X243261508Y-135217000D01*
X243050691Y-135237764D01*
X242780192Y-135319818D01*
X242530899Y-135453068D01*
X242312392Y-135632392D01*
X242133068Y-135850899D01*
X242062000Y-135983858D01*
X241990932Y-135850899D01*
X241811608Y-135632392D01*
X241593101Y-135453068D01*
X241343808Y-135319818D01*
X241073309Y-135237764D01*
X240862492Y-135217000D01*
X240721508Y-135217000D01*
X240510691Y-135237764D01*
X240240192Y-135319818D01*
X239990899Y-135453068D01*
X239772392Y-135632392D01*
X239593068Y-135850899D01*
X239519421Y-135988682D01*
X239404385Y-135796869D01*
X239215414Y-135588481D01*
X238989420Y-135420963D01*
X238735087Y-135300754D01*
X238601039Y-135260096D01*
X238379000Y-135382085D01*
X238379000Y-136525000D01*
X238399000Y-136525000D01*
X238399000Y-136779000D01*
X238379000Y-136779000D01*
X238379000Y-137921915D01*
X238601039Y-138043904D01*
X238735087Y-138003246D01*
X238989420Y-137883037D01*
X239215414Y-137715519D01*
X239404385Y-137507131D01*
X239519421Y-137315318D01*
X239593068Y-137453101D01*
X239772392Y-137671608D01*
X239990899Y-137850932D01*
X240240192Y-137984182D01*
X240510691Y-138066236D01*
X240721508Y-138087000D01*
X240862492Y-138087000D01*
X241073309Y-138066236D01*
X241343808Y-137984182D01*
X241593101Y-137850932D01*
X241811608Y-137671608D01*
X241990932Y-137453101D01*
X242062000Y-137320142D01*
X242133068Y-137453101D01*
X242312392Y-137671608D01*
X242530899Y-137850932D01*
X242780192Y-137984182D01*
X243050691Y-138066236D01*
X243261508Y-138087000D01*
X243402492Y-138087000D01*
X243613309Y-138066236D01*
X243883808Y-137984182D01*
X244133101Y-137850932D01*
X244351608Y-137671608D01*
X244530932Y-137453101D01*
X244602000Y-137320142D01*
X244673068Y-137453101D01*
X244852392Y-137671608D01*
X245070899Y-137850932D01*
X245320192Y-137984182D01*
X245590691Y-138066236D01*
X245801508Y-138087000D01*
X245942492Y-138087000D01*
X246153309Y-138066236D01*
X246423808Y-137984182D01*
X246673101Y-137850932D01*
X246891608Y-137671608D01*
X247070932Y-137453101D01*
X247142000Y-137320142D01*
X247213068Y-137453101D01*
X247392392Y-137671608D01*
X247610899Y-137850932D01*
X247860192Y-137984182D01*
X248130691Y-138066236D01*
X248341508Y-138087000D01*
X248482492Y-138087000D01*
X248693309Y-138066236D01*
X248963808Y-137984182D01*
X249213101Y-137850932D01*
X249431608Y-137671608D01*
X249610932Y-137453101D01*
X249682000Y-137320142D01*
X249753068Y-137453101D01*
X249932392Y-137671608D01*
X250063157Y-137778924D01*
X250062719Y-137783370D01*
X250079805Y-137956860D01*
X250130412Y-138123683D01*
X250212590Y-138277429D01*
X250295468Y-138378416D01*
X250295471Y-138378419D01*
X250323184Y-138412187D01*
X250356951Y-138439899D01*
X252132071Y-140215020D01*
X250103449Y-140215020D01*
X250059980Y-140210739D01*
X250016511Y-140215020D01*
X250016503Y-140215020D01*
X249886490Y-140227825D01*
X249719666Y-140278431D01*
X249565921Y-140360609D01*
X249464933Y-140443488D01*
X249464931Y-140443490D01*
X249431163Y-140471203D01*
X249403450Y-140504971D01*
X247816951Y-142091471D01*
X247783184Y-142119183D01*
X247755471Y-142152951D01*
X247755468Y-142152954D01*
X247672590Y-142253941D01*
X247590412Y-142407687D01*
X247539805Y-142574510D01*
X247522719Y-142748000D01*
X247527001Y-142791479D01*
X247527000Y-150761922D01*
X247392392Y-150872392D01*
X247213068Y-151090899D01*
X247142000Y-151223858D01*
X247070932Y-151090899D01*
X246891608Y-150872392D01*
X246673101Y-150693068D01*
X246423808Y-150559818D01*
X246153309Y-150477764D01*
X245942492Y-150457000D01*
X245801508Y-150457000D01*
X245590691Y-150477764D01*
X245320192Y-150559818D01*
X245070899Y-150693068D01*
X244852392Y-150872392D01*
X244673068Y-151090899D01*
X244602000Y-151223858D01*
X244530932Y-151090899D01*
X244351608Y-150872392D01*
X244133101Y-150693068D01*
X243883808Y-150559818D01*
X243613309Y-150477764D01*
X243402492Y-150457000D01*
X243261508Y-150457000D01*
X243050691Y-150477764D01*
X242780192Y-150559818D01*
X242530899Y-150693068D01*
X242312392Y-150872392D01*
X242133068Y-151090899D01*
X242062000Y-151223858D01*
X241990932Y-151090899D01*
X241811608Y-150872392D01*
X241593101Y-150693068D01*
X241343808Y-150559818D01*
X241073309Y-150477764D01*
X240862492Y-150457000D01*
X240721508Y-150457000D01*
X240510691Y-150477764D01*
X240240192Y-150559818D01*
X239990899Y-150693068D01*
X239772392Y-150872392D01*
X239593068Y-151090899D01*
X239522000Y-151223858D01*
X239450932Y-151090899D01*
X239271608Y-150872392D01*
X239053101Y-150693068D01*
X238803808Y-150559818D01*
X238533309Y-150477764D01*
X238322492Y-150457000D01*
X238181508Y-150457000D01*
X237970691Y-150477764D01*
X237700192Y-150559818D01*
X237450899Y-150693068D01*
X237232392Y-150872392D01*
X237139581Y-150985482D01*
X237137812Y-150967518D01*
X237101502Y-150847820D01*
X237042537Y-150737506D01*
X236963185Y-150640815D01*
X236866494Y-150561463D01*
X236756180Y-150502498D01*
X236636482Y-150466188D01*
X236512000Y-150453928D01*
X234912000Y-150453928D01*
X234787518Y-150466188D01*
X234667820Y-150502498D01*
X234557506Y-150561463D01*
X234460815Y-150640815D01*
X234381463Y-150737506D01*
X234322498Y-150847820D01*
X234286188Y-150967518D01*
X234273928Y-151092000D01*
X234273928Y-152692000D01*
X234286188Y-152816482D01*
X234322498Y-152936180D01*
X234381463Y-153046494D01*
X234460815Y-153143185D01*
X234557506Y-153222537D01*
X234667820Y-153281502D01*
X234787518Y-153317812D01*
X234912000Y-153330072D01*
X236512000Y-153330072D01*
X236636482Y-153317812D01*
X236756180Y-153281502D01*
X236866494Y-153222537D01*
X236963185Y-153143185D01*
X237042537Y-153046494D01*
X237101502Y-152936180D01*
X237137812Y-152816482D01*
X237139581Y-152798518D01*
X237232392Y-152911608D01*
X237450899Y-153090932D01*
X237700192Y-153224182D01*
X237970691Y-153306236D01*
X238181508Y-153327000D01*
X238322492Y-153327000D01*
X238533309Y-153306236D01*
X238803808Y-153224182D01*
X239053101Y-153090932D01*
X239271608Y-152911608D01*
X239450932Y-152693101D01*
X239522000Y-152560142D01*
X239593068Y-152693101D01*
X239772392Y-152911608D01*
X239990899Y-153090932D01*
X240240192Y-153224182D01*
X240510691Y-153306236D01*
X240721508Y-153327000D01*
X240862492Y-153327000D01*
X241073309Y-153306236D01*
X241343808Y-153224182D01*
X241593101Y-153090932D01*
X241811608Y-152911608D01*
X241990932Y-152693101D01*
X242062000Y-152560142D01*
X242133068Y-152693101D01*
X242312392Y-152911608D01*
X242530899Y-153090932D01*
X242780192Y-153224182D01*
X243050691Y-153306236D01*
X243261508Y-153327000D01*
X243402492Y-153327000D01*
X243613309Y-153306236D01*
X243883808Y-153224182D01*
X244133101Y-153090932D01*
X244351608Y-152911608D01*
X244530932Y-152693101D01*
X244602000Y-152560142D01*
X244673068Y-152693101D01*
X244852392Y-152911608D01*
X244987001Y-153022078D01*
X244987001Y-153049420D01*
X243727422Y-154309000D01*
X217536579Y-154309000D01*
X215007000Y-151779422D01*
X215007000Y-146142967D01*
X219345000Y-146142967D01*
X219345000Y-146465033D01*
X219407832Y-146780912D01*
X219531082Y-147078463D01*
X219710013Y-147346252D01*
X219937748Y-147573987D01*
X220205537Y-147752918D01*
X220503088Y-147876168D01*
X220818967Y-147939000D01*
X221141033Y-147939000D01*
X221456912Y-147876168D01*
X221754463Y-147752918D01*
X222022252Y-147573987D01*
X222249987Y-147346252D01*
X222428918Y-147078463D01*
X222552168Y-146780912D01*
X222615000Y-146465033D01*
X222615000Y-146142967D01*
X225845000Y-146142967D01*
X225845000Y-146465033D01*
X225907832Y-146780912D01*
X226031082Y-147078463D01*
X226210013Y-147346252D01*
X226437748Y-147573987D01*
X226705537Y-147752918D01*
X227003088Y-147876168D01*
X227318967Y-147939000D01*
X227641033Y-147939000D01*
X227956912Y-147876168D01*
X228254463Y-147752918D01*
X228522252Y-147573987D01*
X228749987Y-147346252D01*
X228928918Y-147078463D01*
X229052168Y-146780912D01*
X229115000Y-146465033D01*
X229115000Y-146142967D01*
X229052168Y-145827088D01*
X228928918Y-145529537D01*
X228749987Y-145261748D01*
X228522252Y-145034013D01*
X228254463Y-144855082D01*
X227956912Y-144731832D01*
X227641033Y-144669000D01*
X227318967Y-144669000D01*
X227003088Y-144731832D01*
X226705537Y-144855082D01*
X226437748Y-145034013D01*
X226210013Y-145261748D01*
X226031082Y-145529537D01*
X225907832Y-145827088D01*
X225845000Y-146142967D01*
X222615000Y-146142967D01*
X222552168Y-145827088D01*
X222428918Y-145529537D01*
X222249987Y-145261748D01*
X222022252Y-145034013D01*
X221754463Y-144855082D01*
X221456912Y-144731832D01*
X221141033Y-144669000D01*
X220818967Y-144669000D01*
X220503088Y-144731832D01*
X220205537Y-144855082D01*
X219937748Y-145034013D01*
X219710013Y-145261748D01*
X219531082Y-145529537D01*
X219407832Y-145827088D01*
X219345000Y-146142967D01*
X215007000Y-146142967D01*
X215007000Y-144421984D01*
X235379000Y-144421984D01*
X235379000Y-145138016D01*
X235518691Y-145840290D01*
X235792705Y-146501818D01*
X236190511Y-147097177D01*
X236696823Y-147603489D01*
X237292182Y-148001295D01*
X237953710Y-148275309D01*
X238655984Y-148415000D01*
X239372016Y-148415000D01*
X240074290Y-148275309D01*
X240735818Y-148001295D01*
X241331177Y-147603489D01*
X241837489Y-147097177D01*
X242235295Y-146501818D01*
X242509309Y-145840290D01*
X242649000Y-145138016D01*
X242649000Y-144421984D01*
X242509309Y-143719710D01*
X242235295Y-143058182D01*
X241837489Y-142462823D01*
X241331177Y-141956511D01*
X240735818Y-141558705D01*
X240074290Y-141284691D01*
X239372016Y-141145000D01*
X238655984Y-141145000D01*
X237953710Y-141284691D01*
X237292182Y-141558705D01*
X236696823Y-141956511D01*
X236190511Y-142462823D01*
X235792705Y-143058182D01*
X235518691Y-143719710D01*
X235379000Y-144421984D01*
X215007000Y-144421984D01*
X215007000Y-142939413D01*
X220024192Y-142939413D01*
X220119956Y-143203814D01*
X220409571Y-143344704D01*
X220721108Y-143426384D01*
X221042595Y-143445718D01*
X221361675Y-143401961D01*
X221666088Y-143296795D01*
X221840044Y-143203814D01*
X221935808Y-142939413D01*
X226524192Y-142939413D01*
X226619956Y-143203814D01*
X226909571Y-143344704D01*
X227221108Y-143426384D01*
X227542595Y-143445718D01*
X227861675Y-143401961D01*
X228166088Y-143296795D01*
X228340044Y-143203814D01*
X228435808Y-142939413D01*
X227480000Y-141983605D01*
X226524192Y-142939413D01*
X221935808Y-142939413D01*
X220980000Y-141983605D01*
X220024192Y-142939413D01*
X215007000Y-142939413D01*
X215007000Y-141866595D01*
X219338282Y-141866595D01*
X219382039Y-142185675D01*
X219487205Y-142490088D01*
X219580186Y-142664044D01*
X219844587Y-142759808D01*
X220800395Y-141804000D01*
X221159605Y-141804000D01*
X222115413Y-142759808D01*
X222379814Y-142664044D01*
X222520704Y-142374429D01*
X222602384Y-142062892D01*
X222614189Y-141866595D01*
X225838282Y-141866595D01*
X225882039Y-142185675D01*
X225987205Y-142490088D01*
X226080186Y-142664044D01*
X226344587Y-142759808D01*
X227300395Y-141804000D01*
X227659605Y-141804000D01*
X228615413Y-142759808D01*
X228879814Y-142664044D01*
X229020704Y-142374429D01*
X229102384Y-142062892D01*
X229121718Y-141741405D01*
X229077961Y-141422325D01*
X228972795Y-141117912D01*
X228879814Y-140943956D01*
X228615413Y-140848192D01*
X227659605Y-141804000D01*
X227300395Y-141804000D01*
X226344587Y-140848192D01*
X226080186Y-140943956D01*
X225939296Y-141233571D01*
X225857616Y-141545108D01*
X225838282Y-141866595D01*
X222614189Y-141866595D01*
X222621718Y-141741405D01*
X222577961Y-141422325D01*
X222472795Y-141117912D01*
X222379814Y-140943956D01*
X222115413Y-140848192D01*
X221159605Y-141804000D01*
X220800395Y-141804000D01*
X219844587Y-140848192D01*
X219580186Y-140943956D01*
X219439296Y-141233571D01*
X219357616Y-141545108D01*
X219338282Y-141866595D01*
X215007000Y-141866595D01*
X215007000Y-140668587D01*
X220024192Y-140668587D01*
X220980000Y-141624395D01*
X221935808Y-140668587D01*
X226524192Y-140668587D01*
X227480000Y-141624395D01*
X228435808Y-140668587D01*
X228340044Y-140404186D01*
X228249341Y-140360061D01*
X241535000Y-140360061D01*
X241535000Y-140563939D01*
X241574774Y-140763898D01*
X241652795Y-140952256D01*
X241766063Y-141121774D01*
X241910226Y-141265937D01*
X242079744Y-141379205D01*
X242268102Y-141457226D01*
X242468061Y-141497000D01*
X242671939Y-141497000D01*
X242871898Y-141457226D01*
X243060256Y-141379205D01*
X243229774Y-141265937D01*
X243373937Y-141121774D01*
X243487205Y-140952256D01*
X243565226Y-140763898D01*
X243605000Y-140563939D01*
X243605000Y-140360061D01*
X243565226Y-140160102D01*
X243487205Y-139971744D01*
X243373937Y-139802226D01*
X243229774Y-139658063D01*
X243060256Y-139544795D01*
X242871898Y-139466774D01*
X242671939Y-139427000D01*
X242468061Y-139427000D01*
X242268102Y-139466774D01*
X242079744Y-139544795D01*
X241910226Y-139658063D01*
X241766063Y-139802226D01*
X241652795Y-139971744D01*
X241574774Y-140160102D01*
X241535000Y-140360061D01*
X228249341Y-140360061D01*
X228050429Y-140263296D01*
X227738892Y-140181616D01*
X227417405Y-140162282D01*
X227098325Y-140206039D01*
X226793912Y-140311205D01*
X226619956Y-140404186D01*
X226524192Y-140668587D01*
X221935808Y-140668587D01*
X221840044Y-140404186D01*
X221550429Y-140263296D01*
X221238892Y-140181616D01*
X220917405Y-140162282D01*
X220598325Y-140206039D01*
X220293912Y-140311205D01*
X220119956Y-140404186D01*
X220024192Y-140668587D01*
X215007000Y-140668587D01*
X215007000Y-136652000D01*
X234270057Y-136652000D01*
X234297764Y-136933309D01*
X234379818Y-137203808D01*
X234513068Y-137453101D01*
X234692392Y-137671608D01*
X234910899Y-137850932D01*
X235160192Y-137984182D01*
X235430691Y-138066236D01*
X235641508Y-138087000D01*
X235782492Y-138087000D01*
X235993309Y-138066236D01*
X236263808Y-137984182D01*
X236513101Y-137850932D01*
X236731608Y-137671608D01*
X236910932Y-137453101D01*
X236984579Y-137315318D01*
X237099615Y-137507131D01*
X237288586Y-137715519D01*
X237514580Y-137883037D01*
X237768913Y-138003246D01*
X237902961Y-138043904D01*
X238125000Y-137921915D01*
X238125000Y-136779000D01*
X238105000Y-136779000D01*
X238105000Y-136525000D01*
X238125000Y-136525000D01*
X238125000Y-135382085D01*
X237902961Y-135260096D01*
X237768913Y-135300754D01*
X237514580Y-135420963D01*
X237288586Y-135588481D01*
X237099615Y-135796869D01*
X236984579Y-135988682D01*
X236910932Y-135850899D01*
X236731608Y-135632392D01*
X236513101Y-135453068D01*
X236263808Y-135319818D01*
X235993309Y-135237764D01*
X235782492Y-135217000D01*
X235641508Y-135217000D01*
X235430691Y-135237764D01*
X235160192Y-135319818D01*
X234910899Y-135453068D01*
X234692392Y-135632392D01*
X234513068Y-135850899D01*
X234379818Y-136100192D01*
X234297764Y-136370691D01*
X234270057Y-136652000D01*
X215007000Y-136652000D01*
X215007000Y-135855469D01*
X215011281Y-135812000D01*
X215007000Y-135768531D01*
X215007000Y-135768523D01*
X214994195Y-135638510D01*
X214943589Y-135471687D01*
X214861411Y-135317941D01*
X214815084Y-135261492D01*
X214778532Y-135216953D01*
X214778530Y-135216951D01*
X214750817Y-135183183D01*
X214717049Y-135155470D01*
X213337013Y-133775434D01*
X213363608Y-133753608D01*
X213542932Y-133535101D01*
X213611265Y-133407259D01*
X213761399Y-133636839D01*
X213959105Y-133838500D01*
X214192354Y-133997715D01*
X214452182Y-134108367D01*
X214534961Y-134125904D01*
X214757000Y-134003915D01*
X214757000Y-132461000D01*
X215011000Y-132461000D01*
X215011000Y-134003915D01*
X215233039Y-134125904D01*
X215315818Y-134108367D01*
X215575646Y-133997715D01*
X215808895Y-133838500D01*
X216006601Y-133636839D01*
X216161166Y-133400483D01*
X216266650Y-133138514D01*
X216319000Y-132861000D01*
X216319000Y-132461000D01*
X215011000Y-132461000D01*
X214757000Y-132461000D01*
X214737000Y-132461000D01*
X214737000Y-132207000D01*
X214757000Y-132207000D01*
X214757000Y-130664085D01*
X215011000Y-130664085D01*
X215011000Y-132207000D01*
X216319000Y-132207000D01*
X216319000Y-131807000D01*
X216266650Y-131529486D01*
X216161166Y-131267517D01*
X216006601Y-131031161D01*
X215808895Y-130829500D01*
X215575646Y-130670285D01*
X215315818Y-130559633D01*
X215233039Y-130542096D01*
X215011000Y-130664085D01*
X214757000Y-130664085D01*
X214534961Y-130542096D01*
X214452182Y-130559633D01*
X214192354Y-130670285D01*
X213959105Y-130829500D01*
X213761399Y-131031161D01*
X213611265Y-131260741D01*
X213542932Y-131132899D01*
X213363607Y-130914392D01*
X213145100Y-130735068D01*
X212895807Y-130601818D01*
X212625308Y-130519764D01*
X212344000Y-130492057D01*
X212062691Y-130519764D01*
X211792192Y-130601818D01*
X211542899Y-130735068D01*
X211324392Y-130914393D01*
X211145068Y-131132900D01*
X211074000Y-131265858D01*
X211002932Y-131132899D01*
X210823607Y-130914392D01*
X210605100Y-130735068D01*
X210355807Y-130601818D01*
X210085308Y-130519764D01*
X209804000Y-130492057D01*
X209522691Y-130519764D01*
X209252192Y-130601818D01*
X209002899Y-130735068D01*
X208784392Y-130914393D01*
X208605068Y-131132900D01*
X208534000Y-131265858D01*
X208462932Y-131132899D01*
X208283607Y-130914392D01*
X208065100Y-130735068D01*
X207815807Y-130601818D01*
X207545308Y-130519764D01*
X207264000Y-130492057D01*
X206982691Y-130519764D01*
X206712192Y-130601818D01*
X206462899Y-130735068D01*
X206244392Y-130914393D01*
X206065068Y-131132900D01*
X205994000Y-131265858D01*
X205922932Y-131132899D01*
X205743607Y-130914392D01*
X205525100Y-130735068D01*
X205275807Y-130601818D01*
X205005308Y-130519764D01*
X204724000Y-130492057D01*
X204442691Y-130519764D01*
X204172192Y-130601818D01*
X203922899Y-130735068D01*
X203704392Y-130914393D01*
X203525068Y-131132900D01*
X203454000Y-131265858D01*
X203382932Y-131132899D01*
X203203607Y-130914392D01*
X202985100Y-130735068D01*
X202735807Y-130601818D01*
X202465308Y-130519764D01*
X202184000Y-130492057D01*
X201902691Y-130519764D01*
X201632192Y-130601818D01*
X201382899Y-130735068D01*
X201164392Y-130914393D01*
X201071581Y-131027483D01*
X201069812Y-131009518D01*
X201033502Y-130889820D01*
X200974537Y-130779506D01*
X200895185Y-130682815D01*
X200798494Y-130603463D01*
X200688180Y-130544498D01*
X200568482Y-130508188D01*
X200444000Y-130495928D01*
X198844000Y-130495928D01*
X198719518Y-130508188D01*
X198599820Y-130544498D01*
X198489506Y-130603463D01*
X198392815Y-130682815D01*
X198313463Y-130779506D01*
X198254498Y-130889820D01*
X198218188Y-131009518D01*
X198205928Y-131134000D01*
X198205928Y-133534000D01*
X198218188Y-133658482D01*
X198254498Y-133778180D01*
X198313463Y-133888494D01*
X198392815Y-133985185D01*
X198489506Y-134064537D01*
X198599820Y-134123502D01*
X198719518Y-134159812D01*
X198844000Y-134172072D01*
X200444000Y-134172072D01*
X200568482Y-134159812D01*
X200688180Y-134123502D01*
X200798494Y-134064537D01*
X200895185Y-133985185D01*
X200974537Y-133888494D01*
X201033502Y-133778180D01*
X201069812Y-133658482D01*
X201071581Y-133640517D01*
X201164393Y-133753608D01*
X201299001Y-133864078D01*
X201299001Y-133990521D01*
X201294719Y-134034000D01*
X201311805Y-134207490D01*
X201362412Y-134374313D01*
X201444590Y-134528059D01*
X201527468Y-134629046D01*
X201527471Y-134629049D01*
X201555184Y-134662817D01*
X201588951Y-134690529D01*
X202875470Y-135977049D01*
X202903183Y-136010817D01*
X202936951Y-136038530D01*
X202936953Y-136038532D01*
X202961254Y-136058475D01*
X203037941Y-136121411D01*
X203191687Y-136203589D01*
X203358510Y-136254195D01*
X203488523Y-136267000D01*
X203488531Y-136267000D01*
X203532000Y-136271281D01*
X203575469Y-136267000D01*
X211345498Y-136267000D01*
X211713000Y-136634503D01*
X211713001Y-152558447D01*
X211708719Y-152601926D01*
X211725805Y-152775416D01*
X211776412Y-152942239D01*
X211858590Y-153095985D01*
X211941468Y-153196972D01*
X211941471Y-153196975D01*
X211969184Y-153230743D01*
X212002951Y-153258456D01*
X215564495Y-156820000D01*
X181388281Y-156820000D01*
X181287469Y-156810115D01*
X181221542Y-156790211D01*
X181160745Y-156757885D01*
X181107382Y-156714362D01*
X181063485Y-156661300D01*
X181030734Y-156600727D01*
X181010372Y-156534947D01*
X181000000Y-156436269D01*
X181000000Y-146142967D01*
X186175000Y-146142967D01*
X186175000Y-146465033D01*
X186237832Y-146780912D01*
X186361082Y-147078463D01*
X186540013Y-147346252D01*
X186767748Y-147573987D01*
X187035537Y-147752918D01*
X187333088Y-147876168D01*
X187648967Y-147939000D01*
X187971033Y-147939000D01*
X188286912Y-147876168D01*
X188584463Y-147752918D01*
X188852252Y-147573987D01*
X189079987Y-147346252D01*
X189258918Y-147078463D01*
X189382168Y-146780912D01*
X189445000Y-146465033D01*
X189445000Y-146142967D01*
X192675000Y-146142967D01*
X192675000Y-146465033D01*
X192737832Y-146780912D01*
X192861082Y-147078463D01*
X193040013Y-147346252D01*
X193267748Y-147573987D01*
X193535537Y-147752918D01*
X193833088Y-147876168D01*
X194148967Y-147939000D01*
X194471033Y-147939000D01*
X194786912Y-147876168D01*
X195084463Y-147752918D01*
X195352252Y-147573987D01*
X195579987Y-147346252D01*
X195758918Y-147078463D01*
X195882168Y-146780912D01*
X195945000Y-146465033D01*
X195945000Y-146142967D01*
X201669000Y-146142967D01*
X201669000Y-146465033D01*
X201731832Y-146780912D01*
X201855082Y-147078463D01*
X202034013Y-147346252D01*
X202261748Y-147573987D01*
X202529537Y-147752918D01*
X202827088Y-147876168D01*
X203142967Y-147939000D01*
X203465033Y-147939000D01*
X203780912Y-147876168D01*
X204078463Y-147752918D01*
X204346252Y-147573987D01*
X204573987Y-147346252D01*
X204752918Y-147078463D01*
X204876168Y-146780912D01*
X204939000Y-146465033D01*
X204939000Y-146142967D01*
X208169000Y-146142967D01*
X208169000Y-146465033D01*
X208231832Y-146780912D01*
X208355082Y-147078463D01*
X208534013Y-147346252D01*
X208761748Y-147573987D01*
X209029537Y-147752918D01*
X209327088Y-147876168D01*
X209642967Y-147939000D01*
X209965033Y-147939000D01*
X210280912Y-147876168D01*
X210578463Y-147752918D01*
X210846252Y-147573987D01*
X211073987Y-147346252D01*
X211252918Y-147078463D01*
X211376168Y-146780912D01*
X211439000Y-146465033D01*
X211439000Y-146142967D01*
X211376168Y-145827088D01*
X211252918Y-145529537D01*
X211073987Y-145261748D01*
X210846252Y-145034013D01*
X210578463Y-144855082D01*
X210280912Y-144731832D01*
X209965033Y-144669000D01*
X209642967Y-144669000D01*
X209327088Y-144731832D01*
X209029537Y-144855082D01*
X208761748Y-145034013D01*
X208534013Y-145261748D01*
X208355082Y-145529537D01*
X208231832Y-145827088D01*
X208169000Y-146142967D01*
X204939000Y-146142967D01*
X204876168Y-145827088D01*
X204752918Y-145529537D01*
X204573987Y-145261748D01*
X204346252Y-145034013D01*
X204078463Y-144855082D01*
X203780912Y-144731832D01*
X203465033Y-144669000D01*
X203142967Y-144669000D01*
X202827088Y-144731832D01*
X202529537Y-144855082D01*
X202261748Y-145034013D01*
X202034013Y-145261748D01*
X201855082Y-145529537D01*
X201731832Y-145827088D01*
X201669000Y-146142967D01*
X195945000Y-146142967D01*
X195882168Y-145827088D01*
X195758918Y-145529537D01*
X195579987Y-145261748D01*
X195352252Y-145034013D01*
X195084463Y-144855082D01*
X194786912Y-144731832D01*
X194471033Y-144669000D01*
X194148967Y-144669000D01*
X193833088Y-144731832D01*
X193535537Y-144855082D01*
X193267748Y-145034013D01*
X193040013Y-145261748D01*
X192861082Y-145529537D01*
X192737832Y-145827088D01*
X192675000Y-146142967D01*
X189445000Y-146142967D01*
X189382168Y-145827088D01*
X189258918Y-145529537D01*
X189079987Y-145261748D01*
X188852252Y-145034013D01*
X188584463Y-144855082D01*
X188286912Y-144731832D01*
X187971033Y-144669000D01*
X187648967Y-144669000D01*
X187333088Y-144731832D01*
X187035537Y-144855082D01*
X186767748Y-145034013D01*
X186540013Y-145261748D01*
X186361082Y-145529537D01*
X186237832Y-145827088D01*
X186175000Y-146142967D01*
X181000000Y-146142967D01*
X181000000Y-142939413D01*
X186854192Y-142939413D01*
X186949956Y-143203814D01*
X187239571Y-143344704D01*
X187551108Y-143426384D01*
X187872595Y-143445718D01*
X188191675Y-143401961D01*
X188496088Y-143296795D01*
X188670044Y-143203814D01*
X188765808Y-142939413D01*
X193354192Y-142939413D01*
X193449956Y-143203814D01*
X193739571Y-143344704D01*
X194051108Y-143426384D01*
X194372595Y-143445718D01*
X194691675Y-143401961D01*
X194996088Y-143296795D01*
X195170044Y-143203814D01*
X195265808Y-142939413D01*
X202348192Y-142939413D01*
X202443956Y-143203814D01*
X202733571Y-143344704D01*
X203045108Y-143426384D01*
X203366595Y-143445718D01*
X203685675Y-143401961D01*
X203990088Y-143296795D01*
X204164044Y-143203814D01*
X204259808Y-142939413D01*
X208848192Y-142939413D01*
X208943956Y-143203814D01*
X209233571Y-143344704D01*
X209545108Y-143426384D01*
X209866595Y-143445718D01*
X210185675Y-143401961D01*
X210490088Y-143296795D01*
X210664044Y-143203814D01*
X210759808Y-142939413D01*
X209804000Y-141983605D01*
X208848192Y-142939413D01*
X204259808Y-142939413D01*
X203304000Y-141983605D01*
X202348192Y-142939413D01*
X195265808Y-142939413D01*
X194310000Y-141983605D01*
X193354192Y-142939413D01*
X188765808Y-142939413D01*
X187810000Y-141983605D01*
X186854192Y-142939413D01*
X181000000Y-142939413D01*
X181000000Y-141866595D01*
X186168282Y-141866595D01*
X186212039Y-142185675D01*
X186317205Y-142490088D01*
X186410186Y-142664044D01*
X186674587Y-142759808D01*
X187630395Y-141804000D01*
X187989605Y-141804000D01*
X188945413Y-142759808D01*
X189209814Y-142664044D01*
X189350704Y-142374429D01*
X189432384Y-142062892D01*
X189444189Y-141866595D01*
X192668282Y-141866595D01*
X192712039Y-142185675D01*
X192817205Y-142490088D01*
X192910186Y-142664044D01*
X193174587Y-142759808D01*
X194130395Y-141804000D01*
X194489605Y-141804000D01*
X195445413Y-142759808D01*
X195709814Y-142664044D01*
X195850704Y-142374429D01*
X195932384Y-142062892D01*
X195944189Y-141866595D01*
X201662282Y-141866595D01*
X201706039Y-142185675D01*
X201811205Y-142490088D01*
X201904186Y-142664044D01*
X202168587Y-142759808D01*
X203124395Y-141804000D01*
X203483605Y-141804000D01*
X204439413Y-142759808D01*
X204703814Y-142664044D01*
X204844704Y-142374429D01*
X204926384Y-142062892D01*
X204938189Y-141866595D01*
X208162282Y-141866595D01*
X208206039Y-142185675D01*
X208311205Y-142490088D01*
X208404186Y-142664044D01*
X208668587Y-142759808D01*
X209624395Y-141804000D01*
X209983605Y-141804000D01*
X210939413Y-142759808D01*
X211203814Y-142664044D01*
X211344704Y-142374429D01*
X211426384Y-142062892D01*
X211445718Y-141741405D01*
X211401961Y-141422325D01*
X211296795Y-141117912D01*
X211203814Y-140943956D01*
X210939413Y-140848192D01*
X209983605Y-141804000D01*
X209624395Y-141804000D01*
X208668587Y-140848192D01*
X208404186Y-140943956D01*
X208263296Y-141233571D01*
X208181616Y-141545108D01*
X208162282Y-141866595D01*
X204938189Y-141866595D01*
X204945718Y-141741405D01*
X204901961Y-141422325D01*
X204796795Y-141117912D01*
X204703814Y-140943956D01*
X204439413Y-140848192D01*
X203483605Y-141804000D01*
X203124395Y-141804000D01*
X202168587Y-140848192D01*
X201904186Y-140943956D01*
X201763296Y-141233571D01*
X201681616Y-141545108D01*
X201662282Y-141866595D01*
X195944189Y-141866595D01*
X195951718Y-141741405D01*
X195907961Y-141422325D01*
X195802795Y-141117912D01*
X195709814Y-140943956D01*
X195445413Y-140848192D01*
X194489605Y-141804000D01*
X194130395Y-141804000D01*
X193174587Y-140848192D01*
X192910186Y-140943956D01*
X192769296Y-141233571D01*
X192687616Y-141545108D01*
X192668282Y-141866595D01*
X189444189Y-141866595D01*
X189451718Y-141741405D01*
X189407961Y-141422325D01*
X189302795Y-141117912D01*
X189209814Y-140943956D01*
X188945413Y-140848192D01*
X187989605Y-141804000D01*
X187630395Y-141804000D01*
X186674587Y-140848192D01*
X186410186Y-140943956D01*
X186269296Y-141233571D01*
X186187616Y-141545108D01*
X186168282Y-141866595D01*
X181000000Y-141866595D01*
X181000000Y-140668587D01*
X186854192Y-140668587D01*
X187810000Y-141624395D01*
X188765808Y-140668587D01*
X193354192Y-140668587D01*
X194310000Y-141624395D01*
X195265808Y-140668587D01*
X202348192Y-140668587D01*
X203304000Y-141624395D01*
X204259808Y-140668587D01*
X208848192Y-140668587D01*
X209804000Y-141624395D01*
X210759808Y-140668587D01*
X210664044Y-140404186D01*
X210374429Y-140263296D01*
X210062892Y-140181616D01*
X209741405Y-140162282D01*
X209422325Y-140206039D01*
X209117912Y-140311205D01*
X208943956Y-140404186D01*
X208848192Y-140668587D01*
X204259808Y-140668587D01*
X204164044Y-140404186D01*
X203874429Y-140263296D01*
X203562892Y-140181616D01*
X203241405Y-140162282D01*
X202922325Y-140206039D01*
X202617912Y-140311205D01*
X202443956Y-140404186D01*
X202348192Y-140668587D01*
X195265808Y-140668587D01*
X195170044Y-140404186D01*
X194880429Y-140263296D01*
X194568892Y-140181616D01*
X194247405Y-140162282D01*
X193928325Y-140206039D01*
X193623912Y-140311205D01*
X193449956Y-140404186D01*
X193354192Y-140668587D01*
X188765808Y-140668587D01*
X188670044Y-140404186D01*
X188380429Y-140263296D01*
X188068892Y-140181616D01*
X187747405Y-140162282D01*
X187428325Y-140206039D01*
X187123912Y-140311205D01*
X186949956Y-140404186D01*
X186854192Y-140668587D01*
X181000000Y-140668587D01*
X181000000Y-132991984D01*
X182039000Y-132991984D01*
X182039000Y-133708016D01*
X182178691Y-134410290D01*
X182452705Y-135071818D01*
X182850511Y-135667177D01*
X183356823Y-136173489D01*
X183952182Y-136571295D01*
X184613710Y-136845309D01*
X185315984Y-136985000D01*
X186032016Y-136985000D01*
X186734290Y-136845309D01*
X187395818Y-136571295D01*
X187991177Y-136173489D01*
X188497489Y-135667177D01*
X188895295Y-135071818D01*
X189169309Y-134410290D01*
X189309000Y-133708016D01*
X189309000Y-132991984D01*
X189169309Y-132289710D01*
X188895295Y-131628182D01*
X188497489Y-131032823D01*
X187991177Y-130526511D01*
X187395818Y-130128705D01*
X186734290Y-129854691D01*
X186032016Y-129715000D01*
X185315984Y-129715000D01*
X184613710Y-129854691D01*
X183952182Y-130128705D01*
X183356823Y-130526511D01*
X182850511Y-131032823D01*
X182452705Y-131628182D01*
X182178691Y-132289710D01*
X182039000Y-132991984D01*
X181000000Y-132991984D01*
X181000000Y-82582279D01*
X181014722Y-82432131D01*
X181048953Y-82318754D01*
X181104555Y-82214181D01*
X181179407Y-82122404D01*
X181270664Y-82046909D01*
X181374844Y-81990581D01*
X181487976Y-81955560D01*
X181636022Y-81940000D01*
X275557721Y-81940000D01*
X275707869Y-81954722D01*
X275707869Y-81954722D01*
G37*
X275707869Y-81954722D02*
X275821246Y-81988953D01*
X275925819Y-82044555D01*
X276017596Y-82119407D01*
X276093091Y-82210664D01*
X276149419Y-82314844D01*
X276184440Y-82427976D01*
X276200001Y-82576031D01*
X276200000Y-156431719D01*
X276190115Y-156532531D01*
X276170211Y-156598458D01*
X276137885Y-156659255D01*
X276094362Y-156712618D01*
X276041300Y-156756515D01*
X275980727Y-156789266D01*
X275914947Y-156809628D01*
X275816269Y-156820000D01*
X267595578Y-156820000D01*
X271098704Y-153316875D01*
X271201508Y-153327000D01*
X271342492Y-153327000D01*
X271553309Y-153306236D01*
X271823808Y-153224182D01*
X272073101Y-153090932D01*
X272291608Y-152911608D01*
X272470932Y-152693101D01*
X272604182Y-152443808D01*
X272686236Y-152173309D01*
X272713943Y-151892000D01*
X272686236Y-151610691D01*
X272604182Y-151340192D01*
X272470932Y-151090899D01*
X272291608Y-150872392D01*
X272073101Y-150693068D01*
X271823808Y-150559818D01*
X271553309Y-150477764D01*
X271342492Y-150457000D01*
X271201508Y-150457000D01*
X270990691Y-150477764D01*
X270720192Y-150559818D01*
X270470899Y-150693068D01*
X270252392Y-150872392D01*
X270073068Y-151090899D01*
X270002000Y-151223858D01*
X269930932Y-151090899D01*
X269751608Y-150872392D01*
X269533101Y-150693068D01*
X269283808Y-150559818D01*
X269013309Y-150477764D01*
X268802492Y-150457000D01*
X268661508Y-150457000D01*
X268450691Y-150477764D01*
X268180192Y-150559818D01*
X267930899Y-150693068D01*
X267712392Y-150872392D01*
X267533068Y-151090899D01*
X267462000Y-151223858D01*
X267390932Y-151090899D01*
X267211608Y-150872392D01*
X266993101Y-150693068D01*
X266743808Y-150559818D01*
X266473309Y-150477764D01*
X266262492Y-150457000D01*
X266121508Y-150457000D01*
X265910691Y-150477764D01*
X265640192Y-150559818D01*
X265390899Y-150693068D01*
X265172392Y-150872392D01*
X264993068Y-151090899D01*
X264922000Y-151223858D01*
X264850932Y-151090899D01*
X264671608Y-150872392D01*
X264453101Y-150693068D01*
X264203808Y-150559818D01*
X263933309Y-150477764D01*
X263722492Y-150457000D01*
X263581508Y-150457000D01*
X263370691Y-150477764D01*
X263100192Y-150559818D01*
X262850899Y-150693068D01*
X262632392Y-150872392D01*
X262453068Y-151090899D01*
X262382000Y-151223858D01*
X262310932Y-151090899D01*
X262131608Y-150872392D01*
X261913101Y-150693068D01*
X261663808Y-150559818D01*
X261393309Y-150477764D01*
X261182492Y-150457000D01*
X261041508Y-150457000D01*
X260830691Y-150477764D01*
X260560192Y-150559818D01*
X260310899Y-150693068D01*
X260092392Y-150872392D01*
X259913068Y-151090899D01*
X259842000Y-151223858D01*
X259770932Y-151090899D01*
X259591608Y-150872392D01*
X259373101Y-150693068D01*
X259123808Y-150559818D01*
X258853309Y-150477764D01*
X258642492Y-150457000D01*
X258501508Y-150457000D01*
X258290691Y-150477764D01*
X258020192Y-150559818D01*
X257770899Y-150693068D01*
X257552392Y-150872392D01*
X257373068Y-151090899D01*
X257302000Y-151223858D01*
X257230932Y-151090899D01*
X257051608Y-150872392D01*
X256833101Y-150693068D01*
X256583808Y-150559818D01*
X256313309Y-150477764D01*
X256102492Y-150457000D01*
X255961508Y-150457000D01*
X255750691Y-150477764D01*
X255480192Y-150559818D01*
X255230899Y-150693068D01*
X255012392Y-150872392D01*
X254833068Y-151090899D01*
X254762000Y-151223858D01*
X254690932Y-151090899D01*
X254511608Y-150872392D01*
X254293101Y-150693068D01*
X254043808Y-150559818D01*
X253773309Y-150477764D01*
X253562492Y-150457000D01*
X253421508Y-150457000D01*
X253210691Y-150477764D01*
X252940192Y-150559818D01*
X252690899Y-150693068D01*
X252472392Y-150872392D01*
X252293068Y-151090899D01*
X252222000Y-151223858D01*
X252150932Y-151090899D01*
X251971608Y-150872392D01*
X251753101Y-150693068D01*
X251503808Y-150559818D01*
X251233309Y-150477764D01*
X251022492Y-150457000D01*
X250881508Y-150457000D01*
X250670691Y-150477764D01*
X250400192Y-150559818D01*
X250150899Y-150693068D01*
X249932392Y-150872392D01*
X249753068Y-151090899D01*
X249682000Y-151223858D01*
X249610932Y-151090899D01*
X249431608Y-150872392D01*
X249297000Y-150761922D01*
X249297000Y-143114578D01*
X250426559Y-141985020D01*
X258470513Y-141985020D01*
X258513982Y-141989301D01*
X258557451Y-141985020D01*
X258557459Y-141985020D01*
X258687472Y-141972215D01*
X258854295Y-141921609D01*
X259008041Y-141839431D01*
X259142799Y-141728837D01*
X259170516Y-141695064D01*
X262957051Y-137908530D01*
X262957684Y-137908010D01*
X263100192Y-137984182D01*
X263370691Y-138066236D01*
X263581508Y-138087000D01*
X263722492Y-138087000D01*
X263933309Y-138066236D01*
X264203808Y-137984182D01*
X264453101Y-137850932D01*
X264671608Y-137671608D01*
X264850932Y-137453101D01*
X264922000Y-137320142D01*
X264993068Y-137453101D01*
X265172392Y-137671608D01*
X265390899Y-137850932D01*
X265640192Y-137984182D01*
X265910691Y-138066236D01*
X266121508Y-138087000D01*
X266262492Y-138087000D01*
X266473309Y-138066236D01*
X266743808Y-137984182D01*
X266993101Y-137850932D01*
X267211608Y-137671608D01*
X267390932Y-137453101D01*
X267462000Y-137320142D01*
X267533068Y-137453101D01*
X267712392Y-137671608D01*
X267930899Y-137850932D01*
X268180192Y-137984182D01*
X268450691Y-138066236D01*
X268661508Y-138087000D01*
X268802492Y-138087000D01*
X269013309Y-138066236D01*
X269283808Y-137984182D01*
X269533101Y-137850932D01*
X269751608Y-137671608D01*
X269930932Y-137453101D01*
X270002000Y-137320142D01*
X270073068Y-137453101D01*
X270252392Y-137671608D01*
X270470899Y-137850932D01*
X270720192Y-137984182D01*
X270990691Y-138066236D01*
X271201508Y-138087000D01*
X271342492Y-138087000D01*
X271553309Y-138066236D01*
X271823808Y-137984182D01*
X272073101Y-137850932D01*
X272291608Y-137671608D01*
X272470932Y-137453101D01*
X272604182Y-137203808D01*
X272686236Y-136933309D01*
X272713943Y-136652000D01*
X272686236Y-136370691D01*
X272604182Y-136100192D01*
X272470932Y-135850899D01*
X272291608Y-135632392D01*
X272073101Y-135453068D01*
X271823808Y-135319818D01*
X271553309Y-135237764D01*
X271342492Y-135217000D01*
X271201508Y-135217000D01*
X270990691Y-135237764D01*
X270720192Y-135319818D01*
X270470899Y-135453068D01*
X270252392Y-135632392D01*
X270073068Y-135850899D01*
X270002000Y-135983858D01*
X269930932Y-135850899D01*
X269751608Y-135632392D01*
X269533101Y-135453068D01*
X269283808Y-135319818D01*
X269013309Y-135237764D01*
X268802492Y-135217000D01*
X268661508Y-135217000D01*
X268450691Y-135237764D01*
X268180192Y-135319818D01*
X267930899Y-135453068D01*
X267712392Y-135632392D01*
X267533068Y-135850899D01*
X267462000Y-135983858D01*
X267390932Y-135850899D01*
X267211608Y-135632392D01*
X266993101Y-135453068D01*
X266743808Y-135319818D01*
X266473309Y-135237764D01*
X266262492Y-135217000D01*
X266121508Y-135217000D01*
X265910691Y-135237764D01*
X265640192Y-135319818D01*
X265390899Y-135453068D01*
X265172392Y-135632392D01*
X264993068Y-135850899D01*
X264922000Y-135983858D01*
X264850932Y-135850899D01*
X264671608Y-135632392D01*
X264453101Y-135453068D01*
X264203808Y-135319818D01*
X263933309Y-135237764D01*
X263722492Y-135217000D01*
X263581508Y-135217000D01*
X263370691Y-135237764D01*
X263250316Y-135274279D01*
X263254195Y-135261492D01*
X263267000Y-135131479D01*
X263267000Y-135131471D01*
X263271281Y-135088002D01*
X263267000Y-135044533D01*
X263267000Y-126086890D01*
X270592524Y-126086890D01*
X270637175Y-126234099D01*
X270762359Y-126496920D01*
X270936412Y-126730269D01*
X271152645Y-126925178D01*
X271402748Y-127074157D01*
X271677109Y-127171481D01*
X271907000Y-127050814D01*
X271907000Y-125857000D01*
X272161000Y-125857000D01*
X272161000Y-127050814D01*
X272390891Y-127171481D01*
X272665252Y-127074157D01*
X272915355Y-126925178D01*
X273131588Y-126730269D01*
X273305641Y-126496920D01*
X273430825Y-126234099D01*
X273475476Y-126086890D01*
X273354155Y-125857000D01*
X272161000Y-125857000D01*
X271907000Y-125857000D01*
X270713845Y-125857000D01*
X270592524Y-126086890D01*
X263267000Y-126086890D01*
X263267000Y-125080578D01*
X264272579Y-124075000D01*
X270839241Y-124075000D01*
X270978866Y-124245134D01*
X271204986Y-124430706D01*
X271269523Y-124465201D01*
X271152645Y-124534822D01*
X270936412Y-124729731D01*
X270762359Y-124963080D01*
X270637175Y-125225901D01*
X270592524Y-125373110D01*
X270713845Y-125603000D01*
X271907000Y-125603000D01*
X271907000Y-125583000D01*
X272161000Y-125583000D01*
X272161000Y-125603000D01*
X273354155Y-125603000D01*
X273475476Y-125373110D01*
X273430825Y-125225901D01*
X273305641Y-124963080D01*
X273131588Y-124729731D01*
X272915355Y-124534822D01*
X272798477Y-124465201D01*
X272863014Y-124430706D01*
X273089134Y-124245134D01*
X273274706Y-124019014D01*
X273412599Y-123761034D01*
X273497513Y-123481111D01*
X273526185Y-123190000D01*
X273497513Y-122898889D01*
X273412599Y-122618966D01*
X273274706Y-122360986D01*
X273089134Y-122134866D01*
X273059313Y-122110393D01*
X273128180Y-122089502D01*
X273238494Y-122030537D01*
X273335185Y-121951185D01*
X273414537Y-121854494D01*
X273473502Y-121744180D01*
X273509812Y-121624482D01*
X273522072Y-121500000D01*
X273522072Y-119800000D01*
X273509812Y-119675518D01*
X273473502Y-119555820D01*
X273414537Y-119445506D01*
X273335185Y-119348815D01*
X273238494Y-119269463D01*
X273128180Y-119210498D01*
X273008482Y-119174188D01*
X272884000Y-119161928D01*
X271184000Y-119161928D01*
X271059518Y-119174188D01*
X270939820Y-119210498D01*
X270829506Y-119269463D01*
X270732815Y-119348815D01*
X270653463Y-119445506D01*
X270594498Y-119555820D01*
X270558188Y-119675518D01*
X270545928Y-119800000D01*
X270545928Y-121500000D01*
X270558188Y-121624482D01*
X270594498Y-121744180D01*
X270653463Y-121854494D01*
X270732815Y-121951185D01*
X270829506Y-122030537D01*
X270939820Y-122089502D01*
X271008687Y-122110393D01*
X270978866Y-122134866D01*
X270839241Y-122305000D01*
X263949465Y-122305000D01*
X263905999Y-122300719D01*
X263862533Y-122305000D01*
X263862523Y-122305000D01*
X263732510Y-122317805D01*
X263565687Y-122368411D01*
X263411941Y-122450589D01*
X263411939Y-122450590D01*
X263411940Y-122450590D01*
X263310953Y-122533468D01*
X263310951Y-122533470D01*
X263277183Y-122561183D01*
X263249470Y-122594951D01*
X261786951Y-124057471D01*
X261753184Y-124085183D01*
X261725471Y-124118951D01*
X261725468Y-124118954D01*
X261642590Y-124219941D01*
X261560412Y-124373687D01*
X261509805Y-124540510D01*
X261492719Y-124714000D01*
X261497001Y-124757479D01*
X261497000Y-134910796D01*
X261489806Y-134934511D01*
X261472720Y-135108001D01*
X261477002Y-135151480D01*
X261477002Y-135263152D01*
X261393309Y-135237764D01*
X261182492Y-135217000D01*
X261041508Y-135217000D01*
X260830691Y-135237764D01*
X260707001Y-135275285D01*
X260707001Y-132383507D01*
X260711282Y-132340038D01*
X260707001Y-132296569D01*
X260707001Y-132296561D01*
X260694196Y-132166548D01*
X260672560Y-132095226D01*
X260643590Y-131999724D01*
X260561412Y-131845979D01*
X260478533Y-131744991D01*
X260478531Y-131744989D01*
X260450818Y-131711221D01*
X260417050Y-131683508D01*
X255708487Y-126974946D01*
X255680770Y-126941173D01*
X255546012Y-126830579D01*
X255392266Y-126748401D01*
X255225443Y-126697795D01*
X255095430Y-126684990D01*
X255095422Y-126684990D01*
X255051953Y-126680709D01*
X255008484Y-126684990D01*
X186330531Y-126684990D01*
X185035000Y-125389460D01*
X185035000Y-124243509D01*
X198209000Y-124243509D01*
X198209000Y-125184492D01*
X198229764Y-125395309D01*
X198311818Y-125665808D01*
X198445068Y-125915101D01*
X198624393Y-126133608D01*
X198842900Y-126312932D01*
X199092193Y-126446182D01*
X199362692Y-126528236D01*
X199644000Y-126555943D01*
X199925309Y-126528236D01*
X200195808Y-126446182D01*
X200445101Y-126312932D01*
X200663608Y-126133608D01*
X200842932Y-125915101D01*
X200914000Y-125782142D01*
X200985068Y-125915101D01*
X201164393Y-126133608D01*
X201382900Y-126312932D01*
X201632193Y-126446182D01*
X201902692Y-126528236D01*
X202184000Y-126555943D01*
X202465309Y-126528236D01*
X202735808Y-126446182D01*
X202985101Y-126312932D01*
X203203608Y-126133608D01*
X203382932Y-125915101D01*
X203454000Y-125782142D01*
X203525068Y-125915101D01*
X203704393Y-126133608D01*
X203922900Y-126312932D01*
X204172193Y-126446182D01*
X204442692Y-126528236D01*
X204724000Y-126555943D01*
X205005309Y-126528236D01*
X205275808Y-126446182D01*
X205525101Y-126312932D01*
X205743608Y-126133608D01*
X205922932Y-125915101D01*
X205994000Y-125782142D01*
X206065068Y-125915101D01*
X206244393Y-126133608D01*
X206462900Y-126312932D01*
X206712193Y-126446182D01*
X206982692Y-126528236D01*
X207264000Y-126555943D01*
X207545309Y-126528236D01*
X207815808Y-126446182D01*
X208065101Y-126312932D01*
X208283608Y-126133608D01*
X208462932Y-125915101D01*
X208534000Y-125782142D01*
X208605068Y-125915101D01*
X208784393Y-126133608D01*
X209002900Y-126312932D01*
X209252193Y-126446182D01*
X209522692Y-126528236D01*
X209804000Y-126555943D01*
X210085309Y-126528236D01*
X210355808Y-126446182D01*
X210605101Y-126312932D01*
X210823608Y-126133608D01*
X211002932Y-125915101D01*
X211074000Y-125782142D01*
X211145068Y-125915101D01*
X211324393Y-126133608D01*
X211542900Y-126312932D01*
X211792193Y-126446182D01*
X212062692Y-126528236D01*
X212344000Y-126555943D01*
X212625309Y-126528236D01*
X212895808Y-126446182D01*
X213145101Y-126312932D01*
X213363608Y-126133608D01*
X213542932Y-125915101D01*
X213614000Y-125782142D01*
X213685068Y-125915101D01*
X213864393Y-126133608D01*
X214082900Y-126312932D01*
X214332193Y-126446182D01*
X214602692Y-126528236D01*
X214884000Y-126555943D01*
X215165309Y-126528236D01*
X215435808Y-126446182D01*
X215685101Y-126312932D01*
X215903608Y-126133608D01*
X216082932Y-125915101D01*
X216216182Y-125665808D01*
X216298236Y-125395309D01*
X216319000Y-125184491D01*
X216319000Y-124243508D01*
X216298236Y-124032691D01*
X216216182Y-123762192D01*
X216082932Y-123512899D01*
X215903607Y-123294392D01*
X215685100Y-123115068D01*
X215435807Y-122981818D01*
X215165308Y-122899764D01*
X214884000Y-122872057D01*
X214602691Y-122899764D01*
X214332192Y-122981818D01*
X214082899Y-123115068D01*
X213864392Y-123294393D01*
X213685068Y-123512900D01*
X213614000Y-123645858D01*
X213542932Y-123512899D01*
X213363607Y-123294392D01*
X213145100Y-123115068D01*
X212895807Y-122981818D01*
X212625308Y-122899764D01*
X212344000Y-122872057D01*
X212062691Y-122899764D01*
X211792192Y-122981818D01*
X211542899Y-123115068D01*
X211324392Y-123294393D01*
X211145068Y-123512900D01*
X211074000Y-123645858D01*
X211002932Y-123512899D01*
X210823607Y-123294392D01*
X210605100Y-123115068D01*
X210355807Y-122981818D01*
X210085308Y-122899764D01*
X209804000Y-122872057D01*
X209522691Y-122899764D01*
X209252192Y-122981818D01*
X209002899Y-123115068D01*
X208784392Y-123294393D01*
X208605068Y-123512900D01*
X208534000Y-123645858D01*
X208462932Y-123512899D01*
X208283607Y-123294392D01*
X208065100Y-123115068D01*
X207815807Y-122981818D01*
X207545308Y-122899764D01*
X207264000Y-122872057D01*
X206982691Y-122899764D01*
X206712192Y-122981818D01*
X206462899Y-123115068D01*
X206244392Y-123294393D01*
X206065068Y-123512900D01*
X205994000Y-123645858D01*
X205922932Y-123512899D01*
X205743607Y-123294392D01*
X205525100Y-123115068D01*
X205275807Y-122981818D01*
X205005308Y-122899764D01*
X204724000Y-122872057D01*
X204442691Y-122899764D01*
X204172192Y-122981818D01*
X203922899Y-123115068D01*
X203704392Y-123294393D01*
X203525068Y-123512900D01*
X203454000Y-123645858D01*
X203382932Y-123512899D01*
X203203607Y-123294392D01*
X202985100Y-123115068D01*
X202735807Y-122981818D01*
X202465308Y-122899764D01*
X202184000Y-122872057D01*
X201902691Y-122899764D01*
X201632192Y-122981818D01*
X201382899Y-123115068D01*
X201164392Y-123294393D01*
X200985068Y-123512900D01*
X200914000Y-123645858D01*
X200842932Y-123512899D01*
X200663607Y-123294392D01*
X200445100Y-123115068D01*
X200195807Y-122981818D01*
X199925308Y-122899764D01*
X199644000Y-122872057D01*
X199362691Y-122899764D01*
X199092192Y-122981818D01*
X198842899Y-123115068D01*
X198624392Y-123294393D01*
X198445068Y-123512900D01*
X198311818Y-123762193D01*
X198229764Y-124032692D01*
X198209000Y-124243509D01*
X185035000Y-124243509D01*
X185035000Y-117899721D01*
X188715000Y-117899721D01*
X188715000Y-118320279D01*
X188797047Y-118732756D01*
X188957988Y-119121302D01*
X189191637Y-119470983D01*
X189489017Y-119768363D01*
X189838698Y-120002012D01*
X190227244Y-120162953D01*
X190639721Y-120245000D01*
X191060279Y-120245000D01*
X191472756Y-120162953D01*
X191861302Y-120002012D01*
X192210983Y-119768363D01*
X192508363Y-119470983D01*
X192742012Y-119121302D01*
X192902953Y-118732756D01*
X192985000Y-118320279D01*
X192985000Y-118237000D01*
X220715000Y-118237000D01*
X220715000Y-118637000D01*
X220769271Y-118934023D01*
X220880446Y-119214751D01*
X221044252Y-119468396D01*
X221254394Y-119685210D01*
X221502796Y-119856862D01*
X221779913Y-119976755D01*
X221885260Y-120001036D01*
X222123000Y-119880378D01*
X222123000Y-118237000D01*
X220715000Y-118237000D01*
X192985000Y-118237000D01*
X192985000Y-117899721D01*
X192922001Y-117583000D01*
X220715000Y-117583000D01*
X220715000Y-117983000D01*
X222123000Y-117983000D01*
X222123000Y-116339622D01*
X222377000Y-116339622D01*
X222377000Y-117983000D01*
X222397000Y-117983000D01*
X222397000Y-118237000D01*
X222377000Y-118237000D01*
X222377000Y-119880378D01*
X222614740Y-120001036D01*
X222720087Y-119976755D01*
X222997204Y-119856862D01*
X223245606Y-119685210D01*
X223455748Y-119468396D01*
X223515219Y-119376308D01*
X223699339Y-119600661D01*
X223933073Y-119792481D01*
X224199739Y-119935017D01*
X224489087Y-120022790D01*
X224790000Y-120052427D01*
X225090912Y-120022790D01*
X225380260Y-119935017D01*
X225646926Y-119792481D01*
X225880661Y-119600661D01*
X226060000Y-119382135D01*
X226239339Y-119600661D01*
X226473073Y-119792481D01*
X226739739Y-119935017D01*
X227029087Y-120022790D01*
X227330000Y-120052427D01*
X227630912Y-120022790D01*
X227920260Y-119935017D01*
X228186926Y-119792481D01*
X228420661Y-119600661D01*
X228600000Y-119382135D01*
X228779339Y-119600661D01*
X229013073Y-119792481D01*
X229279739Y-119935017D01*
X229569087Y-120022790D01*
X229870000Y-120052427D01*
X230170912Y-120022790D01*
X230460260Y-119935017D01*
X230726926Y-119792481D01*
X230960661Y-119600661D01*
X231140000Y-119382135D01*
X231319339Y-119600661D01*
X231553073Y-119792481D01*
X231819739Y-119935017D01*
X232109087Y-120022790D01*
X232410000Y-120052427D01*
X232710912Y-120022790D01*
X233000260Y-119935017D01*
X233266926Y-119792481D01*
X233500661Y-119600661D01*
X233680000Y-119382135D01*
X233859339Y-119600661D01*
X234093073Y-119792481D01*
X234359739Y-119935017D01*
X234649087Y-120022790D01*
X234950000Y-120052427D01*
X235250912Y-120022790D01*
X235540260Y-119935017D01*
X235806926Y-119792481D01*
X236040661Y-119600661D01*
X236220000Y-119382135D01*
X236399339Y-119600661D01*
X236633073Y-119792481D01*
X236899739Y-119935017D01*
X237189087Y-120022790D01*
X237490000Y-120052427D01*
X237790912Y-120022790D01*
X238080260Y-119935017D01*
X238346926Y-119792481D01*
X238580661Y-119600661D01*
X238760000Y-119382135D01*
X238939339Y-119600661D01*
X239173073Y-119792481D01*
X239439739Y-119935017D01*
X239729087Y-120022790D01*
X240030000Y-120052427D01*
X240330912Y-120022790D01*
X240620260Y-119935017D01*
X240886926Y-119792481D01*
X241120661Y-119600661D01*
X241300000Y-119382135D01*
X241479339Y-119600661D01*
X241713073Y-119792481D01*
X241979739Y-119935017D01*
X242269087Y-120022790D01*
X242570000Y-120052427D01*
X242870912Y-120022790D01*
X243160260Y-119935017D01*
X243426926Y-119792481D01*
X243660661Y-119600661D01*
X243840000Y-119382135D01*
X244019339Y-119600661D01*
X244253073Y-119792481D01*
X244519739Y-119935017D01*
X244809087Y-120022790D01*
X245110000Y-120052427D01*
X245410912Y-120022790D01*
X245414801Y-120021610D01*
X245384774Y-120094102D01*
X245345000Y-120294061D01*
X245345000Y-120497939D01*
X245384774Y-120697898D01*
X245462795Y-120886256D01*
X245576063Y-121055774D01*
X245720226Y-121199937D01*
X245889744Y-121313205D01*
X246078102Y-121391226D01*
X246134957Y-121402535D01*
X246231466Y-121499044D01*
X246259183Y-121532817D01*
X246393941Y-121643411D01*
X246547687Y-121725589D01*
X246714510Y-121776195D01*
X246844523Y-121789000D01*
X246844533Y-121789000D01*
X246887999Y-121793281D01*
X246931465Y-121789000D01*
X256772531Y-121789000D01*
X256816000Y-121793281D01*
X256859469Y-121789000D01*
X256859477Y-121789000D01*
X256989490Y-121776195D01*
X257156313Y-121725589D01*
X257310059Y-121643411D01*
X257444817Y-121532817D01*
X257472534Y-121499044D01*
X258405049Y-120566530D01*
X258438817Y-120538817D01*
X258549411Y-120404059D01*
X258631589Y-120250313D01*
X258682195Y-120083490D01*
X258695000Y-119953477D01*
X258695000Y-119953467D01*
X258699281Y-119910001D01*
X258695000Y-119866535D01*
X258695000Y-119769441D01*
X258855505Y-119637720D01*
X258860498Y-119654180D01*
X258919463Y-119764494D01*
X258998815Y-119861185D01*
X259095506Y-119940537D01*
X259205820Y-119999502D01*
X259325518Y-120035812D01*
X259450000Y-120048072D01*
X260064250Y-120045000D01*
X260223000Y-119886250D01*
X260223000Y-118237000D01*
X260477000Y-118237000D01*
X260477000Y-119886250D01*
X260635750Y-120045000D01*
X261250000Y-120048072D01*
X261374482Y-120035812D01*
X261494180Y-119999502D01*
X261604494Y-119940537D01*
X261701185Y-119861185D01*
X261780537Y-119764494D01*
X261839502Y-119654180D01*
X261875812Y-119534482D01*
X261888072Y-119410000D01*
X261885000Y-118395750D01*
X261726250Y-118237000D01*
X260477000Y-118237000D01*
X260223000Y-118237000D01*
X260203000Y-118237000D01*
X260203000Y-117983000D01*
X260223000Y-117983000D01*
X260223000Y-116333750D01*
X260477000Y-116333750D01*
X260477000Y-117983000D01*
X261726250Y-117983000D01*
X261809529Y-117899721D01*
X263714100Y-117899721D01*
X263714100Y-118320279D01*
X263796147Y-118732756D01*
X263957088Y-119121302D01*
X264190737Y-119470983D01*
X264488117Y-119768363D01*
X264837798Y-120002012D01*
X265226344Y-120162953D01*
X265638821Y-120245000D01*
X266059379Y-120245000D01*
X266471856Y-120162953D01*
X266860402Y-120002012D01*
X267210083Y-119768363D01*
X267507463Y-119470983D01*
X267741112Y-119121302D01*
X267902053Y-118732756D01*
X267984100Y-118320279D01*
X267984100Y-117899721D01*
X267902053Y-117487244D01*
X267741112Y-117098698D01*
X267507463Y-116749017D01*
X267210083Y-116451637D01*
X266860402Y-116217988D01*
X266471856Y-116057047D01*
X266059379Y-115975000D01*
X265638821Y-115975000D01*
X265226344Y-116057047D01*
X264837798Y-116217988D01*
X264488117Y-116451637D01*
X264190737Y-116749017D01*
X263957088Y-117098698D01*
X263796147Y-117487244D01*
X263714100Y-117899721D01*
X261809529Y-117899721D01*
X261885000Y-117824250D01*
X261888072Y-116810000D01*
X261875812Y-116685518D01*
X261839502Y-116565820D01*
X261780537Y-116455506D01*
X261701185Y-116358815D01*
X261604494Y-116279463D01*
X261494180Y-116220498D01*
X261374482Y-116184188D01*
X261250000Y-116171928D01*
X260635750Y-116175000D01*
X260477000Y-116333750D01*
X260223000Y-116333750D01*
X260064250Y-116175000D01*
X259450000Y-116171928D01*
X259325518Y-116184188D01*
X259205820Y-116220498D01*
X259095506Y-116279463D01*
X258998815Y-116358815D01*
X258919463Y-116455506D01*
X258860498Y-116565820D01*
X258855505Y-116582280D01*
X258666927Y-116427519D01*
X258400261Y-116284983D01*
X258110913Y-116197210D01*
X257810000Y-116167573D01*
X257509088Y-116197210D01*
X257219740Y-116284983D01*
X256953074Y-116427519D01*
X256719339Y-116619339D01*
X256540000Y-116837865D01*
X256360661Y-116619339D01*
X256126927Y-116427519D01*
X255860261Y-116284983D01*
X255570913Y-116197210D01*
X255270000Y-116167573D01*
X254969088Y-116197210D01*
X254679740Y-116284983D01*
X254413074Y-116427519D01*
X254179339Y-116619339D01*
X254000000Y-116837865D01*
X253820661Y-116619339D01*
X253586927Y-116427519D01*
X253320261Y-116284983D01*
X253030913Y-116197210D01*
X252730000Y-116167573D01*
X252429088Y-116197210D01*
X252139740Y-116284983D01*
X251873074Y-116427519D01*
X251639339Y-116619339D01*
X251460000Y-116837865D01*
X251280661Y-116619339D01*
X251046927Y-116427519D01*
X250780261Y-116284983D01*
X250490913Y-116197210D01*
X250190000Y-116167573D01*
X249889088Y-116197210D01*
X249599740Y-116284983D01*
X249333074Y-116427519D01*
X249099339Y-116619339D01*
X248920000Y-116837865D01*
X248740661Y-116619339D01*
X248506927Y-116427519D01*
X248240261Y-116284983D01*
X247950913Y-116197210D01*
X247650000Y-116167573D01*
X247349088Y-116197210D01*
X247059740Y-116284983D01*
X246793074Y-116427519D01*
X246559339Y-116619339D01*
X246380000Y-116837865D01*
X246200661Y-116619339D01*
X245966927Y-116427519D01*
X245700261Y-116284983D01*
X245410913Y-116197210D01*
X245110000Y-116167573D01*
X244809088Y-116197210D01*
X244519740Y-116284983D01*
X244253074Y-116427519D01*
X244019339Y-116619339D01*
X243840000Y-116837865D01*
X243660661Y-116619339D01*
X243426927Y-116427519D01*
X243160261Y-116284983D01*
X242870913Y-116197210D01*
X242570000Y-116167573D01*
X242269088Y-116197210D01*
X241979740Y-116284983D01*
X241713074Y-116427519D01*
X241479339Y-116619339D01*
X241300000Y-116837865D01*
X241120661Y-116619339D01*
X240886927Y-116427519D01*
X240620261Y-116284983D01*
X240330913Y-116197210D01*
X240030000Y-116167573D01*
X239729088Y-116197210D01*
X239439740Y-116284983D01*
X239173074Y-116427519D01*
X238939339Y-116619339D01*
X238760000Y-116837865D01*
X238580661Y-116619339D01*
X238346927Y-116427519D01*
X238080261Y-116284983D01*
X237790913Y-116197210D01*
X237490000Y-116167573D01*
X237189088Y-116197210D01*
X236899740Y-116284983D01*
X236633074Y-116427519D01*
X236399339Y-116619339D01*
X236220000Y-116837865D01*
X236040661Y-116619339D01*
X235806927Y-116427519D01*
X235540261Y-116284983D01*
X235250913Y-116197210D01*
X234950000Y-116167573D01*
X234649088Y-116197210D01*
X234359740Y-116284983D01*
X234093074Y-116427519D01*
X233859339Y-116619339D01*
X233680000Y-116837865D01*
X233500661Y-116619339D01*
X233266927Y-116427519D01*
X233000261Y-116284983D01*
X232710913Y-116197210D01*
X232410000Y-116167573D01*
X232109088Y-116197210D01*
X231819740Y-116284983D01*
X231553074Y-116427519D01*
X231319339Y-116619339D01*
X231140000Y-116837865D01*
X230960661Y-116619339D01*
X230726927Y-116427519D01*
X230460261Y-116284983D01*
X230170913Y-116197210D01*
X229870000Y-116167573D01*
X229569088Y-116197210D01*
X229279740Y-116284983D01*
X229013074Y-116427519D01*
X228779339Y-116619339D01*
X228600000Y-116837865D01*
X228420661Y-116619339D01*
X228186927Y-116427519D01*
X227920261Y-116284983D01*
X227630913Y-116197210D01*
X227330000Y-116167573D01*
X227029088Y-116197210D01*
X226739740Y-116284983D01*
X226473074Y-116427519D01*
X226239339Y-116619339D01*
X226060000Y-116837865D01*
X225880661Y-116619339D01*
X225646927Y-116427519D01*
X225380261Y-116284983D01*
X225090913Y-116197210D01*
X224790000Y-116167573D01*
X224489088Y-116197210D01*
X224199740Y-116284983D01*
X223933074Y-116427519D01*
X223699339Y-116619339D01*
X223515219Y-116843691D01*
X223455748Y-116751604D01*
X223245606Y-116534790D01*
X222997204Y-116363138D01*
X222720087Y-116243245D01*
X222614740Y-116218964D01*
X222377000Y-116339622D01*
X222123000Y-116339622D01*
X221885260Y-116218964D01*
X221779913Y-116243245D01*
X221502796Y-116363138D01*
X221254394Y-116534790D01*
X221044252Y-116751604D01*
X220880446Y-117005249D01*
X220769271Y-117285977D01*
X220715000Y-117583000D01*
X192922001Y-117583000D01*
X192902953Y-117487244D01*
X192742012Y-117098698D01*
X192508363Y-116749017D01*
X192210983Y-116451637D01*
X191861302Y-116217988D01*
X191472756Y-116057047D01*
X191060279Y-115975000D01*
X190639721Y-115975000D01*
X190227244Y-116057047D01*
X189838698Y-116217988D01*
X189489017Y-116451637D01*
X189191637Y-116749017D01*
X188957988Y-117098698D01*
X188797047Y-117487244D01*
X188715000Y-117899721D01*
X185035000Y-117899721D01*
X185035000Y-112634578D01*
X186523050Y-111146529D01*
X186556817Y-111118817D01*
X186667411Y-110984059D01*
X186749589Y-110830313D01*
X186800195Y-110663490D01*
X186813000Y-110533477D01*
X186813000Y-110533469D01*
X186817281Y-110490000D01*
X186813000Y-110446531D01*
X186813000Y-109906759D01*
X186983134Y-109767134D01*
X187168706Y-109541014D01*
X187306599Y-109283034D01*
X187391513Y-109003111D01*
X187420185Y-108712000D01*
X187391513Y-108420889D01*
X187306599Y-108140966D01*
X187168706Y-107882986D01*
X187063000Y-107754183D01*
X187063000Y-107129817D01*
X187168706Y-107001014D01*
X187306599Y-106743034D01*
X187391513Y-106463111D01*
X187420185Y-106172000D01*
X187391513Y-105880889D01*
X187306599Y-105600966D01*
X187168706Y-105342986D01*
X187063000Y-105214183D01*
X187063000Y-104589817D01*
X187168706Y-104461014D01*
X187306599Y-104203034D01*
X187391513Y-103923111D01*
X187420185Y-103632000D01*
X187391513Y-103340889D01*
X187306599Y-103060966D01*
X187168706Y-102802986D01*
X187063000Y-102674183D01*
X187063000Y-102257984D01*
X240967000Y-102257984D01*
X240967000Y-102974016D01*
X241106691Y-103676290D01*
X241380705Y-104337818D01*
X241778511Y-104933177D01*
X242284823Y-105439489D01*
X242880182Y-105837295D01*
X243541710Y-106111309D01*
X244243984Y-106251000D01*
X244960016Y-106251000D01*
X245662290Y-106111309D01*
X246323818Y-105837295D01*
X246919177Y-105439489D01*
X247425489Y-104933177D01*
X247823295Y-104337818D01*
X248097309Y-103676290D01*
X248237000Y-102974016D01*
X248237000Y-102257984D01*
X248097309Y-101555710D01*
X247823295Y-100894182D01*
X247425489Y-100298823D01*
X246919177Y-99792511D01*
X246323818Y-99394705D01*
X245662290Y-99120691D01*
X244960016Y-98981000D01*
X244243984Y-98981000D01*
X243541710Y-99120691D01*
X242880182Y-99394705D01*
X242284823Y-99792511D01*
X241778511Y-100298823D01*
X241380705Y-100894182D01*
X241106691Y-101555710D01*
X240967000Y-102257984D01*
X187063000Y-102257984D01*
X187063000Y-102049817D01*
X187168706Y-101921014D01*
X187306599Y-101663034D01*
X187391513Y-101383111D01*
X187420185Y-101092000D01*
X187391513Y-100800889D01*
X187306599Y-100520966D01*
X187168706Y-100262986D01*
X187063000Y-100134183D01*
X187063000Y-99509817D01*
X187168706Y-99381014D01*
X187306599Y-99123034D01*
X187391513Y-98843111D01*
X187420185Y-98552000D01*
X187391513Y-98260889D01*
X187306599Y-97980966D01*
X187168706Y-97722986D01*
X187138340Y-97685984D01*
X195501000Y-97685984D01*
X195501000Y-98402016D01*
X195640691Y-99104290D01*
X195914705Y-99765818D01*
X196312511Y-100361177D01*
X196818823Y-100867489D01*
X197414182Y-101265295D01*
X198075710Y-101539309D01*
X198777984Y-101679000D01*
X199494016Y-101679000D01*
X200196290Y-101539309D01*
X200857818Y-101265295D01*
X201453177Y-100867489D01*
X201959489Y-100361177D01*
X202357295Y-99765818D01*
X202631309Y-99104290D01*
X202771000Y-98402016D01*
X202771000Y-97685984D01*
X202631309Y-96983710D01*
X202357295Y-96322182D01*
X201959489Y-95726823D01*
X201453177Y-95220511D01*
X200857818Y-94822705D01*
X200196290Y-94548691D01*
X199494016Y-94409000D01*
X198777984Y-94409000D01*
X198075710Y-94548691D01*
X197414182Y-94822705D01*
X196818823Y-95220511D01*
X196312511Y-95726823D01*
X195914705Y-96322182D01*
X195640691Y-96983710D01*
X195501000Y-97685984D01*
X187138340Y-97685984D01*
X187063000Y-97594183D01*
X187063000Y-96969817D01*
X187168706Y-96841014D01*
X187306599Y-96583034D01*
X187391513Y-96303111D01*
X187420185Y-96012000D01*
X187391513Y-95720889D01*
X187306599Y-95440966D01*
X187168706Y-95182986D01*
X187063000Y-95054183D01*
X187063000Y-94429817D01*
X187168706Y-94301014D01*
X187306599Y-94043034D01*
X187391513Y-93763111D01*
X187420185Y-93472000D01*
X187391513Y-93180889D01*
X187306599Y-92900966D01*
X187168706Y-92642986D01*
X187063000Y-92514183D01*
X187063000Y-91889817D01*
X187168706Y-91761014D01*
X187306599Y-91503034D01*
X187391513Y-91223111D01*
X187420185Y-90932000D01*
X187391513Y-90640889D01*
X187306599Y-90360966D01*
X187168706Y-90102986D01*
X187063000Y-89974183D01*
X187063000Y-89349817D01*
X187168706Y-89221014D01*
X187306599Y-88963034D01*
X187391513Y-88683111D01*
X187420185Y-88392000D01*
X187391513Y-88100889D01*
X187306599Y-87820966D01*
X187168706Y-87562986D01*
X187063000Y-87434183D01*
X187063000Y-86899021D01*
X188715520Y-86899021D01*
X188715520Y-87319579D01*
X188797567Y-87732056D01*
X188958508Y-88120602D01*
X189192157Y-88470283D01*
X189489537Y-88767663D01*
X189839218Y-89001312D01*
X190227764Y-89162253D01*
X190640241Y-89244300D01*
X191060799Y-89244300D01*
X191473276Y-89162253D01*
X191861822Y-89001312D01*
X192211503Y-88767663D01*
X192508883Y-88470283D01*
X192742532Y-88120602D01*
X192903473Y-87732056D01*
X192985520Y-87319579D01*
X192985520Y-86899021D01*
X263714100Y-86899021D01*
X263714100Y-87319579D01*
X263796147Y-87732056D01*
X263957088Y-88120602D01*
X264190737Y-88470283D01*
X264488117Y-88767663D01*
X264837798Y-89001312D01*
X265226344Y-89162253D01*
X265638821Y-89244300D01*
X266059379Y-89244300D01*
X266471856Y-89162253D01*
X266860402Y-89001312D01*
X267210083Y-88767663D01*
X267507463Y-88470283D01*
X267559769Y-88392000D01*
X269525815Y-88392000D01*
X269554487Y-88683111D01*
X269639401Y-88963034D01*
X269777294Y-89221014D01*
X269962866Y-89447134D01*
X270188986Y-89632706D01*
X270243791Y-89662000D01*
X270188986Y-89691294D01*
X269962866Y-89876866D01*
X269777294Y-90102986D01*
X269639401Y-90360966D01*
X269554487Y-90640889D01*
X269525815Y-90932000D01*
X269554487Y-91223111D01*
X269639401Y-91503034D01*
X269777294Y-91761014D01*
X269962866Y-91987134D01*
X270188986Y-92172706D01*
X270243791Y-92202000D01*
X270188986Y-92231294D01*
X269962866Y-92416866D01*
X269777294Y-92642986D01*
X269639401Y-92900966D01*
X269554487Y-93180889D01*
X269525815Y-93472000D01*
X269554487Y-93763111D01*
X269639401Y-94043034D01*
X269777294Y-94301014D01*
X269962866Y-94527134D01*
X270188986Y-94712706D01*
X270243791Y-94742000D01*
X270188986Y-94771294D01*
X269962866Y-94956866D01*
X269777294Y-95182986D01*
X269639401Y-95440966D01*
X269554487Y-95720889D01*
X269525815Y-96012000D01*
X269554487Y-96303111D01*
X269639401Y-96583034D01*
X269777294Y-96841014D01*
X269962866Y-97067134D01*
X270188986Y-97252706D01*
X270243791Y-97282000D01*
X270188986Y-97311294D01*
X269962866Y-97496866D01*
X269777294Y-97722986D01*
X269639401Y-97980966D01*
X269554487Y-98260889D01*
X269525815Y-98552000D01*
X269554487Y-98843111D01*
X269639401Y-99123034D01*
X269777294Y-99381014D01*
X269962866Y-99607134D01*
X270188986Y-99792706D01*
X270243791Y-99822000D01*
X270188986Y-99851294D01*
X269962866Y-100036866D01*
X269777294Y-100262986D01*
X269639401Y-100520966D01*
X269554487Y-100800889D01*
X269525815Y-101092000D01*
X269554487Y-101383111D01*
X269639401Y-101663034D01*
X269777294Y-101921014D01*
X269962866Y-102147134D01*
X270188986Y-102332706D01*
X270243791Y-102362000D01*
X270188986Y-102391294D01*
X269962866Y-102576866D01*
X269777294Y-102802986D01*
X269639401Y-103060966D01*
X269554487Y-103340889D01*
X269525815Y-103632000D01*
X269554487Y-103923111D01*
X269639401Y-104203034D01*
X269777294Y-104461014D01*
X269962866Y-104687134D01*
X270188986Y-104872706D01*
X270243791Y-104902000D01*
X270188986Y-104931294D01*
X269962866Y-105116866D01*
X269777294Y-105342986D01*
X269639401Y-105600966D01*
X269554487Y-105880889D01*
X269525815Y-106172000D01*
X269554487Y-106463111D01*
X269639401Y-106743034D01*
X269777294Y-107001014D01*
X269962866Y-107227134D01*
X270188986Y-107412706D01*
X270243791Y-107442000D01*
X270188986Y-107471294D01*
X269962866Y-107656866D01*
X269777294Y-107882986D01*
X269639401Y-108140966D01*
X269554487Y-108420889D01*
X269525815Y-108712000D01*
X269554487Y-109003111D01*
X269639401Y-109283034D01*
X269777294Y-109541014D01*
X269962866Y-109767134D01*
X270188986Y-109952706D01*
X270446966Y-110090599D01*
X270726889Y-110175513D01*
X270945050Y-110197000D01*
X271090950Y-110197000D01*
X271309111Y-110175513D01*
X271589034Y-110090599D01*
X271847014Y-109952706D01*
X272073134Y-109767134D01*
X272258706Y-109541014D01*
X272289584Y-109483244D01*
X272460412Y-109712269D01*
X272676645Y-109907178D01*
X272926748Y-110056157D01*
X273201109Y-110153481D01*
X273431000Y-110032814D01*
X273431000Y-108839000D01*
X273685000Y-108839000D01*
X273685000Y-110032814D01*
X273914891Y-110153481D01*
X274189252Y-110056157D01*
X274439355Y-109907178D01*
X274655588Y-109712269D01*
X274829641Y-109478920D01*
X274954825Y-109216099D01*
X274999476Y-109068890D01*
X274878155Y-108839000D01*
X273685000Y-108839000D01*
X273431000Y-108839000D01*
X273411000Y-108839000D01*
X273411000Y-108585000D01*
X273431000Y-108585000D01*
X273431000Y-106299000D01*
X273685000Y-106299000D01*
X273685000Y-108585000D01*
X274878155Y-108585000D01*
X274999476Y-108355110D01*
X274954825Y-108207901D01*
X274829641Y-107945080D01*
X274655588Y-107711731D01*
X274439355Y-107516822D01*
X274313745Y-107442000D01*
X274439355Y-107367178D01*
X274655588Y-107172269D01*
X274829641Y-106938920D01*
X274954825Y-106676099D01*
X274999476Y-106528890D01*
X274878155Y-106299000D01*
X273685000Y-106299000D01*
X273431000Y-106299000D01*
X273411000Y-106299000D01*
X273411000Y-106045000D01*
X273431000Y-106045000D01*
X273431000Y-103759000D01*
X273685000Y-103759000D01*
X273685000Y-106045000D01*
X274878155Y-106045000D01*
X274999476Y-105815110D01*
X274954825Y-105667901D01*
X274829641Y-105405080D01*
X274655588Y-105171731D01*
X274439355Y-104976822D01*
X274313745Y-104902000D01*
X274439355Y-104827178D01*
X274655588Y-104632269D01*
X274829641Y-104398920D01*
X274954825Y-104136099D01*
X274999476Y-103988890D01*
X274878155Y-103759000D01*
X273685000Y-103759000D01*
X273431000Y-103759000D01*
X273411000Y-103759000D01*
X273411000Y-103505000D01*
X273431000Y-103505000D01*
X273431000Y-101219000D01*
X273685000Y-101219000D01*
X273685000Y-103505000D01*
X274878155Y-103505000D01*
X274999476Y-103275110D01*
X274954825Y-103127901D01*
X274829641Y-102865080D01*
X274655588Y-102631731D01*
X274439355Y-102436822D01*
X274313745Y-102362000D01*
X274439355Y-102287178D01*
X274655588Y-102092269D01*
X274829641Y-101858920D01*
X274954825Y-101596099D01*
X274999476Y-101448890D01*
X274878155Y-101219000D01*
X273685000Y-101219000D01*
X273431000Y-101219000D01*
X273411000Y-101219000D01*
X273411000Y-100965000D01*
X273431000Y-100965000D01*
X273431000Y-98679000D01*
X273685000Y-98679000D01*
X273685000Y-100965000D01*
X274878155Y-100965000D01*
X274999476Y-100735110D01*
X274954825Y-100587901D01*
X274829641Y-100325080D01*
X274655588Y-100091731D01*
X274439355Y-99896822D01*
X274313745Y-99822000D01*
X274439355Y-99747178D01*
X274655588Y-99552269D01*
X274829641Y-99318920D01*
X274954825Y-99056099D01*
X274999476Y-98908890D01*
X274878155Y-98679000D01*
X273685000Y-98679000D01*
X273431000Y-98679000D01*
X273411000Y-98679000D01*
X273411000Y-98425000D01*
X273431000Y-98425000D01*
X273431000Y-96139000D01*
X273685000Y-96139000D01*
X273685000Y-98425000D01*
X274878155Y-98425000D01*
X274999476Y-98195110D01*
X274954825Y-98047901D01*
X274829641Y-97785080D01*
X274655588Y-97551731D01*
X274439355Y-97356822D01*
X274313745Y-97282000D01*
X274439355Y-97207178D01*
X274655588Y-97012269D01*
X274829641Y-96778920D01*
X274954825Y-96516099D01*
X274999476Y-96368890D01*
X274878155Y-96139000D01*
X273685000Y-96139000D01*
X273431000Y-96139000D01*
X273411000Y-96139000D01*
X273411000Y-95885000D01*
X273431000Y-95885000D01*
X273431000Y-93599000D01*
X273685000Y-93599000D01*
X273685000Y-95885000D01*
X274878155Y-95885000D01*
X274999476Y-95655110D01*
X274954825Y-95507901D01*
X274829641Y-95245080D01*
X274655588Y-95011731D01*
X274439355Y-94816822D01*
X274313745Y-94742000D01*
X274439355Y-94667178D01*
X274655588Y-94472269D01*
X274829641Y-94238920D01*
X274954825Y-93976099D01*
X274999476Y-93828890D01*
X274878155Y-93599000D01*
X273685000Y-93599000D01*
X273431000Y-93599000D01*
X273411000Y-93599000D01*
X273411000Y-93345000D01*
X273431000Y-93345000D01*
X273431000Y-91059000D01*
X273685000Y-91059000D01*
X273685000Y-93345000D01*
X274878155Y-93345000D01*
X274999476Y-93115110D01*
X274954825Y-92967901D01*
X274829641Y-92705080D01*
X274655588Y-92471731D01*
X274439355Y-92276822D01*
X274313745Y-92202000D01*
X274439355Y-92127178D01*
X274655588Y-91932269D01*
X274829641Y-91698920D01*
X274954825Y-91436099D01*
X274999476Y-91288890D01*
X274878155Y-91059000D01*
X273685000Y-91059000D01*
X273431000Y-91059000D01*
X273411000Y-91059000D01*
X273411000Y-90805000D01*
X273431000Y-90805000D01*
X273431000Y-88519000D01*
X273685000Y-88519000D01*
X273685000Y-90805000D01*
X274878155Y-90805000D01*
X274999476Y-90575110D01*
X274954825Y-90427901D01*
X274829641Y-90165080D01*
X274655588Y-89931731D01*
X274439355Y-89736822D01*
X274313745Y-89662000D01*
X274439355Y-89587178D01*
X274655588Y-89392269D01*
X274829641Y-89158920D01*
X274954825Y-88896099D01*
X274999476Y-88748890D01*
X274878155Y-88519000D01*
X273685000Y-88519000D01*
X273431000Y-88519000D01*
X273411000Y-88519000D01*
X273411000Y-88265000D01*
X273431000Y-88265000D01*
X273431000Y-85979000D01*
X273685000Y-85979000D01*
X273685000Y-88265000D01*
X274878155Y-88265000D01*
X274999476Y-88035110D01*
X274954825Y-87887901D01*
X274829641Y-87625080D01*
X274655588Y-87391731D01*
X274439355Y-87196822D01*
X274313745Y-87122000D01*
X274439355Y-87047178D01*
X274655588Y-86852269D01*
X274829641Y-86618920D01*
X274954825Y-86356099D01*
X274999476Y-86208890D01*
X274878155Y-85979000D01*
X273685000Y-85979000D01*
X273431000Y-85979000D01*
X273411000Y-85979000D01*
X273411000Y-85725000D01*
X273431000Y-85725000D01*
X273431000Y-84531186D01*
X273685000Y-84531186D01*
X273685000Y-85725000D01*
X274878155Y-85725000D01*
X274999476Y-85495110D01*
X274954825Y-85347901D01*
X274829641Y-85085080D01*
X274655588Y-84851731D01*
X274439355Y-84656822D01*
X274189252Y-84507843D01*
X273914891Y-84410519D01*
X273685000Y-84531186D01*
X273431000Y-84531186D01*
X273201109Y-84410519D01*
X272926748Y-84507843D01*
X272676645Y-84656822D01*
X272480498Y-84833626D01*
X272457502Y-84757820D01*
X272398537Y-84647506D01*
X272319185Y-84550815D01*
X272222494Y-84471463D01*
X272112180Y-84412498D01*
X271992482Y-84376188D01*
X271868000Y-84363928D01*
X270168000Y-84363928D01*
X270043518Y-84376188D01*
X269923820Y-84412498D01*
X269813506Y-84471463D01*
X269716815Y-84550815D01*
X269637463Y-84647506D01*
X269578498Y-84757820D01*
X269542188Y-84877518D01*
X269529928Y-85002000D01*
X269529928Y-86702000D01*
X269542188Y-86826482D01*
X269578498Y-86946180D01*
X269637463Y-87056494D01*
X269716815Y-87153185D01*
X269813506Y-87232537D01*
X269923820Y-87291502D01*
X269992687Y-87312393D01*
X269962866Y-87336866D01*
X269777294Y-87562986D01*
X269639401Y-87820966D01*
X269554487Y-88100889D01*
X269525815Y-88392000D01*
X267559769Y-88392000D01*
X267741112Y-88120602D01*
X267902053Y-87732056D01*
X267984100Y-87319579D01*
X267984100Y-86899021D01*
X267902053Y-86486544D01*
X267741112Y-86097998D01*
X267507463Y-85748317D01*
X267210083Y-85450937D01*
X266860402Y-85217288D01*
X266471856Y-85056347D01*
X266059379Y-84974300D01*
X265638821Y-84974300D01*
X265226344Y-85056347D01*
X264837798Y-85217288D01*
X264488117Y-85450937D01*
X264190737Y-85748317D01*
X263957088Y-86097998D01*
X263796147Y-86486544D01*
X263714100Y-86899021D01*
X192985520Y-86899021D01*
X192903473Y-86486544D01*
X192742532Y-86097998D01*
X192508883Y-85748317D01*
X192211503Y-85450937D01*
X191861822Y-85217288D01*
X191473276Y-85056347D01*
X191060799Y-84974300D01*
X190640241Y-84974300D01*
X190227764Y-85056347D01*
X189839218Y-85217288D01*
X189489537Y-85450937D01*
X189192157Y-85748317D01*
X188958508Y-86097998D01*
X188797567Y-86486544D01*
X188715520Y-86899021D01*
X187063000Y-86899021D01*
X187063000Y-86809817D01*
X187168706Y-86681014D01*
X187306599Y-86423034D01*
X187391513Y-86143111D01*
X187420185Y-85852000D01*
X187391513Y-85560889D01*
X187306599Y-85280966D01*
X187168706Y-85022986D01*
X186983134Y-84796866D01*
X186757014Y-84611294D01*
X186499034Y-84473401D01*
X186219111Y-84388487D01*
X186000950Y-84367000D01*
X185855050Y-84367000D01*
X185636889Y-84388487D01*
X185356966Y-84473401D01*
X185098986Y-84611294D01*
X184872866Y-84796866D01*
X184848393Y-84826687D01*
X184827502Y-84757820D01*
X184768537Y-84647506D01*
X184689185Y-84550815D01*
X184592494Y-84471463D01*
X184482180Y-84412498D01*
X184362482Y-84376188D01*
X184238000Y-84363928D01*
X182538000Y-84363928D01*
X182413518Y-84376188D01*
X182293820Y-84412498D01*
X182183506Y-84471463D01*
X182086815Y-84550815D01*
X182007463Y-84647506D01*
X181948498Y-84757820D01*
X181912188Y-84877518D01*
X181899928Y-85002000D01*
X181899928Y-86702000D01*
X181912188Y-86826482D01*
X181948498Y-86946180D01*
X182007463Y-87056494D01*
X182086815Y-87153185D01*
X182183506Y-87232537D01*
X182253001Y-87269683D01*
X182253001Y-87434182D01*
X182147294Y-87562986D01*
X182009401Y-87820966D01*
X181924487Y-88100889D01*
X181895815Y-88392000D01*
X181924487Y-88683111D01*
X182009401Y-88963034D01*
X182147294Y-89221014D01*
X182253001Y-89349818D01*
X182253001Y-89974182D01*
X182147294Y-90102986D01*
X182009401Y-90360966D01*
X181924487Y-90640889D01*
X181895815Y-90932000D01*
X181924487Y-91223111D01*
X182009401Y-91503034D01*
X182147294Y-91761014D01*
X182253001Y-91889818D01*
X182253001Y-92514182D01*
X182147294Y-92642986D01*
X182009401Y-92900966D01*
X181924487Y-93180889D01*
X181895815Y-93472000D01*
X181924487Y-93763111D01*
X182009401Y-94043034D01*
X182147294Y-94301014D01*
X182253001Y-94429818D01*
X182253001Y-95054182D01*
X182147294Y-95182986D01*
X182009401Y-95440966D01*
X181924487Y-95720889D01*
X181895815Y-96012000D01*
X181924487Y-96303111D01*
X182009401Y-96583034D01*
X182147294Y-96841014D01*
X182253001Y-96969818D01*
X182253000Y-97594182D01*
X182147294Y-97722986D01*
X182009401Y-97980966D01*
X181924487Y-98260889D01*
X181895815Y-98552000D01*
X181924487Y-98843111D01*
X182009401Y-99123034D01*
X182147294Y-99381014D01*
X182253000Y-99509818D01*
X182253000Y-100134182D01*
X182147294Y-100262986D01*
X182009401Y-100520966D01*
X181924487Y-100800889D01*
X181895815Y-101092000D01*
X181924487Y-101383111D01*
X182009401Y-101663034D01*
X182147294Y-101921014D01*
X182253000Y-102049817D01*
X182253000Y-102674183D01*
X182147294Y-102802986D01*
X182009401Y-103060966D01*
X181924487Y-103340889D01*
X181895815Y-103632000D01*
X181924487Y-103923111D01*
X182009401Y-104203034D01*
X182147294Y-104461014D01*
X182253000Y-104589817D01*
X182253000Y-105214183D01*
X182147294Y-105342986D01*
X182009401Y-105600966D01*
X181924487Y-105880889D01*
X181895815Y-106172000D01*
X181924487Y-106463111D01*
X182009401Y-106743034D01*
X182147294Y-107001014D01*
X182253000Y-107129817D01*
X182253000Y-107754183D01*
X182147294Y-107882986D01*
X182009401Y-108140966D01*
X181924487Y-108420889D01*
X181895815Y-108712000D01*
X181924487Y-109003111D01*
X182009401Y-109283034D01*
X182147294Y-109541014D01*
X182332866Y-109767134D01*
X182503001Y-109906760D01*
X182503000Y-112083513D01*
X182503001Y-112083523D01*
X182503000Y-125940531D01*
X182498719Y-125984000D01*
X182503000Y-126027469D01*
X182503000Y-126027476D01*
X182515805Y-126157489D01*
X182566411Y-126324312D01*
X182648589Y-126478058D01*
X182759183Y-126612817D01*
X182792956Y-126640534D01*
X185017470Y-128865049D01*
X185045183Y-128898817D01*
X185078951Y-128926530D01*
X185078953Y-128926532D01*
X185150452Y-128985210D01*
X185179941Y-129009411D01*
X185333687Y-129091589D01*
X185500510Y-129142195D01*
X185630523Y-129155000D01*
X185630533Y-129155000D01*
X185673999Y-129159281D01*
X185717465Y-129155000D01*
X254395422Y-129155000D01*
X256437000Y-131196579D01*
X256436999Y-135275285D01*
X256313309Y-135237764D01*
X256102492Y-135217000D01*
X255961508Y-135217000D01*
X255750691Y-135237764D01*
X255480192Y-135319818D01*
X255230899Y-135453068D01*
X255012392Y-135632392D01*
X254833068Y-135850899D01*
X254762000Y-135983858D01*
X254690932Y-135850899D01*
X254511608Y-135632392D01*
X254293101Y-135453068D01*
X254043808Y-135319818D01*
X253773309Y-135237764D01*
X253562492Y-135217000D01*
X253421508Y-135217000D01*
X253210691Y-135237764D01*
X252940192Y-135319818D01*
X252690899Y-135453068D01*
X252472392Y-135632392D01*
X252293068Y-135850899D01*
X252222000Y-135983858D01*
X252150932Y-135850899D01*
X251971608Y-135632392D01*
X251753101Y-135453068D01*
X251503808Y-135319818D01*
X251233309Y-135237764D01*
X251022492Y-135217000D01*
X250881508Y-135217000D01*
X250670691Y-135237764D01*
X250400192Y-135319818D01*
X250150899Y-135453068D01*
X249932392Y-135632392D01*
X249753068Y-135850899D01*
X249682000Y-135983858D01*
X249610932Y-135850899D01*
X249431608Y-135632392D01*
X249213101Y-135453068D01*
X248963808Y-135319818D01*
X248693309Y-135237764D01*
X248482492Y-135217000D01*
X248341508Y-135217000D01*
X248130691Y-135237764D01*
X247860192Y-135319818D01*
X247610899Y-135453068D01*
X247392392Y-135632392D01*
X247213068Y-135850899D01*
X247142000Y-135983858D01*
X247070932Y-135850899D01*
X246891608Y-135632392D01*
X246673101Y-135453068D01*
X246423808Y-135319818D01*
X246153309Y-135237764D01*
X245942492Y-135217000D01*
X245801508Y-135217000D01*
X245590691Y-135237764D01*
X245320192Y-135319818D01*
X245070899Y-135453068D01*
X244852392Y-135632392D01*
X244673068Y-135850899D01*
X244602000Y-135983858D01*
X244530932Y-135850899D01*
X244351608Y-135632392D01*
X244133101Y-135453068D01*
X243883808Y-135319818D01*
X243613309Y-135237764D01*
X243402492Y-135217000D01*
X243261508Y-135217000D01*
X243050691Y-135237764D01*
X242780192Y-135319818D01*
X242530899Y-135453068D01*
X242312392Y-135632392D01*
X242133068Y-135850899D01*
X242062000Y-135983858D01*
X241990932Y-135850899D01*
X241811608Y-135632392D01*
X241593101Y-135453068D01*
X241343808Y-135319818D01*
X241073309Y-135237764D01*
X240862492Y-135217000D01*
X240721508Y-135217000D01*
X240510691Y-135237764D01*
X240240192Y-135319818D01*
X239990899Y-135453068D01*
X239772392Y-135632392D01*
X239593068Y-135850899D01*
X239519421Y-135988682D01*
X239404385Y-135796869D01*
X239215414Y-135588481D01*
X238989420Y-135420963D01*
X238735087Y-135300754D01*
X238601039Y-135260096D01*
X238379000Y-135382085D01*
X238379000Y-136525000D01*
X238399000Y-136525000D01*
X238399000Y-136779000D01*
X238379000Y-136779000D01*
X238379000Y-137921915D01*
X238601039Y-138043904D01*
X238735087Y-138003246D01*
X238989420Y-137883037D01*
X239215414Y-137715519D01*
X239404385Y-137507131D01*
X239519421Y-137315318D01*
X239593068Y-137453101D01*
X239772392Y-137671608D01*
X239990899Y-137850932D01*
X240240192Y-137984182D01*
X240510691Y-138066236D01*
X240721508Y-138087000D01*
X240862492Y-138087000D01*
X241073309Y-138066236D01*
X241343808Y-137984182D01*
X241593101Y-137850932D01*
X241811608Y-137671608D01*
X241990932Y-137453101D01*
X242062000Y-137320142D01*
X242133068Y-137453101D01*
X242312392Y-137671608D01*
X242530899Y-137850932D01*
X242780192Y-137984182D01*
X243050691Y-138066236D01*
X243261508Y-138087000D01*
X243402492Y-138087000D01*
X243613309Y-138066236D01*
X243883808Y-137984182D01*
X244133101Y-137850932D01*
X244351608Y-137671608D01*
X244530932Y-137453101D01*
X244602000Y-137320142D01*
X244673068Y-137453101D01*
X244852392Y-137671608D01*
X245070899Y-137850932D01*
X245320192Y-137984182D01*
X245590691Y-138066236D01*
X245801508Y-138087000D01*
X245942492Y-138087000D01*
X246153309Y-138066236D01*
X246423808Y-137984182D01*
X246673101Y-137850932D01*
X246891608Y-137671608D01*
X247070932Y-137453101D01*
X247142000Y-137320142D01*
X247213068Y-137453101D01*
X247392392Y-137671608D01*
X247610899Y-137850932D01*
X247860192Y-137984182D01*
X248130691Y-138066236D01*
X248341508Y-138087000D01*
X248482492Y-138087000D01*
X248693309Y-138066236D01*
X248963808Y-137984182D01*
X249213101Y-137850932D01*
X249431608Y-137671608D01*
X249610932Y-137453101D01*
X249682000Y-137320142D01*
X249753068Y-137453101D01*
X249932392Y-137671608D01*
X250063157Y-137778924D01*
X250062719Y-137783370D01*
X250079805Y-137956860D01*
X250130412Y-138123683D01*
X250212590Y-138277429D01*
X250295468Y-138378416D01*
X250295471Y-138378419D01*
X250323184Y-138412187D01*
X250356951Y-138439899D01*
X252132071Y-140215020D01*
X250103449Y-140215020D01*
X250059980Y-140210739D01*
X250016511Y-140215020D01*
X250016503Y-140215020D01*
X249886490Y-140227825D01*
X249719666Y-140278431D01*
X249565921Y-140360609D01*
X249464933Y-140443488D01*
X249464931Y-140443490D01*
X249431163Y-140471203D01*
X249403450Y-140504971D01*
X247816951Y-142091471D01*
X247783184Y-142119183D01*
X247755471Y-142152951D01*
X247755468Y-142152954D01*
X247672590Y-142253941D01*
X247590412Y-142407687D01*
X247539805Y-142574510D01*
X247522719Y-142748000D01*
X247527001Y-142791479D01*
X247527000Y-150761922D01*
X247392392Y-150872392D01*
X247213068Y-151090899D01*
X247142000Y-151223858D01*
X247070932Y-151090899D01*
X246891608Y-150872392D01*
X246673101Y-150693068D01*
X246423808Y-150559818D01*
X246153309Y-150477764D01*
X245942492Y-150457000D01*
X245801508Y-150457000D01*
X245590691Y-150477764D01*
X245320192Y-150559818D01*
X245070899Y-150693068D01*
X244852392Y-150872392D01*
X244673068Y-151090899D01*
X244602000Y-151223858D01*
X244530932Y-151090899D01*
X244351608Y-150872392D01*
X244133101Y-150693068D01*
X243883808Y-150559818D01*
X243613309Y-150477764D01*
X243402492Y-150457000D01*
X243261508Y-150457000D01*
X243050691Y-150477764D01*
X242780192Y-150559818D01*
X242530899Y-150693068D01*
X242312392Y-150872392D01*
X242133068Y-151090899D01*
X242062000Y-151223858D01*
X241990932Y-151090899D01*
X241811608Y-150872392D01*
X241593101Y-150693068D01*
X241343808Y-150559818D01*
X241073309Y-150477764D01*
X240862492Y-150457000D01*
X240721508Y-150457000D01*
X240510691Y-150477764D01*
X240240192Y-150559818D01*
X239990899Y-150693068D01*
X239772392Y-150872392D01*
X239593068Y-151090899D01*
X239522000Y-151223858D01*
X239450932Y-151090899D01*
X239271608Y-150872392D01*
X239053101Y-150693068D01*
X238803808Y-150559818D01*
X238533309Y-150477764D01*
X238322492Y-150457000D01*
X238181508Y-150457000D01*
X237970691Y-150477764D01*
X237700192Y-150559818D01*
X237450899Y-150693068D01*
X237232392Y-150872392D01*
X237139581Y-150985482D01*
X237137812Y-150967518D01*
X237101502Y-150847820D01*
X237042537Y-150737506D01*
X236963185Y-150640815D01*
X236866494Y-150561463D01*
X236756180Y-150502498D01*
X236636482Y-150466188D01*
X236512000Y-150453928D01*
X234912000Y-150453928D01*
X234787518Y-150466188D01*
X234667820Y-150502498D01*
X234557506Y-150561463D01*
X234460815Y-150640815D01*
X234381463Y-150737506D01*
X234322498Y-150847820D01*
X234286188Y-150967518D01*
X234273928Y-151092000D01*
X234273928Y-152692000D01*
X234286188Y-152816482D01*
X234322498Y-152936180D01*
X234381463Y-153046494D01*
X234460815Y-153143185D01*
X234557506Y-153222537D01*
X234667820Y-153281502D01*
X234787518Y-153317812D01*
X234912000Y-153330072D01*
X236512000Y-153330072D01*
X236636482Y-153317812D01*
X236756180Y-153281502D01*
X236866494Y-153222537D01*
X236963185Y-153143185D01*
X237042537Y-153046494D01*
X237101502Y-152936180D01*
X237137812Y-152816482D01*
X237139581Y-152798518D01*
X237232392Y-152911608D01*
X237450899Y-153090932D01*
X237700192Y-153224182D01*
X237970691Y-153306236D01*
X238181508Y-153327000D01*
X238322492Y-153327000D01*
X238533309Y-153306236D01*
X238803808Y-153224182D01*
X239053101Y-153090932D01*
X239271608Y-152911608D01*
X239450932Y-152693101D01*
X239522000Y-152560142D01*
X239593068Y-152693101D01*
X239772392Y-152911608D01*
X239990899Y-153090932D01*
X240240192Y-153224182D01*
X240510691Y-153306236D01*
X240721508Y-153327000D01*
X240862492Y-153327000D01*
X241073309Y-153306236D01*
X241343808Y-153224182D01*
X241593101Y-153090932D01*
X241811608Y-152911608D01*
X241990932Y-152693101D01*
X242062000Y-152560142D01*
X242133068Y-152693101D01*
X242312392Y-152911608D01*
X242530899Y-153090932D01*
X242780192Y-153224182D01*
X243050691Y-153306236D01*
X243261508Y-153327000D01*
X243402492Y-153327000D01*
X243613309Y-153306236D01*
X243883808Y-153224182D01*
X244133101Y-153090932D01*
X244351608Y-152911608D01*
X244530932Y-152693101D01*
X244602000Y-152560142D01*
X244673068Y-152693101D01*
X244852392Y-152911608D01*
X244987001Y-153022078D01*
X244987001Y-153049420D01*
X243727422Y-154309000D01*
X217536579Y-154309000D01*
X215007000Y-151779422D01*
X215007000Y-146142967D01*
X219345000Y-146142967D01*
X219345000Y-146465033D01*
X219407832Y-146780912D01*
X219531082Y-147078463D01*
X219710013Y-147346252D01*
X219937748Y-147573987D01*
X220205537Y-147752918D01*
X220503088Y-147876168D01*
X220818967Y-147939000D01*
X221141033Y-147939000D01*
X221456912Y-147876168D01*
X221754463Y-147752918D01*
X222022252Y-147573987D01*
X222249987Y-147346252D01*
X222428918Y-147078463D01*
X222552168Y-146780912D01*
X222615000Y-146465033D01*
X222615000Y-146142967D01*
X225845000Y-146142967D01*
X225845000Y-146465033D01*
X225907832Y-146780912D01*
X226031082Y-147078463D01*
X226210013Y-147346252D01*
X226437748Y-147573987D01*
X226705537Y-147752918D01*
X227003088Y-147876168D01*
X227318967Y-147939000D01*
X227641033Y-147939000D01*
X227956912Y-147876168D01*
X228254463Y-147752918D01*
X228522252Y-147573987D01*
X228749987Y-147346252D01*
X228928918Y-147078463D01*
X229052168Y-146780912D01*
X229115000Y-146465033D01*
X229115000Y-146142967D01*
X229052168Y-145827088D01*
X228928918Y-145529537D01*
X228749987Y-145261748D01*
X228522252Y-145034013D01*
X228254463Y-144855082D01*
X227956912Y-144731832D01*
X227641033Y-144669000D01*
X227318967Y-144669000D01*
X227003088Y-144731832D01*
X226705537Y-144855082D01*
X226437748Y-145034013D01*
X226210013Y-145261748D01*
X226031082Y-145529537D01*
X225907832Y-145827088D01*
X225845000Y-146142967D01*
X222615000Y-146142967D01*
X222552168Y-145827088D01*
X222428918Y-145529537D01*
X222249987Y-145261748D01*
X222022252Y-145034013D01*
X221754463Y-144855082D01*
X221456912Y-144731832D01*
X221141033Y-144669000D01*
X220818967Y-144669000D01*
X220503088Y-144731832D01*
X220205537Y-144855082D01*
X219937748Y-145034013D01*
X219710013Y-145261748D01*
X219531082Y-145529537D01*
X219407832Y-145827088D01*
X219345000Y-146142967D01*
X215007000Y-146142967D01*
X215007000Y-144421984D01*
X235379000Y-144421984D01*
X235379000Y-145138016D01*
X235518691Y-145840290D01*
X235792705Y-146501818D01*
X236190511Y-147097177D01*
X236696823Y-147603489D01*
X237292182Y-148001295D01*
X237953710Y-148275309D01*
X238655984Y-148415000D01*
X239372016Y-148415000D01*
X240074290Y-148275309D01*
X240735818Y-148001295D01*
X241331177Y-147603489D01*
X241837489Y-147097177D01*
X242235295Y-146501818D01*
X242509309Y-145840290D01*
X242649000Y-145138016D01*
X242649000Y-144421984D01*
X242509309Y-143719710D01*
X242235295Y-143058182D01*
X241837489Y-142462823D01*
X241331177Y-141956511D01*
X240735818Y-141558705D01*
X240074290Y-141284691D01*
X239372016Y-141145000D01*
X238655984Y-141145000D01*
X237953710Y-141284691D01*
X237292182Y-141558705D01*
X236696823Y-141956511D01*
X236190511Y-142462823D01*
X235792705Y-143058182D01*
X235518691Y-143719710D01*
X235379000Y-144421984D01*
X215007000Y-144421984D01*
X215007000Y-142939413D01*
X220024192Y-142939413D01*
X220119956Y-143203814D01*
X220409571Y-143344704D01*
X220721108Y-143426384D01*
X221042595Y-143445718D01*
X221361675Y-143401961D01*
X221666088Y-143296795D01*
X221840044Y-143203814D01*
X221935808Y-142939413D01*
X226524192Y-142939413D01*
X226619956Y-143203814D01*
X226909571Y-143344704D01*
X227221108Y-143426384D01*
X227542595Y-143445718D01*
X227861675Y-143401961D01*
X228166088Y-143296795D01*
X228340044Y-143203814D01*
X228435808Y-142939413D01*
X227480000Y-141983605D01*
X226524192Y-142939413D01*
X221935808Y-142939413D01*
X220980000Y-141983605D01*
X220024192Y-142939413D01*
X215007000Y-142939413D01*
X215007000Y-141866595D01*
X219338282Y-141866595D01*
X219382039Y-142185675D01*
X219487205Y-142490088D01*
X219580186Y-142664044D01*
X219844587Y-142759808D01*
X220800395Y-141804000D01*
X221159605Y-141804000D01*
X222115413Y-142759808D01*
X222379814Y-142664044D01*
X222520704Y-142374429D01*
X222602384Y-142062892D01*
X222614189Y-141866595D01*
X225838282Y-141866595D01*
X225882039Y-142185675D01*
X225987205Y-142490088D01*
X226080186Y-142664044D01*
X226344587Y-142759808D01*
X227300395Y-141804000D01*
X227659605Y-141804000D01*
X228615413Y-142759808D01*
X228879814Y-142664044D01*
X229020704Y-142374429D01*
X229102384Y-142062892D01*
X229121718Y-141741405D01*
X229077961Y-141422325D01*
X228972795Y-141117912D01*
X228879814Y-140943956D01*
X228615413Y-140848192D01*
X227659605Y-141804000D01*
X227300395Y-141804000D01*
X226344587Y-140848192D01*
X226080186Y-140943956D01*
X225939296Y-141233571D01*
X225857616Y-141545108D01*
X225838282Y-141866595D01*
X222614189Y-141866595D01*
X222621718Y-141741405D01*
X222577961Y-141422325D01*
X222472795Y-141117912D01*
X222379814Y-140943956D01*
X222115413Y-140848192D01*
X221159605Y-141804000D01*
X220800395Y-141804000D01*
X219844587Y-140848192D01*
X219580186Y-140943956D01*
X219439296Y-141233571D01*
X219357616Y-141545108D01*
X219338282Y-141866595D01*
X215007000Y-141866595D01*
X215007000Y-140668587D01*
X220024192Y-140668587D01*
X220980000Y-141624395D01*
X221935808Y-140668587D01*
X226524192Y-140668587D01*
X227480000Y-141624395D01*
X228435808Y-140668587D01*
X228340044Y-140404186D01*
X228249341Y-140360061D01*
X241535000Y-140360061D01*
X241535000Y-140563939D01*
X241574774Y-140763898D01*
X241652795Y-140952256D01*
X241766063Y-141121774D01*
X241910226Y-141265937D01*
X242079744Y-141379205D01*
X242268102Y-141457226D01*
X242468061Y-141497000D01*
X242671939Y-141497000D01*
X242871898Y-141457226D01*
X243060256Y-141379205D01*
X243229774Y-141265937D01*
X243373937Y-141121774D01*
X243487205Y-140952256D01*
X243565226Y-140763898D01*
X243605000Y-140563939D01*
X243605000Y-140360061D01*
X243565226Y-140160102D01*
X243487205Y-139971744D01*
X243373937Y-139802226D01*
X243229774Y-139658063D01*
X243060256Y-139544795D01*
X242871898Y-139466774D01*
X242671939Y-139427000D01*
X242468061Y-139427000D01*
X242268102Y-139466774D01*
X242079744Y-139544795D01*
X241910226Y-139658063D01*
X241766063Y-139802226D01*
X241652795Y-139971744D01*
X241574774Y-140160102D01*
X241535000Y-140360061D01*
X228249341Y-140360061D01*
X228050429Y-140263296D01*
X227738892Y-140181616D01*
X227417405Y-140162282D01*
X227098325Y-140206039D01*
X226793912Y-140311205D01*
X226619956Y-140404186D01*
X226524192Y-140668587D01*
X221935808Y-140668587D01*
X221840044Y-140404186D01*
X221550429Y-140263296D01*
X221238892Y-140181616D01*
X220917405Y-140162282D01*
X220598325Y-140206039D01*
X220293912Y-140311205D01*
X220119956Y-140404186D01*
X220024192Y-140668587D01*
X215007000Y-140668587D01*
X215007000Y-136652000D01*
X234270057Y-136652000D01*
X234297764Y-136933309D01*
X234379818Y-137203808D01*
X234513068Y-137453101D01*
X234692392Y-137671608D01*
X234910899Y-137850932D01*
X235160192Y-137984182D01*
X235430691Y-138066236D01*
X235641508Y-138087000D01*
X235782492Y-138087000D01*
X235993309Y-138066236D01*
X236263808Y-137984182D01*
X236513101Y-137850932D01*
X236731608Y-137671608D01*
X236910932Y-137453101D01*
X236984579Y-137315318D01*
X237099615Y-137507131D01*
X237288586Y-137715519D01*
X237514580Y-137883037D01*
X237768913Y-138003246D01*
X237902961Y-138043904D01*
X238125000Y-137921915D01*
X238125000Y-136779000D01*
X238105000Y-136779000D01*
X238105000Y-136525000D01*
X238125000Y-136525000D01*
X238125000Y-135382085D01*
X237902961Y-135260096D01*
X237768913Y-135300754D01*
X237514580Y-135420963D01*
X237288586Y-135588481D01*
X237099615Y-135796869D01*
X236984579Y-135988682D01*
X236910932Y-135850899D01*
X236731608Y-135632392D01*
X236513101Y-135453068D01*
X236263808Y-135319818D01*
X235993309Y-135237764D01*
X235782492Y-135217000D01*
X235641508Y-135217000D01*
X235430691Y-135237764D01*
X235160192Y-135319818D01*
X234910899Y-135453068D01*
X234692392Y-135632392D01*
X234513068Y-135850899D01*
X234379818Y-136100192D01*
X234297764Y-136370691D01*
X234270057Y-136652000D01*
X215007000Y-136652000D01*
X215007000Y-135855469D01*
X215011281Y-135812000D01*
X215007000Y-135768531D01*
X215007000Y-135768523D01*
X214994195Y-135638510D01*
X214943589Y-135471687D01*
X214861411Y-135317941D01*
X214815084Y-135261492D01*
X214778532Y-135216953D01*
X214778530Y-135216951D01*
X214750817Y-135183183D01*
X214717049Y-135155470D01*
X213337013Y-133775434D01*
X213363608Y-133753608D01*
X213542932Y-133535101D01*
X213611265Y-133407259D01*
X213761399Y-133636839D01*
X213959105Y-133838500D01*
X214192354Y-133997715D01*
X214452182Y-134108367D01*
X214534961Y-134125904D01*
X214757000Y-134003915D01*
X214757000Y-132461000D01*
X215011000Y-132461000D01*
X215011000Y-134003915D01*
X215233039Y-134125904D01*
X215315818Y-134108367D01*
X215575646Y-133997715D01*
X215808895Y-133838500D01*
X216006601Y-133636839D01*
X216161166Y-133400483D01*
X216266650Y-133138514D01*
X216319000Y-132861000D01*
X216319000Y-132461000D01*
X215011000Y-132461000D01*
X214757000Y-132461000D01*
X214737000Y-132461000D01*
X214737000Y-132207000D01*
X214757000Y-132207000D01*
X214757000Y-130664085D01*
X215011000Y-130664085D01*
X215011000Y-132207000D01*
X216319000Y-132207000D01*
X216319000Y-131807000D01*
X216266650Y-131529486D01*
X216161166Y-131267517D01*
X216006601Y-131031161D01*
X215808895Y-130829500D01*
X215575646Y-130670285D01*
X215315818Y-130559633D01*
X215233039Y-130542096D01*
X215011000Y-130664085D01*
X214757000Y-130664085D01*
X214534961Y-130542096D01*
X214452182Y-130559633D01*
X214192354Y-130670285D01*
X213959105Y-130829500D01*
X213761399Y-131031161D01*
X213611265Y-131260741D01*
X213542932Y-131132899D01*
X213363607Y-130914392D01*
X213145100Y-130735068D01*
X212895807Y-130601818D01*
X212625308Y-130519764D01*
X212344000Y-130492057D01*
X212062691Y-130519764D01*
X211792192Y-130601818D01*
X211542899Y-130735068D01*
X211324392Y-130914393D01*
X211145068Y-131132900D01*
X211074000Y-131265858D01*
X211002932Y-131132899D01*
X210823607Y-130914392D01*
X210605100Y-130735068D01*
X210355807Y-130601818D01*
X210085308Y-130519764D01*
X209804000Y-130492057D01*
X209522691Y-130519764D01*
X209252192Y-130601818D01*
X209002899Y-130735068D01*
X208784392Y-130914393D01*
X208605068Y-131132900D01*
X208534000Y-131265858D01*
X208462932Y-131132899D01*
X208283607Y-130914392D01*
X208065100Y-130735068D01*
X207815807Y-130601818D01*
X207545308Y-130519764D01*
X207264000Y-130492057D01*
X206982691Y-130519764D01*
X206712192Y-130601818D01*
X206462899Y-130735068D01*
X206244392Y-130914393D01*
X206065068Y-131132900D01*
X205994000Y-131265858D01*
X205922932Y-131132899D01*
X205743607Y-130914392D01*
X205525100Y-130735068D01*
X205275807Y-130601818D01*
X205005308Y-130519764D01*
X204724000Y-130492057D01*
X204442691Y-130519764D01*
X204172192Y-130601818D01*
X203922899Y-130735068D01*
X203704392Y-130914393D01*
X203525068Y-131132900D01*
X203454000Y-131265858D01*
X203382932Y-131132899D01*
X203203607Y-130914392D01*
X202985100Y-130735068D01*
X202735807Y-130601818D01*
X202465308Y-130519764D01*
X202184000Y-130492057D01*
X201902691Y-130519764D01*
X201632192Y-130601818D01*
X201382899Y-130735068D01*
X201164392Y-130914393D01*
X201071581Y-131027483D01*
X201069812Y-131009518D01*
X201033502Y-130889820D01*
X200974537Y-130779506D01*
X200895185Y-130682815D01*
X200798494Y-130603463D01*
X200688180Y-130544498D01*
X200568482Y-130508188D01*
X200444000Y-130495928D01*
X198844000Y-130495928D01*
X198719518Y-130508188D01*
X198599820Y-130544498D01*
X198489506Y-130603463D01*
X198392815Y-130682815D01*
X198313463Y-130779506D01*
X198254498Y-130889820D01*
X198218188Y-131009518D01*
X198205928Y-131134000D01*
X198205928Y-133534000D01*
X198218188Y-133658482D01*
X198254498Y-133778180D01*
X198313463Y-133888494D01*
X198392815Y-133985185D01*
X198489506Y-134064537D01*
X198599820Y-134123502D01*
X198719518Y-134159812D01*
X198844000Y-134172072D01*
X200444000Y-134172072D01*
X200568482Y-134159812D01*
X200688180Y-134123502D01*
X200798494Y-134064537D01*
X200895185Y-133985185D01*
X200974537Y-133888494D01*
X201033502Y-133778180D01*
X201069812Y-133658482D01*
X201071581Y-133640517D01*
X201164393Y-133753608D01*
X201299001Y-133864078D01*
X201299001Y-133990521D01*
X201294719Y-134034000D01*
X201311805Y-134207490D01*
X201362412Y-134374313D01*
X201444590Y-134528059D01*
X201527468Y-134629046D01*
X201527471Y-134629049D01*
X201555184Y-134662817D01*
X201588951Y-134690529D01*
X202875470Y-135977049D01*
X202903183Y-136010817D01*
X202936951Y-136038530D01*
X202936953Y-136038532D01*
X202961254Y-136058475D01*
X203037941Y-136121411D01*
X203191687Y-136203589D01*
X203358510Y-136254195D01*
X203488523Y-136267000D01*
X203488531Y-136267000D01*
X203532000Y-136271281D01*
X203575469Y-136267000D01*
X211345498Y-136267000D01*
X211713000Y-136634503D01*
X211713001Y-152558447D01*
X211708719Y-152601926D01*
X211725805Y-152775416D01*
X211776412Y-152942239D01*
X211858590Y-153095985D01*
X211941468Y-153196972D01*
X211941471Y-153196975D01*
X211969184Y-153230743D01*
X212002951Y-153258456D01*
X215564495Y-156820000D01*
X181388281Y-156820000D01*
X181287469Y-156810115D01*
X181221542Y-156790211D01*
X181160745Y-156757885D01*
X181107382Y-156714362D01*
X181063485Y-156661300D01*
X181030734Y-156600727D01*
X181010372Y-156534947D01*
X181000000Y-156436269D01*
X181000000Y-146142967D01*
X186175000Y-146142967D01*
X186175000Y-146465033D01*
X186237832Y-146780912D01*
X186361082Y-147078463D01*
X186540013Y-147346252D01*
X186767748Y-147573987D01*
X187035537Y-147752918D01*
X187333088Y-147876168D01*
X187648967Y-147939000D01*
X187971033Y-147939000D01*
X188286912Y-147876168D01*
X188584463Y-147752918D01*
X188852252Y-147573987D01*
X189079987Y-147346252D01*
X189258918Y-147078463D01*
X189382168Y-146780912D01*
X189445000Y-146465033D01*
X189445000Y-146142967D01*
X192675000Y-146142967D01*
X192675000Y-146465033D01*
X192737832Y-146780912D01*
X192861082Y-147078463D01*
X193040013Y-147346252D01*
X193267748Y-147573987D01*
X193535537Y-147752918D01*
X193833088Y-147876168D01*
X194148967Y-147939000D01*
X194471033Y-147939000D01*
X194786912Y-147876168D01*
X195084463Y-147752918D01*
X195352252Y-147573987D01*
X195579987Y-147346252D01*
X195758918Y-147078463D01*
X195882168Y-146780912D01*
X195945000Y-146465033D01*
X195945000Y-146142967D01*
X201669000Y-146142967D01*
X201669000Y-146465033D01*
X201731832Y-146780912D01*
X201855082Y-147078463D01*
X202034013Y-147346252D01*
X202261748Y-147573987D01*
X202529537Y-147752918D01*
X202827088Y-147876168D01*
X203142967Y-147939000D01*
X203465033Y-147939000D01*
X203780912Y-147876168D01*
X204078463Y-147752918D01*
X204346252Y-147573987D01*
X204573987Y-147346252D01*
X204752918Y-147078463D01*
X204876168Y-146780912D01*
X204939000Y-146465033D01*
X204939000Y-146142967D01*
X208169000Y-146142967D01*
X208169000Y-146465033D01*
X208231832Y-146780912D01*
X208355082Y-147078463D01*
X208534013Y-147346252D01*
X208761748Y-147573987D01*
X209029537Y-147752918D01*
X209327088Y-147876168D01*
X209642967Y-147939000D01*
X209965033Y-147939000D01*
X210280912Y-147876168D01*
X210578463Y-147752918D01*
X210846252Y-147573987D01*
X211073987Y-147346252D01*
X211252918Y-147078463D01*
X211376168Y-146780912D01*
X211439000Y-146465033D01*
X211439000Y-146142967D01*
X211376168Y-145827088D01*
X211252918Y-145529537D01*
X211073987Y-145261748D01*
X210846252Y-145034013D01*
X210578463Y-144855082D01*
X210280912Y-144731832D01*
X209965033Y-144669000D01*
X209642967Y-144669000D01*
X209327088Y-144731832D01*
X209029537Y-144855082D01*
X208761748Y-145034013D01*
X208534013Y-145261748D01*
X208355082Y-145529537D01*
X208231832Y-145827088D01*
X208169000Y-146142967D01*
X204939000Y-146142967D01*
X204876168Y-145827088D01*
X204752918Y-145529537D01*
X204573987Y-145261748D01*
X204346252Y-145034013D01*
X204078463Y-144855082D01*
X203780912Y-144731832D01*
X203465033Y-144669000D01*
X203142967Y-144669000D01*
X202827088Y-144731832D01*
X202529537Y-144855082D01*
X202261748Y-145034013D01*
X202034013Y-145261748D01*
X201855082Y-145529537D01*
X201731832Y-145827088D01*
X201669000Y-146142967D01*
X195945000Y-146142967D01*
X195882168Y-145827088D01*
X195758918Y-145529537D01*
X195579987Y-145261748D01*
X195352252Y-145034013D01*
X195084463Y-144855082D01*
X194786912Y-144731832D01*
X194471033Y-144669000D01*
X194148967Y-144669000D01*
X193833088Y-144731832D01*
X193535537Y-144855082D01*
X193267748Y-145034013D01*
X193040013Y-145261748D01*
X192861082Y-145529537D01*
X192737832Y-145827088D01*
X192675000Y-146142967D01*
X189445000Y-146142967D01*
X189382168Y-145827088D01*
X189258918Y-145529537D01*
X189079987Y-145261748D01*
X188852252Y-145034013D01*
X188584463Y-144855082D01*
X188286912Y-144731832D01*
X187971033Y-144669000D01*
X187648967Y-144669000D01*
X187333088Y-144731832D01*
X187035537Y-144855082D01*
X186767748Y-145034013D01*
X186540013Y-145261748D01*
X186361082Y-145529537D01*
X186237832Y-145827088D01*
X186175000Y-146142967D01*
X181000000Y-146142967D01*
X181000000Y-142939413D01*
X186854192Y-142939413D01*
X186949956Y-143203814D01*
X187239571Y-143344704D01*
X187551108Y-143426384D01*
X187872595Y-143445718D01*
X188191675Y-143401961D01*
X188496088Y-143296795D01*
X188670044Y-143203814D01*
X188765808Y-142939413D01*
X193354192Y-142939413D01*
X193449956Y-143203814D01*
X193739571Y-143344704D01*
X194051108Y-143426384D01*
X194372595Y-143445718D01*
X194691675Y-143401961D01*
X194996088Y-143296795D01*
X195170044Y-143203814D01*
X195265808Y-142939413D01*
X202348192Y-142939413D01*
X202443956Y-143203814D01*
X202733571Y-143344704D01*
X203045108Y-143426384D01*
X203366595Y-143445718D01*
X203685675Y-143401961D01*
X203990088Y-143296795D01*
X204164044Y-143203814D01*
X204259808Y-142939413D01*
X208848192Y-142939413D01*
X208943956Y-143203814D01*
X209233571Y-143344704D01*
X209545108Y-143426384D01*
X209866595Y-143445718D01*
X210185675Y-143401961D01*
X210490088Y-143296795D01*
X210664044Y-143203814D01*
X210759808Y-142939413D01*
X209804000Y-141983605D01*
X208848192Y-142939413D01*
X204259808Y-142939413D01*
X203304000Y-141983605D01*
X202348192Y-142939413D01*
X195265808Y-142939413D01*
X194310000Y-141983605D01*
X193354192Y-142939413D01*
X188765808Y-142939413D01*
X187810000Y-141983605D01*
X186854192Y-142939413D01*
X181000000Y-142939413D01*
X181000000Y-141866595D01*
X186168282Y-141866595D01*
X186212039Y-142185675D01*
X186317205Y-142490088D01*
X186410186Y-142664044D01*
X186674587Y-142759808D01*
X187630395Y-141804000D01*
X187989605Y-141804000D01*
X188945413Y-142759808D01*
X189209814Y-142664044D01*
X189350704Y-142374429D01*
X189432384Y-142062892D01*
X189444189Y-141866595D01*
X192668282Y-141866595D01*
X192712039Y-142185675D01*
X192817205Y-142490088D01*
X192910186Y-142664044D01*
X193174587Y-142759808D01*
X194130395Y-141804000D01*
X194489605Y-141804000D01*
X195445413Y-142759808D01*
X195709814Y-142664044D01*
X195850704Y-142374429D01*
X195932384Y-142062892D01*
X195944189Y-141866595D01*
X201662282Y-141866595D01*
X201706039Y-142185675D01*
X201811205Y-142490088D01*
X201904186Y-142664044D01*
X202168587Y-142759808D01*
X203124395Y-141804000D01*
X203483605Y-141804000D01*
X204439413Y-142759808D01*
X204703814Y-142664044D01*
X204844704Y-142374429D01*
X204926384Y-142062892D01*
X204938189Y-141866595D01*
X208162282Y-141866595D01*
X208206039Y-142185675D01*
X208311205Y-142490088D01*
X208404186Y-142664044D01*
X208668587Y-142759808D01*
X209624395Y-141804000D01*
X209983605Y-141804000D01*
X210939413Y-142759808D01*
X211203814Y-142664044D01*
X211344704Y-142374429D01*
X211426384Y-142062892D01*
X211445718Y-141741405D01*
X211401961Y-141422325D01*
X211296795Y-141117912D01*
X211203814Y-140943956D01*
X210939413Y-140848192D01*
X209983605Y-141804000D01*
X209624395Y-141804000D01*
X208668587Y-140848192D01*
X208404186Y-140943956D01*
X208263296Y-141233571D01*
X208181616Y-141545108D01*
X208162282Y-141866595D01*
X204938189Y-141866595D01*
X204945718Y-141741405D01*
X204901961Y-141422325D01*
X204796795Y-141117912D01*
X204703814Y-140943956D01*
X204439413Y-140848192D01*
X203483605Y-141804000D01*
X203124395Y-141804000D01*
X202168587Y-140848192D01*
X201904186Y-140943956D01*
X201763296Y-141233571D01*
X201681616Y-141545108D01*
X201662282Y-141866595D01*
X195944189Y-141866595D01*
X195951718Y-141741405D01*
X195907961Y-141422325D01*
X195802795Y-141117912D01*
X195709814Y-140943956D01*
X195445413Y-140848192D01*
X194489605Y-141804000D01*
X194130395Y-141804000D01*
X193174587Y-140848192D01*
X192910186Y-140943956D01*
X192769296Y-141233571D01*
X192687616Y-141545108D01*
X192668282Y-141866595D01*
X189444189Y-141866595D01*
X189451718Y-141741405D01*
X189407961Y-141422325D01*
X189302795Y-141117912D01*
X189209814Y-140943956D01*
X188945413Y-140848192D01*
X187989605Y-141804000D01*
X187630395Y-141804000D01*
X186674587Y-140848192D01*
X186410186Y-140943956D01*
X186269296Y-141233571D01*
X186187616Y-141545108D01*
X186168282Y-141866595D01*
X181000000Y-141866595D01*
X181000000Y-140668587D01*
X186854192Y-140668587D01*
X187810000Y-141624395D01*
X188765808Y-140668587D01*
X193354192Y-140668587D01*
X194310000Y-141624395D01*
X195265808Y-140668587D01*
X202348192Y-140668587D01*
X203304000Y-141624395D01*
X204259808Y-140668587D01*
X208848192Y-140668587D01*
X209804000Y-141624395D01*
X210759808Y-140668587D01*
X210664044Y-140404186D01*
X210374429Y-140263296D01*
X210062892Y-140181616D01*
X209741405Y-140162282D01*
X209422325Y-140206039D01*
X209117912Y-140311205D01*
X208943956Y-140404186D01*
X208848192Y-140668587D01*
X204259808Y-140668587D01*
X204164044Y-140404186D01*
X203874429Y-140263296D01*
X203562892Y-140181616D01*
X203241405Y-140162282D01*
X202922325Y-140206039D01*
X202617912Y-140311205D01*
X202443956Y-140404186D01*
X202348192Y-140668587D01*
X195265808Y-140668587D01*
X195170044Y-140404186D01*
X194880429Y-140263296D01*
X194568892Y-140181616D01*
X194247405Y-140162282D01*
X193928325Y-140206039D01*
X193623912Y-140311205D01*
X193449956Y-140404186D01*
X193354192Y-140668587D01*
X188765808Y-140668587D01*
X188670044Y-140404186D01*
X188380429Y-140263296D01*
X188068892Y-140181616D01*
X187747405Y-140162282D01*
X187428325Y-140206039D01*
X187123912Y-140311205D01*
X186949956Y-140404186D01*
X186854192Y-140668587D01*
X181000000Y-140668587D01*
X181000000Y-132991984D01*
X182039000Y-132991984D01*
X182039000Y-133708016D01*
X182178691Y-134410290D01*
X182452705Y-135071818D01*
X182850511Y-135667177D01*
X183356823Y-136173489D01*
X183952182Y-136571295D01*
X184613710Y-136845309D01*
X185315984Y-136985000D01*
X186032016Y-136985000D01*
X186734290Y-136845309D01*
X187395818Y-136571295D01*
X187991177Y-136173489D01*
X188497489Y-135667177D01*
X188895295Y-135071818D01*
X189169309Y-134410290D01*
X189309000Y-133708016D01*
X189309000Y-132991984D01*
X189169309Y-132289710D01*
X188895295Y-131628182D01*
X188497489Y-131032823D01*
X187991177Y-130526511D01*
X187395818Y-130128705D01*
X186734290Y-129854691D01*
X186032016Y-129715000D01*
X185315984Y-129715000D01*
X184613710Y-129854691D01*
X183952182Y-130128705D01*
X183356823Y-130526511D01*
X182850511Y-131032823D01*
X182452705Y-131628182D01*
X182178691Y-132289710D01*
X182039000Y-132991984D01*
X181000000Y-132991984D01*
X181000000Y-82582279D01*
X181014722Y-82432131D01*
X181048953Y-82318754D01*
X181104555Y-82214181D01*
X181179407Y-82122404D01*
X181270664Y-82046909D01*
X181374844Y-81990581D01*
X181487976Y-81955560D01*
X181636022Y-81940000D01*
X275557721Y-81940000D01*
X275707869Y-81954722D01*
%TD*%
M02*
