%TF.GenerationSoftware,KiCad,Pcbnew,(5.1.6)-1*%
%TF.CreationDate,2020-10-03T16:08:43+08:00*%
%TF.ProjectId,odometer_project,6f646f6d-6574-4657-925f-70726f6a6563,rev?*%
%TF.SameCoordinates,Original*%
%TF.FileFunction,Soldermask,Top*%
%TF.FilePolarity,Negative*%
%FSLAX46Y46*%
G04 Gerber Fmt 4.6, Leading zero omitted, Abs format (unit mm)*
G04 Created by KiCad (PCBNEW (5.1.6)-1) date 2020-10-03 16:08:43*
%MOMM*%
%LPD*%
G01*
G04 APERTURE LIST*
%ADD10C,0.900000*%
%ADD11C,6.500000*%
%ADD12C,1.540000*%
%ADD13O,1.800000X1.800000*%
%ADD14R,1.800000X1.800000*%
%ADD15C,3.100000*%
%ADD16O,1.900000X2.700000*%
%ADD17R,1.900000X2.700000*%
%ADD18C,2.100000*%
%ADD19O,1.700000X2.500000*%
%ADD20R,1.700000X2.500000*%
%ADD21O,1.700000X1.700000*%
%ADD22R,1.700000X1.700000*%
G04 APERTURE END LIST*
D10*
%TO.C,REF\u002A\u002A*%
X264079056Y-110316944D03*
X262382000Y-109614000D03*
X260684944Y-110316944D03*
X259982000Y-112014000D03*
X260684944Y-113711056D03*
X262382000Y-114414000D03*
X264079056Y-113711056D03*
X264782000Y-112014000D03*
D11*
X262382000Y-112014000D03*
%TD*%
D10*
%TO.C,REF\u002A\u002A*%
X188273056Y-132668944D03*
X186576000Y-131966000D03*
X184878944Y-132668944D03*
X184176000Y-134366000D03*
X184878944Y-136063056D03*
X186576000Y-136766000D03*
X188273056Y-136063056D03*
X188976000Y-134366000D03*
D11*
X186576000Y-134366000D03*
%TD*%
D10*
%TO.C,REF\u002A\u002A*%
X194148112Y-92456000D03*
X192451056Y-91753056D03*
X190754000Y-92456000D03*
X190051056Y-94153056D03*
X190754000Y-95850112D03*
X192451056Y-96553056D03*
X194148112Y-95850112D03*
X194851056Y-94153056D03*
D11*
X192451056Y-94153056D03*
%TD*%
D12*
%TO.C,RV1*%
X260858000Y-125730000D03*
X258318000Y-125730000D03*
X255778000Y-125730000D03*
%TD*%
%TO.C,R12*%
G36*
G01*
X191486262Y-125339000D02*
X190529738Y-125339000D01*
G75*
G02*
X190258000Y-125067262I0J271738D01*
G01*
X190258000Y-124360738D01*
G75*
G02*
X190529738Y-124089000I271738J0D01*
G01*
X191486262Y-124089000D01*
G75*
G02*
X191758000Y-124360738I0J-271738D01*
G01*
X191758000Y-125067262D01*
G75*
G02*
X191486262Y-125339000I-271738J0D01*
G01*
G37*
G36*
G01*
X191486262Y-127389000D02*
X190529738Y-127389000D01*
G75*
G02*
X190258000Y-127117262I0J271738D01*
G01*
X190258000Y-126410738D01*
G75*
G02*
X190529738Y-126139000I271738J0D01*
G01*
X191486262Y-126139000D01*
G75*
G02*
X191758000Y-126410738I0J-271738D01*
G01*
X191758000Y-127117262D01*
G75*
G02*
X191486262Y-127389000I-271738J0D01*
G01*
G37*
%TD*%
%TO.C,R11*%
G36*
G01*
X267178262Y-125067000D02*
X266221738Y-125067000D01*
G75*
G02*
X265950000Y-124795262I0J271738D01*
G01*
X265950000Y-124088738D01*
G75*
G02*
X266221738Y-123817000I271738J0D01*
G01*
X267178262Y-123817000D01*
G75*
G02*
X267450000Y-124088738I0J-271738D01*
G01*
X267450000Y-124795262D01*
G75*
G02*
X267178262Y-125067000I-271738J0D01*
G01*
G37*
G36*
G01*
X267178262Y-127117000D02*
X266221738Y-127117000D01*
G75*
G02*
X265950000Y-126845262I0J271738D01*
G01*
X265950000Y-126138738D01*
G75*
G02*
X266221738Y-125867000I271738J0D01*
G01*
X267178262Y-125867000D01*
G75*
G02*
X267450000Y-126138738I0J-271738D01*
G01*
X267450000Y-126845262D01*
G75*
G02*
X267178262Y-127117000I-271738J0D01*
G01*
G37*
%TD*%
%TO.C,D5*%
G36*
G01*
X189454262Y-125339000D02*
X188497738Y-125339000D01*
G75*
G02*
X188226000Y-125067262I0J271738D01*
G01*
X188226000Y-124360738D01*
G75*
G02*
X188497738Y-124089000I271738J0D01*
G01*
X189454262Y-124089000D01*
G75*
G02*
X189726000Y-124360738I0J-271738D01*
G01*
X189726000Y-125067262D01*
G75*
G02*
X189454262Y-125339000I-271738J0D01*
G01*
G37*
G36*
G01*
X189454262Y-127389000D02*
X188497738Y-127389000D01*
G75*
G02*
X188226000Y-127117262I0J271738D01*
G01*
X188226000Y-126410738D01*
G75*
G02*
X188497738Y-126139000I271738J0D01*
G01*
X189454262Y-126139000D01*
G75*
G02*
X189726000Y-126410738I0J-271738D01*
G01*
X189726000Y-127117262D01*
G75*
G02*
X189454262Y-127389000I-271738J0D01*
G01*
G37*
%TD*%
%TO.C,D4*%
G36*
G01*
X269464262Y-125085000D02*
X268507738Y-125085000D01*
G75*
G02*
X268236000Y-124813262I0J271738D01*
G01*
X268236000Y-124106738D01*
G75*
G02*
X268507738Y-123835000I271738J0D01*
G01*
X269464262Y-123835000D01*
G75*
G02*
X269736000Y-124106738I0J-271738D01*
G01*
X269736000Y-124813262D01*
G75*
G02*
X269464262Y-125085000I-271738J0D01*
G01*
G37*
G36*
G01*
X269464262Y-127135000D02*
X268507738Y-127135000D01*
G75*
G02*
X268236000Y-126863262I0J271738D01*
G01*
X268236000Y-126156738D01*
G75*
G02*
X268507738Y-125885000I271738J0D01*
G01*
X269464262Y-125885000D01*
G75*
G02*
X269736000Y-126156738I0J-271738D01*
G01*
X269736000Y-126863262D01*
G75*
G02*
X269464262Y-127135000I-271738J0D01*
G01*
G37*
%TD*%
D13*
%TO.C,JP2*%
X227330000Y-133604000D03*
X224790000Y-133604000D03*
D14*
X222250000Y-133604000D03*
%TD*%
D13*
%TO.C,JP1*%
X238252000Y-130556000D03*
X240792000Y-130556000D03*
D14*
X243332000Y-130556000D03*
%TD*%
D13*
%TO.C,J1*%
X185928000Y-119888000D03*
X185928000Y-122428000D03*
D14*
X185928000Y-124968000D03*
%TD*%
D15*
%TO.C,DS1*%
X190850000Y-118110000D03*
X190850520Y-87109300D03*
X265849100Y-87109300D03*
X265849100Y-118110000D03*
D16*
X222250000Y-118110000D03*
X224790000Y-118110000D03*
X227330000Y-118110000D03*
X229870000Y-118110000D03*
X232410000Y-118110000D03*
X234950000Y-118110000D03*
X237490000Y-118110000D03*
X240030000Y-118110000D03*
X242570000Y-118110000D03*
X245110000Y-118110000D03*
X247650000Y-118110000D03*
X250190000Y-118110000D03*
X252730000Y-118110000D03*
X255270000Y-118110000D03*
X257810000Y-118110000D03*
D17*
X260350000Y-118110000D03*
%TD*%
%TO.C,R10*%
G36*
G01*
X219149000Y-151204738D02*
X219149000Y-152161262D01*
G75*
G02*
X218877262Y-152433000I-271738J0D01*
G01*
X218170738Y-152433000D01*
G75*
G02*
X217899000Y-152161262I0J271738D01*
G01*
X217899000Y-151204738D01*
G75*
G02*
X218170738Y-150933000I271738J0D01*
G01*
X218877262Y-150933000D01*
G75*
G02*
X219149000Y-151204738I0J-271738D01*
G01*
G37*
G36*
G01*
X221199000Y-151204738D02*
X221199000Y-152161262D01*
G75*
G02*
X220927262Y-152433000I-271738J0D01*
G01*
X220220738Y-152433000D01*
G75*
G02*
X219949000Y-152161262I0J271738D01*
G01*
X219949000Y-151204738D01*
G75*
G02*
X220220738Y-150933000I271738J0D01*
G01*
X220927262Y-150933000D01*
G75*
G02*
X221199000Y-151204738I0J-271738D01*
G01*
G37*
%TD*%
%TO.C,R9*%
G36*
G01*
X201357000Y-151448738D02*
X201357000Y-152405262D01*
G75*
G02*
X201085262Y-152677000I-271738J0D01*
G01*
X200378738Y-152677000D01*
G75*
G02*
X200107000Y-152405262I0J271738D01*
G01*
X200107000Y-151448738D01*
G75*
G02*
X200378738Y-151177000I271738J0D01*
G01*
X201085262Y-151177000D01*
G75*
G02*
X201357000Y-151448738I0J-271738D01*
G01*
G37*
G36*
G01*
X203407000Y-151448738D02*
X203407000Y-152405262D01*
G75*
G02*
X203135262Y-152677000I-271738J0D01*
G01*
X202428738Y-152677000D01*
G75*
G02*
X202157000Y-152405262I0J271738D01*
G01*
X202157000Y-151448738D01*
G75*
G02*
X202428738Y-151177000I271738J0D01*
G01*
X203135262Y-151177000D01*
G75*
G02*
X203407000Y-151448738I0J-271738D01*
G01*
G37*
%TD*%
%TO.C,R8*%
G36*
G01*
X185609000Y-151458738D02*
X185609000Y-152415262D01*
G75*
G02*
X185337262Y-152687000I-271738J0D01*
G01*
X184630738Y-152687000D01*
G75*
G02*
X184359000Y-152415262I0J271738D01*
G01*
X184359000Y-151458738D01*
G75*
G02*
X184630738Y-151187000I271738J0D01*
G01*
X185337262Y-151187000D01*
G75*
G02*
X185609000Y-151458738I0J-271738D01*
G01*
G37*
G36*
G01*
X187659000Y-151458738D02*
X187659000Y-152415262D01*
G75*
G02*
X187387262Y-152687000I-271738J0D01*
G01*
X186680738Y-152687000D01*
G75*
G02*
X186409000Y-152415262I0J271738D01*
G01*
X186409000Y-151458738D01*
G75*
G02*
X186680738Y-151187000I271738J0D01*
G01*
X187387262Y-151187000D01*
G75*
G02*
X187659000Y-151458738I0J-271738D01*
G01*
G37*
%TD*%
%TO.C,D3*%
G36*
G01*
X223894000Y-151159738D02*
X223894000Y-152116262D01*
G75*
G02*
X223622262Y-152388000I-271738J0D01*
G01*
X222915738Y-152388000D01*
G75*
G02*
X222644000Y-152116262I0J271738D01*
G01*
X222644000Y-151159738D01*
G75*
G02*
X222915738Y-150888000I271738J0D01*
G01*
X223622262Y-150888000D01*
G75*
G02*
X223894000Y-151159738I0J-271738D01*
G01*
G37*
G36*
G01*
X225944000Y-151159738D02*
X225944000Y-152116262D01*
G75*
G02*
X225672262Y-152388000I-271738J0D01*
G01*
X224965738Y-152388000D01*
G75*
G02*
X224694000Y-152116262I0J271738D01*
G01*
X224694000Y-151159738D01*
G75*
G02*
X224965738Y-150888000I271738J0D01*
G01*
X225672262Y-150888000D01*
G75*
G02*
X225944000Y-151159738I0J-271738D01*
G01*
G37*
%TD*%
%TO.C,D2*%
G36*
G01*
X206102000Y-151403738D02*
X206102000Y-152360262D01*
G75*
G02*
X205830262Y-152632000I-271738J0D01*
G01*
X205123738Y-152632000D01*
G75*
G02*
X204852000Y-152360262I0J271738D01*
G01*
X204852000Y-151403738D01*
G75*
G02*
X205123738Y-151132000I271738J0D01*
G01*
X205830262Y-151132000D01*
G75*
G02*
X206102000Y-151403738I0J-271738D01*
G01*
G37*
G36*
G01*
X208152000Y-151403738D02*
X208152000Y-152360262D01*
G75*
G02*
X207880262Y-152632000I-271738J0D01*
G01*
X207173738Y-152632000D01*
G75*
G02*
X206902000Y-152360262I0J271738D01*
G01*
X206902000Y-151403738D01*
G75*
G02*
X207173738Y-151132000I271738J0D01*
G01*
X207880262Y-151132000D01*
G75*
G02*
X208152000Y-151403738I0J-271738D01*
G01*
G37*
%TD*%
%TO.C,D1*%
G36*
G01*
X190354000Y-151413738D02*
X190354000Y-152370262D01*
G75*
G02*
X190082262Y-152642000I-271738J0D01*
G01*
X189375738Y-152642000D01*
G75*
G02*
X189104000Y-152370262I0J271738D01*
G01*
X189104000Y-151413738D01*
G75*
G02*
X189375738Y-151142000I271738J0D01*
G01*
X190082262Y-151142000D01*
G75*
G02*
X190354000Y-151413738I0J-271738D01*
G01*
G37*
G36*
G01*
X192404000Y-151413738D02*
X192404000Y-152370262D01*
G75*
G02*
X192132262Y-152642000I-271738J0D01*
G01*
X191425738Y-152642000D01*
G75*
G02*
X191154000Y-152370262I0J271738D01*
G01*
X191154000Y-151413738D01*
G75*
G02*
X191425738Y-151142000I271738J0D01*
G01*
X192132262Y-151142000D01*
G75*
G02*
X192404000Y-151413738I0J-271738D01*
G01*
G37*
%TD*%
D18*
%TO.C,SW2*%
X203304000Y-146304000D03*
X203304000Y-141804000D03*
X209804000Y-146304000D03*
X209804000Y-141804000D03*
%TD*%
D19*
%TO.C,U1*%
X199644000Y-124714000D03*
X214884000Y-132334000D03*
X202184000Y-124714000D03*
X212344000Y-132334000D03*
X204724000Y-124714000D03*
X209804000Y-132334000D03*
X207264000Y-124714000D03*
X207264000Y-132334000D03*
X209804000Y-124714000D03*
X204724000Y-132334000D03*
X212344000Y-124714000D03*
X202184000Y-132334000D03*
X214884000Y-124714000D03*
D20*
X199644000Y-132334000D03*
%TD*%
%TO.C,R3*%
G36*
G01*
X225268262Y-123543000D02*
X224311738Y-123543000D01*
G75*
G02*
X224040000Y-123271262I0J271738D01*
G01*
X224040000Y-122564738D01*
G75*
G02*
X224311738Y-122293000I271738J0D01*
G01*
X225268262Y-122293000D01*
G75*
G02*
X225540000Y-122564738I0J-271738D01*
G01*
X225540000Y-123271262D01*
G75*
G02*
X225268262Y-123543000I-271738J0D01*
G01*
G37*
G36*
G01*
X225268262Y-125593000D02*
X224311738Y-125593000D01*
G75*
G02*
X224040000Y-125321262I0J271738D01*
G01*
X224040000Y-124614738D01*
G75*
G02*
X224311738Y-124343000I271738J0D01*
G01*
X225268262Y-124343000D01*
G75*
G02*
X225540000Y-124614738I0J-271738D01*
G01*
X225540000Y-125321262D01*
G75*
G02*
X225268262Y-125593000I-271738J0D01*
G01*
G37*
%TD*%
%TO.C,C1*%
G36*
G01*
X196371738Y-128924000D02*
X197328262Y-128924000D01*
G75*
G02*
X197600000Y-129195738I0J-271738D01*
G01*
X197600000Y-129902262D01*
G75*
G02*
X197328262Y-130174000I-271738J0D01*
G01*
X196371738Y-130174000D01*
G75*
G02*
X196100000Y-129902262I0J271738D01*
G01*
X196100000Y-129195738D01*
G75*
G02*
X196371738Y-128924000I271738J0D01*
G01*
G37*
G36*
G01*
X196371738Y-126874000D02*
X197328262Y-126874000D01*
G75*
G02*
X197600000Y-127145738I0J-271738D01*
G01*
X197600000Y-127852262D01*
G75*
G02*
X197328262Y-128124000I-271738J0D01*
G01*
X196371738Y-128124000D01*
G75*
G02*
X196100000Y-127852262I0J271738D01*
G01*
X196100000Y-127145738D01*
G75*
G02*
X196371738Y-126874000I271738J0D01*
G01*
G37*
%TD*%
%TO.C,R7*%
G36*
G01*
X218918262Y-141849000D02*
X217961738Y-141849000D01*
G75*
G02*
X217690000Y-141577262I0J271738D01*
G01*
X217690000Y-140870738D01*
G75*
G02*
X217961738Y-140599000I271738J0D01*
G01*
X218918262Y-140599000D01*
G75*
G02*
X219190000Y-140870738I0J-271738D01*
G01*
X219190000Y-141577262D01*
G75*
G02*
X218918262Y-141849000I-271738J0D01*
G01*
G37*
G36*
G01*
X218918262Y-143899000D02*
X217961738Y-143899000D01*
G75*
G02*
X217690000Y-143627262I0J271738D01*
G01*
X217690000Y-142920738D01*
G75*
G02*
X217961738Y-142649000I271738J0D01*
G01*
X218918262Y-142649000D01*
G75*
G02*
X219190000Y-142920738I0J-271738D01*
G01*
X219190000Y-143627262D01*
G75*
G02*
X218918262Y-143899000I-271738J0D01*
G01*
G37*
%TD*%
%TO.C,R6*%
G36*
G01*
X218918262Y-145895000D02*
X217961738Y-145895000D01*
G75*
G02*
X217690000Y-145623262I0J271738D01*
G01*
X217690000Y-144916738D01*
G75*
G02*
X217961738Y-144645000I271738J0D01*
G01*
X218918262Y-144645000D01*
G75*
G02*
X219190000Y-144916738I0J-271738D01*
G01*
X219190000Y-145623262D01*
G75*
G02*
X218918262Y-145895000I-271738J0D01*
G01*
G37*
G36*
G01*
X218918262Y-147945000D02*
X217961738Y-147945000D01*
G75*
G02*
X217690000Y-147673262I0J271738D01*
G01*
X217690000Y-146966738D01*
G75*
G02*
X217961738Y-146695000I271738J0D01*
G01*
X218918262Y-146695000D01*
G75*
G02*
X219190000Y-146966738I0J-271738D01*
G01*
X219190000Y-147673262D01*
G75*
G02*
X218918262Y-147945000I-271738J0D01*
G01*
G37*
%TD*%
%TO.C,R5*%
G36*
G01*
X201138262Y-142085000D02*
X200181738Y-142085000D01*
G75*
G02*
X199910000Y-141813262I0J271738D01*
G01*
X199910000Y-141106738D01*
G75*
G02*
X200181738Y-140835000I271738J0D01*
G01*
X201138262Y-140835000D01*
G75*
G02*
X201410000Y-141106738I0J-271738D01*
G01*
X201410000Y-141813262D01*
G75*
G02*
X201138262Y-142085000I-271738J0D01*
G01*
G37*
G36*
G01*
X201138262Y-144135000D02*
X200181738Y-144135000D01*
G75*
G02*
X199910000Y-143863262I0J271738D01*
G01*
X199910000Y-143156738D01*
G75*
G02*
X200181738Y-142885000I271738J0D01*
G01*
X201138262Y-142885000D01*
G75*
G02*
X201410000Y-143156738I0J-271738D01*
G01*
X201410000Y-143863262D01*
G75*
G02*
X201138262Y-144135000I-271738J0D01*
G01*
G37*
%TD*%
%TO.C,R4*%
G36*
G01*
X201138262Y-145913000D02*
X200181738Y-145913000D01*
G75*
G02*
X199910000Y-145641262I0J271738D01*
G01*
X199910000Y-144934738D01*
G75*
G02*
X200181738Y-144663000I271738J0D01*
G01*
X201138262Y-144663000D01*
G75*
G02*
X201410000Y-144934738I0J-271738D01*
G01*
X201410000Y-145641262D01*
G75*
G02*
X201138262Y-145913000I-271738J0D01*
G01*
G37*
G36*
G01*
X201138262Y-147963000D02*
X200181738Y-147963000D01*
G75*
G02*
X199910000Y-147691262I0J271738D01*
G01*
X199910000Y-146984738D01*
G75*
G02*
X200181738Y-146713000I271738J0D01*
G01*
X201138262Y-146713000D01*
G75*
G02*
X201410000Y-146984738I0J-271738D01*
G01*
X201410000Y-147691262D01*
G75*
G02*
X201138262Y-147963000I-271738J0D01*
G01*
G37*
%TD*%
%TO.C,R2*%
G36*
G01*
X185390262Y-141840000D02*
X184433738Y-141840000D01*
G75*
G02*
X184162000Y-141568262I0J271738D01*
G01*
X184162000Y-140861738D01*
G75*
G02*
X184433738Y-140590000I271738J0D01*
G01*
X185390262Y-140590000D01*
G75*
G02*
X185662000Y-140861738I0J-271738D01*
G01*
X185662000Y-141568262D01*
G75*
G02*
X185390262Y-141840000I-271738J0D01*
G01*
G37*
G36*
G01*
X185390262Y-143890000D02*
X184433738Y-143890000D01*
G75*
G02*
X184162000Y-143618262I0J271738D01*
G01*
X184162000Y-142911738D01*
G75*
G02*
X184433738Y-142640000I271738J0D01*
G01*
X185390262Y-142640000D01*
G75*
G02*
X185662000Y-142911738I0J-271738D01*
G01*
X185662000Y-143618262D01*
G75*
G02*
X185390262Y-143890000I-271738J0D01*
G01*
G37*
%TD*%
%TO.C,R1*%
G36*
G01*
X185390262Y-145913000D02*
X184433738Y-145913000D01*
G75*
G02*
X184162000Y-145641262I0J271738D01*
G01*
X184162000Y-144934738D01*
G75*
G02*
X184433738Y-144663000I271738J0D01*
G01*
X185390262Y-144663000D01*
G75*
G02*
X185662000Y-144934738I0J-271738D01*
G01*
X185662000Y-145641262D01*
G75*
G02*
X185390262Y-145913000I-271738J0D01*
G01*
G37*
G36*
G01*
X185390262Y-147963000D02*
X184433738Y-147963000D01*
G75*
G02*
X184162000Y-147691262I0J271738D01*
G01*
X184162000Y-146984738D01*
G75*
G02*
X184433738Y-146713000I271738J0D01*
G01*
X185390262Y-146713000D01*
G75*
G02*
X185662000Y-146984738I0J-271738D01*
G01*
X185662000Y-147691262D01*
G75*
G02*
X185390262Y-147963000I-271738J0D01*
G01*
G37*
%TD*%
%TO.C,C4*%
G36*
G01*
X219865000Y-139416262D02*
X219865000Y-138459738D01*
G75*
G02*
X220136738Y-138188000I271738J0D01*
G01*
X220843262Y-138188000D01*
G75*
G02*
X221115000Y-138459738I0J-271738D01*
G01*
X221115000Y-139416262D01*
G75*
G02*
X220843262Y-139688000I-271738J0D01*
G01*
X220136738Y-139688000D01*
G75*
G02*
X219865000Y-139416262I0J271738D01*
G01*
G37*
G36*
G01*
X217815000Y-139416262D02*
X217815000Y-138459738D01*
G75*
G02*
X218086738Y-138188000I271738J0D01*
G01*
X218793262Y-138188000D01*
G75*
G02*
X219065000Y-138459738I0J-271738D01*
G01*
X219065000Y-139416262D01*
G75*
G02*
X218793262Y-139688000I-271738J0D01*
G01*
X218086738Y-139688000D01*
G75*
G02*
X217815000Y-139416262I0J271738D01*
G01*
G37*
%TD*%
%TO.C,C3*%
G36*
G01*
X206149000Y-139162262D02*
X206149000Y-138205738D01*
G75*
G02*
X206420738Y-137934000I271738J0D01*
G01*
X207127262Y-137934000D01*
G75*
G02*
X207399000Y-138205738I0J-271738D01*
G01*
X207399000Y-139162262D01*
G75*
G02*
X207127262Y-139434000I-271738J0D01*
G01*
X206420738Y-139434000D01*
G75*
G02*
X206149000Y-139162262I0J271738D01*
G01*
G37*
G36*
G01*
X204099000Y-139162262D02*
X204099000Y-138205738D01*
G75*
G02*
X204370738Y-137934000I271738J0D01*
G01*
X205077262Y-137934000D01*
G75*
G02*
X205349000Y-138205738I0J-271738D01*
G01*
X205349000Y-139162262D01*
G75*
G02*
X205077262Y-139434000I-271738J0D01*
G01*
X204370738Y-139434000D01*
G75*
G02*
X204099000Y-139162262I0J271738D01*
G01*
G37*
%TD*%
%TO.C,C2*%
G36*
G01*
X193703000Y-139416262D02*
X193703000Y-138459738D01*
G75*
G02*
X193974738Y-138188000I271738J0D01*
G01*
X194681262Y-138188000D01*
G75*
G02*
X194953000Y-138459738I0J-271738D01*
G01*
X194953000Y-139416262D01*
G75*
G02*
X194681262Y-139688000I-271738J0D01*
G01*
X193974738Y-139688000D01*
G75*
G02*
X193703000Y-139416262I0J271738D01*
G01*
G37*
G36*
G01*
X191653000Y-139416262D02*
X191653000Y-138459738D01*
G75*
G02*
X191924738Y-138188000I271738J0D01*
G01*
X192631262Y-138188000D01*
G75*
G02*
X192903000Y-138459738I0J-271738D01*
G01*
X192903000Y-139416262D01*
G75*
G02*
X192631262Y-139688000I-271738J0D01*
G01*
X191924738Y-139688000D01*
G75*
G02*
X191653000Y-139416262I0J271738D01*
G01*
G37*
%TD*%
D13*
%TO.C,J4*%
X273558000Y-108712000D03*
X271018000Y-108712000D03*
X273558000Y-106172000D03*
X271018000Y-106172000D03*
X273558000Y-103632000D03*
X271018000Y-103632000D03*
X273558000Y-101092000D03*
X271018000Y-101092000D03*
X273558000Y-98552000D03*
X271018000Y-98552000D03*
X273558000Y-96012000D03*
X271018000Y-96012000D03*
X273558000Y-93472000D03*
X271018000Y-93472000D03*
X273558000Y-90932000D03*
X271018000Y-90932000D03*
X273558000Y-88392000D03*
X271018000Y-88392000D03*
X273558000Y-85852000D03*
D14*
X271018000Y-85852000D03*
%TD*%
D13*
%TO.C,J3*%
X185928000Y-108712000D03*
X183388000Y-108712000D03*
X185928000Y-106172000D03*
X183388000Y-106172000D03*
X185928000Y-103632000D03*
X183388000Y-103632000D03*
X185928000Y-101092000D03*
X183388000Y-101092000D03*
X185928000Y-98552000D03*
X183388000Y-98552000D03*
X185928000Y-96012000D03*
X183388000Y-96012000D03*
X185928000Y-93472000D03*
X183388000Y-93472000D03*
X185928000Y-90932000D03*
X183388000Y-90932000D03*
X185928000Y-88392000D03*
X183388000Y-88392000D03*
X185928000Y-85852000D03*
D14*
X183388000Y-85852000D03*
%TD*%
D13*
%TO.C,J2*%
X272034000Y-125730000D03*
X272034000Y-123190000D03*
D14*
X272034000Y-120650000D03*
%TD*%
D21*
%TO.C,A1*%
X271272000Y-136652000D03*
X271272000Y-151892000D03*
X235712000Y-136652000D03*
X268732000Y-151892000D03*
X238252000Y-136652000D03*
X266192000Y-151892000D03*
X240792000Y-136652000D03*
X263652000Y-151892000D03*
X243332000Y-136652000D03*
X261112000Y-151892000D03*
X245872000Y-136652000D03*
X258572000Y-151892000D03*
X248412000Y-136652000D03*
X256032000Y-151892000D03*
X250952000Y-136652000D03*
X253492000Y-151892000D03*
X253492000Y-136652000D03*
X250952000Y-151892000D03*
X256032000Y-136652000D03*
X248412000Y-151892000D03*
X258572000Y-136652000D03*
X245872000Y-151892000D03*
X261112000Y-136652000D03*
X243332000Y-151892000D03*
X263652000Y-136652000D03*
X240792000Y-151892000D03*
X266192000Y-136652000D03*
X238252000Y-151892000D03*
X268732000Y-136652000D03*
D22*
X235712000Y-151892000D03*
%TD*%
D18*
%TO.C,SW3*%
X220980000Y-146304000D03*
X220980000Y-141804000D03*
X227480000Y-146304000D03*
X227480000Y-141804000D03*
%TD*%
%TO.C,SW1*%
X187810000Y-146304000D03*
X187810000Y-141804000D03*
X194310000Y-146304000D03*
X194310000Y-141804000D03*
%TD*%
M02*
