%TF.GenerationSoftware,KiCad,Pcbnew,(5.1.6)-1*%
%TF.CreationDate,2020-10-03T16:08:43+08:00*%
%TF.ProjectId,odometer_project,6f646f6d-6574-4657-925f-70726f6a6563,rev?*%
%TF.SameCoordinates,Original*%
%TF.FileFunction,Legend,Top*%
%TF.FilePolarity,Positive*%
%FSLAX46Y46*%
G04 Gerber Fmt 4.6, Leading zero omitted, Abs format (unit mm)*
G04 Created by KiCad (PCBNEW (5.1.6)-1) date 2020-10-03 16:08:43*
%MOMM*%
%LPD*%
G01*
G04 APERTURE LIST*
%ADD10C,0.300000*%
%ADD11C,0.150000*%
%ADD12C,0.200000*%
%ADD13C,0.250000*%
%ADD14C,0.500000*%
%ADD15C,0.240000*%
%ADD16C,0.360000*%
%ADD17C,0.120000*%
G04 APERTURE END LIST*
D10*
X181650000Y-117772571D02*
X181650000Y-116272571D01*
X182292857Y-117772571D02*
X182292857Y-116986857D01*
X182221428Y-116844000D01*
X182078571Y-116772571D01*
X181864285Y-116772571D01*
X181721428Y-116844000D01*
X181650000Y-116915428D01*
X183650000Y-117772571D02*
X183650000Y-116986857D01*
X183578571Y-116844000D01*
X183435714Y-116772571D01*
X183150000Y-116772571D01*
X183007142Y-116844000D01*
X183650000Y-117701142D02*
X183507142Y-117772571D01*
X183150000Y-117772571D01*
X183007142Y-117701142D01*
X182935714Y-117558285D01*
X182935714Y-117415428D01*
X183007142Y-117272571D01*
X183150000Y-117201142D01*
X183507142Y-117201142D01*
X183650000Y-117129714D01*
X184578571Y-117772571D02*
X184435714Y-117701142D01*
X184364285Y-117558285D01*
X184364285Y-116272571D01*
X185364285Y-117772571D02*
X185221428Y-117701142D01*
X185150000Y-117558285D01*
X185150000Y-116272571D01*
X185864285Y-116415428D02*
X185935714Y-116344000D01*
X186078571Y-116272571D01*
X186435714Y-116272571D01*
X186578571Y-116344000D01*
X186650000Y-116415428D01*
X186721428Y-116558285D01*
X186721428Y-116701142D01*
X186650000Y-116915428D01*
X185792857Y-117772571D01*
X186721428Y-117772571D01*
X270804000Y-118788571D02*
X270804000Y-117288571D01*
X271446857Y-118788571D02*
X271446857Y-118002857D01*
X271375428Y-117860000D01*
X271232571Y-117788571D01*
X271018285Y-117788571D01*
X270875428Y-117860000D01*
X270804000Y-117931428D01*
X272804000Y-118788571D02*
X272804000Y-118002857D01*
X272732571Y-117860000D01*
X272589714Y-117788571D01*
X272304000Y-117788571D01*
X272161142Y-117860000D01*
X272804000Y-118717142D02*
X272661142Y-118788571D01*
X272304000Y-118788571D01*
X272161142Y-118717142D01*
X272089714Y-118574285D01*
X272089714Y-118431428D01*
X272161142Y-118288571D01*
X272304000Y-118217142D01*
X272661142Y-118217142D01*
X272804000Y-118145714D01*
X273732571Y-118788571D02*
X273589714Y-118717142D01*
X273518285Y-118574285D01*
X273518285Y-117288571D01*
X274518285Y-118788571D02*
X274375428Y-118717142D01*
X274304000Y-118574285D01*
X274304000Y-117288571D01*
X275875428Y-118788571D02*
X275018285Y-118788571D01*
X275446857Y-118788571D02*
X275446857Y-117288571D01*
X275304000Y-117502857D01*
X275161142Y-117645714D01*
X275018285Y-117717142D01*
D11*
X219869238Y-136596380D02*
X219869238Y-135596380D01*
X220297809Y-136596380D02*
X220297809Y-136072571D01*
X220250190Y-135977333D01*
X220154952Y-135929714D01*
X220012095Y-135929714D01*
X219916857Y-135977333D01*
X219869238Y-136024952D01*
X221202571Y-136596380D02*
X221202571Y-136072571D01*
X221154952Y-135977333D01*
X221059714Y-135929714D01*
X220869238Y-135929714D01*
X220774000Y-135977333D01*
X221202571Y-136548761D02*
X221107333Y-136596380D01*
X220869238Y-136596380D01*
X220774000Y-136548761D01*
X220726380Y-136453523D01*
X220726380Y-136358285D01*
X220774000Y-136263047D01*
X220869238Y-136215428D01*
X221107333Y-136215428D01*
X221202571Y-136167809D01*
X221821619Y-136596380D02*
X221726380Y-136548761D01*
X221678761Y-136453523D01*
X221678761Y-135596380D01*
X222345428Y-136596380D02*
X222250190Y-136548761D01*
X222202571Y-136453523D01*
X222202571Y-135596380D01*
X222678761Y-135691619D02*
X222726380Y-135644000D01*
X222821619Y-135596380D01*
X223059714Y-135596380D01*
X223154952Y-135644000D01*
X223202571Y-135691619D01*
X223250190Y-135786857D01*
X223250190Y-135882095D01*
X223202571Y-136024952D01*
X222631142Y-136596380D01*
X223250190Y-136596380D01*
X224678761Y-136929714D02*
X224678761Y-135501142D01*
X226154952Y-136596380D02*
X226154952Y-135929714D01*
X226154952Y-136120190D02*
X226202571Y-136024952D01*
X226250190Y-135977333D01*
X226345428Y-135929714D01*
X226440666Y-135929714D01*
X226726380Y-136548761D02*
X226821619Y-136596380D01*
X227012095Y-136596380D01*
X227107333Y-136548761D01*
X227154952Y-136453523D01*
X227154952Y-136405904D01*
X227107333Y-136310666D01*
X227012095Y-136263047D01*
X226869238Y-136263047D01*
X226774000Y-136215428D01*
X226726380Y-136120190D01*
X226726380Y-136072571D01*
X226774000Y-135977333D01*
X226869238Y-135929714D01*
X227012095Y-135929714D01*
X227107333Y-135977333D01*
X227440666Y-135929714D02*
X227821619Y-135929714D01*
X227583523Y-135596380D02*
X227583523Y-136453523D01*
X227631142Y-136548761D01*
X227726380Y-136596380D01*
X227821619Y-136596380D01*
D12*
X220036000Y-131516380D02*
X220036000Y-130849714D01*
X220036000Y-130516380D02*
X219988380Y-130564000D01*
X220036000Y-130611619D01*
X220083619Y-130564000D01*
X220036000Y-130516380D01*
X220036000Y-130611619D01*
X220512190Y-130849714D02*
X220512190Y-131516380D01*
X220512190Y-130944952D02*
X220559809Y-130897333D01*
X220655047Y-130849714D01*
X220797904Y-130849714D01*
X220893142Y-130897333D01*
X220940761Y-130992571D01*
X220940761Y-131516380D01*
X221274095Y-130849714D02*
X221655047Y-130849714D01*
X221416952Y-130516380D02*
X221416952Y-131373523D01*
X221464571Y-131468761D01*
X221559809Y-131516380D01*
X221655047Y-131516380D01*
X221750285Y-131611619D02*
X222512190Y-131611619D01*
X222702666Y-131468761D02*
X222797904Y-131516380D01*
X222988380Y-131516380D01*
X223083619Y-131468761D01*
X223131238Y-131373523D01*
X223131238Y-131325904D01*
X223083619Y-131230666D01*
X222988380Y-131183047D01*
X222845523Y-131183047D01*
X222750285Y-131135428D01*
X222702666Y-131040190D01*
X222702666Y-130992571D01*
X222750285Y-130897333D01*
X222845523Y-130849714D01*
X222988380Y-130849714D01*
X223083619Y-130897333D01*
X223940761Y-131468761D02*
X223845523Y-131516380D01*
X223655047Y-131516380D01*
X223559809Y-131468761D01*
X223512190Y-131373523D01*
X223512190Y-130992571D01*
X223559809Y-130897333D01*
X223655047Y-130849714D01*
X223845523Y-130849714D01*
X223940761Y-130897333D01*
X223988380Y-130992571D01*
X223988380Y-131087809D01*
X223512190Y-131183047D01*
X224559809Y-131516380D02*
X224464571Y-131468761D01*
X224416952Y-131373523D01*
X224416952Y-130516380D01*
X225321714Y-131468761D02*
X225226476Y-131516380D01*
X225036000Y-131516380D01*
X224940761Y-131468761D01*
X224893142Y-131373523D01*
X224893142Y-130992571D01*
X224940761Y-130897333D01*
X225036000Y-130849714D01*
X225226476Y-130849714D01*
X225321714Y-130897333D01*
X225369333Y-130992571D01*
X225369333Y-131087809D01*
X224893142Y-131183047D01*
X226226476Y-131468761D02*
X226131238Y-131516380D01*
X225940761Y-131516380D01*
X225845523Y-131468761D01*
X225797904Y-131421142D01*
X225750285Y-131325904D01*
X225750285Y-131040190D01*
X225797904Y-130944952D01*
X225845523Y-130897333D01*
X225940761Y-130849714D01*
X226131238Y-130849714D01*
X226226476Y-130897333D01*
X226512190Y-130849714D02*
X226893142Y-130849714D01*
X226655047Y-130516380D02*
X226655047Y-131373523D01*
X226702666Y-131468761D01*
X226797904Y-131516380D01*
X226893142Y-131516380D01*
X227226476Y-131516380D02*
X227226476Y-130849714D01*
X227226476Y-130516380D02*
X227178857Y-130564000D01*
X227226476Y-130611619D01*
X227274095Y-130564000D01*
X227226476Y-130516380D01*
X227226476Y-130611619D01*
X227845523Y-131516380D02*
X227750285Y-131468761D01*
X227702666Y-131421142D01*
X227655047Y-131325904D01*
X227655047Y-131040190D01*
X227702666Y-130944952D01*
X227750285Y-130897333D01*
X227845523Y-130849714D01*
X227988380Y-130849714D01*
X228083619Y-130897333D01*
X228131238Y-130944952D01*
X228178857Y-131040190D01*
X228178857Y-131325904D01*
X228131238Y-131421142D01*
X228083619Y-131468761D01*
X227988380Y-131516380D01*
X227845523Y-131516380D01*
X228607428Y-130849714D02*
X228607428Y-131516380D01*
X228607428Y-130944952D02*
X228655047Y-130897333D01*
X228750285Y-130849714D01*
X228893142Y-130849714D01*
X228988380Y-130897333D01*
X229036000Y-130992571D01*
X229036000Y-131516380D01*
D11*
X235958666Y-133548380D02*
X235958666Y-132881714D01*
X235958666Y-132548380D02*
X235911047Y-132596000D01*
X235958666Y-132643619D01*
X236006285Y-132596000D01*
X235958666Y-132548380D01*
X235958666Y-132643619D01*
X236434857Y-132881714D02*
X236434857Y-133548380D01*
X236434857Y-132976952D02*
X236482476Y-132929333D01*
X236577714Y-132881714D01*
X236720571Y-132881714D01*
X236815809Y-132929333D01*
X236863428Y-133024571D01*
X236863428Y-133548380D01*
X237768190Y-133548380D02*
X237768190Y-133024571D01*
X237720571Y-132929333D01*
X237625333Y-132881714D01*
X237434857Y-132881714D01*
X237339619Y-132929333D01*
X237768190Y-133500761D02*
X237672952Y-133548380D01*
X237434857Y-133548380D01*
X237339619Y-133500761D01*
X237292000Y-133405523D01*
X237292000Y-133310285D01*
X237339619Y-133215047D01*
X237434857Y-133167428D01*
X237672952Y-133167428D01*
X237768190Y-133119809D01*
X238672952Y-133500761D02*
X238577714Y-133548380D01*
X238387238Y-133548380D01*
X238292000Y-133500761D01*
X238244380Y-133453142D01*
X238196761Y-133357904D01*
X238196761Y-133072190D01*
X238244380Y-132976952D01*
X238292000Y-132929333D01*
X238387238Y-132881714D01*
X238577714Y-132881714D01*
X238672952Y-132929333D01*
X239530095Y-133500761D02*
X239434857Y-133548380D01*
X239244380Y-133548380D01*
X239149142Y-133500761D01*
X239101523Y-133453142D01*
X239053904Y-133357904D01*
X239053904Y-133072190D01*
X239101523Y-132976952D01*
X239149142Y-132929333D01*
X239244380Y-132881714D01*
X239434857Y-132881714D01*
X239530095Y-132929333D01*
X240958666Y-133881714D02*
X240958666Y-132453142D01*
X242387238Y-133500761D02*
X242482476Y-133548380D01*
X242672952Y-133548380D01*
X242768190Y-133500761D01*
X242815809Y-133405523D01*
X242815809Y-133357904D01*
X242768190Y-133262666D01*
X242672952Y-133215047D01*
X242530095Y-133215047D01*
X242434857Y-133167428D01*
X242387238Y-133072190D01*
X242387238Y-133024571D01*
X242434857Y-132929333D01*
X242530095Y-132881714D01*
X242672952Y-132881714D01*
X242768190Y-132929333D01*
X243101523Y-132881714D02*
X243482476Y-132881714D01*
X243244380Y-132548380D02*
X243244380Y-133405523D01*
X243292000Y-133500761D01*
X243387238Y-133548380D01*
X243482476Y-133548380D01*
X244244380Y-133548380D02*
X244244380Y-132548380D01*
X244244380Y-133500761D02*
X244149142Y-133548380D01*
X243958666Y-133548380D01*
X243863428Y-133500761D01*
X243815809Y-133453142D01*
X243768190Y-133357904D01*
X243768190Y-133072190D01*
X243815809Y-132976952D01*
X243863428Y-132929333D01*
X243958666Y-132881714D01*
X244149142Y-132881714D01*
X244244380Y-132929333D01*
X244720571Y-133548380D02*
X244720571Y-132881714D01*
X244720571Y-132548380D02*
X244672952Y-132596000D01*
X244720571Y-132643619D01*
X244768190Y-132596000D01*
X244720571Y-132548380D01*
X244720571Y-132643619D01*
X245339619Y-133548380D02*
X245244380Y-133500761D01*
X245196761Y-133453142D01*
X245149142Y-133357904D01*
X245149142Y-133072190D01*
X245196761Y-132976952D01*
X245244380Y-132929333D01*
X245339619Y-132881714D01*
X245482476Y-132881714D01*
X245577714Y-132929333D01*
X245625333Y-132976952D01*
X245672952Y-133072190D01*
X245672952Y-133357904D01*
X245625333Y-133453142D01*
X245577714Y-133500761D01*
X245482476Y-133548380D01*
X245339619Y-133548380D01*
D12*
X236522190Y-128214380D02*
X236522190Y-127547714D01*
X236522190Y-127738190D02*
X236569809Y-127642952D01*
X236617428Y-127595333D01*
X236712666Y-127547714D01*
X236807904Y-127547714D01*
X237093619Y-128166761D02*
X237188857Y-128214380D01*
X237379333Y-128214380D01*
X237474571Y-128166761D01*
X237522190Y-128071523D01*
X237522190Y-128023904D01*
X237474571Y-127928666D01*
X237379333Y-127881047D01*
X237236476Y-127881047D01*
X237141238Y-127833428D01*
X237093619Y-127738190D01*
X237093619Y-127690571D01*
X237141238Y-127595333D01*
X237236476Y-127547714D01*
X237379333Y-127547714D01*
X237474571Y-127595333D01*
X237807904Y-127547714D02*
X238188857Y-127547714D01*
X237950761Y-127214380D02*
X237950761Y-128071523D01*
X237998380Y-128166761D01*
X238093619Y-128214380D01*
X238188857Y-128214380D01*
X238284095Y-128309619D02*
X239046000Y-128309619D01*
X239236476Y-128166761D02*
X239331714Y-128214380D01*
X239522190Y-128214380D01*
X239617428Y-128166761D01*
X239665047Y-128071523D01*
X239665047Y-128023904D01*
X239617428Y-127928666D01*
X239522190Y-127881047D01*
X239379333Y-127881047D01*
X239284095Y-127833428D01*
X239236476Y-127738190D01*
X239236476Y-127690571D01*
X239284095Y-127595333D01*
X239379333Y-127547714D01*
X239522190Y-127547714D01*
X239617428Y-127595333D01*
X240474571Y-128166761D02*
X240379333Y-128214380D01*
X240188857Y-128214380D01*
X240093619Y-128166761D01*
X240046000Y-128071523D01*
X240046000Y-127690571D01*
X240093619Y-127595333D01*
X240188857Y-127547714D01*
X240379333Y-127547714D01*
X240474571Y-127595333D01*
X240522190Y-127690571D01*
X240522190Y-127785809D01*
X240046000Y-127881047D01*
X241093619Y-128214380D02*
X240998380Y-128166761D01*
X240950761Y-128071523D01*
X240950761Y-127214380D01*
X241855523Y-128166761D02*
X241760285Y-128214380D01*
X241569809Y-128214380D01*
X241474571Y-128166761D01*
X241426952Y-128071523D01*
X241426952Y-127690571D01*
X241474571Y-127595333D01*
X241569809Y-127547714D01*
X241760285Y-127547714D01*
X241855523Y-127595333D01*
X241903142Y-127690571D01*
X241903142Y-127785809D01*
X241426952Y-127881047D01*
X242760285Y-128166761D02*
X242665047Y-128214380D01*
X242474571Y-128214380D01*
X242379333Y-128166761D01*
X242331714Y-128119142D01*
X242284095Y-128023904D01*
X242284095Y-127738190D01*
X242331714Y-127642952D01*
X242379333Y-127595333D01*
X242474571Y-127547714D01*
X242665047Y-127547714D01*
X242760285Y-127595333D01*
X243046000Y-127547714D02*
X243426952Y-127547714D01*
X243188857Y-127214380D02*
X243188857Y-128071523D01*
X243236476Y-128166761D01*
X243331714Y-128214380D01*
X243426952Y-128214380D01*
X243760285Y-128214380D02*
X243760285Y-127547714D01*
X243760285Y-127214380D02*
X243712666Y-127262000D01*
X243760285Y-127309619D01*
X243807904Y-127262000D01*
X243760285Y-127214380D01*
X243760285Y-127309619D01*
X244379333Y-128214380D02*
X244284095Y-128166761D01*
X244236476Y-128119142D01*
X244188857Y-128023904D01*
X244188857Y-127738190D01*
X244236476Y-127642952D01*
X244284095Y-127595333D01*
X244379333Y-127547714D01*
X244522190Y-127547714D01*
X244617428Y-127595333D01*
X244665047Y-127642952D01*
X244712666Y-127738190D01*
X244712666Y-128023904D01*
X244665047Y-128119142D01*
X244617428Y-128166761D01*
X244522190Y-128214380D01*
X244379333Y-128214380D01*
X245141238Y-127547714D02*
X245141238Y-128214380D01*
X245141238Y-127642952D02*
X245188857Y-127595333D01*
X245284095Y-127547714D01*
X245426952Y-127547714D01*
X245522190Y-127595333D01*
X245569809Y-127690571D01*
X245569809Y-128214380D01*
D11*
X185547047Y-127071428D02*
X186308952Y-127071428D01*
X185928000Y-127452380D02*
X185928000Y-126690476D01*
X185547047Y-118435428D02*
X186308952Y-118435428D01*
X188071238Y-122578761D02*
X188166476Y-122626380D01*
X188356952Y-122626380D01*
X188452190Y-122578761D01*
X188499809Y-122483523D01*
X188499809Y-122435904D01*
X188452190Y-122340666D01*
X188356952Y-122293047D01*
X188214095Y-122293047D01*
X188118857Y-122245428D01*
X188071238Y-122150190D01*
X188071238Y-122102571D01*
X188118857Y-122007333D01*
X188214095Y-121959714D01*
X188356952Y-121959714D01*
X188452190Y-122007333D01*
X188928380Y-122626380D02*
X188928380Y-121959714D01*
X188928380Y-121626380D02*
X188880761Y-121674000D01*
X188928380Y-121721619D01*
X188976000Y-121674000D01*
X188928380Y-121626380D01*
X188928380Y-121721619D01*
X189833142Y-121959714D02*
X189833142Y-122769238D01*
X189785523Y-122864476D01*
X189737904Y-122912095D01*
X189642666Y-122959714D01*
X189499809Y-122959714D01*
X189404571Y-122912095D01*
X189833142Y-122578761D02*
X189737904Y-122626380D01*
X189547428Y-122626380D01*
X189452190Y-122578761D01*
X189404571Y-122531142D01*
X189356952Y-122435904D01*
X189356952Y-122150190D01*
X189404571Y-122054952D01*
X189452190Y-122007333D01*
X189547428Y-121959714D01*
X189737904Y-121959714D01*
X189833142Y-122007333D01*
X268843238Y-123594761D02*
X268938476Y-123642380D01*
X269128952Y-123642380D01*
X269224190Y-123594761D01*
X269271809Y-123499523D01*
X269271809Y-123451904D01*
X269224190Y-123356666D01*
X269128952Y-123309047D01*
X268986095Y-123309047D01*
X268890857Y-123261428D01*
X268843238Y-123166190D01*
X268843238Y-123118571D01*
X268890857Y-123023333D01*
X268986095Y-122975714D01*
X269128952Y-122975714D01*
X269224190Y-123023333D01*
X269700380Y-123642380D02*
X269700380Y-122975714D01*
X269700380Y-122642380D02*
X269652761Y-122690000D01*
X269700380Y-122737619D01*
X269748000Y-122690000D01*
X269700380Y-122642380D01*
X269700380Y-122737619D01*
X270605142Y-122975714D02*
X270605142Y-123785238D01*
X270557523Y-123880476D01*
X270509904Y-123928095D01*
X270414666Y-123975714D01*
X270271809Y-123975714D01*
X270176571Y-123928095D01*
X270605142Y-123594761D02*
X270509904Y-123642380D01*
X270319428Y-123642380D01*
X270224190Y-123594761D01*
X270176571Y-123547142D01*
X270128952Y-123451904D01*
X270128952Y-123166190D01*
X270176571Y-123070952D01*
X270224190Y-123023333D01*
X270319428Y-122975714D01*
X270509904Y-122975714D01*
X270605142Y-123023333D01*
X270128952Y-125801428D02*
X269367047Y-125801428D01*
X270128952Y-120721428D02*
X269367047Y-120721428D01*
X269748000Y-121102380D02*
X269748000Y-120340476D01*
D13*
X186332761Y-112918761D02*
X186380380Y-112823523D01*
X186380380Y-112633047D01*
X186332761Y-112537809D01*
X186237523Y-112490190D01*
X186189904Y-112490190D01*
X186094666Y-112537809D01*
X186047047Y-112633047D01*
X186047047Y-112775904D01*
X185999428Y-112871142D01*
X185904190Y-112918761D01*
X185856571Y-112918761D01*
X185761333Y-112871142D01*
X185713714Y-112775904D01*
X185713714Y-112633047D01*
X185761333Y-112537809D01*
X186332761Y-111633047D02*
X186380380Y-111728285D01*
X186380380Y-111918761D01*
X186332761Y-112014000D01*
X186285142Y-112061619D01*
X186189904Y-112109238D01*
X185904190Y-112109238D01*
X185808952Y-112061619D01*
X185761333Y-112014000D01*
X185713714Y-111918761D01*
X185713714Y-111728285D01*
X185761333Y-111633047D01*
X186380380Y-111061619D02*
X186332761Y-111156857D01*
X186237523Y-111204476D01*
X185380380Y-111204476D01*
X183538761Y-113133047D02*
X183586380Y-113037809D01*
X183586380Y-112847333D01*
X183538761Y-112752095D01*
X183443523Y-112704476D01*
X183395904Y-112704476D01*
X183300666Y-112752095D01*
X183253047Y-112847333D01*
X183253047Y-112990190D01*
X183205428Y-113085428D01*
X183110190Y-113133047D01*
X183062571Y-113133047D01*
X182967333Y-113085428D01*
X182919714Y-112990190D01*
X182919714Y-112847333D01*
X182967333Y-112752095D01*
X183586380Y-111847333D02*
X182586380Y-111847333D01*
X183538761Y-111847333D02*
X183586380Y-111942571D01*
X183586380Y-112133047D01*
X183538761Y-112228285D01*
X183491142Y-112275904D01*
X183395904Y-112323523D01*
X183110190Y-112323523D01*
X183014952Y-112275904D01*
X182967333Y-112228285D01*
X182919714Y-112133047D01*
X182919714Y-111942571D01*
X182967333Y-111847333D01*
X183586380Y-110942571D02*
X183062571Y-110942571D01*
X182967333Y-110990190D01*
X182919714Y-111085428D01*
X182919714Y-111275904D01*
X182967333Y-111371142D01*
X183538761Y-110942571D02*
X183586380Y-111037809D01*
X183586380Y-111275904D01*
X183538761Y-111371142D01*
X183443523Y-111418761D01*
X183348285Y-111418761D01*
X183253047Y-111371142D01*
X183205428Y-111275904D01*
X183205428Y-111037809D01*
X183157809Y-110942571D01*
X273629428Y-113204476D02*
X273629428Y-112442571D01*
X273343714Y-112061619D02*
X274010380Y-111823523D01*
X273343714Y-111585428D01*
X273962761Y-110823523D02*
X274010380Y-110918761D01*
X274010380Y-111109238D01*
X273962761Y-111204476D01*
X273867523Y-111252095D01*
X273486571Y-111252095D01*
X273391333Y-111204476D01*
X273343714Y-111109238D01*
X273343714Y-110918761D01*
X273391333Y-110823523D01*
X273486571Y-110775904D01*
X273581809Y-110775904D01*
X273677047Y-111252095D01*
X270835428Y-113204476D02*
X270835428Y-112442571D01*
X271216380Y-112823523D02*
X270454476Y-112823523D01*
X270549714Y-112061619D02*
X271216380Y-111823523D01*
X270549714Y-111585428D01*
X271168761Y-110823523D02*
X271216380Y-110918761D01*
X271216380Y-111109238D01*
X271168761Y-111204476D01*
X271073523Y-111252095D01*
X270692571Y-111252095D01*
X270597333Y-111204476D01*
X270549714Y-111109238D01*
X270549714Y-110918761D01*
X270597333Y-110823523D01*
X270692571Y-110775904D01*
X270787809Y-110775904D01*
X270883047Y-111252095D01*
X247761238Y-154836761D02*
X247856476Y-154884380D01*
X248046952Y-154884380D01*
X248142190Y-154836761D01*
X248189809Y-154741523D01*
X248189809Y-154693904D01*
X248142190Y-154598666D01*
X248046952Y-154551047D01*
X247904095Y-154551047D01*
X247808857Y-154503428D01*
X247761238Y-154408190D01*
X247761238Y-154360571D01*
X247808857Y-154265333D01*
X247904095Y-154217714D01*
X248046952Y-154217714D01*
X248142190Y-154265333D01*
X248618380Y-154884380D02*
X248618380Y-154217714D01*
X248618380Y-153884380D02*
X248570761Y-153932000D01*
X248618380Y-153979619D01*
X248666000Y-153932000D01*
X248618380Y-153884380D01*
X248618380Y-153979619D01*
X249523142Y-154217714D02*
X249523142Y-155027238D01*
X249475523Y-155122476D01*
X249427904Y-155170095D01*
X249332666Y-155217714D01*
X249189809Y-155217714D01*
X249094571Y-155170095D01*
X249523142Y-154836761D02*
X249427904Y-154884380D01*
X249237428Y-154884380D01*
X249142190Y-154836761D01*
X249094571Y-154789142D01*
X249046952Y-154693904D01*
X249046952Y-154408190D01*
X249094571Y-154312952D01*
X249142190Y-154265333D01*
X249237428Y-154217714D01*
X249427904Y-154217714D01*
X249523142Y-154265333D01*
X244657714Y-154884380D02*
X244657714Y-154217714D01*
X244657714Y-153884380D02*
X244610095Y-153932000D01*
X244657714Y-153979619D01*
X244705333Y-153932000D01*
X244657714Y-153884380D01*
X244657714Y-153979619D01*
X245133904Y-154217714D02*
X245133904Y-154884380D01*
X245133904Y-154312952D02*
X245181523Y-154265333D01*
X245276761Y-154217714D01*
X245419619Y-154217714D01*
X245514857Y-154265333D01*
X245562476Y-154360571D01*
X245562476Y-154884380D01*
X245895809Y-154217714D02*
X246276761Y-154217714D01*
X246038666Y-153884380D02*
X246038666Y-154741523D01*
X246086285Y-154836761D01*
X246181523Y-154884380D01*
X246276761Y-154884380D01*
X247133904Y-154884380D02*
X246562476Y-154884380D01*
X246848190Y-154884380D02*
X246848190Y-153884380D01*
X246752952Y-154027238D01*
X246657714Y-154122476D01*
X246562476Y-154170095D01*
X270605333Y-154836761D02*
X270700571Y-154884380D01*
X270891047Y-154884380D01*
X270986285Y-154836761D01*
X271033904Y-154741523D01*
X271033904Y-154693904D01*
X270986285Y-154598666D01*
X270891047Y-154551047D01*
X270748190Y-154551047D01*
X270652952Y-154503428D01*
X270605333Y-154408190D01*
X270605333Y-154360571D01*
X270652952Y-154265333D01*
X270748190Y-154217714D01*
X270891047Y-154217714D01*
X270986285Y-154265333D01*
X271891047Y-154884380D02*
X271891047Y-153884380D01*
X271891047Y-154836761D02*
X271795809Y-154884380D01*
X271605333Y-154884380D01*
X271510095Y-154836761D01*
X271462476Y-154789142D01*
X271414857Y-154693904D01*
X271414857Y-154408190D01*
X271462476Y-154312952D01*
X271510095Y-154265333D01*
X271605333Y-154217714D01*
X271795809Y-154217714D01*
X271891047Y-154265333D01*
X268065333Y-154836761D02*
X268160571Y-154884380D01*
X268351047Y-154884380D01*
X268446285Y-154836761D01*
X268493904Y-154741523D01*
X268493904Y-154693904D01*
X268446285Y-154598666D01*
X268351047Y-154551047D01*
X268208190Y-154551047D01*
X268112952Y-154503428D01*
X268065333Y-154408190D01*
X268065333Y-154360571D01*
X268112952Y-154265333D01*
X268208190Y-154217714D01*
X268351047Y-154217714D01*
X268446285Y-154265333D01*
X269351047Y-154217714D02*
X269351047Y-154884380D01*
X268922476Y-154217714D02*
X268922476Y-154741523D01*
X268970095Y-154836761D01*
X269065333Y-154884380D01*
X269208190Y-154884380D01*
X269303428Y-154836761D01*
X269351047Y-154789142D01*
X260889809Y-154884380D02*
X260889809Y-154217714D01*
X260889809Y-154408190D02*
X260937428Y-154312952D01*
X260985047Y-154265333D01*
X261080285Y-154217714D01*
X261175523Y-154217714D01*
X261461238Y-154836761D02*
X261556476Y-154884380D01*
X261746952Y-154884380D01*
X261842190Y-154836761D01*
X261889809Y-154741523D01*
X261889809Y-154693904D01*
X261842190Y-154598666D01*
X261746952Y-154551047D01*
X261604095Y-154551047D01*
X261508857Y-154503428D01*
X261461238Y-154408190D01*
X261461238Y-154360571D01*
X261508857Y-154265333D01*
X261604095Y-154217714D01*
X261746952Y-154217714D01*
X261842190Y-154265333D01*
X263056761Y-154884380D02*
X263056761Y-154217714D01*
X263056761Y-154408190D02*
X263104380Y-154312952D01*
X263152000Y-154265333D01*
X263247238Y-154217714D01*
X263342476Y-154217714D01*
X263580571Y-154217714D02*
X263771047Y-154884380D01*
X263961523Y-154408190D01*
X264152000Y-154884380D01*
X264342476Y-154217714D01*
X265930095Y-154836761D02*
X265834857Y-154884380D01*
X265644380Y-154884380D01*
X265549142Y-154836761D01*
X265501523Y-154741523D01*
X265501523Y-154360571D01*
X265549142Y-154265333D01*
X265644380Y-154217714D01*
X265834857Y-154217714D01*
X265930095Y-154265333D01*
X265977714Y-154360571D01*
X265977714Y-154455809D01*
X265501523Y-154551047D01*
X266406285Y-154217714D02*
X266406285Y-154884380D01*
X266406285Y-154312952D02*
X266453904Y-154265333D01*
X266549142Y-154217714D01*
X266692000Y-154217714D01*
X266787238Y-154265333D01*
X266834857Y-154360571D01*
X266834857Y-154884380D01*
X257881523Y-154884380D02*
X257881523Y-153884380D01*
X257881523Y-154265333D02*
X257976761Y-154217714D01*
X258167238Y-154217714D01*
X258262476Y-154265333D01*
X258310095Y-154312952D01*
X258357714Y-154408190D01*
X258357714Y-154693904D01*
X258310095Y-154789142D01*
X258262476Y-154836761D01*
X258167238Y-154884380D01*
X257976761Y-154884380D01*
X257881523Y-154836761D01*
X259214857Y-154217714D02*
X259214857Y-154884380D01*
X258976761Y-153836761D02*
X258738666Y-154551047D01*
X259357714Y-154551047D01*
X255341523Y-154884380D02*
X255341523Y-153884380D01*
X255341523Y-154265333D02*
X255436761Y-154217714D01*
X255627238Y-154217714D01*
X255722476Y-154265333D01*
X255770095Y-154312952D01*
X255817714Y-154408190D01*
X255817714Y-154693904D01*
X255770095Y-154789142D01*
X255722476Y-154836761D01*
X255627238Y-154884380D01*
X255436761Y-154884380D01*
X255341523Y-154836761D01*
X256151047Y-153884380D02*
X256770095Y-153884380D01*
X256436761Y-154265333D01*
X256579619Y-154265333D01*
X256674857Y-154312952D01*
X256722476Y-154360571D01*
X256770095Y-154455809D01*
X256770095Y-154693904D01*
X256722476Y-154789142D01*
X256674857Y-154836761D01*
X256579619Y-154884380D01*
X256293904Y-154884380D01*
X256198666Y-154836761D01*
X256151047Y-154789142D01*
X252801523Y-154884380D02*
X252801523Y-153884380D01*
X252801523Y-154265333D02*
X252896761Y-154217714D01*
X253087238Y-154217714D01*
X253182476Y-154265333D01*
X253230095Y-154312952D01*
X253277714Y-154408190D01*
X253277714Y-154693904D01*
X253230095Y-154789142D01*
X253182476Y-154836761D01*
X253087238Y-154884380D01*
X252896761Y-154884380D01*
X252801523Y-154836761D01*
X253658666Y-153979619D02*
X253706285Y-153932000D01*
X253801523Y-153884380D01*
X254039619Y-153884380D01*
X254134857Y-153932000D01*
X254182476Y-153979619D01*
X254230095Y-154074857D01*
X254230095Y-154170095D01*
X254182476Y-154312952D01*
X253611047Y-154884380D01*
X254230095Y-154884380D01*
X250261523Y-154884380D02*
X250261523Y-153884380D01*
X250261523Y-154265333D02*
X250356761Y-154217714D01*
X250547238Y-154217714D01*
X250642476Y-154265333D01*
X250690095Y-154312952D01*
X250737714Y-154408190D01*
X250737714Y-154693904D01*
X250690095Y-154789142D01*
X250642476Y-154836761D01*
X250547238Y-154884380D01*
X250356761Y-154884380D01*
X250261523Y-154836761D01*
X251690095Y-154884380D02*
X251118666Y-154884380D01*
X251404380Y-154884380D02*
X251404380Y-153884380D01*
X251309142Y-154027238D01*
X251213904Y-154122476D01*
X251118666Y-154170095D01*
D10*
X250683142Y-143704571D02*
X250531357Y-144918857D01*
X250584928Y-145061714D01*
X250647428Y-145133142D01*
X250781357Y-145204571D01*
X251067071Y-145204571D01*
X251218857Y-145133142D01*
X251299214Y-145061714D01*
X251388500Y-144918857D01*
X251540285Y-143704571D01*
X252004571Y-145133142D02*
X252209928Y-145204571D01*
X252567071Y-145204571D01*
X252718857Y-145133142D01*
X252799214Y-145061714D01*
X252888500Y-144918857D01*
X252906357Y-144776000D01*
X252852785Y-144633142D01*
X252790285Y-144561714D01*
X252656357Y-144490285D01*
X252379571Y-144418857D01*
X252245642Y-144347428D01*
X252183142Y-144276000D01*
X252129571Y-144133142D01*
X252147428Y-143990285D01*
X252236714Y-143847428D01*
X252317071Y-143776000D01*
X252468857Y-143704571D01*
X252826000Y-143704571D01*
X253031357Y-143776000D01*
X254093857Y-144418857D02*
X254299214Y-144490285D01*
X254361714Y-144561714D01*
X254415285Y-144704571D01*
X254388500Y-144918857D01*
X254299214Y-145061714D01*
X254218857Y-145133142D01*
X254067071Y-145204571D01*
X253495642Y-145204571D01*
X253683142Y-143704571D01*
X254183142Y-143704571D01*
X254317071Y-143776000D01*
X254379571Y-143847428D01*
X254433142Y-143990285D01*
X254415285Y-144133142D01*
X254326000Y-144276000D01*
X254245642Y-144347428D01*
X254093857Y-144418857D01*
X253593857Y-144418857D01*
X256111714Y-143704571D02*
X256968857Y-143704571D01*
X256352785Y-145204571D02*
X256540285Y-143704571D01*
X257281357Y-145204571D02*
X257468857Y-143704571D01*
X257924214Y-145204571D02*
X258022428Y-144418857D01*
X257968857Y-144276000D01*
X257834928Y-144204571D01*
X257620642Y-144204571D01*
X257468857Y-144276000D01*
X257388500Y-144347428D01*
X258638500Y-145204571D02*
X258763500Y-144204571D01*
X258826000Y-143704571D02*
X258745642Y-143776000D01*
X258808142Y-143847428D01*
X258888500Y-143776000D01*
X258826000Y-143704571D01*
X258808142Y-143847428D01*
X259290285Y-145133142D02*
X259424214Y-145204571D01*
X259709928Y-145204571D01*
X259861714Y-145133142D01*
X259951000Y-144990285D01*
X259959928Y-144918857D01*
X259906357Y-144776000D01*
X259772428Y-144704571D01*
X259558142Y-144704571D01*
X259424214Y-144633142D01*
X259370642Y-144490285D01*
X259379571Y-144418857D01*
X259468857Y-144276000D01*
X259620642Y-144204571D01*
X259834928Y-144204571D01*
X259968857Y-144276000D01*
X261754571Y-143704571D02*
X261924214Y-145204571D01*
X262343857Y-144133142D01*
X262495642Y-145204571D01*
X263040285Y-143704571D01*
X264067071Y-145204571D02*
X264165285Y-144418857D01*
X264111714Y-144276000D01*
X263977785Y-144204571D01*
X263692071Y-144204571D01*
X263540285Y-144276000D01*
X264076000Y-145133142D02*
X263924214Y-145204571D01*
X263567071Y-145204571D01*
X263433142Y-145133142D01*
X263379571Y-144990285D01*
X263397428Y-144847428D01*
X263486714Y-144704571D01*
X263638500Y-144633142D01*
X263995642Y-144633142D01*
X264147428Y-144561714D01*
X264763500Y-144204571D02*
X264995642Y-145204571D01*
X265477785Y-144204571D02*
X264995642Y-145204571D01*
X264808142Y-145561714D01*
X264727785Y-145633142D01*
X264576000Y-145704571D01*
X267192071Y-144204571D02*
X268281357Y-144633142D01*
X267084928Y-145061714D01*
X269049214Y-144204571D02*
X270138500Y-144633142D01*
X268942071Y-145061714D01*
X270906357Y-144204571D02*
X271995642Y-144633142D01*
X270799214Y-145061714D01*
D13*
X202430761Y-128928761D02*
X202573619Y-128976380D01*
X202811714Y-128976380D01*
X202906952Y-128928761D01*
X202954571Y-128881142D01*
X203002190Y-128785904D01*
X203002190Y-128690666D01*
X202954571Y-128595428D01*
X202906952Y-128547809D01*
X202811714Y-128500190D01*
X202621238Y-128452571D01*
X202526000Y-128404952D01*
X202478380Y-128357333D01*
X202430761Y-128262095D01*
X202430761Y-128166857D01*
X202478380Y-128071619D01*
X202526000Y-128024000D01*
X202621238Y-127976380D01*
X202859333Y-127976380D01*
X203002190Y-128024000D01*
X203859333Y-128928761D02*
X203764095Y-128976380D01*
X203573619Y-128976380D01*
X203478380Y-128928761D01*
X203430761Y-128881142D01*
X203383142Y-128785904D01*
X203383142Y-128500190D01*
X203430761Y-128404952D01*
X203478380Y-128357333D01*
X203573619Y-128309714D01*
X203764095Y-128309714D01*
X203859333Y-128357333D01*
X204287904Y-128976380D02*
X204287904Y-127976380D01*
X204716476Y-128976380D02*
X204716476Y-128452571D01*
X204668857Y-128357333D01*
X204573619Y-128309714D01*
X204430761Y-128309714D01*
X204335523Y-128357333D01*
X204287904Y-128404952D01*
X205192666Y-128976380D02*
X205192666Y-128309714D01*
X205192666Y-128404952D02*
X205240285Y-128357333D01*
X205335523Y-128309714D01*
X205478380Y-128309714D01*
X205573619Y-128357333D01*
X205621238Y-128452571D01*
X205621238Y-128976380D01*
X205621238Y-128452571D02*
X205668857Y-128357333D01*
X205764095Y-128309714D01*
X205906952Y-128309714D01*
X206002190Y-128357333D01*
X206049809Y-128452571D01*
X206049809Y-128976380D01*
X206526000Y-128976380D02*
X206526000Y-128309714D01*
X206526000Y-127976380D02*
X206478380Y-128024000D01*
X206526000Y-128071619D01*
X206573619Y-128024000D01*
X206526000Y-127976380D01*
X206526000Y-128071619D01*
X206859333Y-128309714D02*
X207240285Y-128309714D01*
X207002190Y-127976380D02*
X207002190Y-128833523D01*
X207049809Y-128928761D01*
X207145047Y-128976380D01*
X207240285Y-128976380D01*
X207430761Y-128309714D02*
X207811714Y-128309714D01*
X207573619Y-127976380D02*
X207573619Y-128833523D01*
X207621238Y-128928761D01*
X207716476Y-128976380D01*
X207811714Y-128976380D01*
X208764095Y-127976380D02*
X209335523Y-127976380D01*
X209049809Y-128976380D02*
X209049809Y-127976380D01*
X209668857Y-128976380D02*
X209668857Y-128309714D01*
X209668857Y-128500190D02*
X209716476Y-128404952D01*
X209764095Y-128357333D01*
X209859333Y-128309714D01*
X209954571Y-128309714D01*
X210287904Y-128976380D02*
X210287904Y-128309714D01*
X210287904Y-127976380D02*
X210240285Y-128024000D01*
X210287904Y-128071619D01*
X210335523Y-128024000D01*
X210287904Y-127976380D01*
X210287904Y-128071619D01*
X211192666Y-128309714D02*
X211192666Y-129119238D01*
X211145047Y-129214476D01*
X211097428Y-129262095D01*
X211002190Y-129309714D01*
X210859333Y-129309714D01*
X210764095Y-129262095D01*
X211192666Y-128928761D02*
X211097428Y-128976380D01*
X210906952Y-128976380D01*
X210811714Y-128928761D01*
X210764095Y-128881142D01*
X210716476Y-128785904D01*
X210716476Y-128500190D01*
X210764095Y-128404952D01*
X210811714Y-128357333D01*
X210906952Y-128309714D01*
X211097428Y-128309714D01*
X211192666Y-128357333D01*
X212097428Y-128309714D02*
X212097428Y-129119238D01*
X212049809Y-129214476D01*
X212002190Y-129262095D01*
X211906952Y-129309714D01*
X211764095Y-129309714D01*
X211668857Y-129262095D01*
X212097428Y-128928761D02*
X212002190Y-128976380D01*
X211811714Y-128976380D01*
X211716476Y-128928761D01*
X211668857Y-128881142D01*
X211621238Y-128785904D01*
X211621238Y-128500190D01*
X211668857Y-128404952D01*
X211716476Y-128357333D01*
X211811714Y-128309714D01*
X212002190Y-128309714D01*
X212097428Y-128357333D01*
X212954571Y-128928761D02*
X212859333Y-128976380D01*
X212668857Y-128976380D01*
X212573619Y-128928761D01*
X212526000Y-128833523D01*
X212526000Y-128452571D01*
X212573619Y-128357333D01*
X212668857Y-128309714D01*
X212859333Y-128309714D01*
X212954571Y-128357333D01*
X213002190Y-128452571D01*
X213002190Y-128547809D01*
X212526000Y-128643047D01*
X213430761Y-128976380D02*
X213430761Y-128309714D01*
X213430761Y-128500190D02*
X213478380Y-128404952D01*
X213526000Y-128357333D01*
X213621238Y-128309714D01*
X213716476Y-128309714D01*
D14*
X250651714Y-131492761D02*
X251032666Y-131492761D01*
X251223142Y-131588000D01*
X251413619Y-131778476D01*
X251508857Y-132159428D01*
X251508857Y-132826095D01*
X251413619Y-133207047D01*
X251223142Y-133397523D01*
X251032666Y-133492761D01*
X250651714Y-133492761D01*
X250461238Y-133397523D01*
X250270761Y-133207047D01*
X250175523Y-132826095D01*
X250175523Y-132159428D01*
X250270761Y-131778476D01*
X250461238Y-131588000D01*
X250651714Y-131492761D01*
X253223142Y-133492761D02*
X253223142Y-131492761D01*
X253223142Y-133397523D02*
X253032666Y-133492761D01*
X252651714Y-133492761D01*
X252461238Y-133397523D01*
X252366000Y-133302285D01*
X252270761Y-133111809D01*
X252270761Y-132540380D01*
X252366000Y-132349904D01*
X252461238Y-132254666D01*
X252651714Y-132159428D01*
X253032666Y-132159428D01*
X253223142Y-132254666D01*
X254461238Y-133492761D02*
X254270761Y-133397523D01*
X254175523Y-133302285D01*
X254080285Y-133111809D01*
X254080285Y-132540380D01*
X254175523Y-132349904D01*
X254270761Y-132254666D01*
X254461238Y-132159428D01*
X254746952Y-132159428D01*
X254937428Y-132254666D01*
X255032666Y-132349904D01*
X255127904Y-132540380D01*
X255127904Y-133111809D01*
X255032666Y-133302285D01*
X254937428Y-133397523D01*
X254746952Y-133492761D01*
X254461238Y-133492761D01*
X255985047Y-133492761D02*
X255985047Y-132159428D01*
X255985047Y-132349904D02*
X256080285Y-132254666D01*
X256270761Y-132159428D01*
X256556476Y-132159428D01*
X256746952Y-132254666D01*
X256842190Y-132445142D01*
X256842190Y-133492761D01*
X256842190Y-132445142D02*
X256937428Y-132254666D01*
X257127904Y-132159428D01*
X257413619Y-132159428D01*
X257604095Y-132254666D01*
X257699333Y-132445142D01*
X257699333Y-133492761D01*
X259413619Y-133397523D02*
X259223142Y-133492761D01*
X258842190Y-133492761D01*
X258651714Y-133397523D01*
X258556476Y-133207047D01*
X258556476Y-132445142D01*
X258651714Y-132254666D01*
X258842190Y-132159428D01*
X259223142Y-132159428D01*
X259413619Y-132254666D01*
X259508857Y-132445142D01*
X259508857Y-132635619D01*
X258556476Y-132826095D01*
X260080285Y-132159428D02*
X260842190Y-132159428D01*
X260366000Y-131492761D02*
X260366000Y-133207047D01*
X260461238Y-133397523D01*
X260651714Y-133492761D01*
X260842190Y-133492761D01*
X262270761Y-133397523D02*
X262080285Y-133492761D01*
X261699333Y-133492761D01*
X261508857Y-133397523D01*
X261413619Y-133207047D01*
X261413619Y-132445142D01*
X261508857Y-132254666D01*
X261699333Y-132159428D01*
X262080285Y-132159428D01*
X262270761Y-132254666D01*
X262366000Y-132445142D01*
X262366000Y-132635619D01*
X261413619Y-132826095D01*
X263223142Y-133492761D02*
X263223142Y-132159428D01*
X263223142Y-132540380D02*
X263318380Y-132349904D01*
X263413619Y-132254666D01*
X263604095Y-132159428D01*
X263794571Y-132159428D01*
X265699333Y-131492761D02*
X266366000Y-133492761D01*
X267032666Y-131492761D01*
X267699333Y-133302285D02*
X267794571Y-133397523D01*
X267699333Y-133492761D01*
X267604095Y-133397523D01*
X267699333Y-133302285D01*
X267699333Y-133492761D01*
X268556476Y-131683238D02*
X268651714Y-131588000D01*
X268842190Y-131492761D01*
X269318380Y-131492761D01*
X269508857Y-131588000D01*
X269604095Y-131683238D01*
X269699333Y-131873714D01*
X269699333Y-132064190D01*
X269604095Y-132349904D01*
X268461238Y-133492761D01*
X269699333Y-133492761D01*
X270556476Y-133302285D02*
X270651714Y-133397523D01*
X270556476Y-133492761D01*
X270461238Y-133397523D01*
X270556476Y-133302285D01*
X270556476Y-133492761D01*
X272556476Y-133492761D02*
X271413619Y-133492761D01*
X271985047Y-133492761D02*
X271985047Y-131492761D01*
X271794571Y-131778476D01*
X271604095Y-131968952D01*
X271413619Y-132064190D01*
D10*
X190834285Y-136822571D02*
X190834285Y-135322571D01*
X191334285Y-136394000D01*
X191834285Y-135322571D01*
X191834285Y-136822571D01*
X192834285Y-135322571D02*
X193120000Y-135322571D01*
X193262857Y-135394000D01*
X193405714Y-135536857D01*
X193477142Y-135822571D01*
X193477142Y-136322571D01*
X193405714Y-136608285D01*
X193262857Y-136751142D01*
X193120000Y-136822571D01*
X192834285Y-136822571D01*
X192691428Y-136751142D01*
X192548571Y-136608285D01*
X192477142Y-136322571D01*
X192477142Y-135822571D01*
X192548571Y-135536857D01*
X192691428Y-135394000D01*
X192834285Y-135322571D01*
X194120000Y-136822571D02*
X194120000Y-135322571D01*
X194477142Y-135322571D01*
X194691428Y-135394000D01*
X194834285Y-135536857D01*
X194905714Y-135679714D01*
X194977142Y-135965428D01*
X194977142Y-136179714D01*
X194905714Y-136465428D01*
X194834285Y-136608285D01*
X194691428Y-136751142D01*
X194477142Y-136822571D01*
X194120000Y-136822571D01*
X195620000Y-136036857D02*
X196120000Y-136036857D01*
X196334285Y-136822571D02*
X195620000Y-136822571D01*
X195620000Y-135322571D01*
X196334285Y-135322571D01*
X198048571Y-136751142D02*
X198262857Y-136822571D01*
X198620000Y-136822571D01*
X198762857Y-136751142D01*
X198834285Y-136679714D01*
X198905714Y-136536857D01*
X198905714Y-136394000D01*
X198834285Y-136251142D01*
X198762857Y-136179714D01*
X198620000Y-136108285D01*
X198334285Y-136036857D01*
X198191428Y-135965428D01*
X198120000Y-135894000D01*
X198048571Y-135751142D01*
X198048571Y-135608285D01*
X198120000Y-135465428D01*
X198191428Y-135394000D01*
X198334285Y-135322571D01*
X198691428Y-135322571D01*
X198905714Y-135394000D01*
X199548571Y-136036857D02*
X200048571Y-136036857D01*
X200262857Y-136822571D02*
X199548571Y-136822571D01*
X199548571Y-135322571D01*
X200262857Y-135322571D01*
X201620000Y-136822571D02*
X200905714Y-136822571D01*
X200905714Y-135322571D01*
X202120000Y-136036857D02*
X202620000Y-136036857D01*
X202834285Y-136822571D02*
X202120000Y-136822571D01*
X202120000Y-135322571D01*
X202834285Y-135322571D01*
X204334285Y-136679714D02*
X204262857Y-136751142D01*
X204048571Y-136822571D01*
X203905714Y-136822571D01*
X203691428Y-136751142D01*
X203548571Y-136608285D01*
X203477142Y-136465428D01*
X203405714Y-136179714D01*
X203405714Y-135965428D01*
X203477142Y-135679714D01*
X203548571Y-135536857D01*
X203691428Y-135394000D01*
X203905714Y-135322571D01*
X204048571Y-135322571D01*
X204262857Y-135394000D01*
X204334285Y-135465428D01*
X204762857Y-135322571D02*
X205620000Y-135322571D01*
X205191428Y-136822571D02*
X205191428Y-135322571D01*
D15*
X220833428Y-155364571D02*
X220333428Y-154650285D01*
X219976285Y-155364571D02*
X219976285Y-153864571D01*
X220547714Y-153864571D01*
X220690571Y-153936000D01*
X220762000Y-154007428D01*
X220833428Y-154150285D01*
X220833428Y-154364571D01*
X220762000Y-154507428D01*
X220690571Y-154578857D01*
X220547714Y-154650285D01*
X219976285Y-154650285D01*
X221476285Y-154578857D02*
X221976285Y-154578857D01*
X222190571Y-155364571D02*
X221476285Y-155364571D01*
X221476285Y-153864571D01*
X222190571Y-153864571D01*
X222762000Y-155293142D02*
X222976285Y-155364571D01*
X223333428Y-155364571D01*
X223476285Y-155293142D01*
X223547714Y-155221714D01*
X223619142Y-155078857D01*
X223619142Y-154936000D01*
X223547714Y-154793142D01*
X223476285Y-154721714D01*
X223333428Y-154650285D01*
X223047714Y-154578857D01*
X222904857Y-154507428D01*
X222833428Y-154436000D01*
X222762000Y-154293142D01*
X222762000Y-154150285D01*
X222833428Y-154007428D01*
X222904857Y-153936000D01*
X223047714Y-153864571D01*
X223404857Y-153864571D01*
X223619142Y-153936000D01*
X224262000Y-154578857D02*
X224762000Y-154578857D01*
X224976285Y-155364571D02*
X224262000Y-155364571D01*
X224262000Y-153864571D01*
X224976285Y-153864571D01*
X225404857Y-153864571D02*
X226262000Y-153864571D01*
X225833428Y-155364571D02*
X225833428Y-153864571D01*
X200664571Y-155618571D02*
X200664571Y-154118571D01*
X201521714Y-155618571D01*
X201521714Y-154118571D01*
X202236000Y-154832857D02*
X202736000Y-154832857D01*
X202950285Y-155618571D02*
X202236000Y-155618571D01*
X202236000Y-154118571D01*
X202950285Y-154118571D01*
X203450285Y-154118571D02*
X204450285Y-155618571D01*
X204450285Y-154118571D02*
X203450285Y-155618571D01*
X204807428Y-154118571D02*
X205664571Y-154118571D01*
X205236000Y-155618571D02*
X205236000Y-154118571D01*
X207307428Y-154618571D02*
X208450285Y-155047142D01*
X207307428Y-155475714D01*
X209164571Y-154618571D02*
X210307428Y-155047142D01*
X209164571Y-155475714D01*
X186242000Y-154618571D02*
X185099142Y-155047142D01*
X186242000Y-155475714D01*
X188099142Y-154618571D02*
X186956285Y-155047142D01*
X188099142Y-155475714D01*
X189956285Y-155618571D02*
X189956285Y-154118571D01*
X190527714Y-154118571D01*
X190670571Y-154190000D01*
X190742000Y-154261428D01*
X190813428Y-154404285D01*
X190813428Y-154618571D01*
X190742000Y-154761428D01*
X190670571Y-154832857D01*
X190527714Y-154904285D01*
X189956285Y-154904285D01*
X192313428Y-155618571D02*
X191813428Y-154904285D01*
X191456285Y-155618571D02*
X191456285Y-154118571D01*
X192027714Y-154118571D01*
X192170571Y-154190000D01*
X192242000Y-154261428D01*
X192313428Y-154404285D01*
X192313428Y-154618571D01*
X192242000Y-154761428D01*
X192170571Y-154832857D01*
X192027714Y-154904285D01*
X191456285Y-154904285D01*
X192956285Y-154832857D02*
X193456285Y-154832857D01*
X193670571Y-155618571D02*
X192956285Y-155618571D01*
X192956285Y-154118571D01*
X193670571Y-154118571D01*
X194099142Y-154118571D02*
X194599142Y-155618571D01*
X195099142Y-154118571D01*
D16*
X213614000Y-155448000D02*
X213614000Y-135382000D01*
D17*
%TO.C,RV1*%
X253433000Y-128260000D02*
X253433000Y-123190000D01*
X263203000Y-128260000D02*
X263203000Y-123190000D01*
X263203000Y-123190000D02*
X253433000Y-123190000D01*
X263203000Y-128260000D02*
X253433000Y-128260000D01*
%TO.C,R12*%
X191718000Y-126000252D02*
X191718000Y-125477748D01*
X190298000Y-126000252D02*
X190298000Y-125477748D01*
%TO.C,R11*%
X267410000Y-125728252D02*
X267410000Y-125205748D01*
X265990000Y-125728252D02*
X265990000Y-125205748D01*
%TO.C,D5*%
X189936000Y-127599000D02*
X189936000Y-124739000D01*
X188016000Y-127599000D02*
X189936000Y-127599000D01*
X188016000Y-124739000D02*
X188016000Y-127599000D01*
%TO.C,D4*%
X269946000Y-127345000D02*
X269946000Y-124485000D01*
X268026000Y-127345000D02*
X269946000Y-127345000D01*
X268026000Y-124485000D02*
X268026000Y-127345000D01*
%TO.C,JP2*%
X220920000Y-134934000D02*
X220920000Y-133604000D01*
X222250000Y-134934000D02*
X220920000Y-134934000D01*
X223520000Y-134934000D02*
X223520000Y-132274000D01*
X223520000Y-132274000D02*
X228660000Y-132274000D01*
X223520000Y-134934000D02*
X228660000Y-134934000D01*
X228660000Y-134934000D02*
X228660000Y-132274000D01*
%TO.C,JP1*%
X244662000Y-129226000D02*
X244662000Y-130556000D01*
X243332000Y-129226000D02*
X244662000Y-129226000D01*
X242062000Y-129226000D02*
X242062000Y-131886000D01*
X242062000Y-131886000D02*
X236922000Y-131886000D01*
X242062000Y-129226000D02*
X236922000Y-129226000D01*
X236922000Y-129226000D02*
X236922000Y-131886000D01*
%TO.C,J1*%
X187198000Y-126238000D02*
X185928000Y-126238000D01*
X187198000Y-124968000D02*
X187198000Y-126238000D01*
X184885071Y-119508000D02*
X184488000Y-119508000D01*
X184885071Y-120268000D02*
X184488000Y-120268000D01*
X175828000Y-119508000D02*
X181828000Y-119508000D01*
X175828000Y-120268000D02*
X175828000Y-119508000D01*
X181828000Y-120268000D02*
X175828000Y-120268000D01*
X184488000Y-121158000D02*
X181828000Y-121158000D01*
X184885071Y-122048000D02*
X184488000Y-122048000D01*
X184885071Y-122808000D02*
X184488000Y-122808000D01*
X175828000Y-122048000D02*
X181828000Y-122048000D01*
X175828000Y-122808000D02*
X175828000Y-122048000D01*
X181828000Y-122808000D02*
X175828000Y-122808000D01*
X184488000Y-123698000D02*
X181828000Y-123698000D01*
X184818000Y-124588000D02*
X184488000Y-124588000D01*
X184818000Y-125348000D02*
X184488000Y-125348000D01*
X181828000Y-124688000D02*
X175828000Y-124688000D01*
X181828000Y-124808000D02*
X175828000Y-124808000D01*
X181828000Y-124928000D02*
X175828000Y-124928000D01*
X181828000Y-125048000D02*
X175828000Y-125048000D01*
X181828000Y-125168000D02*
X175828000Y-125168000D01*
X181828000Y-125288000D02*
X175828000Y-125288000D01*
X175828000Y-124588000D02*
X181828000Y-124588000D01*
X175828000Y-125348000D02*
X175828000Y-124588000D01*
X181828000Y-125348000D02*
X175828000Y-125348000D01*
X181828000Y-126298000D02*
X184488000Y-126298000D01*
X181828000Y-118558000D02*
X181828000Y-126298000D01*
X184488000Y-118558000D02*
X181828000Y-118558000D01*
X184488000Y-126298000D02*
X184488000Y-118558000D01*
%TO.C,DS1*%
X265350000Y-90110000D02*
X265350000Y-115110000D01*
X192350000Y-90110000D02*
X265350000Y-90110000D01*
X192350000Y-115110000D02*
X192350000Y-90110000D01*
X265350000Y-115110000D02*
X192350000Y-115110000D01*
X196150000Y-109610000D02*
X196150000Y-95610000D01*
X196649340Y-95110000D02*
X260150000Y-95110000D01*
X260649720Y-95610680D02*
X260649720Y-109610000D01*
X260150000Y-110110000D02*
X196650000Y-110110000D01*
X261850000Y-121110000D02*
X258850000Y-121110000D01*
X268480000Y-120750000D02*
X267690000Y-120750000D01*
X268490000Y-120750000D02*
X268490000Y-84470000D01*
X188210000Y-120750000D02*
X267690000Y-120750000D01*
X188210000Y-84470000D02*
X188210000Y-120750000D01*
X268490000Y-84470000D02*
X188210000Y-84470000D01*
X260149340Y-110111540D02*
G75*
G03*
X260649720Y-109611160I0J500380D01*
G01*
X260649720Y-95610680D02*
G75*
G03*
X260149340Y-95110300I-500380J0D01*
G01*
X196649340Y-95110300D02*
G75*
G03*
X196148960Y-95610680I0J-500380D01*
G01*
X196150000Y-109610000D02*
G75*
G03*
X196650000Y-110110000I500000J0D01*
G01*
%TO.C,R10*%
X219810252Y-150973000D02*
X219287748Y-150973000D01*
X219810252Y-152393000D02*
X219287748Y-152393000D01*
%TO.C,R9*%
X202018252Y-151217000D02*
X201495748Y-151217000D01*
X202018252Y-152637000D02*
X201495748Y-152637000D01*
%TO.C,R8*%
X186270252Y-151227000D02*
X185747748Y-151227000D01*
X186270252Y-152647000D02*
X185747748Y-152647000D01*
%TO.C,D3*%
X226154000Y-150678000D02*
X223294000Y-150678000D01*
X226154000Y-152598000D02*
X226154000Y-150678000D01*
X223294000Y-152598000D02*
X226154000Y-152598000D01*
%TO.C,D2*%
X208362000Y-150922000D02*
X205502000Y-150922000D01*
X208362000Y-152842000D02*
X208362000Y-150922000D01*
X205502000Y-152842000D02*
X208362000Y-152842000D01*
%TO.C,D1*%
X192614000Y-150932000D02*
X189754000Y-150932000D01*
X192614000Y-152852000D02*
X192614000Y-150932000D01*
X189754000Y-152852000D02*
X192614000Y-152852000D01*
%TO.C,SW2*%
X203054000Y-143304000D02*
X203054000Y-144804000D01*
X204304000Y-147304000D02*
X208804000Y-147304000D01*
X210054000Y-144804000D02*
X210054000Y-143304000D01*
X208804000Y-140804000D02*
X204304000Y-140804000D01*
%TO.C,U1*%
X198314000Y-126274000D02*
X198314000Y-127524000D01*
X216214000Y-126274000D02*
X198314000Y-126274000D01*
X216214000Y-130774000D02*
X216214000Y-126274000D01*
X198314000Y-130774000D02*
X216214000Y-130774000D01*
X198314000Y-129524000D02*
X198314000Y-130774000D01*
X198314000Y-127524000D02*
G75*
G02*
X198314000Y-129524000I0J-1000000D01*
G01*
%TO.C,R3*%
X225500000Y-124204252D02*
X225500000Y-123681748D01*
X224080000Y-124204252D02*
X224080000Y-123681748D01*
%TO.C,C1*%
X196140000Y-128262748D02*
X196140000Y-128785252D01*
X197560000Y-128262748D02*
X197560000Y-128785252D01*
%TO.C,R7*%
X219150000Y-142510252D02*
X219150000Y-141987748D01*
X217730000Y-142510252D02*
X217730000Y-141987748D01*
%TO.C,R6*%
X219150000Y-146556252D02*
X219150000Y-146033748D01*
X217730000Y-146556252D02*
X217730000Y-146033748D01*
%TO.C,R5*%
X201370000Y-142746252D02*
X201370000Y-142223748D01*
X199950000Y-142746252D02*
X199950000Y-142223748D01*
%TO.C,R4*%
X201370000Y-146574252D02*
X201370000Y-146051748D01*
X199950000Y-146574252D02*
X199950000Y-146051748D01*
%TO.C,R2*%
X185622000Y-142501252D02*
X185622000Y-141978748D01*
X184202000Y-142501252D02*
X184202000Y-141978748D01*
%TO.C,R1*%
X185622000Y-146574252D02*
X185622000Y-146051748D01*
X184202000Y-146574252D02*
X184202000Y-146051748D01*
%TO.C,C4*%
X219203748Y-139648000D02*
X219726252Y-139648000D01*
X219203748Y-138228000D02*
X219726252Y-138228000D01*
%TO.C,C3*%
X205487748Y-139394000D02*
X206010252Y-139394000D01*
X205487748Y-137974000D02*
X206010252Y-137974000D01*
%TO.C,C2*%
X193041748Y-139648000D02*
X193564252Y-139648000D01*
X193041748Y-138228000D02*
X193564252Y-138228000D01*
%TO.C,J4*%
X269688000Y-84522000D02*
X271018000Y-84522000D01*
X269688000Y-85852000D02*
X269688000Y-84522000D01*
X272288000Y-84522000D02*
X274888000Y-84522000D01*
X272288000Y-87122000D02*
X272288000Y-84522000D01*
X269688000Y-87122000D02*
X272288000Y-87122000D01*
X274888000Y-84522000D02*
X274888000Y-110042000D01*
X269688000Y-87122000D02*
X269688000Y-110042000D01*
X269688000Y-110042000D02*
X274888000Y-110042000D01*
%TO.C,J3*%
X182058000Y-84522000D02*
X183388000Y-84522000D01*
X182058000Y-85852000D02*
X182058000Y-84522000D01*
X184658000Y-84522000D02*
X187258000Y-84522000D01*
X184658000Y-87122000D02*
X184658000Y-84522000D01*
X182058000Y-87122000D02*
X184658000Y-87122000D01*
X187258000Y-84522000D02*
X187258000Y-110042000D01*
X182058000Y-87122000D02*
X182058000Y-110042000D01*
X182058000Y-110042000D02*
X187258000Y-110042000D01*
%TO.C,J2*%
X270764000Y-119380000D02*
X272034000Y-119380000D01*
X270764000Y-120650000D02*
X270764000Y-119380000D01*
X273076929Y-126110000D02*
X273474000Y-126110000D01*
X273076929Y-125350000D02*
X273474000Y-125350000D01*
X282134000Y-126110000D02*
X276134000Y-126110000D01*
X282134000Y-125350000D02*
X282134000Y-126110000D01*
X276134000Y-125350000D02*
X282134000Y-125350000D01*
X273474000Y-124460000D02*
X276134000Y-124460000D01*
X273076929Y-123570000D02*
X273474000Y-123570000D01*
X273076929Y-122810000D02*
X273474000Y-122810000D01*
X282134000Y-123570000D02*
X276134000Y-123570000D01*
X282134000Y-122810000D02*
X282134000Y-123570000D01*
X276134000Y-122810000D02*
X282134000Y-122810000D01*
X273474000Y-121920000D02*
X276134000Y-121920000D01*
X273144000Y-121030000D02*
X273474000Y-121030000D01*
X273144000Y-120270000D02*
X273474000Y-120270000D01*
X276134000Y-120930000D02*
X282134000Y-120930000D01*
X276134000Y-120810000D02*
X282134000Y-120810000D01*
X276134000Y-120690000D02*
X282134000Y-120690000D01*
X276134000Y-120570000D02*
X282134000Y-120570000D01*
X276134000Y-120450000D02*
X282134000Y-120450000D01*
X276134000Y-120330000D02*
X282134000Y-120330000D01*
X282134000Y-121030000D02*
X276134000Y-121030000D01*
X282134000Y-120270000D02*
X282134000Y-121030000D01*
X276134000Y-120270000D02*
X282134000Y-120270000D01*
X276134000Y-119320000D02*
X273474000Y-119320000D01*
X276134000Y-127060000D02*
X276134000Y-119320000D01*
X273474000Y-127060000D02*
X276134000Y-127060000D01*
X273474000Y-119320000D02*
X273474000Y-127060000D01*
%TO.C,A1*%
X231772000Y-135252000D02*
X231772000Y-153292000D01*
X275212000Y-135252000D02*
X231772000Y-135252000D01*
X275212000Y-153292000D02*
X275212000Y-135252000D01*
X272542000Y-150622000D02*
X272542000Y-153292000D01*
X236982000Y-150622000D02*
X272542000Y-150622000D01*
X236982000Y-150622000D02*
X236982000Y-153292000D01*
X272542000Y-137922000D02*
X272542000Y-135252000D01*
X234442000Y-137922000D02*
X272542000Y-137922000D01*
X234442000Y-137922000D02*
X234442000Y-135252000D01*
X231772000Y-153292000D02*
X234442000Y-153292000D01*
X236982000Y-153292000D02*
X275212000Y-153292000D01*
X234442000Y-150622000D02*
X234442000Y-153292000D01*
X236982000Y-150622000D02*
X234442000Y-150622000D01*
%TO.C,SW3*%
X220730000Y-143304000D02*
X220730000Y-144804000D01*
X221980000Y-147304000D02*
X226480000Y-147304000D01*
X227730000Y-144804000D02*
X227730000Y-143304000D01*
X226480000Y-140804000D02*
X221980000Y-140804000D01*
%TO.C,SW1*%
X187560000Y-143304000D02*
X187560000Y-144804000D01*
X188810000Y-147304000D02*
X193310000Y-147304000D01*
X194560000Y-144804000D02*
X194560000Y-143304000D01*
X193310000Y-140804000D02*
X188810000Y-140804000D01*
%TO.C,REF\u002A\u002A*%
D11*
X261048666Y-108266380D02*
X260715333Y-107790190D01*
X260477238Y-108266380D02*
X260477238Y-107266380D01*
X260858190Y-107266380D01*
X260953428Y-107314000D01*
X261001047Y-107361619D01*
X261048666Y-107456857D01*
X261048666Y-107599714D01*
X261001047Y-107694952D01*
X260953428Y-107742571D01*
X260858190Y-107790190D01*
X260477238Y-107790190D01*
X261477238Y-107742571D02*
X261810571Y-107742571D01*
X261953428Y-108266380D02*
X261477238Y-108266380D01*
X261477238Y-107266380D01*
X261953428Y-107266380D01*
X262715333Y-107742571D02*
X262382000Y-107742571D01*
X262382000Y-108266380D02*
X262382000Y-107266380D01*
X262858190Y-107266380D01*
X263382000Y-107266380D02*
X263382000Y-107504476D01*
X263143904Y-107409238D02*
X263382000Y-107504476D01*
X263620095Y-107409238D01*
X263239142Y-107694952D02*
X263382000Y-107504476D01*
X263524857Y-107694952D01*
X264143904Y-107266380D02*
X264143904Y-107504476D01*
X263905809Y-107409238D02*
X264143904Y-107504476D01*
X264382000Y-107409238D01*
X264001047Y-107694952D02*
X264143904Y-107504476D01*
X264286761Y-107694952D01*
X185242666Y-130618380D02*
X184909333Y-130142190D01*
X184671238Y-130618380D02*
X184671238Y-129618380D01*
X185052190Y-129618380D01*
X185147428Y-129666000D01*
X185195047Y-129713619D01*
X185242666Y-129808857D01*
X185242666Y-129951714D01*
X185195047Y-130046952D01*
X185147428Y-130094571D01*
X185052190Y-130142190D01*
X184671238Y-130142190D01*
X185671238Y-130094571D02*
X186004571Y-130094571D01*
X186147428Y-130618380D02*
X185671238Y-130618380D01*
X185671238Y-129618380D01*
X186147428Y-129618380D01*
X186909333Y-130094571D02*
X186576000Y-130094571D01*
X186576000Y-130618380D02*
X186576000Y-129618380D01*
X187052190Y-129618380D01*
X187576000Y-129618380D02*
X187576000Y-129856476D01*
X187337904Y-129761238D02*
X187576000Y-129856476D01*
X187814095Y-129761238D01*
X187433142Y-130046952D02*
X187576000Y-129856476D01*
X187718857Y-130046952D01*
X188337904Y-129618380D02*
X188337904Y-129856476D01*
X188099809Y-129761238D02*
X188337904Y-129856476D01*
X188576000Y-129761238D01*
X188195047Y-130046952D02*
X188337904Y-129856476D01*
X188480761Y-130046952D01*
X191117722Y-90405436D02*
X190784389Y-89929246D01*
X190546294Y-90405436D02*
X190546294Y-89405436D01*
X190927246Y-89405436D01*
X191022484Y-89453056D01*
X191070103Y-89500675D01*
X191117722Y-89595913D01*
X191117722Y-89738770D01*
X191070103Y-89834008D01*
X191022484Y-89881627D01*
X190927246Y-89929246D01*
X190546294Y-89929246D01*
X191546294Y-89881627D02*
X191879627Y-89881627D01*
X192022484Y-90405436D02*
X191546294Y-90405436D01*
X191546294Y-89405436D01*
X192022484Y-89405436D01*
X192784389Y-89881627D02*
X192451056Y-89881627D01*
X192451056Y-90405436D02*
X192451056Y-89405436D01*
X192927246Y-89405436D01*
X193451056Y-89405436D02*
X193451056Y-89643532D01*
X193212960Y-89548294D02*
X193451056Y-89643532D01*
X193689151Y-89548294D01*
X193308198Y-89834008D02*
X193451056Y-89643532D01*
X193593913Y-89834008D01*
X194212960Y-89405436D02*
X194212960Y-89643532D01*
X193974865Y-89548294D02*
X194212960Y-89643532D01*
X194451056Y-89548294D01*
X194070103Y-89834008D02*
X194212960Y-89643532D01*
X194355817Y-89834008D01*
%TO.C,RV1*%
X257722761Y-129842380D02*
X257389428Y-129366190D01*
X257151333Y-129842380D02*
X257151333Y-128842380D01*
X257532285Y-128842380D01*
X257627523Y-128890000D01*
X257675142Y-128937619D01*
X257722761Y-129032857D01*
X257722761Y-129175714D01*
X257675142Y-129270952D01*
X257627523Y-129318571D01*
X257532285Y-129366190D01*
X257151333Y-129366190D01*
X258008476Y-128842380D02*
X258341809Y-129842380D01*
X258675142Y-128842380D01*
X259532285Y-129842380D02*
X258960857Y-129842380D01*
X259246571Y-129842380D02*
X259246571Y-128842380D01*
X259151333Y-128985238D01*
X259056095Y-129080476D01*
X258960857Y-129128095D01*
%TO.C,R12*%
X193238380Y-126880857D02*
X192762190Y-127214190D01*
X193238380Y-127452285D02*
X192238380Y-127452285D01*
X192238380Y-127071333D01*
X192286000Y-126976095D01*
X192333619Y-126928476D01*
X192428857Y-126880857D01*
X192571714Y-126880857D01*
X192666952Y-126928476D01*
X192714571Y-126976095D01*
X192762190Y-127071333D01*
X192762190Y-127452285D01*
X193238380Y-125928476D02*
X193238380Y-126499904D01*
X193238380Y-126214190D02*
X192238380Y-126214190D01*
X192381238Y-126309428D01*
X192476476Y-126404666D01*
X192524095Y-126499904D01*
X192333619Y-125547523D02*
X192286000Y-125499904D01*
X192238380Y-125404666D01*
X192238380Y-125166571D01*
X192286000Y-125071333D01*
X192333619Y-125023714D01*
X192428857Y-124976095D01*
X192524095Y-124976095D01*
X192666952Y-125023714D01*
X193238380Y-125595142D01*
X193238380Y-124976095D01*
%TO.C,R11*%
X265502380Y-126626857D02*
X265026190Y-126960190D01*
X265502380Y-127198285D02*
X264502380Y-127198285D01*
X264502380Y-126817333D01*
X264550000Y-126722095D01*
X264597619Y-126674476D01*
X264692857Y-126626857D01*
X264835714Y-126626857D01*
X264930952Y-126674476D01*
X264978571Y-126722095D01*
X265026190Y-126817333D01*
X265026190Y-127198285D01*
X265502380Y-125674476D02*
X265502380Y-126245904D01*
X265502380Y-125960190D02*
X264502380Y-125960190D01*
X264645238Y-126055428D01*
X264740476Y-126150666D01*
X264788095Y-126245904D01*
X265502380Y-124722095D02*
X265502380Y-125293523D01*
X265502380Y-125007809D02*
X264502380Y-125007809D01*
X264645238Y-125103047D01*
X264740476Y-125198285D01*
X264788095Y-125293523D01*
%TO.C,D5*%
X188237904Y-128976380D02*
X188237904Y-127976380D01*
X188476000Y-127976380D01*
X188618857Y-128024000D01*
X188714095Y-128119238D01*
X188761714Y-128214476D01*
X188809333Y-128404952D01*
X188809333Y-128547809D01*
X188761714Y-128738285D01*
X188714095Y-128833523D01*
X188618857Y-128928761D01*
X188476000Y-128976380D01*
X188237904Y-128976380D01*
X189714095Y-127976380D02*
X189237904Y-127976380D01*
X189190285Y-128452571D01*
X189237904Y-128404952D01*
X189333142Y-128357333D01*
X189571238Y-128357333D01*
X189666476Y-128404952D01*
X189714095Y-128452571D01*
X189761714Y-128547809D01*
X189761714Y-128785904D01*
X189714095Y-128881142D01*
X189666476Y-128928761D01*
X189571238Y-128976380D01*
X189333142Y-128976380D01*
X189237904Y-128928761D01*
X189190285Y-128881142D01*
%TO.C,D4*%
X268247904Y-128722380D02*
X268247904Y-127722380D01*
X268486000Y-127722380D01*
X268628857Y-127770000D01*
X268724095Y-127865238D01*
X268771714Y-127960476D01*
X268819333Y-128150952D01*
X268819333Y-128293809D01*
X268771714Y-128484285D01*
X268724095Y-128579523D01*
X268628857Y-128674761D01*
X268486000Y-128722380D01*
X268247904Y-128722380D01*
X269676476Y-128055714D02*
X269676476Y-128722380D01*
X269438380Y-127674761D02*
X269200285Y-128389047D01*
X269819333Y-128389047D01*
%TO.C,JP2*%
X219372380Y-134437333D02*
X220086666Y-134437333D01*
X220229523Y-134484952D01*
X220324761Y-134580190D01*
X220372380Y-134723047D01*
X220372380Y-134818285D01*
X220372380Y-133961142D02*
X219372380Y-133961142D01*
X219372380Y-133580190D01*
X219420000Y-133484952D01*
X219467619Y-133437333D01*
X219562857Y-133389714D01*
X219705714Y-133389714D01*
X219800952Y-133437333D01*
X219848571Y-133484952D01*
X219896190Y-133580190D01*
X219896190Y-133961142D01*
X219467619Y-133008761D02*
X219420000Y-132961142D01*
X219372380Y-132865904D01*
X219372380Y-132627809D01*
X219420000Y-132532571D01*
X219467619Y-132484952D01*
X219562857Y-132437333D01*
X219658095Y-132437333D01*
X219800952Y-132484952D01*
X220372380Y-133056380D01*
X220372380Y-132437333D01*
%TO.C,JP1*%
X245114380Y-131389333D02*
X245828666Y-131389333D01*
X245971523Y-131436952D01*
X246066761Y-131532190D01*
X246114380Y-131675047D01*
X246114380Y-131770285D01*
X246114380Y-130913142D02*
X245114380Y-130913142D01*
X245114380Y-130532190D01*
X245162000Y-130436952D01*
X245209619Y-130389333D01*
X245304857Y-130341714D01*
X245447714Y-130341714D01*
X245542952Y-130389333D01*
X245590571Y-130436952D01*
X245638190Y-130532190D01*
X245638190Y-130913142D01*
X246114380Y-129389333D02*
X246114380Y-129960761D01*
X246114380Y-129675047D02*
X245114380Y-129675047D01*
X245257238Y-129770285D01*
X245352476Y-129865523D01*
X245400095Y-129960761D01*
%TO.C,J1*%
X182800666Y-126960380D02*
X182800666Y-127674666D01*
X182753047Y-127817523D01*
X182657809Y-127912761D01*
X182514952Y-127960380D01*
X182419714Y-127960380D01*
X183800666Y-127960380D02*
X183229238Y-127960380D01*
X183514952Y-127960380D02*
X183514952Y-126960380D01*
X183419714Y-127103238D01*
X183324476Y-127198476D01*
X183229238Y-127246095D01*
%TO.C,DS1*%
X259135714Y-122626380D02*
X259135714Y-121626380D01*
X259373809Y-121626380D01*
X259516666Y-121674000D01*
X259611904Y-121769238D01*
X259659523Y-121864476D01*
X259707142Y-122054952D01*
X259707142Y-122197809D01*
X259659523Y-122388285D01*
X259611904Y-122483523D01*
X259516666Y-122578761D01*
X259373809Y-122626380D01*
X259135714Y-122626380D01*
X260088095Y-122578761D02*
X260230952Y-122626380D01*
X260469047Y-122626380D01*
X260564285Y-122578761D01*
X260611904Y-122531142D01*
X260659523Y-122435904D01*
X260659523Y-122340666D01*
X260611904Y-122245428D01*
X260564285Y-122197809D01*
X260469047Y-122150190D01*
X260278571Y-122102571D01*
X260183333Y-122054952D01*
X260135714Y-122007333D01*
X260088095Y-121912095D01*
X260088095Y-121816857D01*
X260135714Y-121721619D01*
X260183333Y-121674000D01*
X260278571Y-121626380D01*
X260516666Y-121626380D01*
X260659523Y-121674000D01*
X261611904Y-122626380D02*
X261040476Y-122626380D01*
X261326190Y-122626380D02*
X261326190Y-121626380D01*
X261230952Y-121769238D01*
X261135714Y-121864476D01*
X261040476Y-121912095D01*
%TO.C,R10*%
X218906142Y-150566380D02*
X218572809Y-150090190D01*
X218334714Y-150566380D02*
X218334714Y-149566380D01*
X218715666Y-149566380D01*
X218810904Y-149614000D01*
X218858523Y-149661619D01*
X218906142Y-149756857D01*
X218906142Y-149899714D01*
X218858523Y-149994952D01*
X218810904Y-150042571D01*
X218715666Y-150090190D01*
X218334714Y-150090190D01*
X219858523Y-150566380D02*
X219287095Y-150566380D01*
X219572809Y-150566380D02*
X219572809Y-149566380D01*
X219477571Y-149709238D01*
X219382333Y-149804476D01*
X219287095Y-149852095D01*
X220477571Y-149566380D02*
X220572809Y-149566380D01*
X220668047Y-149614000D01*
X220715666Y-149661619D01*
X220763285Y-149756857D01*
X220810904Y-149947333D01*
X220810904Y-150185428D01*
X220763285Y-150375904D01*
X220715666Y-150471142D01*
X220668047Y-150518761D01*
X220572809Y-150566380D01*
X220477571Y-150566380D01*
X220382333Y-150518761D01*
X220334714Y-150471142D01*
X220287095Y-150375904D01*
X220239476Y-150185428D01*
X220239476Y-149947333D01*
X220287095Y-149756857D01*
X220334714Y-149661619D01*
X220382333Y-149614000D01*
X220477571Y-149566380D01*
%TO.C,R9*%
X201590333Y-150820380D02*
X201257000Y-150344190D01*
X201018904Y-150820380D02*
X201018904Y-149820380D01*
X201399857Y-149820380D01*
X201495095Y-149868000D01*
X201542714Y-149915619D01*
X201590333Y-150010857D01*
X201590333Y-150153714D01*
X201542714Y-150248952D01*
X201495095Y-150296571D01*
X201399857Y-150344190D01*
X201018904Y-150344190D01*
X202066523Y-150820380D02*
X202257000Y-150820380D01*
X202352238Y-150772761D01*
X202399857Y-150725142D01*
X202495095Y-150582285D01*
X202542714Y-150391809D01*
X202542714Y-150010857D01*
X202495095Y-149915619D01*
X202447476Y-149868000D01*
X202352238Y-149820380D01*
X202161761Y-149820380D01*
X202066523Y-149868000D01*
X202018904Y-149915619D01*
X201971285Y-150010857D01*
X201971285Y-150248952D01*
X202018904Y-150344190D01*
X202066523Y-150391809D01*
X202161761Y-150439428D01*
X202352238Y-150439428D01*
X202447476Y-150391809D01*
X202495095Y-150344190D01*
X202542714Y-150248952D01*
%TO.C,R8*%
X185842333Y-150820380D02*
X185509000Y-150344190D01*
X185270904Y-150820380D02*
X185270904Y-149820380D01*
X185651857Y-149820380D01*
X185747095Y-149868000D01*
X185794714Y-149915619D01*
X185842333Y-150010857D01*
X185842333Y-150153714D01*
X185794714Y-150248952D01*
X185747095Y-150296571D01*
X185651857Y-150344190D01*
X185270904Y-150344190D01*
X186413761Y-150248952D02*
X186318523Y-150201333D01*
X186270904Y-150153714D01*
X186223285Y-150058476D01*
X186223285Y-150010857D01*
X186270904Y-149915619D01*
X186318523Y-149868000D01*
X186413761Y-149820380D01*
X186604238Y-149820380D01*
X186699476Y-149868000D01*
X186747095Y-149915619D01*
X186794714Y-150010857D01*
X186794714Y-150058476D01*
X186747095Y-150153714D01*
X186699476Y-150201333D01*
X186604238Y-150248952D01*
X186413761Y-150248952D01*
X186318523Y-150296571D01*
X186270904Y-150344190D01*
X186223285Y-150439428D01*
X186223285Y-150629904D01*
X186270904Y-150725142D01*
X186318523Y-150772761D01*
X186413761Y-150820380D01*
X186604238Y-150820380D01*
X186699476Y-150772761D01*
X186747095Y-150725142D01*
X186794714Y-150629904D01*
X186794714Y-150439428D01*
X186747095Y-150344190D01*
X186699476Y-150296571D01*
X186604238Y-150248952D01*
%TO.C,D3*%
X227782380Y-152376095D02*
X226782380Y-152376095D01*
X226782380Y-152138000D01*
X226830000Y-151995142D01*
X226925238Y-151899904D01*
X227020476Y-151852285D01*
X227210952Y-151804666D01*
X227353809Y-151804666D01*
X227544285Y-151852285D01*
X227639523Y-151899904D01*
X227734761Y-151995142D01*
X227782380Y-152138000D01*
X227782380Y-152376095D01*
X226782380Y-151471333D02*
X226782380Y-150852285D01*
X227163333Y-151185619D01*
X227163333Y-151042761D01*
X227210952Y-150947523D01*
X227258571Y-150899904D01*
X227353809Y-150852285D01*
X227591904Y-150852285D01*
X227687142Y-150899904D01*
X227734761Y-150947523D01*
X227782380Y-151042761D01*
X227782380Y-151328476D01*
X227734761Y-151423714D01*
X227687142Y-151471333D01*
%TO.C,D2*%
X210002380Y-152630095D02*
X209002380Y-152630095D01*
X209002380Y-152392000D01*
X209050000Y-152249142D01*
X209145238Y-152153904D01*
X209240476Y-152106285D01*
X209430952Y-152058666D01*
X209573809Y-152058666D01*
X209764285Y-152106285D01*
X209859523Y-152153904D01*
X209954761Y-152249142D01*
X210002380Y-152392000D01*
X210002380Y-152630095D01*
X209097619Y-151677714D02*
X209050000Y-151630095D01*
X209002380Y-151534857D01*
X209002380Y-151296761D01*
X209050000Y-151201523D01*
X209097619Y-151153904D01*
X209192857Y-151106285D01*
X209288095Y-151106285D01*
X209430952Y-151153904D01*
X210002380Y-151725333D01*
X210002380Y-151106285D01*
%TO.C,D1*%
X194254380Y-152630095D02*
X193254380Y-152630095D01*
X193254380Y-152392000D01*
X193302000Y-152249142D01*
X193397238Y-152153904D01*
X193492476Y-152106285D01*
X193682952Y-152058666D01*
X193825809Y-152058666D01*
X194016285Y-152106285D01*
X194111523Y-152153904D01*
X194206761Y-152249142D01*
X194254380Y-152392000D01*
X194254380Y-152630095D01*
X194254380Y-151106285D02*
X194254380Y-151677714D01*
X194254380Y-151392000D02*
X193254380Y-151392000D01*
X193397238Y-151487238D01*
X193492476Y-151582476D01*
X193540095Y-151677714D01*
%TO.C,SW2*%
X205220666Y-148708761D02*
X205363523Y-148756380D01*
X205601619Y-148756380D01*
X205696857Y-148708761D01*
X205744476Y-148661142D01*
X205792095Y-148565904D01*
X205792095Y-148470666D01*
X205744476Y-148375428D01*
X205696857Y-148327809D01*
X205601619Y-148280190D01*
X205411142Y-148232571D01*
X205315904Y-148184952D01*
X205268285Y-148137333D01*
X205220666Y-148042095D01*
X205220666Y-147946857D01*
X205268285Y-147851619D01*
X205315904Y-147804000D01*
X205411142Y-147756380D01*
X205649238Y-147756380D01*
X205792095Y-147804000D01*
X206125428Y-147756380D02*
X206363523Y-148756380D01*
X206554000Y-148042095D01*
X206744476Y-148756380D01*
X206982571Y-147756380D01*
X207315904Y-147851619D02*
X207363523Y-147804000D01*
X207458761Y-147756380D01*
X207696857Y-147756380D01*
X207792095Y-147804000D01*
X207839714Y-147851619D01*
X207887333Y-147946857D01*
X207887333Y-148042095D01*
X207839714Y-148184952D01*
X207268285Y-148756380D01*
X207887333Y-148756380D01*
%TO.C,U1*%
X217130380Y-129031904D02*
X217939904Y-129031904D01*
X218035142Y-128984285D01*
X218082761Y-128936666D01*
X218130380Y-128841428D01*
X218130380Y-128650952D01*
X218082761Y-128555714D01*
X218035142Y-128508095D01*
X217939904Y-128460476D01*
X217130380Y-128460476D01*
X218130380Y-127460476D02*
X218130380Y-128031904D01*
X218130380Y-127746190D02*
X217130380Y-127746190D01*
X217273238Y-127841428D01*
X217368476Y-127936666D01*
X217416095Y-128031904D01*
%TO.C,R3*%
X223592380Y-124109666D02*
X223116190Y-124443000D01*
X223592380Y-124681095D02*
X222592380Y-124681095D01*
X222592380Y-124300142D01*
X222640000Y-124204904D01*
X222687619Y-124157285D01*
X222782857Y-124109666D01*
X222925714Y-124109666D01*
X223020952Y-124157285D01*
X223068571Y-124204904D01*
X223116190Y-124300142D01*
X223116190Y-124681095D01*
X222592380Y-123776333D02*
X222592380Y-123157285D01*
X222973333Y-123490619D01*
X222973333Y-123347761D01*
X223020952Y-123252523D01*
X223068571Y-123204904D01*
X223163809Y-123157285D01*
X223401904Y-123157285D01*
X223497142Y-123204904D01*
X223544761Y-123252523D01*
X223592380Y-123347761D01*
X223592380Y-123633476D01*
X223544761Y-123728714D01*
X223497142Y-123776333D01*
%TO.C,C1*%
X195429142Y-128944666D02*
X195476761Y-128992285D01*
X195524380Y-129135142D01*
X195524380Y-129230380D01*
X195476761Y-129373238D01*
X195381523Y-129468476D01*
X195286285Y-129516095D01*
X195095809Y-129563714D01*
X194952952Y-129563714D01*
X194762476Y-129516095D01*
X194667238Y-129468476D01*
X194572000Y-129373238D01*
X194524380Y-129230380D01*
X194524380Y-129135142D01*
X194572000Y-128992285D01*
X194619619Y-128944666D01*
X195524380Y-127992285D02*
X195524380Y-128563714D01*
X195524380Y-128278000D02*
X194524380Y-128278000D01*
X194667238Y-128373238D01*
X194762476Y-128468476D01*
X194810095Y-128563714D01*
%TO.C,R7*%
X217242380Y-142415666D02*
X216766190Y-142749000D01*
X217242380Y-142987095D02*
X216242380Y-142987095D01*
X216242380Y-142606142D01*
X216290000Y-142510904D01*
X216337619Y-142463285D01*
X216432857Y-142415666D01*
X216575714Y-142415666D01*
X216670952Y-142463285D01*
X216718571Y-142510904D01*
X216766190Y-142606142D01*
X216766190Y-142987095D01*
X216242380Y-142082333D02*
X216242380Y-141415666D01*
X217242380Y-141844238D01*
%TO.C,R6*%
X217242380Y-146461666D02*
X216766190Y-146795000D01*
X217242380Y-147033095D02*
X216242380Y-147033095D01*
X216242380Y-146652142D01*
X216290000Y-146556904D01*
X216337619Y-146509285D01*
X216432857Y-146461666D01*
X216575714Y-146461666D01*
X216670952Y-146509285D01*
X216718571Y-146556904D01*
X216766190Y-146652142D01*
X216766190Y-147033095D01*
X216242380Y-145604523D02*
X216242380Y-145795000D01*
X216290000Y-145890238D01*
X216337619Y-145937857D01*
X216480476Y-146033095D01*
X216670952Y-146080714D01*
X217051904Y-146080714D01*
X217147142Y-146033095D01*
X217194761Y-145985476D01*
X217242380Y-145890238D01*
X217242380Y-145699761D01*
X217194761Y-145604523D01*
X217147142Y-145556904D01*
X217051904Y-145509285D01*
X216813809Y-145509285D01*
X216718571Y-145556904D01*
X216670952Y-145604523D01*
X216623333Y-145699761D01*
X216623333Y-145890238D01*
X216670952Y-145985476D01*
X216718571Y-146033095D01*
X216813809Y-146080714D01*
%TO.C,R5*%
X199462380Y-142651666D02*
X198986190Y-142985000D01*
X199462380Y-143223095D02*
X198462380Y-143223095D01*
X198462380Y-142842142D01*
X198510000Y-142746904D01*
X198557619Y-142699285D01*
X198652857Y-142651666D01*
X198795714Y-142651666D01*
X198890952Y-142699285D01*
X198938571Y-142746904D01*
X198986190Y-142842142D01*
X198986190Y-143223095D01*
X198462380Y-141746904D02*
X198462380Y-142223095D01*
X198938571Y-142270714D01*
X198890952Y-142223095D01*
X198843333Y-142127857D01*
X198843333Y-141889761D01*
X198890952Y-141794523D01*
X198938571Y-141746904D01*
X199033809Y-141699285D01*
X199271904Y-141699285D01*
X199367142Y-141746904D01*
X199414761Y-141794523D01*
X199462380Y-141889761D01*
X199462380Y-142127857D01*
X199414761Y-142223095D01*
X199367142Y-142270714D01*
%TO.C,R4*%
X199462380Y-146479666D02*
X198986190Y-146813000D01*
X199462380Y-147051095D02*
X198462380Y-147051095D01*
X198462380Y-146670142D01*
X198510000Y-146574904D01*
X198557619Y-146527285D01*
X198652857Y-146479666D01*
X198795714Y-146479666D01*
X198890952Y-146527285D01*
X198938571Y-146574904D01*
X198986190Y-146670142D01*
X198986190Y-147051095D01*
X198795714Y-145622523D02*
X199462380Y-145622523D01*
X198414761Y-145860619D02*
X199129047Y-146098714D01*
X199129047Y-145479666D01*
%TO.C,R2*%
X183714380Y-142406666D02*
X183238190Y-142740000D01*
X183714380Y-142978095D02*
X182714380Y-142978095D01*
X182714380Y-142597142D01*
X182762000Y-142501904D01*
X182809619Y-142454285D01*
X182904857Y-142406666D01*
X183047714Y-142406666D01*
X183142952Y-142454285D01*
X183190571Y-142501904D01*
X183238190Y-142597142D01*
X183238190Y-142978095D01*
X182809619Y-142025714D02*
X182762000Y-141978095D01*
X182714380Y-141882857D01*
X182714380Y-141644761D01*
X182762000Y-141549523D01*
X182809619Y-141501904D01*
X182904857Y-141454285D01*
X183000095Y-141454285D01*
X183142952Y-141501904D01*
X183714380Y-142073333D01*
X183714380Y-141454285D01*
%TO.C,R1*%
X183714380Y-146479666D02*
X183238190Y-146813000D01*
X183714380Y-147051095D02*
X182714380Y-147051095D01*
X182714380Y-146670142D01*
X182762000Y-146574904D01*
X182809619Y-146527285D01*
X182904857Y-146479666D01*
X183047714Y-146479666D01*
X183142952Y-146527285D01*
X183190571Y-146574904D01*
X183238190Y-146670142D01*
X183238190Y-147051095D01*
X183714380Y-145527285D02*
X183714380Y-146098714D01*
X183714380Y-145813000D02*
X182714380Y-145813000D01*
X182857238Y-145908238D01*
X182952476Y-146003476D01*
X183000095Y-146098714D01*
%TO.C,C4*%
X222861142Y-139104666D02*
X222908761Y-139152285D01*
X222956380Y-139295142D01*
X222956380Y-139390380D01*
X222908761Y-139533238D01*
X222813523Y-139628476D01*
X222718285Y-139676095D01*
X222527809Y-139723714D01*
X222384952Y-139723714D01*
X222194476Y-139676095D01*
X222099238Y-139628476D01*
X222004000Y-139533238D01*
X221956380Y-139390380D01*
X221956380Y-139295142D01*
X222004000Y-139152285D01*
X222051619Y-139104666D01*
X222289714Y-138247523D02*
X222956380Y-138247523D01*
X221908761Y-138485619D02*
X222623047Y-138723714D01*
X222623047Y-138104666D01*
%TO.C,C3*%
X209145142Y-138850666D02*
X209192761Y-138898285D01*
X209240380Y-139041142D01*
X209240380Y-139136380D01*
X209192761Y-139279238D01*
X209097523Y-139374476D01*
X209002285Y-139422095D01*
X208811809Y-139469714D01*
X208668952Y-139469714D01*
X208478476Y-139422095D01*
X208383238Y-139374476D01*
X208288000Y-139279238D01*
X208240380Y-139136380D01*
X208240380Y-139041142D01*
X208288000Y-138898285D01*
X208335619Y-138850666D01*
X208240380Y-138517333D02*
X208240380Y-137898285D01*
X208621333Y-138231619D01*
X208621333Y-138088761D01*
X208668952Y-137993523D01*
X208716571Y-137945904D01*
X208811809Y-137898285D01*
X209049904Y-137898285D01*
X209145142Y-137945904D01*
X209192761Y-137993523D01*
X209240380Y-138088761D01*
X209240380Y-138374476D01*
X209192761Y-138469714D01*
X209145142Y-138517333D01*
%TO.C,C2*%
X196699142Y-139104666D02*
X196746761Y-139152285D01*
X196794380Y-139295142D01*
X196794380Y-139390380D01*
X196746761Y-139533238D01*
X196651523Y-139628476D01*
X196556285Y-139676095D01*
X196365809Y-139723714D01*
X196222952Y-139723714D01*
X196032476Y-139676095D01*
X195937238Y-139628476D01*
X195842000Y-139533238D01*
X195794380Y-139390380D01*
X195794380Y-139295142D01*
X195842000Y-139152285D01*
X195889619Y-139104666D01*
X195889619Y-138723714D02*
X195842000Y-138676095D01*
X195794380Y-138580857D01*
X195794380Y-138342761D01*
X195842000Y-138247523D01*
X195889619Y-138199904D01*
X195984857Y-138152285D01*
X196080095Y-138152285D01*
X196222952Y-138199904D01*
X196794380Y-138771333D01*
X196794380Y-138152285D01*
%TO.C,J4*%
X271954666Y-82974380D02*
X271954666Y-83688666D01*
X271907047Y-83831523D01*
X271811809Y-83926761D01*
X271668952Y-83974380D01*
X271573714Y-83974380D01*
X272859428Y-83307714D02*
X272859428Y-83974380D01*
X272621333Y-82926761D02*
X272383238Y-83641047D01*
X273002285Y-83641047D01*
%TO.C,J3*%
X184324666Y-82974380D02*
X184324666Y-83688666D01*
X184277047Y-83831523D01*
X184181809Y-83926761D01*
X184038952Y-83974380D01*
X183943714Y-83974380D01*
X184705619Y-82974380D02*
X185324666Y-82974380D01*
X184991333Y-83355333D01*
X185134190Y-83355333D01*
X185229428Y-83402952D01*
X185277047Y-83450571D01*
X185324666Y-83545809D01*
X185324666Y-83783904D01*
X185277047Y-83879142D01*
X185229428Y-83926761D01*
X185134190Y-83974380D01*
X184848476Y-83974380D01*
X184753238Y-83926761D01*
X184705619Y-83879142D01*
%TO.C,J2*%
X274494666Y-127722380D02*
X274494666Y-128436666D01*
X274447047Y-128579523D01*
X274351809Y-128674761D01*
X274208952Y-128722380D01*
X274113714Y-128722380D01*
X274923238Y-127817619D02*
X274970857Y-127770000D01*
X275066095Y-127722380D01*
X275304190Y-127722380D01*
X275399428Y-127770000D01*
X275447047Y-127817619D01*
X275494666Y-127912857D01*
X275494666Y-128008095D01*
X275447047Y-128150952D01*
X274875619Y-128722380D01*
X275494666Y-128722380D01*
%TO.C,A1*%
X230798666Y-144986285D02*
X230798666Y-144510095D01*
X231084380Y-145081523D02*
X230084380Y-144748190D01*
X231084380Y-144414857D01*
X231084380Y-143557714D02*
X231084380Y-144129142D01*
X231084380Y-143843428D02*
X230084380Y-143843428D01*
X230227238Y-143938666D01*
X230322476Y-144033904D01*
X230370095Y-144129142D01*
%TO.C,SW3*%
X222896666Y-148708761D02*
X223039523Y-148756380D01*
X223277619Y-148756380D01*
X223372857Y-148708761D01*
X223420476Y-148661142D01*
X223468095Y-148565904D01*
X223468095Y-148470666D01*
X223420476Y-148375428D01*
X223372857Y-148327809D01*
X223277619Y-148280190D01*
X223087142Y-148232571D01*
X222991904Y-148184952D01*
X222944285Y-148137333D01*
X222896666Y-148042095D01*
X222896666Y-147946857D01*
X222944285Y-147851619D01*
X222991904Y-147804000D01*
X223087142Y-147756380D01*
X223325238Y-147756380D01*
X223468095Y-147804000D01*
X223801428Y-147756380D02*
X224039523Y-148756380D01*
X224230000Y-148042095D01*
X224420476Y-148756380D01*
X224658571Y-147756380D01*
X224944285Y-147756380D02*
X225563333Y-147756380D01*
X225230000Y-148137333D01*
X225372857Y-148137333D01*
X225468095Y-148184952D01*
X225515714Y-148232571D01*
X225563333Y-148327809D01*
X225563333Y-148565904D01*
X225515714Y-148661142D01*
X225468095Y-148708761D01*
X225372857Y-148756380D01*
X225087142Y-148756380D01*
X224991904Y-148708761D01*
X224944285Y-148661142D01*
%TO.C,SW1*%
X189726666Y-148708761D02*
X189869523Y-148756380D01*
X190107619Y-148756380D01*
X190202857Y-148708761D01*
X190250476Y-148661142D01*
X190298095Y-148565904D01*
X190298095Y-148470666D01*
X190250476Y-148375428D01*
X190202857Y-148327809D01*
X190107619Y-148280190D01*
X189917142Y-148232571D01*
X189821904Y-148184952D01*
X189774285Y-148137333D01*
X189726666Y-148042095D01*
X189726666Y-147946857D01*
X189774285Y-147851619D01*
X189821904Y-147804000D01*
X189917142Y-147756380D01*
X190155238Y-147756380D01*
X190298095Y-147804000D01*
X190631428Y-147756380D02*
X190869523Y-148756380D01*
X191060000Y-148042095D01*
X191250476Y-148756380D01*
X191488571Y-147756380D01*
X192393333Y-148756380D02*
X191821904Y-148756380D01*
X192107619Y-148756380D02*
X192107619Y-147756380D01*
X192012380Y-147899238D01*
X191917142Y-147994476D01*
X191821904Y-148042095D01*
%TD*%
M02*
