%TF.GenerationSoftware,KiCad,Pcbnew,(5.1.6)-1*%
%TF.CreationDate,2020-10-03T16:08:43+08:00*%
%TF.ProjectId,odometer_project,6f646f6d-6574-4657-925f-70726f6a6563,rev?*%
%TF.SameCoordinates,Original*%
%TF.FileFunction,Soldermask,Bot*%
%TF.FilePolarity,Negative*%
%FSLAX46Y46*%
G04 Gerber Fmt 4.6, Leading zero omitted, Abs format (unit mm)*
G04 Created by KiCad (PCBNEW (5.1.6)-1) date 2020-10-03 16:08:43*
%MOMM*%
%LPD*%
G01*
G04 APERTURE LIST*
%ADD10C,0.900000*%
%ADD11C,6.500000*%
%ADD12C,1.540000*%
%ADD13O,1.800000X1.800000*%
%ADD14R,1.800000X1.800000*%
%ADD15C,3.100000*%
%ADD16O,1.900000X2.700000*%
%ADD17R,1.900000X2.700000*%
%ADD18C,2.100000*%
%ADD19O,1.700000X2.500000*%
%ADD20R,1.700000X2.500000*%
%ADD21O,1.700000X1.700000*%
%ADD22R,1.700000X1.700000*%
G04 APERTURE END LIST*
D10*
%TO.C,REF\u002A\u002A*%
X264079056Y-110316944D03*
X262382000Y-109614000D03*
X260684944Y-110316944D03*
X259982000Y-112014000D03*
X260684944Y-113711056D03*
X262382000Y-114414000D03*
X264079056Y-113711056D03*
X264782000Y-112014000D03*
D11*
X262382000Y-112014000D03*
%TD*%
D10*
%TO.C,REF\u002A\u002A*%
X188273056Y-132668944D03*
X186576000Y-131966000D03*
X184878944Y-132668944D03*
X184176000Y-134366000D03*
X184878944Y-136063056D03*
X186576000Y-136766000D03*
X188273056Y-136063056D03*
X188976000Y-134366000D03*
D11*
X186576000Y-134366000D03*
%TD*%
D10*
%TO.C,REF\u002A\u002A*%
X194148112Y-92456000D03*
X192451056Y-91753056D03*
X190754000Y-92456000D03*
X190051056Y-94153056D03*
X190754000Y-95850112D03*
X192451056Y-96553056D03*
X194148112Y-95850112D03*
X194851056Y-94153056D03*
D11*
X192451056Y-94153056D03*
%TD*%
D12*
%TO.C,RV1*%
X260858000Y-125730000D03*
X258318000Y-125730000D03*
X255778000Y-125730000D03*
%TD*%
D13*
%TO.C,JP2*%
X227330000Y-133604000D03*
X224790000Y-133604000D03*
D14*
X222250000Y-133604000D03*
%TD*%
D13*
%TO.C,JP1*%
X238252000Y-130556000D03*
X240792000Y-130556000D03*
D14*
X243332000Y-130556000D03*
%TD*%
D13*
%TO.C,J1*%
X185928000Y-119888000D03*
X185928000Y-122428000D03*
D14*
X185928000Y-124968000D03*
%TD*%
D15*
%TO.C,DS1*%
X190850000Y-118110000D03*
X190850520Y-87109300D03*
X265849100Y-87109300D03*
X265849100Y-118110000D03*
D16*
X222250000Y-118110000D03*
X224790000Y-118110000D03*
X227330000Y-118110000D03*
X229870000Y-118110000D03*
X232410000Y-118110000D03*
X234950000Y-118110000D03*
X237490000Y-118110000D03*
X240030000Y-118110000D03*
X242570000Y-118110000D03*
X245110000Y-118110000D03*
X247650000Y-118110000D03*
X250190000Y-118110000D03*
X252730000Y-118110000D03*
X255270000Y-118110000D03*
X257810000Y-118110000D03*
D17*
X260350000Y-118110000D03*
%TD*%
D18*
%TO.C,SW2*%
X203304000Y-146304000D03*
X203304000Y-141804000D03*
X209804000Y-146304000D03*
X209804000Y-141804000D03*
%TD*%
D19*
%TO.C,U1*%
X199644000Y-124714000D03*
X214884000Y-132334000D03*
X202184000Y-124714000D03*
X212344000Y-132334000D03*
X204724000Y-124714000D03*
X209804000Y-132334000D03*
X207264000Y-124714000D03*
X207264000Y-132334000D03*
X209804000Y-124714000D03*
X204724000Y-132334000D03*
X212344000Y-124714000D03*
X202184000Y-132334000D03*
X214884000Y-124714000D03*
D20*
X199644000Y-132334000D03*
%TD*%
D13*
%TO.C,J4*%
X273558000Y-108712000D03*
X271018000Y-108712000D03*
X273558000Y-106172000D03*
X271018000Y-106172000D03*
X273558000Y-103632000D03*
X271018000Y-103632000D03*
X273558000Y-101092000D03*
X271018000Y-101092000D03*
X273558000Y-98552000D03*
X271018000Y-98552000D03*
X273558000Y-96012000D03*
X271018000Y-96012000D03*
X273558000Y-93472000D03*
X271018000Y-93472000D03*
X273558000Y-90932000D03*
X271018000Y-90932000D03*
X273558000Y-88392000D03*
X271018000Y-88392000D03*
X273558000Y-85852000D03*
D14*
X271018000Y-85852000D03*
%TD*%
D13*
%TO.C,J3*%
X185928000Y-108712000D03*
X183388000Y-108712000D03*
X185928000Y-106172000D03*
X183388000Y-106172000D03*
X185928000Y-103632000D03*
X183388000Y-103632000D03*
X185928000Y-101092000D03*
X183388000Y-101092000D03*
X185928000Y-98552000D03*
X183388000Y-98552000D03*
X185928000Y-96012000D03*
X183388000Y-96012000D03*
X185928000Y-93472000D03*
X183388000Y-93472000D03*
X185928000Y-90932000D03*
X183388000Y-90932000D03*
X185928000Y-88392000D03*
X183388000Y-88392000D03*
X185928000Y-85852000D03*
D14*
X183388000Y-85852000D03*
%TD*%
D13*
%TO.C,J2*%
X272034000Y-125730000D03*
X272034000Y-123190000D03*
D14*
X272034000Y-120650000D03*
%TD*%
D21*
%TO.C,A1*%
X271272000Y-136652000D03*
X271272000Y-151892000D03*
X235712000Y-136652000D03*
X268732000Y-151892000D03*
X238252000Y-136652000D03*
X266192000Y-151892000D03*
X240792000Y-136652000D03*
X263652000Y-151892000D03*
X243332000Y-136652000D03*
X261112000Y-151892000D03*
X245872000Y-136652000D03*
X258572000Y-151892000D03*
X248412000Y-136652000D03*
X256032000Y-151892000D03*
X250952000Y-136652000D03*
X253492000Y-151892000D03*
X253492000Y-136652000D03*
X250952000Y-151892000D03*
X256032000Y-136652000D03*
X248412000Y-151892000D03*
X258572000Y-136652000D03*
X245872000Y-151892000D03*
X261112000Y-136652000D03*
X243332000Y-151892000D03*
X263652000Y-136652000D03*
X240792000Y-151892000D03*
X266192000Y-136652000D03*
X238252000Y-151892000D03*
X268732000Y-136652000D03*
D22*
X235712000Y-151892000D03*
%TD*%
D18*
%TO.C,SW3*%
X220980000Y-146304000D03*
X220980000Y-141804000D03*
X227480000Y-146304000D03*
X227480000Y-141804000D03*
%TD*%
%TO.C,SW1*%
X187810000Y-146304000D03*
X187810000Y-141804000D03*
X194310000Y-146304000D03*
X194310000Y-141804000D03*
%TD*%
M02*
