M48
; DRILL file {KiCad (5.1.4)-1} date 2/10/2020 11:36:51 PM
; FORMAT={-:-/ absolute / inch / decimal}
; #@! TF.CreationDate,2020-10-02T23:36:51+08:00
; #@! TF.GenerationSoftware,Kicad,Pcbnew,(5.1.4)-1
; #@! TF.FileFunction,Plated,1,2,PTH
FMAT,2
INCH
T1C0.0157
T2C0.0197
T3C0.0315
T4C0.0394
T5C0.0433
T6C0.0472
T7C0.0984
T8C0.1181
%
G90
G05
T1
X7.5504Y-5.98
X7.6507Y-5.47
X7.75Y-5.1004
X8.1407Y-5.46
X8.1704Y-5.9796
X8.6807Y-5.47
X8.8708Y-5.97
X9.55Y-5.53
X9.7Y-4.74
T2
X9.3214Y-5.7
X9.3474Y-5.6374
X9.3474Y-5.7626
X9.41Y-5.6114
X9.41Y-5.7886
X9.4726Y-5.6374
X9.4726Y-5.7626
X9.4986Y-5.7
X7.7514Y-3.86
X7.7774Y-3.7974
X7.7774Y-3.9226
X7.84Y-3.7714
X7.84Y-3.9486
X7.9026Y-3.7974
X7.9026Y-3.9226
X7.9286Y-3.86
X7.2214Y-5.25
X7.2474Y-5.1874
X7.2474Y-5.3126
X7.31Y-5.1614
X7.31Y-5.3386
X7.3726Y-5.1874
X7.3726Y-5.3126
X7.3986Y-5.25
X9.5414Y-4.04
X9.5674Y-3.9774
X9.5674Y-4.1026
X9.63Y-3.9514
X9.63Y-4.1286
X9.6926Y-3.9774
X9.6926Y-4.1026
X9.7186Y-4.04
T3
X9.28Y-5.38
X9.28Y-5.98
X9.38Y-5.38
X9.38Y-5.98
X9.48Y-5.38
X9.48Y-5.98
X9.58Y-5.38
X9.58Y-5.98
X9.68Y-5.38
X9.68Y-5.98
X9.78Y-5.38
X9.78Y-5.98
X9.88Y-5.38
X9.88Y-5.98
X9.98Y-5.38
X9.98Y-5.98
X10.08Y-5.38
X10.08Y-5.98
X10.18Y-5.38
X10.18Y-5.98
X10.28Y-5.38
X10.28Y-5.98
X10.38Y-5.38
X10.38Y-5.98
X10.48Y-5.38
X10.48Y-5.98
X10.58Y-5.38
X10.58Y-5.98
X10.68Y-5.38
X10.68Y-5.98
X7.86Y-4.91
X7.86Y-5.21
X7.96Y-4.91
X7.96Y-5.21
X8.06Y-4.91
X8.06Y-5.21
X8.16Y-4.91
X8.16Y-5.21
X8.26Y-4.91
X8.26Y-5.21
X8.36Y-4.91
X8.36Y-5.21
X8.46Y-4.91
X8.46Y-5.21
T4
X10.71Y-4.75
X10.71Y-4.85
X10.71Y-4.95
X7.22Y-3.38
X7.22Y-3.48
X7.22Y-3.58
X7.22Y-3.68
X7.22Y-3.78
X7.22Y-3.88
X7.22Y-3.98
X7.22Y-4.08
X7.22Y-4.18
X7.22Y-4.28
X7.32Y-3.38
X7.32Y-3.48
X7.32Y-3.58
X7.32Y-3.68
X7.32Y-3.78
X7.32Y-3.88
X7.32Y-3.98
X7.32Y-4.08
X7.32Y-4.18
X7.32Y-4.28
X10.67Y-3.38
X10.67Y-3.48
X10.67Y-3.58
X10.67Y-3.68
X10.67Y-3.78
X10.67Y-3.88
X10.67Y-3.98
X10.67Y-4.08
X10.67Y-4.18
X10.67Y-4.28
X10.77Y-3.38
X10.77Y-3.48
X10.77Y-3.58
X10.77Y-3.68
X10.77Y-3.78
X10.77Y-3.88
X10.77Y-3.98
X10.77Y-4.08
X10.77Y-4.18
X10.77Y-4.28
T5
X8.7Y-5.5828
X8.7Y-5.76
X8.9559Y-5.5828
X8.9559Y-5.76
X8.0041Y-5.5828
X8.0041Y-5.76
X8.26Y-5.5828
X8.26Y-5.76
X7.3941Y-5.5828
X7.3941Y-5.76
X7.65Y-5.5828
X7.65Y-5.76
T6
X8.75Y-4.65
X8.85Y-4.65
X8.95Y-4.65
X9.05Y-4.65
X9.15Y-4.65
X9.25Y-4.65
X9.35Y-4.65
X9.45Y-4.65
X9.55Y-4.65
X9.65Y-4.65
X9.75Y-4.65
X9.85Y-4.65
X9.95Y-4.65
X10.05Y-4.65
X10.15Y-4.65
X10.25Y-4.65
T7
X7.5138Y-4.65
X7.5138Y-3.4295
X10.4665Y-3.4295
X10.4665Y-4.65
T8
X7.31Y-5.25
X9.63Y-4.04
X9.41Y-5.7
X7.84Y-3.86
T0
M30
