M48
; DRILL file {KiCad (5.1.6)-1} date 10/03/20 16:08:44
; FORMAT={-:-/ absolute / inch / decimal}
; #@! TF.CreationDate,2020-10-03T16:08:44+08:00
; #@! TF.GenerationSoftware,Kicad,Pcbnew,(5.1.6)-1
; #@! TF.FileFunction,Plated,1,2,PTH
FMAT,2
INCH
T1C0.0157
T2C0.0197
T3C0.0315
T4C0.0394
T5C0.0433
T6C0.0472
T7C0.0984
T8C0.1260
%
G90
G05
T1
X7.44Y-4.97
X7.5504Y-5.98
X7.6507Y-5.47
X7.75Y-5.1004
X8.1407Y-5.46
X8.1704Y-5.9796
X8.32Y-5.38
X8.6807Y-5.47
X8.8708Y-5.97
X9.23Y-4.96
X9.23Y-5.28
X9.55Y-5.53
X9.7Y-4.74
X10.5Y-4.9
X10.59Y-4.98
T2
X7.251Y-5.29
X7.2787Y-5.2232
X7.2787Y-5.3568
X7.3455Y-5.1955
X7.3455Y-5.3845
X7.4123Y-5.2232
X7.4123Y-5.3568
X7.44Y-5.29
X7.4823Y-3.7068
X7.51Y-3.64
X7.51Y-3.7736
X7.5768Y-3.6123
X7.5768Y-3.8013
X7.6436Y-3.64
X7.6436Y-3.7736
X7.6713Y-3.7068
X10.2355Y-4.41
X10.2632Y-4.3432
X10.2632Y-4.4768
X10.33Y-4.3155
X10.33Y-4.5045
X10.3968Y-4.3432
X10.3968Y-4.4768
X10.4245Y-4.41
T3
X9.28Y-5.38
X9.28Y-5.98
X9.38Y-5.38
X9.38Y-5.98
X9.48Y-5.38
X9.48Y-5.98
X9.58Y-5.38
X9.58Y-5.98
X9.68Y-5.38
X9.68Y-5.98
X9.78Y-5.38
X9.78Y-5.98
X9.88Y-5.38
X9.88Y-5.98
X9.98Y-5.38
X9.98Y-5.98
X10.08Y-5.38
X10.08Y-5.98
X10.18Y-5.38
X10.18Y-5.98
X10.28Y-5.38
X10.28Y-5.98
X10.38Y-5.38
X10.38Y-5.98
X10.48Y-5.38
X10.48Y-5.98
X10.58Y-5.38
X10.58Y-5.98
X10.68Y-5.38
X10.68Y-5.98
X7.86Y-4.91
X7.86Y-5.21
X7.96Y-4.91
X7.96Y-5.21
X8.06Y-4.91
X8.06Y-5.21
X8.16Y-4.91
X8.16Y-5.21
X8.26Y-4.91
X8.26Y-5.21
X8.36Y-4.91
X8.36Y-5.21
X8.46Y-4.91
X8.46Y-5.21
X10.07Y-4.95
X10.17Y-4.95
X10.27Y-4.95
T4
X7.32Y-4.72
X7.32Y-4.82
X7.32Y-4.92
X10.71Y-4.75
X10.71Y-4.85
X10.71Y-4.95
X7.22Y-3.38
X7.22Y-3.48
X7.22Y-3.58
X7.22Y-3.68
X7.22Y-3.78
X7.22Y-3.88
X7.22Y-3.98
X7.22Y-4.08
X7.22Y-4.18
X7.22Y-4.28
X7.32Y-3.38
X7.32Y-3.48
X7.32Y-3.58
X7.32Y-3.68
X7.32Y-3.78
X7.32Y-3.88
X7.32Y-3.98
X7.32Y-4.08
X7.32Y-4.18
X7.32Y-4.28
X9.38Y-5.14
X9.48Y-5.14
X9.58Y-5.14
X10.67Y-3.38
X10.67Y-3.48
X10.67Y-3.58
X10.67Y-3.68
X10.67Y-3.78
X10.67Y-3.88
X10.67Y-3.98
X10.67Y-4.08
X10.67Y-4.18
X10.67Y-4.28
X10.77Y-3.38
X10.77Y-3.48
X10.77Y-3.58
X10.77Y-3.68
X10.77Y-3.78
X10.77Y-3.88
X10.77Y-3.98
X10.77Y-4.08
X10.77Y-4.18
X10.77Y-4.28
X8.75Y-5.26
X8.85Y-5.26
X8.95Y-5.26
T5
X8.0041Y-5.5828
X8.0041Y-5.76
X8.26Y-5.5828
X8.26Y-5.76
X7.3941Y-5.5828
X7.3941Y-5.76
X7.65Y-5.5828
X7.65Y-5.76
X8.7Y-5.5828
X8.7Y-5.76
X8.9559Y-5.5828
X8.9559Y-5.76
T6
X8.75Y-4.65
X8.85Y-4.65
X8.95Y-4.65
X9.05Y-4.65
X9.15Y-4.65
X9.25Y-4.65
X9.35Y-4.65
X9.45Y-4.65
X9.55Y-4.65
X9.65Y-4.65
X9.75Y-4.65
X9.85Y-4.65
X9.95Y-4.65
X10.05Y-4.65
X10.15Y-4.65
X10.25Y-4.65
T7
X7.5138Y-4.65
X7.5138Y-3.4295
X10.4665Y-3.4295
X10.4665Y-4.65
T8
X7.3455Y-5.29
X7.5768Y-3.7068
X10.33Y-4.41
T0
M30
