%TF.GenerationSoftware,KiCad,Pcbnew,(5.1.4)-1*%
%TF.CreationDate,2020-10-02T23:36:46+08:00*%
%TF.ProjectId,odometer_project,6f646f6d-6574-4657-925f-70726f6a6563,rev?*%
%TF.SameCoordinates,Original*%
%TF.FileFunction,Paste,Top*%
%TF.FilePolarity,Positive*%
%FSLAX46Y46*%
G04 Gerber Fmt 4.6, Leading zero omitted, Abs format (unit mm)*
G04 Created by KiCad (PCBNEW (5.1.4)-1) date 2020-10-02 23:36:46*
%MOMM*%
%LPD*%
G04 APERTURE LIST*
%ADD10C,0.100000*%
%ADD11C,1.150000*%
G04 APERTURE END LIST*
D10*
%TO.C,R10*%
G36*
X218873505Y-150984204D02*
G01*
X218897773Y-150987804D01*
X218921572Y-150993765D01*
X218944671Y-151002030D01*
X218966850Y-151012520D01*
X218987893Y-151025132D01*
X219007599Y-151039747D01*
X219025777Y-151056223D01*
X219042253Y-151074401D01*
X219056868Y-151094107D01*
X219069480Y-151115150D01*
X219079970Y-151137329D01*
X219088235Y-151160428D01*
X219094196Y-151184227D01*
X219097796Y-151208495D01*
X219099000Y-151232999D01*
X219099000Y-152133001D01*
X219097796Y-152157505D01*
X219094196Y-152181773D01*
X219088235Y-152205572D01*
X219079970Y-152228671D01*
X219069480Y-152250850D01*
X219056868Y-152271893D01*
X219042253Y-152291599D01*
X219025777Y-152309777D01*
X219007599Y-152326253D01*
X218987893Y-152340868D01*
X218966850Y-152353480D01*
X218944671Y-152363970D01*
X218921572Y-152372235D01*
X218897773Y-152378196D01*
X218873505Y-152381796D01*
X218849001Y-152383000D01*
X218198999Y-152383000D01*
X218174495Y-152381796D01*
X218150227Y-152378196D01*
X218126428Y-152372235D01*
X218103329Y-152363970D01*
X218081150Y-152353480D01*
X218060107Y-152340868D01*
X218040401Y-152326253D01*
X218022223Y-152309777D01*
X218005747Y-152291599D01*
X217991132Y-152271893D01*
X217978520Y-152250850D01*
X217968030Y-152228671D01*
X217959765Y-152205572D01*
X217953804Y-152181773D01*
X217950204Y-152157505D01*
X217949000Y-152133001D01*
X217949000Y-151232999D01*
X217950204Y-151208495D01*
X217953804Y-151184227D01*
X217959765Y-151160428D01*
X217968030Y-151137329D01*
X217978520Y-151115150D01*
X217991132Y-151094107D01*
X218005747Y-151074401D01*
X218022223Y-151056223D01*
X218040401Y-151039747D01*
X218060107Y-151025132D01*
X218081150Y-151012520D01*
X218103329Y-151002030D01*
X218126428Y-150993765D01*
X218150227Y-150987804D01*
X218174495Y-150984204D01*
X218198999Y-150983000D01*
X218849001Y-150983000D01*
X218873505Y-150984204D01*
X218873505Y-150984204D01*
G37*
D11*
X218524000Y-151683000D03*
D10*
G36*
X220923505Y-150984204D02*
G01*
X220947773Y-150987804D01*
X220971572Y-150993765D01*
X220994671Y-151002030D01*
X221016850Y-151012520D01*
X221037893Y-151025132D01*
X221057599Y-151039747D01*
X221075777Y-151056223D01*
X221092253Y-151074401D01*
X221106868Y-151094107D01*
X221119480Y-151115150D01*
X221129970Y-151137329D01*
X221138235Y-151160428D01*
X221144196Y-151184227D01*
X221147796Y-151208495D01*
X221149000Y-151232999D01*
X221149000Y-152133001D01*
X221147796Y-152157505D01*
X221144196Y-152181773D01*
X221138235Y-152205572D01*
X221129970Y-152228671D01*
X221119480Y-152250850D01*
X221106868Y-152271893D01*
X221092253Y-152291599D01*
X221075777Y-152309777D01*
X221057599Y-152326253D01*
X221037893Y-152340868D01*
X221016850Y-152353480D01*
X220994671Y-152363970D01*
X220971572Y-152372235D01*
X220947773Y-152378196D01*
X220923505Y-152381796D01*
X220899001Y-152383000D01*
X220248999Y-152383000D01*
X220224495Y-152381796D01*
X220200227Y-152378196D01*
X220176428Y-152372235D01*
X220153329Y-152363970D01*
X220131150Y-152353480D01*
X220110107Y-152340868D01*
X220090401Y-152326253D01*
X220072223Y-152309777D01*
X220055747Y-152291599D01*
X220041132Y-152271893D01*
X220028520Y-152250850D01*
X220018030Y-152228671D01*
X220009765Y-152205572D01*
X220003804Y-152181773D01*
X220000204Y-152157505D01*
X219999000Y-152133001D01*
X219999000Y-151232999D01*
X220000204Y-151208495D01*
X220003804Y-151184227D01*
X220009765Y-151160428D01*
X220018030Y-151137329D01*
X220028520Y-151115150D01*
X220041132Y-151094107D01*
X220055747Y-151074401D01*
X220072223Y-151056223D01*
X220090401Y-151039747D01*
X220110107Y-151025132D01*
X220131150Y-151012520D01*
X220153329Y-151002030D01*
X220176428Y-150993765D01*
X220200227Y-150987804D01*
X220224495Y-150984204D01*
X220248999Y-150983000D01*
X220899001Y-150983000D01*
X220923505Y-150984204D01*
X220923505Y-150984204D01*
G37*
D11*
X220574000Y-151683000D03*
%TD*%
D10*
%TO.C,R9*%
G36*
X201081505Y-151228204D02*
G01*
X201105773Y-151231804D01*
X201129572Y-151237765D01*
X201152671Y-151246030D01*
X201174850Y-151256520D01*
X201195893Y-151269132D01*
X201215599Y-151283747D01*
X201233777Y-151300223D01*
X201250253Y-151318401D01*
X201264868Y-151338107D01*
X201277480Y-151359150D01*
X201287970Y-151381329D01*
X201296235Y-151404428D01*
X201302196Y-151428227D01*
X201305796Y-151452495D01*
X201307000Y-151476999D01*
X201307000Y-152377001D01*
X201305796Y-152401505D01*
X201302196Y-152425773D01*
X201296235Y-152449572D01*
X201287970Y-152472671D01*
X201277480Y-152494850D01*
X201264868Y-152515893D01*
X201250253Y-152535599D01*
X201233777Y-152553777D01*
X201215599Y-152570253D01*
X201195893Y-152584868D01*
X201174850Y-152597480D01*
X201152671Y-152607970D01*
X201129572Y-152616235D01*
X201105773Y-152622196D01*
X201081505Y-152625796D01*
X201057001Y-152627000D01*
X200406999Y-152627000D01*
X200382495Y-152625796D01*
X200358227Y-152622196D01*
X200334428Y-152616235D01*
X200311329Y-152607970D01*
X200289150Y-152597480D01*
X200268107Y-152584868D01*
X200248401Y-152570253D01*
X200230223Y-152553777D01*
X200213747Y-152535599D01*
X200199132Y-152515893D01*
X200186520Y-152494850D01*
X200176030Y-152472671D01*
X200167765Y-152449572D01*
X200161804Y-152425773D01*
X200158204Y-152401505D01*
X200157000Y-152377001D01*
X200157000Y-151476999D01*
X200158204Y-151452495D01*
X200161804Y-151428227D01*
X200167765Y-151404428D01*
X200176030Y-151381329D01*
X200186520Y-151359150D01*
X200199132Y-151338107D01*
X200213747Y-151318401D01*
X200230223Y-151300223D01*
X200248401Y-151283747D01*
X200268107Y-151269132D01*
X200289150Y-151256520D01*
X200311329Y-151246030D01*
X200334428Y-151237765D01*
X200358227Y-151231804D01*
X200382495Y-151228204D01*
X200406999Y-151227000D01*
X201057001Y-151227000D01*
X201081505Y-151228204D01*
X201081505Y-151228204D01*
G37*
D11*
X200732000Y-151927000D03*
D10*
G36*
X203131505Y-151228204D02*
G01*
X203155773Y-151231804D01*
X203179572Y-151237765D01*
X203202671Y-151246030D01*
X203224850Y-151256520D01*
X203245893Y-151269132D01*
X203265599Y-151283747D01*
X203283777Y-151300223D01*
X203300253Y-151318401D01*
X203314868Y-151338107D01*
X203327480Y-151359150D01*
X203337970Y-151381329D01*
X203346235Y-151404428D01*
X203352196Y-151428227D01*
X203355796Y-151452495D01*
X203357000Y-151476999D01*
X203357000Y-152377001D01*
X203355796Y-152401505D01*
X203352196Y-152425773D01*
X203346235Y-152449572D01*
X203337970Y-152472671D01*
X203327480Y-152494850D01*
X203314868Y-152515893D01*
X203300253Y-152535599D01*
X203283777Y-152553777D01*
X203265599Y-152570253D01*
X203245893Y-152584868D01*
X203224850Y-152597480D01*
X203202671Y-152607970D01*
X203179572Y-152616235D01*
X203155773Y-152622196D01*
X203131505Y-152625796D01*
X203107001Y-152627000D01*
X202456999Y-152627000D01*
X202432495Y-152625796D01*
X202408227Y-152622196D01*
X202384428Y-152616235D01*
X202361329Y-152607970D01*
X202339150Y-152597480D01*
X202318107Y-152584868D01*
X202298401Y-152570253D01*
X202280223Y-152553777D01*
X202263747Y-152535599D01*
X202249132Y-152515893D01*
X202236520Y-152494850D01*
X202226030Y-152472671D01*
X202217765Y-152449572D01*
X202211804Y-152425773D01*
X202208204Y-152401505D01*
X202207000Y-152377001D01*
X202207000Y-151476999D01*
X202208204Y-151452495D01*
X202211804Y-151428227D01*
X202217765Y-151404428D01*
X202226030Y-151381329D01*
X202236520Y-151359150D01*
X202249132Y-151338107D01*
X202263747Y-151318401D01*
X202280223Y-151300223D01*
X202298401Y-151283747D01*
X202318107Y-151269132D01*
X202339150Y-151256520D01*
X202361329Y-151246030D01*
X202384428Y-151237765D01*
X202408227Y-151231804D01*
X202432495Y-151228204D01*
X202456999Y-151227000D01*
X203107001Y-151227000D01*
X203131505Y-151228204D01*
X203131505Y-151228204D01*
G37*
D11*
X202782000Y-151927000D03*
%TD*%
D10*
%TO.C,R8*%
G36*
X185333505Y-151238204D02*
G01*
X185357773Y-151241804D01*
X185381572Y-151247765D01*
X185404671Y-151256030D01*
X185426850Y-151266520D01*
X185447893Y-151279132D01*
X185467599Y-151293747D01*
X185485777Y-151310223D01*
X185502253Y-151328401D01*
X185516868Y-151348107D01*
X185529480Y-151369150D01*
X185539970Y-151391329D01*
X185548235Y-151414428D01*
X185554196Y-151438227D01*
X185557796Y-151462495D01*
X185559000Y-151486999D01*
X185559000Y-152387001D01*
X185557796Y-152411505D01*
X185554196Y-152435773D01*
X185548235Y-152459572D01*
X185539970Y-152482671D01*
X185529480Y-152504850D01*
X185516868Y-152525893D01*
X185502253Y-152545599D01*
X185485777Y-152563777D01*
X185467599Y-152580253D01*
X185447893Y-152594868D01*
X185426850Y-152607480D01*
X185404671Y-152617970D01*
X185381572Y-152626235D01*
X185357773Y-152632196D01*
X185333505Y-152635796D01*
X185309001Y-152637000D01*
X184658999Y-152637000D01*
X184634495Y-152635796D01*
X184610227Y-152632196D01*
X184586428Y-152626235D01*
X184563329Y-152617970D01*
X184541150Y-152607480D01*
X184520107Y-152594868D01*
X184500401Y-152580253D01*
X184482223Y-152563777D01*
X184465747Y-152545599D01*
X184451132Y-152525893D01*
X184438520Y-152504850D01*
X184428030Y-152482671D01*
X184419765Y-152459572D01*
X184413804Y-152435773D01*
X184410204Y-152411505D01*
X184409000Y-152387001D01*
X184409000Y-151486999D01*
X184410204Y-151462495D01*
X184413804Y-151438227D01*
X184419765Y-151414428D01*
X184428030Y-151391329D01*
X184438520Y-151369150D01*
X184451132Y-151348107D01*
X184465747Y-151328401D01*
X184482223Y-151310223D01*
X184500401Y-151293747D01*
X184520107Y-151279132D01*
X184541150Y-151266520D01*
X184563329Y-151256030D01*
X184586428Y-151247765D01*
X184610227Y-151241804D01*
X184634495Y-151238204D01*
X184658999Y-151237000D01*
X185309001Y-151237000D01*
X185333505Y-151238204D01*
X185333505Y-151238204D01*
G37*
D11*
X184984000Y-151937000D03*
D10*
G36*
X187383505Y-151238204D02*
G01*
X187407773Y-151241804D01*
X187431572Y-151247765D01*
X187454671Y-151256030D01*
X187476850Y-151266520D01*
X187497893Y-151279132D01*
X187517599Y-151293747D01*
X187535777Y-151310223D01*
X187552253Y-151328401D01*
X187566868Y-151348107D01*
X187579480Y-151369150D01*
X187589970Y-151391329D01*
X187598235Y-151414428D01*
X187604196Y-151438227D01*
X187607796Y-151462495D01*
X187609000Y-151486999D01*
X187609000Y-152387001D01*
X187607796Y-152411505D01*
X187604196Y-152435773D01*
X187598235Y-152459572D01*
X187589970Y-152482671D01*
X187579480Y-152504850D01*
X187566868Y-152525893D01*
X187552253Y-152545599D01*
X187535777Y-152563777D01*
X187517599Y-152580253D01*
X187497893Y-152594868D01*
X187476850Y-152607480D01*
X187454671Y-152617970D01*
X187431572Y-152626235D01*
X187407773Y-152632196D01*
X187383505Y-152635796D01*
X187359001Y-152637000D01*
X186708999Y-152637000D01*
X186684495Y-152635796D01*
X186660227Y-152632196D01*
X186636428Y-152626235D01*
X186613329Y-152617970D01*
X186591150Y-152607480D01*
X186570107Y-152594868D01*
X186550401Y-152580253D01*
X186532223Y-152563777D01*
X186515747Y-152545599D01*
X186501132Y-152525893D01*
X186488520Y-152504850D01*
X186478030Y-152482671D01*
X186469765Y-152459572D01*
X186463804Y-152435773D01*
X186460204Y-152411505D01*
X186459000Y-152387001D01*
X186459000Y-151486999D01*
X186460204Y-151462495D01*
X186463804Y-151438227D01*
X186469765Y-151414428D01*
X186478030Y-151391329D01*
X186488520Y-151369150D01*
X186501132Y-151348107D01*
X186515747Y-151328401D01*
X186532223Y-151310223D01*
X186550401Y-151293747D01*
X186570107Y-151279132D01*
X186591150Y-151266520D01*
X186613329Y-151256030D01*
X186636428Y-151247765D01*
X186660227Y-151241804D01*
X186684495Y-151238204D01*
X186708999Y-151237000D01*
X187359001Y-151237000D01*
X187383505Y-151238204D01*
X187383505Y-151238204D01*
G37*
D11*
X187034000Y-151937000D03*
%TD*%
D10*
%TO.C,D3*%
G36*
X223618505Y-150939204D02*
G01*
X223642773Y-150942804D01*
X223666572Y-150948765D01*
X223689671Y-150957030D01*
X223711850Y-150967520D01*
X223732893Y-150980132D01*
X223752599Y-150994747D01*
X223770777Y-151011223D01*
X223787253Y-151029401D01*
X223801868Y-151049107D01*
X223814480Y-151070150D01*
X223824970Y-151092329D01*
X223833235Y-151115428D01*
X223839196Y-151139227D01*
X223842796Y-151163495D01*
X223844000Y-151187999D01*
X223844000Y-152088001D01*
X223842796Y-152112505D01*
X223839196Y-152136773D01*
X223833235Y-152160572D01*
X223824970Y-152183671D01*
X223814480Y-152205850D01*
X223801868Y-152226893D01*
X223787253Y-152246599D01*
X223770777Y-152264777D01*
X223752599Y-152281253D01*
X223732893Y-152295868D01*
X223711850Y-152308480D01*
X223689671Y-152318970D01*
X223666572Y-152327235D01*
X223642773Y-152333196D01*
X223618505Y-152336796D01*
X223594001Y-152338000D01*
X222943999Y-152338000D01*
X222919495Y-152336796D01*
X222895227Y-152333196D01*
X222871428Y-152327235D01*
X222848329Y-152318970D01*
X222826150Y-152308480D01*
X222805107Y-152295868D01*
X222785401Y-152281253D01*
X222767223Y-152264777D01*
X222750747Y-152246599D01*
X222736132Y-152226893D01*
X222723520Y-152205850D01*
X222713030Y-152183671D01*
X222704765Y-152160572D01*
X222698804Y-152136773D01*
X222695204Y-152112505D01*
X222694000Y-152088001D01*
X222694000Y-151187999D01*
X222695204Y-151163495D01*
X222698804Y-151139227D01*
X222704765Y-151115428D01*
X222713030Y-151092329D01*
X222723520Y-151070150D01*
X222736132Y-151049107D01*
X222750747Y-151029401D01*
X222767223Y-151011223D01*
X222785401Y-150994747D01*
X222805107Y-150980132D01*
X222826150Y-150967520D01*
X222848329Y-150957030D01*
X222871428Y-150948765D01*
X222895227Y-150942804D01*
X222919495Y-150939204D01*
X222943999Y-150938000D01*
X223594001Y-150938000D01*
X223618505Y-150939204D01*
X223618505Y-150939204D01*
G37*
D11*
X223269000Y-151638000D03*
D10*
G36*
X225668505Y-150939204D02*
G01*
X225692773Y-150942804D01*
X225716572Y-150948765D01*
X225739671Y-150957030D01*
X225761850Y-150967520D01*
X225782893Y-150980132D01*
X225802599Y-150994747D01*
X225820777Y-151011223D01*
X225837253Y-151029401D01*
X225851868Y-151049107D01*
X225864480Y-151070150D01*
X225874970Y-151092329D01*
X225883235Y-151115428D01*
X225889196Y-151139227D01*
X225892796Y-151163495D01*
X225894000Y-151187999D01*
X225894000Y-152088001D01*
X225892796Y-152112505D01*
X225889196Y-152136773D01*
X225883235Y-152160572D01*
X225874970Y-152183671D01*
X225864480Y-152205850D01*
X225851868Y-152226893D01*
X225837253Y-152246599D01*
X225820777Y-152264777D01*
X225802599Y-152281253D01*
X225782893Y-152295868D01*
X225761850Y-152308480D01*
X225739671Y-152318970D01*
X225716572Y-152327235D01*
X225692773Y-152333196D01*
X225668505Y-152336796D01*
X225644001Y-152338000D01*
X224993999Y-152338000D01*
X224969495Y-152336796D01*
X224945227Y-152333196D01*
X224921428Y-152327235D01*
X224898329Y-152318970D01*
X224876150Y-152308480D01*
X224855107Y-152295868D01*
X224835401Y-152281253D01*
X224817223Y-152264777D01*
X224800747Y-152246599D01*
X224786132Y-152226893D01*
X224773520Y-152205850D01*
X224763030Y-152183671D01*
X224754765Y-152160572D01*
X224748804Y-152136773D01*
X224745204Y-152112505D01*
X224744000Y-152088001D01*
X224744000Y-151187999D01*
X224745204Y-151163495D01*
X224748804Y-151139227D01*
X224754765Y-151115428D01*
X224763030Y-151092329D01*
X224773520Y-151070150D01*
X224786132Y-151049107D01*
X224800747Y-151029401D01*
X224817223Y-151011223D01*
X224835401Y-150994747D01*
X224855107Y-150980132D01*
X224876150Y-150967520D01*
X224898329Y-150957030D01*
X224921428Y-150948765D01*
X224945227Y-150942804D01*
X224969495Y-150939204D01*
X224993999Y-150938000D01*
X225644001Y-150938000D01*
X225668505Y-150939204D01*
X225668505Y-150939204D01*
G37*
D11*
X225319000Y-151638000D03*
%TD*%
D10*
%TO.C,D2*%
G36*
X205826505Y-151183204D02*
G01*
X205850773Y-151186804D01*
X205874572Y-151192765D01*
X205897671Y-151201030D01*
X205919850Y-151211520D01*
X205940893Y-151224132D01*
X205960599Y-151238747D01*
X205978777Y-151255223D01*
X205995253Y-151273401D01*
X206009868Y-151293107D01*
X206022480Y-151314150D01*
X206032970Y-151336329D01*
X206041235Y-151359428D01*
X206047196Y-151383227D01*
X206050796Y-151407495D01*
X206052000Y-151431999D01*
X206052000Y-152332001D01*
X206050796Y-152356505D01*
X206047196Y-152380773D01*
X206041235Y-152404572D01*
X206032970Y-152427671D01*
X206022480Y-152449850D01*
X206009868Y-152470893D01*
X205995253Y-152490599D01*
X205978777Y-152508777D01*
X205960599Y-152525253D01*
X205940893Y-152539868D01*
X205919850Y-152552480D01*
X205897671Y-152562970D01*
X205874572Y-152571235D01*
X205850773Y-152577196D01*
X205826505Y-152580796D01*
X205802001Y-152582000D01*
X205151999Y-152582000D01*
X205127495Y-152580796D01*
X205103227Y-152577196D01*
X205079428Y-152571235D01*
X205056329Y-152562970D01*
X205034150Y-152552480D01*
X205013107Y-152539868D01*
X204993401Y-152525253D01*
X204975223Y-152508777D01*
X204958747Y-152490599D01*
X204944132Y-152470893D01*
X204931520Y-152449850D01*
X204921030Y-152427671D01*
X204912765Y-152404572D01*
X204906804Y-152380773D01*
X204903204Y-152356505D01*
X204902000Y-152332001D01*
X204902000Y-151431999D01*
X204903204Y-151407495D01*
X204906804Y-151383227D01*
X204912765Y-151359428D01*
X204921030Y-151336329D01*
X204931520Y-151314150D01*
X204944132Y-151293107D01*
X204958747Y-151273401D01*
X204975223Y-151255223D01*
X204993401Y-151238747D01*
X205013107Y-151224132D01*
X205034150Y-151211520D01*
X205056329Y-151201030D01*
X205079428Y-151192765D01*
X205103227Y-151186804D01*
X205127495Y-151183204D01*
X205151999Y-151182000D01*
X205802001Y-151182000D01*
X205826505Y-151183204D01*
X205826505Y-151183204D01*
G37*
D11*
X205477000Y-151882000D03*
D10*
G36*
X207876505Y-151183204D02*
G01*
X207900773Y-151186804D01*
X207924572Y-151192765D01*
X207947671Y-151201030D01*
X207969850Y-151211520D01*
X207990893Y-151224132D01*
X208010599Y-151238747D01*
X208028777Y-151255223D01*
X208045253Y-151273401D01*
X208059868Y-151293107D01*
X208072480Y-151314150D01*
X208082970Y-151336329D01*
X208091235Y-151359428D01*
X208097196Y-151383227D01*
X208100796Y-151407495D01*
X208102000Y-151431999D01*
X208102000Y-152332001D01*
X208100796Y-152356505D01*
X208097196Y-152380773D01*
X208091235Y-152404572D01*
X208082970Y-152427671D01*
X208072480Y-152449850D01*
X208059868Y-152470893D01*
X208045253Y-152490599D01*
X208028777Y-152508777D01*
X208010599Y-152525253D01*
X207990893Y-152539868D01*
X207969850Y-152552480D01*
X207947671Y-152562970D01*
X207924572Y-152571235D01*
X207900773Y-152577196D01*
X207876505Y-152580796D01*
X207852001Y-152582000D01*
X207201999Y-152582000D01*
X207177495Y-152580796D01*
X207153227Y-152577196D01*
X207129428Y-152571235D01*
X207106329Y-152562970D01*
X207084150Y-152552480D01*
X207063107Y-152539868D01*
X207043401Y-152525253D01*
X207025223Y-152508777D01*
X207008747Y-152490599D01*
X206994132Y-152470893D01*
X206981520Y-152449850D01*
X206971030Y-152427671D01*
X206962765Y-152404572D01*
X206956804Y-152380773D01*
X206953204Y-152356505D01*
X206952000Y-152332001D01*
X206952000Y-151431999D01*
X206953204Y-151407495D01*
X206956804Y-151383227D01*
X206962765Y-151359428D01*
X206971030Y-151336329D01*
X206981520Y-151314150D01*
X206994132Y-151293107D01*
X207008747Y-151273401D01*
X207025223Y-151255223D01*
X207043401Y-151238747D01*
X207063107Y-151224132D01*
X207084150Y-151211520D01*
X207106329Y-151201030D01*
X207129428Y-151192765D01*
X207153227Y-151186804D01*
X207177495Y-151183204D01*
X207201999Y-151182000D01*
X207852001Y-151182000D01*
X207876505Y-151183204D01*
X207876505Y-151183204D01*
G37*
D11*
X207527000Y-151882000D03*
%TD*%
D10*
%TO.C,D1*%
G36*
X190078505Y-151193204D02*
G01*
X190102773Y-151196804D01*
X190126572Y-151202765D01*
X190149671Y-151211030D01*
X190171850Y-151221520D01*
X190192893Y-151234132D01*
X190212599Y-151248747D01*
X190230777Y-151265223D01*
X190247253Y-151283401D01*
X190261868Y-151303107D01*
X190274480Y-151324150D01*
X190284970Y-151346329D01*
X190293235Y-151369428D01*
X190299196Y-151393227D01*
X190302796Y-151417495D01*
X190304000Y-151441999D01*
X190304000Y-152342001D01*
X190302796Y-152366505D01*
X190299196Y-152390773D01*
X190293235Y-152414572D01*
X190284970Y-152437671D01*
X190274480Y-152459850D01*
X190261868Y-152480893D01*
X190247253Y-152500599D01*
X190230777Y-152518777D01*
X190212599Y-152535253D01*
X190192893Y-152549868D01*
X190171850Y-152562480D01*
X190149671Y-152572970D01*
X190126572Y-152581235D01*
X190102773Y-152587196D01*
X190078505Y-152590796D01*
X190054001Y-152592000D01*
X189403999Y-152592000D01*
X189379495Y-152590796D01*
X189355227Y-152587196D01*
X189331428Y-152581235D01*
X189308329Y-152572970D01*
X189286150Y-152562480D01*
X189265107Y-152549868D01*
X189245401Y-152535253D01*
X189227223Y-152518777D01*
X189210747Y-152500599D01*
X189196132Y-152480893D01*
X189183520Y-152459850D01*
X189173030Y-152437671D01*
X189164765Y-152414572D01*
X189158804Y-152390773D01*
X189155204Y-152366505D01*
X189154000Y-152342001D01*
X189154000Y-151441999D01*
X189155204Y-151417495D01*
X189158804Y-151393227D01*
X189164765Y-151369428D01*
X189173030Y-151346329D01*
X189183520Y-151324150D01*
X189196132Y-151303107D01*
X189210747Y-151283401D01*
X189227223Y-151265223D01*
X189245401Y-151248747D01*
X189265107Y-151234132D01*
X189286150Y-151221520D01*
X189308329Y-151211030D01*
X189331428Y-151202765D01*
X189355227Y-151196804D01*
X189379495Y-151193204D01*
X189403999Y-151192000D01*
X190054001Y-151192000D01*
X190078505Y-151193204D01*
X190078505Y-151193204D01*
G37*
D11*
X189729000Y-151892000D03*
D10*
G36*
X192128505Y-151193204D02*
G01*
X192152773Y-151196804D01*
X192176572Y-151202765D01*
X192199671Y-151211030D01*
X192221850Y-151221520D01*
X192242893Y-151234132D01*
X192262599Y-151248747D01*
X192280777Y-151265223D01*
X192297253Y-151283401D01*
X192311868Y-151303107D01*
X192324480Y-151324150D01*
X192334970Y-151346329D01*
X192343235Y-151369428D01*
X192349196Y-151393227D01*
X192352796Y-151417495D01*
X192354000Y-151441999D01*
X192354000Y-152342001D01*
X192352796Y-152366505D01*
X192349196Y-152390773D01*
X192343235Y-152414572D01*
X192334970Y-152437671D01*
X192324480Y-152459850D01*
X192311868Y-152480893D01*
X192297253Y-152500599D01*
X192280777Y-152518777D01*
X192262599Y-152535253D01*
X192242893Y-152549868D01*
X192221850Y-152562480D01*
X192199671Y-152572970D01*
X192176572Y-152581235D01*
X192152773Y-152587196D01*
X192128505Y-152590796D01*
X192104001Y-152592000D01*
X191453999Y-152592000D01*
X191429495Y-152590796D01*
X191405227Y-152587196D01*
X191381428Y-152581235D01*
X191358329Y-152572970D01*
X191336150Y-152562480D01*
X191315107Y-152549868D01*
X191295401Y-152535253D01*
X191277223Y-152518777D01*
X191260747Y-152500599D01*
X191246132Y-152480893D01*
X191233520Y-152459850D01*
X191223030Y-152437671D01*
X191214765Y-152414572D01*
X191208804Y-152390773D01*
X191205204Y-152366505D01*
X191204000Y-152342001D01*
X191204000Y-151441999D01*
X191205204Y-151417495D01*
X191208804Y-151393227D01*
X191214765Y-151369428D01*
X191223030Y-151346329D01*
X191233520Y-151324150D01*
X191246132Y-151303107D01*
X191260747Y-151283401D01*
X191277223Y-151265223D01*
X191295401Y-151248747D01*
X191315107Y-151234132D01*
X191336150Y-151221520D01*
X191358329Y-151211030D01*
X191381428Y-151202765D01*
X191405227Y-151196804D01*
X191429495Y-151193204D01*
X191453999Y-151192000D01*
X192104001Y-151192000D01*
X192128505Y-151193204D01*
X192128505Y-151193204D01*
G37*
D11*
X191779000Y-151892000D03*
%TD*%
D10*
%TO.C,R3*%
G36*
X225264505Y-122344204D02*
G01*
X225288773Y-122347804D01*
X225312572Y-122353765D01*
X225335671Y-122362030D01*
X225357850Y-122372520D01*
X225378893Y-122385132D01*
X225398599Y-122399747D01*
X225416777Y-122416223D01*
X225433253Y-122434401D01*
X225447868Y-122454107D01*
X225460480Y-122475150D01*
X225470970Y-122497329D01*
X225479235Y-122520428D01*
X225485196Y-122544227D01*
X225488796Y-122568495D01*
X225490000Y-122592999D01*
X225490000Y-123243001D01*
X225488796Y-123267505D01*
X225485196Y-123291773D01*
X225479235Y-123315572D01*
X225470970Y-123338671D01*
X225460480Y-123360850D01*
X225447868Y-123381893D01*
X225433253Y-123401599D01*
X225416777Y-123419777D01*
X225398599Y-123436253D01*
X225378893Y-123450868D01*
X225357850Y-123463480D01*
X225335671Y-123473970D01*
X225312572Y-123482235D01*
X225288773Y-123488196D01*
X225264505Y-123491796D01*
X225240001Y-123493000D01*
X224339999Y-123493000D01*
X224315495Y-123491796D01*
X224291227Y-123488196D01*
X224267428Y-123482235D01*
X224244329Y-123473970D01*
X224222150Y-123463480D01*
X224201107Y-123450868D01*
X224181401Y-123436253D01*
X224163223Y-123419777D01*
X224146747Y-123401599D01*
X224132132Y-123381893D01*
X224119520Y-123360850D01*
X224109030Y-123338671D01*
X224100765Y-123315572D01*
X224094804Y-123291773D01*
X224091204Y-123267505D01*
X224090000Y-123243001D01*
X224090000Y-122592999D01*
X224091204Y-122568495D01*
X224094804Y-122544227D01*
X224100765Y-122520428D01*
X224109030Y-122497329D01*
X224119520Y-122475150D01*
X224132132Y-122454107D01*
X224146747Y-122434401D01*
X224163223Y-122416223D01*
X224181401Y-122399747D01*
X224201107Y-122385132D01*
X224222150Y-122372520D01*
X224244329Y-122362030D01*
X224267428Y-122353765D01*
X224291227Y-122347804D01*
X224315495Y-122344204D01*
X224339999Y-122343000D01*
X225240001Y-122343000D01*
X225264505Y-122344204D01*
X225264505Y-122344204D01*
G37*
D11*
X224790000Y-122918000D03*
D10*
G36*
X225264505Y-124394204D02*
G01*
X225288773Y-124397804D01*
X225312572Y-124403765D01*
X225335671Y-124412030D01*
X225357850Y-124422520D01*
X225378893Y-124435132D01*
X225398599Y-124449747D01*
X225416777Y-124466223D01*
X225433253Y-124484401D01*
X225447868Y-124504107D01*
X225460480Y-124525150D01*
X225470970Y-124547329D01*
X225479235Y-124570428D01*
X225485196Y-124594227D01*
X225488796Y-124618495D01*
X225490000Y-124642999D01*
X225490000Y-125293001D01*
X225488796Y-125317505D01*
X225485196Y-125341773D01*
X225479235Y-125365572D01*
X225470970Y-125388671D01*
X225460480Y-125410850D01*
X225447868Y-125431893D01*
X225433253Y-125451599D01*
X225416777Y-125469777D01*
X225398599Y-125486253D01*
X225378893Y-125500868D01*
X225357850Y-125513480D01*
X225335671Y-125523970D01*
X225312572Y-125532235D01*
X225288773Y-125538196D01*
X225264505Y-125541796D01*
X225240001Y-125543000D01*
X224339999Y-125543000D01*
X224315495Y-125541796D01*
X224291227Y-125538196D01*
X224267428Y-125532235D01*
X224244329Y-125523970D01*
X224222150Y-125513480D01*
X224201107Y-125500868D01*
X224181401Y-125486253D01*
X224163223Y-125469777D01*
X224146747Y-125451599D01*
X224132132Y-125431893D01*
X224119520Y-125410850D01*
X224109030Y-125388671D01*
X224100765Y-125365572D01*
X224094804Y-125341773D01*
X224091204Y-125317505D01*
X224090000Y-125293001D01*
X224090000Y-124642999D01*
X224091204Y-124618495D01*
X224094804Y-124594227D01*
X224100765Y-124570428D01*
X224109030Y-124547329D01*
X224119520Y-124525150D01*
X224132132Y-124504107D01*
X224146747Y-124484401D01*
X224163223Y-124466223D01*
X224181401Y-124449747D01*
X224201107Y-124435132D01*
X224222150Y-124422520D01*
X224244329Y-124412030D01*
X224267428Y-124403765D01*
X224291227Y-124397804D01*
X224315495Y-124394204D01*
X224339999Y-124393000D01*
X225240001Y-124393000D01*
X225264505Y-124394204D01*
X225264505Y-124394204D01*
G37*
D11*
X224790000Y-124968000D03*
%TD*%
D10*
%TO.C,C1*%
G36*
X197324505Y-128975204D02*
G01*
X197348773Y-128978804D01*
X197372572Y-128984765D01*
X197395671Y-128993030D01*
X197417850Y-129003520D01*
X197438893Y-129016132D01*
X197458599Y-129030747D01*
X197476777Y-129047223D01*
X197493253Y-129065401D01*
X197507868Y-129085107D01*
X197520480Y-129106150D01*
X197530970Y-129128329D01*
X197539235Y-129151428D01*
X197545196Y-129175227D01*
X197548796Y-129199495D01*
X197550000Y-129223999D01*
X197550000Y-129874001D01*
X197548796Y-129898505D01*
X197545196Y-129922773D01*
X197539235Y-129946572D01*
X197530970Y-129969671D01*
X197520480Y-129991850D01*
X197507868Y-130012893D01*
X197493253Y-130032599D01*
X197476777Y-130050777D01*
X197458599Y-130067253D01*
X197438893Y-130081868D01*
X197417850Y-130094480D01*
X197395671Y-130104970D01*
X197372572Y-130113235D01*
X197348773Y-130119196D01*
X197324505Y-130122796D01*
X197300001Y-130124000D01*
X196399999Y-130124000D01*
X196375495Y-130122796D01*
X196351227Y-130119196D01*
X196327428Y-130113235D01*
X196304329Y-130104970D01*
X196282150Y-130094480D01*
X196261107Y-130081868D01*
X196241401Y-130067253D01*
X196223223Y-130050777D01*
X196206747Y-130032599D01*
X196192132Y-130012893D01*
X196179520Y-129991850D01*
X196169030Y-129969671D01*
X196160765Y-129946572D01*
X196154804Y-129922773D01*
X196151204Y-129898505D01*
X196150000Y-129874001D01*
X196150000Y-129223999D01*
X196151204Y-129199495D01*
X196154804Y-129175227D01*
X196160765Y-129151428D01*
X196169030Y-129128329D01*
X196179520Y-129106150D01*
X196192132Y-129085107D01*
X196206747Y-129065401D01*
X196223223Y-129047223D01*
X196241401Y-129030747D01*
X196261107Y-129016132D01*
X196282150Y-129003520D01*
X196304329Y-128993030D01*
X196327428Y-128984765D01*
X196351227Y-128978804D01*
X196375495Y-128975204D01*
X196399999Y-128974000D01*
X197300001Y-128974000D01*
X197324505Y-128975204D01*
X197324505Y-128975204D01*
G37*
D11*
X196850000Y-129549000D03*
D10*
G36*
X197324505Y-126925204D02*
G01*
X197348773Y-126928804D01*
X197372572Y-126934765D01*
X197395671Y-126943030D01*
X197417850Y-126953520D01*
X197438893Y-126966132D01*
X197458599Y-126980747D01*
X197476777Y-126997223D01*
X197493253Y-127015401D01*
X197507868Y-127035107D01*
X197520480Y-127056150D01*
X197530970Y-127078329D01*
X197539235Y-127101428D01*
X197545196Y-127125227D01*
X197548796Y-127149495D01*
X197550000Y-127173999D01*
X197550000Y-127824001D01*
X197548796Y-127848505D01*
X197545196Y-127872773D01*
X197539235Y-127896572D01*
X197530970Y-127919671D01*
X197520480Y-127941850D01*
X197507868Y-127962893D01*
X197493253Y-127982599D01*
X197476777Y-128000777D01*
X197458599Y-128017253D01*
X197438893Y-128031868D01*
X197417850Y-128044480D01*
X197395671Y-128054970D01*
X197372572Y-128063235D01*
X197348773Y-128069196D01*
X197324505Y-128072796D01*
X197300001Y-128074000D01*
X196399999Y-128074000D01*
X196375495Y-128072796D01*
X196351227Y-128069196D01*
X196327428Y-128063235D01*
X196304329Y-128054970D01*
X196282150Y-128044480D01*
X196261107Y-128031868D01*
X196241401Y-128017253D01*
X196223223Y-128000777D01*
X196206747Y-127982599D01*
X196192132Y-127962893D01*
X196179520Y-127941850D01*
X196169030Y-127919671D01*
X196160765Y-127896572D01*
X196154804Y-127872773D01*
X196151204Y-127848505D01*
X196150000Y-127824001D01*
X196150000Y-127173999D01*
X196151204Y-127149495D01*
X196154804Y-127125227D01*
X196160765Y-127101428D01*
X196169030Y-127078329D01*
X196179520Y-127056150D01*
X196192132Y-127035107D01*
X196206747Y-127015401D01*
X196223223Y-126997223D01*
X196241401Y-126980747D01*
X196261107Y-126966132D01*
X196282150Y-126953520D01*
X196304329Y-126943030D01*
X196327428Y-126934765D01*
X196351227Y-126928804D01*
X196375495Y-126925204D01*
X196399999Y-126924000D01*
X197300001Y-126924000D01*
X197324505Y-126925204D01*
X197324505Y-126925204D01*
G37*
D11*
X196850000Y-127499000D03*
%TD*%
D10*
%TO.C,R7*%
G36*
X218914505Y-140650204D02*
G01*
X218938773Y-140653804D01*
X218962572Y-140659765D01*
X218985671Y-140668030D01*
X219007850Y-140678520D01*
X219028893Y-140691132D01*
X219048599Y-140705747D01*
X219066777Y-140722223D01*
X219083253Y-140740401D01*
X219097868Y-140760107D01*
X219110480Y-140781150D01*
X219120970Y-140803329D01*
X219129235Y-140826428D01*
X219135196Y-140850227D01*
X219138796Y-140874495D01*
X219140000Y-140898999D01*
X219140000Y-141549001D01*
X219138796Y-141573505D01*
X219135196Y-141597773D01*
X219129235Y-141621572D01*
X219120970Y-141644671D01*
X219110480Y-141666850D01*
X219097868Y-141687893D01*
X219083253Y-141707599D01*
X219066777Y-141725777D01*
X219048599Y-141742253D01*
X219028893Y-141756868D01*
X219007850Y-141769480D01*
X218985671Y-141779970D01*
X218962572Y-141788235D01*
X218938773Y-141794196D01*
X218914505Y-141797796D01*
X218890001Y-141799000D01*
X217989999Y-141799000D01*
X217965495Y-141797796D01*
X217941227Y-141794196D01*
X217917428Y-141788235D01*
X217894329Y-141779970D01*
X217872150Y-141769480D01*
X217851107Y-141756868D01*
X217831401Y-141742253D01*
X217813223Y-141725777D01*
X217796747Y-141707599D01*
X217782132Y-141687893D01*
X217769520Y-141666850D01*
X217759030Y-141644671D01*
X217750765Y-141621572D01*
X217744804Y-141597773D01*
X217741204Y-141573505D01*
X217740000Y-141549001D01*
X217740000Y-140898999D01*
X217741204Y-140874495D01*
X217744804Y-140850227D01*
X217750765Y-140826428D01*
X217759030Y-140803329D01*
X217769520Y-140781150D01*
X217782132Y-140760107D01*
X217796747Y-140740401D01*
X217813223Y-140722223D01*
X217831401Y-140705747D01*
X217851107Y-140691132D01*
X217872150Y-140678520D01*
X217894329Y-140668030D01*
X217917428Y-140659765D01*
X217941227Y-140653804D01*
X217965495Y-140650204D01*
X217989999Y-140649000D01*
X218890001Y-140649000D01*
X218914505Y-140650204D01*
X218914505Y-140650204D01*
G37*
D11*
X218440000Y-141224000D03*
D10*
G36*
X218914505Y-142700204D02*
G01*
X218938773Y-142703804D01*
X218962572Y-142709765D01*
X218985671Y-142718030D01*
X219007850Y-142728520D01*
X219028893Y-142741132D01*
X219048599Y-142755747D01*
X219066777Y-142772223D01*
X219083253Y-142790401D01*
X219097868Y-142810107D01*
X219110480Y-142831150D01*
X219120970Y-142853329D01*
X219129235Y-142876428D01*
X219135196Y-142900227D01*
X219138796Y-142924495D01*
X219140000Y-142948999D01*
X219140000Y-143599001D01*
X219138796Y-143623505D01*
X219135196Y-143647773D01*
X219129235Y-143671572D01*
X219120970Y-143694671D01*
X219110480Y-143716850D01*
X219097868Y-143737893D01*
X219083253Y-143757599D01*
X219066777Y-143775777D01*
X219048599Y-143792253D01*
X219028893Y-143806868D01*
X219007850Y-143819480D01*
X218985671Y-143829970D01*
X218962572Y-143838235D01*
X218938773Y-143844196D01*
X218914505Y-143847796D01*
X218890001Y-143849000D01*
X217989999Y-143849000D01*
X217965495Y-143847796D01*
X217941227Y-143844196D01*
X217917428Y-143838235D01*
X217894329Y-143829970D01*
X217872150Y-143819480D01*
X217851107Y-143806868D01*
X217831401Y-143792253D01*
X217813223Y-143775777D01*
X217796747Y-143757599D01*
X217782132Y-143737893D01*
X217769520Y-143716850D01*
X217759030Y-143694671D01*
X217750765Y-143671572D01*
X217744804Y-143647773D01*
X217741204Y-143623505D01*
X217740000Y-143599001D01*
X217740000Y-142948999D01*
X217741204Y-142924495D01*
X217744804Y-142900227D01*
X217750765Y-142876428D01*
X217759030Y-142853329D01*
X217769520Y-142831150D01*
X217782132Y-142810107D01*
X217796747Y-142790401D01*
X217813223Y-142772223D01*
X217831401Y-142755747D01*
X217851107Y-142741132D01*
X217872150Y-142728520D01*
X217894329Y-142718030D01*
X217917428Y-142709765D01*
X217941227Y-142703804D01*
X217965495Y-142700204D01*
X217989999Y-142699000D01*
X218890001Y-142699000D01*
X218914505Y-142700204D01*
X218914505Y-142700204D01*
G37*
D11*
X218440000Y-143274000D03*
%TD*%
D10*
%TO.C,R6*%
G36*
X218914505Y-144696204D02*
G01*
X218938773Y-144699804D01*
X218962572Y-144705765D01*
X218985671Y-144714030D01*
X219007850Y-144724520D01*
X219028893Y-144737132D01*
X219048599Y-144751747D01*
X219066777Y-144768223D01*
X219083253Y-144786401D01*
X219097868Y-144806107D01*
X219110480Y-144827150D01*
X219120970Y-144849329D01*
X219129235Y-144872428D01*
X219135196Y-144896227D01*
X219138796Y-144920495D01*
X219140000Y-144944999D01*
X219140000Y-145595001D01*
X219138796Y-145619505D01*
X219135196Y-145643773D01*
X219129235Y-145667572D01*
X219120970Y-145690671D01*
X219110480Y-145712850D01*
X219097868Y-145733893D01*
X219083253Y-145753599D01*
X219066777Y-145771777D01*
X219048599Y-145788253D01*
X219028893Y-145802868D01*
X219007850Y-145815480D01*
X218985671Y-145825970D01*
X218962572Y-145834235D01*
X218938773Y-145840196D01*
X218914505Y-145843796D01*
X218890001Y-145845000D01*
X217989999Y-145845000D01*
X217965495Y-145843796D01*
X217941227Y-145840196D01*
X217917428Y-145834235D01*
X217894329Y-145825970D01*
X217872150Y-145815480D01*
X217851107Y-145802868D01*
X217831401Y-145788253D01*
X217813223Y-145771777D01*
X217796747Y-145753599D01*
X217782132Y-145733893D01*
X217769520Y-145712850D01*
X217759030Y-145690671D01*
X217750765Y-145667572D01*
X217744804Y-145643773D01*
X217741204Y-145619505D01*
X217740000Y-145595001D01*
X217740000Y-144944999D01*
X217741204Y-144920495D01*
X217744804Y-144896227D01*
X217750765Y-144872428D01*
X217759030Y-144849329D01*
X217769520Y-144827150D01*
X217782132Y-144806107D01*
X217796747Y-144786401D01*
X217813223Y-144768223D01*
X217831401Y-144751747D01*
X217851107Y-144737132D01*
X217872150Y-144724520D01*
X217894329Y-144714030D01*
X217917428Y-144705765D01*
X217941227Y-144699804D01*
X217965495Y-144696204D01*
X217989999Y-144695000D01*
X218890001Y-144695000D01*
X218914505Y-144696204D01*
X218914505Y-144696204D01*
G37*
D11*
X218440000Y-145270000D03*
D10*
G36*
X218914505Y-146746204D02*
G01*
X218938773Y-146749804D01*
X218962572Y-146755765D01*
X218985671Y-146764030D01*
X219007850Y-146774520D01*
X219028893Y-146787132D01*
X219048599Y-146801747D01*
X219066777Y-146818223D01*
X219083253Y-146836401D01*
X219097868Y-146856107D01*
X219110480Y-146877150D01*
X219120970Y-146899329D01*
X219129235Y-146922428D01*
X219135196Y-146946227D01*
X219138796Y-146970495D01*
X219140000Y-146994999D01*
X219140000Y-147645001D01*
X219138796Y-147669505D01*
X219135196Y-147693773D01*
X219129235Y-147717572D01*
X219120970Y-147740671D01*
X219110480Y-147762850D01*
X219097868Y-147783893D01*
X219083253Y-147803599D01*
X219066777Y-147821777D01*
X219048599Y-147838253D01*
X219028893Y-147852868D01*
X219007850Y-147865480D01*
X218985671Y-147875970D01*
X218962572Y-147884235D01*
X218938773Y-147890196D01*
X218914505Y-147893796D01*
X218890001Y-147895000D01*
X217989999Y-147895000D01*
X217965495Y-147893796D01*
X217941227Y-147890196D01*
X217917428Y-147884235D01*
X217894329Y-147875970D01*
X217872150Y-147865480D01*
X217851107Y-147852868D01*
X217831401Y-147838253D01*
X217813223Y-147821777D01*
X217796747Y-147803599D01*
X217782132Y-147783893D01*
X217769520Y-147762850D01*
X217759030Y-147740671D01*
X217750765Y-147717572D01*
X217744804Y-147693773D01*
X217741204Y-147669505D01*
X217740000Y-147645001D01*
X217740000Y-146994999D01*
X217741204Y-146970495D01*
X217744804Y-146946227D01*
X217750765Y-146922428D01*
X217759030Y-146899329D01*
X217769520Y-146877150D01*
X217782132Y-146856107D01*
X217796747Y-146836401D01*
X217813223Y-146818223D01*
X217831401Y-146801747D01*
X217851107Y-146787132D01*
X217872150Y-146774520D01*
X217894329Y-146764030D01*
X217917428Y-146755765D01*
X217941227Y-146749804D01*
X217965495Y-146746204D01*
X217989999Y-146745000D01*
X218890001Y-146745000D01*
X218914505Y-146746204D01*
X218914505Y-146746204D01*
G37*
D11*
X218440000Y-147320000D03*
%TD*%
D10*
%TO.C,R5*%
G36*
X201134505Y-140886204D02*
G01*
X201158773Y-140889804D01*
X201182572Y-140895765D01*
X201205671Y-140904030D01*
X201227850Y-140914520D01*
X201248893Y-140927132D01*
X201268599Y-140941747D01*
X201286777Y-140958223D01*
X201303253Y-140976401D01*
X201317868Y-140996107D01*
X201330480Y-141017150D01*
X201340970Y-141039329D01*
X201349235Y-141062428D01*
X201355196Y-141086227D01*
X201358796Y-141110495D01*
X201360000Y-141134999D01*
X201360000Y-141785001D01*
X201358796Y-141809505D01*
X201355196Y-141833773D01*
X201349235Y-141857572D01*
X201340970Y-141880671D01*
X201330480Y-141902850D01*
X201317868Y-141923893D01*
X201303253Y-141943599D01*
X201286777Y-141961777D01*
X201268599Y-141978253D01*
X201248893Y-141992868D01*
X201227850Y-142005480D01*
X201205671Y-142015970D01*
X201182572Y-142024235D01*
X201158773Y-142030196D01*
X201134505Y-142033796D01*
X201110001Y-142035000D01*
X200209999Y-142035000D01*
X200185495Y-142033796D01*
X200161227Y-142030196D01*
X200137428Y-142024235D01*
X200114329Y-142015970D01*
X200092150Y-142005480D01*
X200071107Y-141992868D01*
X200051401Y-141978253D01*
X200033223Y-141961777D01*
X200016747Y-141943599D01*
X200002132Y-141923893D01*
X199989520Y-141902850D01*
X199979030Y-141880671D01*
X199970765Y-141857572D01*
X199964804Y-141833773D01*
X199961204Y-141809505D01*
X199960000Y-141785001D01*
X199960000Y-141134999D01*
X199961204Y-141110495D01*
X199964804Y-141086227D01*
X199970765Y-141062428D01*
X199979030Y-141039329D01*
X199989520Y-141017150D01*
X200002132Y-140996107D01*
X200016747Y-140976401D01*
X200033223Y-140958223D01*
X200051401Y-140941747D01*
X200071107Y-140927132D01*
X200092150Y-140914520D01*
X200114329Y-140904030D01*
X200137428Y-140895765D01*
X200161227Y-140889804D01*
X200185495Y-140886204D01*
X200209999Y-140885000D01*
X201110001Y-140885000D01*
X201134505Y-140886204D01*
X201134505Y-140886204D01*
G37*
D11*
X200660000Y-141460000D03*
D10*
G36*
X201134505Y-142936204D02*
G01*
X201158773Y-142939804D01*
X201182572Y-142945765D01*
X201205671Y-142954030D01*
X201227850Y-142964520D01*
X201248893Y-142977132D01*
X201268599Y-142991747D01*
X201286777Y-143008223D01*
X201303253Y-143026401D01*
X201317868Y-143046107D01*
X201330480Y-143067150D01*
X201340970Y-143089329D01*
X201349235Y-143112428D01*
X201355196Y-143136227D01*
X201358796Y-143160495D01*
X201360000Y-143184999D01*
X201360000Y-143835001D01*
X201358796Y-143859505D01*
X201355196Y-143883773D01*
X201349235Y-143907572D01*
X201340970Y-143930671D01*
X201330480Y-143952850D01*
X201317868Y-143973893D01*
X201303253Y-143993599D01*
X201286777Y-144011777D01*
X201268599Y-144028253D01*
X201248893Y-144042868D01*
X201227850Y-144055480D01*
X201205671Y-144065970D01*
X201182572Y-144074235D01*
X201158773Y-144080196D01*
X201134505Y-144083796D01*
X201110001Y-144085000D01*
X200209999Y-144085000D01*
X200185495Y-144083796D01*
X200161227Y-144080196D01*
X200137428Y-144074235D01*
X200114329Y-144065970D01*
X200092150Y-144055480D01*
X200071107Y-144042868D01*
X200051401Y-144028253D01*
X200033223Y-144011777D01*
X200016747Y-143993599D01*
X200002132Y-143973893D01*
X199989520Y-143952850D01*
X199979030Y-143930671D01*
X199970765Y-143907572D01*
X199964804Y-143883773D01*
X199961204Y-143859505D01*
X199960000Y-143835001D01*
X199960000Y-143184999D01*
X199961204Y-143160495D01*
X199964804Y-143136227D01*
X199970765Y-143112428D01*
X199979030Y-143089329D01*
X199989520Y-143067150D01*
X200002132Y-143046107D01*
X200016747Y-143026401D01*
X200033223Y-143008223D01*
X200051401Y-142991747D01*
X200071107Y-142977132D01*
X200092150Y-142964520D01*
X200114329Y-142954030D01*
X200137428Y-142945765D01*
X200161227Y-142939804D01*
X200185495Y-142936204D01*
X200209999Y-142935000D01*
X201110001Y-142935000D01*
X201134505Y-142936204D01*
X201134505Y-142936204D01*
G37*
D11*
X200660000Y-143510000D03*
%TD*%
D10*
%TO.C,R4*%
G36*
X201134505Y-144714204D02*
G01*
X201158773Y-144717804D01*
X201182572Y-144723765D01*
X201205671Y-144732030D01*
X201227850Y-144742520D01*
X201248893Y-144755132D01*
X201268599Y-144769747D01*
X201286777Y-144786223D01*
X201303253Y-144804401D01*
X201317868Y-144824107D01*
X201330480Y-144845150D01*
X201340970Y-144867329D01*
X201349235Y-144890428D01*
X201355196Y-144914227D01*
X201358796Y-144938495D01*
X201360000Y-144962999D01*
X201360000Y-145613001D01*
X201358796Y-145637505D01*
X201355196Y-145661773D01*
X201349235Y-145685572D01*
X201340970Y-145708671D01*
X201330480Y-145730850D01*
X201317868Y-145751893D01*
X201303253Y-145771599D01*
X201286777Y-145789777D01*
X201268599Y-145806253D01*
X201248893Y-145820868D01*
X201227850Y-145833480D01*
X201205671Y-145843970D01*
X201182572Y-145852235D01*
X201158773Y-145858196D01*
X201134505Y-145861796D01*
X201110001Y-145863000D01*
X200209999Y-145863000D01*
X200185495Y-145861796D01*
X200161227Y-145858196D01*
X200137428Y-145852235D01*
X200114329Y-145843970D01*
X200092150Y-145833480D01*
X200071107Y-145820868D01*
X200051401Y-145806253D01*
X200033223Y-145789777D01*
X200016747Y-145771599D01*
X200002132Y-145751893D01*
X199989520Y-145730850D01*
X199979030Y-145708671D01*
X199970765Y-145685572D01*
X199964804Y-145661773D01*
X199961204Y-145637505D01*
X199960000Y-145613001D01*
X199960000Y-144962999D01*
X199961204Y-144938495D01*
X199964804Y-144914227D01*
X199970765Y-144890428D01*
X199979030Y-144867329D01*
X199989520Y-144845150D01*
X200002132Y-144824107D01*
X200016747Y-144804401D01*
X200033223Y-144786223D01*
X200051401Y-144769747D01*
X200071107Y-144755132D01*
X200092150Y-144742520D01*
X200114329Y-144732030D01*
X200137428Y-144723765D01*
X200161227Y-144717804D01*
X200185495Y-144714204D01*
X200209999Y-144713000D01*
X201110001Y-144713000D01*
X201134505Y-144714204D01*
X201134505Y-144714204D01*
G37*
D11*
X200660000Y-145288000D03*
D10*
G36*
X201134505Y-146764204D02*
G01*
X201158773Y-146767804D01*
X201182572Y-146773765D01*
X201205671Y-146782030D01*
X201227850Y-146792520D01*
X201248893Y-146805132D01*
X201268599Y-146819747D01*
X201286777Y-146836223D01*
X201303253Y-146854401D01*
X201317868Y-146874107D01*
X201330480Y-146895150D01*
X201340970Y-146917329D01*
X201349235Y-146940428D01*
X201355196Y-146964227D01*
X201358796Y-146988495D01*
X201360000Y-147012999D01*
X201360000Y-147663001D01*
X201358796Y-147687505D01*
X201355196Y-147711773D01*
X201349235Y-147735572D01*
X201340970Y-147758671D01*
X201330480Y-147780850D01*
X201317868Y-147801893D01*
X201303253Y-147821599D01*
X201286777Y-147839777D01*
X201268599Y-147856253D01*
X201248893Y-147870868D01*
X201227850Y-147883480D01*
X201205671Y-147893970D01*
X201182572Y-147902235D01*
X201158773Y-147908196D01*
X201134505Y-147911796D01*
X201110001Y-147913000D01*
X200209999Y-147913000D01*
X200185495Y-147911796D01*
X200161227Y-147908196D01*
X200137428Y-147902235D01*
X200114329Y-147893970D01*
X200092150Y-147883480D01*
X200071107Y-147870868D01*
X200051401Y-147856253D01*
X200033223Y-147839777D01*
X200016747Y-147821599D01*
X200002132Y-147801893D01*
X199989520Y-147780850D01*
X199979030Y-147758671D01*
X199970765Y-147735572D01*
X199964804Y-147711773D01*
X199961204Y-147687505D01*
X199960000Y-147663001D01*
X199960000Y-147012999D01*
X199961204Y-146988495D01*
X199964804Y-146964227D01*
X199970765Y-146940428D01*
X199979030Y-146917329D01*
X199989520Y-146895150D01*
X200002132Y-146874107D01*
X200016747Y-146854401D01*
X200033223Y-146836223D01*
X200051401Y-146819747D01*
X200071107Y-146805132D01*
X200092150Y-146792520D01*
X200114329Y-146782030D01*
X200137428Y-146773765D01*
X200161227Y-146767804D01*
X200185495Y-146764204D01*
X200209999Y-146763000D01*
X201110001Y-146763000D01*
X201134505Y-146764204D01*
X201134505Y-146764204D01*
G37*
D11*
X200660000Y-147338000D03*
%TD*%
D10*
%TO.C,R2*%
G36*
X185386505Y-140641204D02*
G01*
X185410773Y-140644804D01*
X185434572Y-140650765D01*
X185457671Y-140659030D01*
X185479850Y-140669520D01*
X185500893Y-140682132D01*
X185520599Y-140696747D01*
X185538777Y-140713223D01*
X185555253Y-140731401D01*
X185569868Y-140751107D01*
X185582480Y-140772150D01*
X185592970Y-140794329D01*
X185601235Y-140817428D01*
X185607196Y-140841227D01*
X185610796Y-140865495D01*
X185612000Y-140889999D01*
X185612000Y-141540001D01*
X185610796Y-141564505D01*
X185607196Y-141588773D01*
X185601235Y-141612572D01*
X185592970Y-141635671D01*
X185582480Y-141657850D01*
X185569868Y-141678893D01*
X185555253Y-141698599D01*
X185538777Y-141716777D01*
X185520599Y-141733253D01*
X185500893Y-141747868D01*
X185479850Y-141760480D01*
X185457671Y-141770970D01*
X185434572Y-141779235D01*
X185410773Y-141785196D01*
X185386505Y-141788796D01*
X185362001Y-141790000D01*
X184461999Y-141790000D01*
X184437495Y-141788796D01*
X184413227Y-141785196D01*
X184389428Y-141779235D01*
X184366329Y-141770970D01*
X184344150Y-141760480D01*
X184323107Y-141747868D01*
X184303401Y-141733253D01*
X184285223Y-141716777D01*
X184268747Y-141698599D01*
X184254132Y-141678893D01*
X184241520Y-141657850D01*
X184231030Y-141635671D01*
X184222765Y-141612572D01*
X184216804Y-141588773D01*
X184213204Y-141564505D01*
X184212000Y-141540001D01*
X184212000Y-140889999D01*
X184213204Y-140865495D01*
X184216804Y-140841227D01*
X184222765Y-140817428D01*
X184231030Y-140794329D01*
X184241520Y-140772150D01*
X184254132Y-140751107D01*
X184268747Y-140731401D01*
X184285223Y-140713223D01*
X184303401Y-140696747D01*
X184323107Y-140682132D01*
X184344150Y-140669520D01*
X184366329Y-140659030D01*
X184389428Y-140650765D01*
X184413227Y-140644804D01*
X184437495Y-140641204D01*
X184461999Y-140640000D01*
X185362001Y-140640000D01*
X185386505Y-140641204D01*
X185386505Y-140641204D01*
G37*
D11*
X184912000Y-141215000D03*
D10*
G36*
X185386505Y-142691204D02*
G01*
X185410773Y-142694804D01*
X185434572Y-142700765D01*
X185457671Y-142709030D01*
X185479850Y-142719520D01*
X185500893Y-142732132D01*
X185520599Y-142746747D01*
X185538777Y-142763223D01*
X185555253Y-142781401D01*
X185569868Y-142801107D01*
X185582480Y-142822150D01*
X185592970Y-142844329D01*
X185601235Y-142867428D01*
X185607196Y-142891227D01*
X185610796Y-142915495D01*
X185612000Y-142939999D01*
X185612000Y-143590001D01*
X185610796Y-143614505D01*
X185607196Y-143638773D01*
X185601235Y-143662572D01*
X185592970Y-143685671D01*
X185582480Y-143707850D01*
X185569868Y-143728893D01*
X185555253Y-143748599D01*
X185538777Y-143766777D01*
X185520599Y-143783253D01*
X185500893Y-143797868D01*
X185479850Y-143810480D01*
X185457671Y-143820970D01*
X185434572Y-143829235D01*
X185410773Y-143835196D01*
X185386505Y-143838796D01*
X185362001Y-143840000D01*
X184461999Y-143840000D01*
X184437495Y-143838796D01*
X184413227Y-143835196D01*
X184389428Y-143829235D01*
X184366329Y-143820970D01*
X184344150Y-143810480D01*
X184323107Y-143797868D01*
X184303401Y-143783253D01*
X184285223Y-143766777D01*
X184268747Y-143748599D01*
X184254132Y-143728893D01*
X184241520Y-143707850D01*
X184231030Y-143685671D01*
X184222765Y-143662572D01*
X184216804Y-143638773D01*
X184213204Y-143614505D01*
X184212000Y-143590001D01*
X184212000Y-142939999D01*
X184213204Y-142915495D01*
X184216804Y-142891227D01*
X184222765Y-142867428D01*
X184231030Y-142844329D01*
X184241520Y-142822150D01*
X184254132Y-142801107D01*
X184268747Y-142781401D01*
X184285223Y-142763223D01*
X184303401Y-142746747D01*
X184323107Y-142732132D01*
X184344150Y-142719520D01*
X184366329Y-142709030D01*
X184389428Y-142700765D01*
X184413227Y-142694804D01*
X184437495Y-142691204D01*
X184461999Y-142690000D01*
X185362001Y-142690000D01*
X185386505Y-142691204D01*
X185386505Y-142691204D01*
G37*
D11*
X184912000Y-143265000D03*
%TD*%
D10*
%TO.C,R1*%
G36*
X185386505Y-144714204D02*
G01*
X185410773Y-144717804D01*
X185434572Y-144723765D01*
X185457671Y-144732030D01*
X185479850Y-144742520D01*
X185500893Y-144755132D01*
X185520599Y-144769747D01*
X185538777Y-144786223D01*
X185555253Y-144804401D01*
X185569868Y-144824107D01*
X185582480Y-144845150D01*
X185592970Y-144867329D01*
X185601235Y-144890428D01*
X185607196Y-144914227D01*
X185610796Y-144938495D01*
X185612000Y-144962999D01*
X185612000Y-145613001D01*
X185610796Y-145637505D01*
X185607196Y-145661773D01*
X185601235Y-145685572D01*
X185592970Y-145708671D01*
X185582480Y-145730850D01*
X185569868Y-145751893D01*
X185555253Y-145771599D01*
X185538777Y-145789777D01*
X185520599Y-145806253D01*
X185500893Y-145820868D01*
X185479850Y-145833480D01*
X185457671Y-145843970D01*
X185434572Y-145852235D01*
X185410773Y-145858196D01*
X185386505Y-145861796D01*
X185362001Y-145863000D01*
X184461999Y-145863000D01*
X184437495Y-145861796D01*
X184413227Y-145858196D01*
X184389428Y-145852235D01*
X184366329Y-145843970D01*
X184344150Y-145833480D01*
X184323107Y-145820868D01*
X184303401Y-145806253D01*
X184285223Y-145789777D01*
X184268747Y-145771599D01*
X184254132Y-145751893D01*
X184241520Y-145730850D01*
X184231030Y-145708671D01*
X184222765Y-145685572D01*
X184216804Y-145661773D01*
X184213204Y-145637505D01*
X184212000Y-145613001D01*
X184212000Y-144962999D01*
X184213204Y-144938495D01*
X184216804Y-144914227D01*
X184222765Y-144890428D01*
X184231030Y-144867329D01*
X184241520Y-144845150D01*
X184254132Y-144824107D01*
X184268747Y-144804401D01*
X184285223Y-144786223D01*
X184303401Y-144769747D01*
X184323107Y-144755132D01*
X184344150Y-144742520D01*
X184366329Y-144732030D01*
X184389428Y-144723765D01*
X184413227Y-144717804D01*
X184437495Y-144714204D01*
X184461999Y-144713000D01*
X185362001Y-144713000D01*
X185386505Y-144714204D01*
X185386505Y-144714204D01*
G37*
D11*
X184912000Y-145288000D03*
D10*
G36*
X185386505Y-146764204D02*
G01*
X185410773Y-146767804D01*
X185434572Y-146773765D01*
X185457671Y-146782030D01*
X185479850Y-146792520D01*
X185500893Y-146805132D01*
X185520599Y-146819747D01*
X185538777Y-146836223D01*
X185555253Y-146854401D01*
X185569868Y-146874107D01*
X185582480Y-146895150D01*
X185592970Y-146917329D01*
X185601235Y-146940428D01*
X185607196Y-146964227D01*
X185610796Y-146988495D01*
X185612000Y-147012999D01*
X185612000Y-147663001D01*
X185610796Y-147687505D01*
X185607196Y-147711773D01*
X185601235Y-147735572D01*
X185592970Y-147758671D01*
X185582480Y-147780850D01*
X185569868Y-147801893D01*
X185555253Y-147821599D01*
X185538777Y-147839777D01*
X185520599Y-147856253D01*
X185500893Y-147870868D01*
X185479850Y-147883480D01*
X185457671Y-147893970D01*
X185434572Y-147902235D01*
X185410773Y-147908196D01*
X185386505Y-147911796D01*
X185362001Y-147913000D01*
X184461999Y-147913000D01*
X184437495Y-147911796D01*
X184413227Y-147908196D01*
X184389428Y-147902235D01*
X184366329Y-147893970D01*
X184344150Y-147883480D01*
X184323107Y-147870868D01*
X184303401Y-147856253D01*
X184285223Y-147839777D01*
X184268747Y-147821599D01*
X184254132Y-147801893D01*
X184241520Y-147780850D01*
X184231030Y-147758671D01*
X184222765Y-147735572D01*
X184216804Y-147711773D01*
X184213204Y-147687505D01*
X184212000Y-147663001D01*
X184212000Y-147012999D01*
X184213204Y-146988495D01*
X184216804Y-146964227D01*
X184222765Y-146940428D01*
X184231030Y-146917329D01*
X184241520Y-146895150D01*
X184254132Y-146874107D01*
X184268747Y-146854401D01*
X184285223Y-146836223D01*
X184303401Y-146819747D01*
X184323107Y-146805132D01*
X184344150Y-146792520D01*
X184366329Y-146782030D01*
X184389428Y-146773765D01*
X184413227Y-146767804D01*
X184437495Y-146764204D01*
X184461999Y-146763000D01*
X185362001Y-146763000D01*
X185386505Y-146764204D01*
X185386505Y-146764204D01*
G37*
D11*
X184912000Y-147338000D03*
%TD*%
D10*
%TO.C,C4*%
G36*
X220839505Y-138239204D02*
G01*
X220863773Y-138242804D01*
X220887572Y-138248765D01*
X220910671Y-138257030D01*
X220932850Y-138267520D01*
X220953893Y-138280132D01*
X220973599Y-138294747D01*
X220991777Y-138311223D01*
X221008253Y-138329401D01*
X221022868Y-138349107D01*
X221035480Y-138370150D01*
X221045970Y-138392329D01*
X221054235Y-138415428D01*
X221060196Y-138439227D01*
X221063796Y-138463495D01*
X221065000Y-138487999D01*
X221065000Y-139388001D01*
X221063796Y-139412505D01*
X221060196Y-139436773D01*
X221054235Y-139460572D01*
X221045970Y-139483671D01*
X221035480Y-139505850D01*
X221022868Y-139526893D01*
X221008253Y-139546599D01*
X220991777Y-139564777D01*
X220973599Y-139581253D01*
X220953893Y-139595868D01*
X220932850Y-139608480D01*
X220910671Y-139618970D01*
X220887572Y-139627235D01*
X220863773Y-139633196D01*
X220839505Y-139636796D01*
X220815001Y-139638000D01*
X220164999Y-139638000D01*
X220140495Y-139636796D01*
X220116227Y-139633196D01*
X220092428Y-139627235D01*
X220069329Y-139618970D01*
X220047150Y-139608480D01*
X220026107Y-139595868D01*
X220006401Y-139581253D01*
X219988223Y-139564777D01*
X219971747Y-139546599D01*
X219957132Y-139526893D01*
X219944520Y-139505850D01*
X219934030Y-139483671D01*
X219925765Y-139460572D01*
X219919804Y-139436773D01*
X219916204Y-139412505D01*
X219915000Y-139388001D01*
X219915000Y-138487999D01*
X219916204Y-138463495D01*
X219919804Y-138439227D01*
X219925765Y-138415428D01*
X219934030Y-138392329D01*
X219944520Y-138370150D01*
X219957132Y-138349107D01*
X219971747Y-138329401D01*
X219988223Y-138311223D01*
X220006401Y-138294747D01*
X220026107Y-138280132D01*
X220047150Y-138267520D01*
X220069329Y-138257030D01*
X220092428Y-138248765D01*
X220116227Y-138242804D01*
X220140495Y-138239204D01*
X220164999Y-138238000D01*
X220815001Y-138238000D01*
X220839505Y-138239204D01*
X220839505Y-138239204D01*
G37*
D11*
X220490000Y-138938000D03*
D10*
G36*
X218789505Y-138239204D02*
G01*
X218813773Y-138242804D01*
X218837572Y-138248765D01*
X218860671Y-138257030D01*
X218882850Y-138267520D01*
X218903893Y-138280132D01*
X218923599Y-138294747D01*
X218941777Y-138311223D01*
X218958253Y-138329401D01*
X218972868Y-138349107D01*
X218985480Y-138370150D01*
X218995970Y-138392329D01*
X219004235Y-138415428D01*
X219010196Y-138439227D01*
X219013796Y-138463495D01*
X219015000Y-138487999D01*
X219015000Y-139388001D01*
X219013796Y-139412505D01*
X219010196Y-139436773D01*
X219004235Y-139460572D01*
X218995970Y-139483671D01*
X218985480Y-139505850D01*
X218972868Y-139526893D01*
X218958253Y-139546599D01*
X218941777Y-139564777D01*
X218923599Y-139581253D01*
X218903893Y-139595868D01*
X218882850Y-139608480D01*
X218860671Y-139618970D01*
X218837572Y-139627235D01*
X218813773Y-139633196D01*
X218789505Y-139636796D01*
X218765001Y-139638000D01*
X218114999Y-139638000D01*
X218090495Y-139636796D01*
X218066227Y-139633196D01*
X218042428Y-139627235D01*
X218019329Y-139618970D01*
X217997150Y-139608480D01*
X217976107Y-139595868D01*
X217956401Y-139581253D01*
X217938223Y-139564777D01*
X217921747Y-139546599D01*
X217907132Y-139526893D01*
X217894520Y-139505850D01*
X217884030Y-139483671D01*
X217875765Y-139460572D01*
X217869804Y-139436773D01*
X217866204Y-139412505D01*
X217865000Y-139388001D01*
X217865000Y-138487999D01*
X217866204Y-138463495D01*
X217869804Y-138439227D01*
X217875765Y-138415428D01*
X217884030Y-138392329D01*
X217894520Y-138370150D01*
X217907132Y-138349107D01*
X217921747Y-138329401D01*
X217938223Y-138311223D01*
X217956401Y-138294747D01*
X217976107Y-138280132D01*
X217997150Y-138267520D01*
X218019329Y-138257030D01*
X218042428Y-138248765D01*
X218066227Y-138242804D01*
X218090495Y-138239204D01*
X218114999Y-138238000D01*
X218765001Y-138238000D01*
X218789505Y-138239204D01*
X218789505Y-138239204D01*
G37*
D11*
X218440000Y-138938000D03*
%TD*%
D10*
%TO.C,C3*%
G36*
X207123505Y-137985204D02*
G01*
X207147773Y-137988804D01*
X207171572Y-137994765D01*
X207194671Y-138003030D01*
X207216850Y-138013520D01*
X207237893Y-138026132D01*
X207257599Y-138040747D01*
X207275777Y-138057223D01*
X207292253Y-138075401D01*
X207306868Y-138095107D01*
X207319480Y-138116150D01*
X207329970Y-138138329D01*
X207338235Y-138161428D01*
X207344196Y-138185227D01*
X207347796Y-138209495D01*
X207349000Y-138233999D01*
X207349000Y-139134001D01*
X207347796Y-139158505D01*
X207344196Y-139182773D01*
X207338235Y-139206572D01*
X207329970Y-139229671D01*
X207319480Y-139251850D01*
X207306868Y-139272893D01*
X207292253Y-139292599D01*
X207275777Y-139310777D01*
X207257599Y-139327253D01*
X207237893Y-139341868D01*
X207216850Y-139354480D01*
X207194671Y-139364970D01*
X207171572Y-139373235D01*
X207147773Y-139379196D01*
X207123505Y-139382796D01*
X207099001Y-139384000D01*
X206448999Y-139384000D01*
X206424495Y-139382796D01*
X206400227Y-139379196D01*
X206376428Y-139373235D01*
X206353329Y-139364970D01*
X206331150Y-139354480D01*
X206310107Y-139341868D01*
X206290401Y-139327253D01*
X206272223Y-139310777D01*
X206255747Y-139292599D01*
X206241132Y-139272893D01*
X206228520Y-139251850D01*
X206218030Y-139229671D01*
X206209765Y-139206572D01*
X206203804Y-139182773D01*
X206200204Y-139158505D01*
X206199000Y-139134001D01*
X206199000Y-138233999D01*
X206200204Y-138209495D01*
X206203804Y-138185227D01*
X206209765Y-138161428D01*
X206218030Y-138138329D01*
X206228520Y-138116150D01*
X206241132Y-138095107D01*
X206255747Y-138075401D01*
X206272223Y-138057223D01*
X206290401Y-138040747D01*
X206310107Y-138026132D01*
X206331150Y-138013520D01*
X206353329Y-138003030D01*
X206376428Y-137994765D01*
X206400227Y-137988804D01*
X206424495Y-137985204D01*
X206448999Y-137984000D01*
X207099001Y-137984000D01*
X207123505Y-137985204D01*
X207123505Y-137985204D01*
G37*
D11*
X206774000Y-138684000D03*
D10*
G36*
X205073505Y-137985204D02*
G01*
X205097773Y-137988804D01*
X205121572Y-137994765D01*
X205144671Y-138003030D01*
X205166850Y-138013520D01*
X205187893Y-138026132D01*
X205207599Y-138040747D01*
X205225777Y-138057223D01*
X205242253Y-138075401D01*
X205256868Y-138095107D01*
X205269480Y-138116150D01*
X205279970Y-138138329D01*
X205288235Y-138161428D01*
X205294196Y-138185227D01*
X205297796Y-138209495D01*
X205299000Y-138233999D01*
X205299000Y-139134001D01*
X205297796Y-139158505D01*
X205294196Y-139182773D01*
X205288235Y-139206572D01*
X205279970Y-139229671D01*
X205269480Y-139251850D01*
X205256868Y-139272893D01*
X205242253Y-139292599D01*
X205225777Y-139310777D01*
X205207599Y-139327253D01*
X205187893Y-139341868D01*
X205166850Y-139354480D01*
X205144671Y-139364970D01*
X205121572Y-139373235D01*
X205097773Y-139379196D01*
X205073505Y-139382796D01*
X205049001Y-139384000D01*
X204398999Y-139384000D01*
X204374495Y-139382796D01*
X204350227Y-139379196D01*
X204326428Y-139373235D01*
X204303329Y-139364970D01*
X204281150Y-139354480D01*
X204260107Y-139341868D01*
X204240401Y-139327253D01*
X204222223Y-139310777D01*
X204205747Y-139292599D01*
X204191132Y-139272893D01*
X204178520Y-139251850D01*
X204168030Y-139229671D01*
X204159765Y-139206572D01*
X204153804Y-139182773D01*
X204150204Y-139158505D01*
X204149000Y-139134001D01*
X204149000Y-138233999D01*
X204150204Y-138209495D01*
X204153804Y-138185227D01*
X204159765Y-138161428D01*
X204168030Y-138138329D01*
X204178520Y-138116150D01*
X204191132Y-138095107D01*
X204205747Y-138075401D01*
X204222223Y-138057223D01*
X204240401Y-138040747D01*
X204260107Y-138026132D01*
X204281150Y-138013520D01*
X204303329Y-138003030D01*
X204326428Y-137994765D01*
X204350227Y-137988804D01*
X204374495Y-137985204D01*
X204398999Y-137984000D01*
X205049001Y-137984000D01*
X205073505Y-137985204D01*
X205073505Y-137985204D01*
G37*
D11*
X204724000Y-138684000D03*
%TD*%
D10*
%TO.C,C2*%
G36*
X194677505Y-138239204D02*
G01*
X194701773Y-138242804D01*
X194725572Y-138248765D01*
X194748671Y-138257030D01*
X194770850Y-138267520D01*
X194791893Y-138280132D01*
X194811599Y-138294747D01*
X194829777Y-138311223D01*
X194846253Y-138329401D01*
X194860868Y-138349107D01*
X194873480Y-138370150D01*
X194883970Y-138392329D01*
X194892235Y-138415428D01*
X194898196Y-138439227D01*
X194901796Y-138463495D01*
X194903000Y-138487999D01*
X194903000Y-139388001D01*
X194901796Y-139412505D01*
X194898196Y-139436773D01*
X194892235Y-139460572D01*
X194883970Y-139483671D01*
X194873480Y-139505850D01*
X194860868Y-139526893D01*
X194846253Y-139546599D01*
X194829777Y-139564777D01*
X194811599Y-139581253D01*
X194791893Y-139595868D01*
X194770850Y-139608480D01*
X194748671Y-139618970D01*
X194725572Y-139627235D01*
X194701773Y-139633196D01*
X194677505Y-139636796D01*
X194653001Y-139638000D01*
X194002999Y-139638000D01*
X193978495Y-139636796D01*
X193954227Y-139633196D01*
X193930428Y-139627235D01*
X193907329Y-139618970D01*
X193885150Y-139608480D01*
X193864107Y-139595868D01*
X193844401Y-139581253D01*
X193826223Y-139564777D01*
X193809747Y-139546599D01*
X193795132Y-139526893D01*
X193782520Y-139505850D01*
X193772030Y-139483671D01*
X193763765Y-139460572D01*
X193757804Y-139436773D01*
X193754204Y-139412505D01*
X193753000Y-139388001D01*
X193753000Y-138487999D01*
X193754204Y-138463495D01*
X193757804Y-138439227D01*
X193763765Y-138415428D01*
X193772030Y-138392329D01*
X193782520Y-138370150D01*
X193795132Y-138349107D01*
X193809747Y-138329401D01*
X193826223Y-138311223D01*
X193844401Y-138294747D01*
X193864107Y-138280132D01*
X193885150Y-138267520D01*
X193907329Y-138257030D01*
X193930428Y-138248765D01*
X193954227Y-138242804D01*
X193978495Y-138239204D01*
X194002999Y-138238000D01*
X194653001Y-138238000D01*
X194677505Y-138239204D01*
X194677505Y-138239204D01*
G37*
D11*
X194328000Y-138938000D03*
D10*
G36*
X192627505Y-138239204D02*
G01*
X192651773Y-138242804D01*
X192675572Y-138248765D01*
X192698671Y-138257030D01*
X192720850Y-138267520D01*
X192741893Y-138280132D01*
X192761599Y-138294747D01*
X192779777Y-138311223D01*
X192796253Y-138329401D01*
X192810868Y-138349107D01*
X192823480Y-138370150D01*
X192833970Y-138392329D01*
X192842235Y-138415428D01*
X192848196Y-138439227D01*
X192851796Y-138463495D01*
X192853000Y-138487999D01*
X192853000Y-139388001D01*
X192851796Y-139412505D01*
X192848196Y-139436773D01*
X192842235Y-139460572D01*
X192833970Y-139483671D01*
X192823480Y-139505850D01*
X192810868Y-139526893D01*
X192796253Y-139546599D01*
X192779777Y-139564777D01*
X192761599Y-139581253D01*
X192741893Y-139595868D01*
X192720850Y-139608480D01*
X192698671Y-139618970D01*
X192675572Y-139627235D01*
X192651773Y-139633196D01*
X192627505Y-139636796D01*
X192603001Y-139638000D01*
X191952999Y-139638000D01*
X191928495Y-139636796D01*
X191904227Y-139633196D01*
X191880428Y-139627235D01*
X191857329Y-139618970D01*
X191835150Y-139608480D01*
X191814107Y-139595868D01*
X191794401Y-139581253D01*
X191776223Y-139564777D01*
X191759747Y-139546599D01*
X191745132Y-139526893D01*
X191732520Y-139505850D01*
X191722030Y-139483671D01*
X191713765Y-139460572D01*
X191707804Y-139436773D01*
X191704204Y-139412505D01*
X191703000Y-139388001D01*
X191703000Y-138487999D01*
X191704204Y-138463495D01*
X191707804Y-138439227D01*
X191713765Y-138415428D01*
X191722030Y-138392329D01*
X191732520Y-138370150D01*
X191745132Y-138349107D01*
X191759747Y-138329401D01*
X191776223Y-138311223D01*
X191794401Y-138294747D01*
X191814107Y-138280132D01*
X191835150Y-138267520D01*
X191857329Y-138257030D01*
X191880428Y-138248765D01*
X191904227Y-138242804D01*
X191928495Y-138239204D01*
X191952999Y-138238000D01*
X192603001Y-138238000D01*
X192627505Y-138239204D01*
X192627505Y-138239204D01*
G37*
D11*
X192278000Y-138938000D03*
%TD*%
M02*
