%TF.GenerationSoftware,KiCad,Pcbnew,(5.1.4)-1*%
%TF.CreationDate,2020-10-02T23:36:47+08:00*%
%TF.ProjectId,odometer_project,6f646f6d-6574-4657-925f-70726f6a6563,rev?*%
%TF.SameCoordinates,Original*%
%TF.FileFunction,Soldermask,Top*%
%TF.FilePolarity,Negative*%
%FSLAX46Y46*%
G04 Gerber Fmt 4.6, Leading zero omitted, Abs format (unit mm)*
G04 Created by KiCad (PCBNEW (5.1.4)-1) date 2020-10-02 23:36:47*
%MOMM*%
%LPD*%
G04 APERTURE LIST*
%ADD10C,0.900000*%
%ADD11C,6.100000*%
%ADD12C,3.100000*%
%ADD13O,1.900000X2.700000*%
%ADD14R,1.900000X2.700000*%
%ADD15C,0.100000*%
%ADD16C,1.250000*%
%ADD17C,2.100000*%
%ADD18O,1.700000X2.500000*%
%ADD19R,1.700000X2.500000*%
%ADD20O,1.800000X1.800000*%
%ADD21R,1.800000X1.800000*%
%ADD22O,1.700000X1.700000*%
%ADD23R,1.700000X1.700000*%
G04 APERTURE END LIST*
D10*
%TO.C,REF\002A\002A*%
X246192990Y-101025010D03*
X244602000Y-100366000D03*
X243011010Y-101025010D03*
X242352000Y-102616000D03*
X243011010Y-104206990D03*
X244602000Y-104866000D03*
X246192990Y-104206990D03*
X246852000Y-102616000D03*
D11*
X244602000Y-102616000D03*
%TD*%
D10*
%TO.C,REF\002A\002A*%
X240604990Y-143189010D03*
X239014000Y-142530000D03*
X237423010Y-143189010D03*
X236764000Y-144780000D03*
X237423010Y-146370990D03*
X239014000Y-147030000D03*
X240604990Y-146370990D03*
X241264000Y-144780000D03*
D11*
X239014000Y-144780000D03*
%TD*%
D10*
%TO.C,REF\002A\002A*%
X187264990Y-131759010D03*
X185674000Y-131100000D03*
X184083010Y-131759010D03*
X183424000Y-133350000D03*
X184083010Y-134940990D03*
X185674000Y-135600000D03*
X187264990Y-134940990D03*
X187924000Y-133350000D03*
D11*
X185674000Y-133350000D03*
%TD*%
D10*
%TO.C,REF\002A\002A*%
X200726990Y-96453010D03*
X199136000Y-95794000D03*
X197545010Y-96453010D03*
X196886000Y-98044000D03*
X197545010Y-99634990D03*
X199136000Y-100294000D03*
X200726990Y-99634990D03*
X201386000Y-98044000D03*
D11*
X199136000Y-98044000D03*
%TD*%
D12*
%TO.C,DS1*%
X190850000Y-118110000D03*
X190850520Y-87109300D03*
X265849100Y-87109300D03*
X265849100Y-118110000D03*
D13*
X222250000Y-118110000D03*
X224790000Y-118110000D03*
X227330000Y-118110000D03*
X229870000Y-118110000D03*
X232410000Y-118110000D03*
X234950000Y-118110000D03*
X237490000Y-118110000D03*
X240030000Y-118110000D03*
X242570000Y-118110000D03*
X245110000Y-118110000D03*
X247650000Y-118110000D03*
X250190000Y-118110000D03*
X252730000Y-118110000D03*
X255270000Y-118110000D03*
X257810000Y-118110000D03*
D14*
X260350000Y-118110000D03*
%TD*%
D15*
%TO.C,R10*%
G36*
X218903897Y-150934308D02*
G01*
X218930275Y-150938221D01*
X218956143Y-150944701D01*
X218981252Y-150953685D01*
X219005358Y-150965086D01*
X219028232Y-150978796D01*
X219049651Y-150994682D01*
X219069410Y-151012590D01*
X219087318Y-151032349D01*
X219103204Y-151053768D01*
X219116914Y-151076642D01*
X219128315Y-151100748D01*
X219137299Y-151125857D01*
X219143779Y-151151725D01*
X219147692Y-151178103D01*
X219149000Y-151204738D01*
X219149000Y-152161262D01*
X219147692Y-152187897D01*
X219143779Y-152214275D01*
X219137299Y-152240143D01*
X219128315Y-152265252D01*
X219116914Y-152289358D01*
X219103204Y-152312232D01*
X219087318Y-152333651D01*
X219069410Y-152353410D01*
X219049651Y-152371318D01*
X219028232Y-152387204D01*
X219005358Y-152400914D01*
X218981252Y-152412315D01*
X218956143Y-152421299D01*
X218930275Y-152427779D01*
X218903897Y-152431692D01*
X218877262Y-152433000D01*
X218170738Y-152433000D01*
X218144103Y-152431692D01*
X218117725Y-152427779D01*
X218091857Y-152421299D01*
X218066748Y-152412315D01*
X218042642Y-152400914D01*
X218019768Y-152387204D01*
X217998349Y-152371318D01*
X217978590Y-152353410D01*
X217960682Y-152333651D01*
X217944796Y-152312232D01*
X217931086Y-152289358D01*
X217919685Y-152265252D01*
X217910701Y-152240143D01*
X217904221Y-152214275D01*
X217900308Y-152187897D01*
X217899000Y-152161262D01*
X217899000Y-151204738D01*
X217900308Y-151178103D01*
X217904221Y-151151725D01*
X217910701Y-151125857D01*
X217919685Y-151100748D01*
X217931086Y-151076642D01*
X217944796Y-151053768D01*
X217960682Y-151032349D01*
X217978590Y-151012590D01*
X217998349Y-150994682D01*
X218019768Y-150978796D01*
X218042642Y-150965086D01*
X218066748Y-150953685D01*
X218091857Y-150944701D01*
X218117725Y-150938221D01*
X218144103Y-150934308D01*
X218170738Y-150933000D01*
X218877262Y-150933000D01*
X218903897Y-150934308D01*
X218903897Y-150934308D01*
G37*
D16*
X218524000Y-151683000D03*
D15*
G36*
X220953897Y-150934308D02*
G01*
X220980275Y-150938221D01*
X221006143Y-150944701D01*
X221031252Y-150953685D01*
X221055358Y-150965086D01*
X221078232Y-150978796D01*
X221099651Y-150994682D01*
X221119410Y-151012590D01*
X221137318Y-151032349D01*
X221153204Y-151053768D01*
X221166914Y-151076642D01*
X221178315Y-151100748D01*
X221187299Y-151125857D01*
X221193779Y-151151725D01*
X221197692Y-151178103D01*
X221199000Y-151204738D01*
X221199000Y-152161262D01*
X221197692Y-152187897D01*
X221193779Y-152214275D01*
X221187299Y-152240143D01*
X221178315Y-152265252D01*
X221166914Y-152289358D01*
X221153204Y-152312232D01*
X221137318Y-152333651D01*
X221119410Y-152353410D01*
X221099651Y-152371318D01*
X221078232Y-152387204D01*
X221055358Y-152400914D01*
X221031252Y-152412315D01*
X221006143Y-152421299D01*
X220980275Y-152427779D01*
X220953897Y-152431692D01*
X220927262Y-152433000D01*
X220220738Y-152433000D01*
X220194103Y-152431692D01*
X220167725Y-152427779D01*
X220141857Y-152421299D01*
X220116748Y-152412315D01*
X220092642Y-152400914D01*
X220069768Y-152387204D01*
X220048349Y-152371318D01*
X220028590Y-152353410D01*
X220010682Y-152333651D01*
X219994796Y-152312232D01*
X219981086Y-152289358D01*
X219969685Y-152265252D01*
X219960701Y-152240143D01*
X219954221Y-152214275D01*
X219950308Y-152187897D01*
X219949000Y-152161262D01*
X219949000Y-151204738D01*
X219950308Y-151178103D01*
X219954221Y-151151725D01*
X219960701Y-151125857D01*
X219969685Y-151100748D01*
X219981086Y-151076642D01*
X219994796Y-151053768D01*
X220010682Y-151032349D01*
X220028590Y-151012590D01*
X220048349Y-150994682D01*
X220069768Y-150978796D01*
X220092642Y-150965086D01*
X220116748Y-150953685D01*
X220141857Y-150944701D01*
X220167725Y-150938221D01*
X220194103Y-150934308D01*
X220220738Y-150933000D01*
X220927262Y-150933000D01*
X220953897Y-150934308D01*
X220953897Y-150934308D01*
G37*
D16*
X220574000Y-151683000D03*
%TD*%
D15*
%TO.C,R9*%
G36*
X201111897Y-151178308D02*
G01*
X201138275Y-151182221D01*
X201164143Y-151188701D01*
X201189252Y-151197685D01*
X201213358Y-151209086D01*
X201236232Y-151222796D01*
X201257651Y-151238682D01*
X201277410Y-151256590D01*
X201295318Y-151276349D01*
X201311204Y-151297768D01*
X201324914Y-151320642D01*
X201336315Y-151344748D01*
X201345299Y-151369857D01*
X201351779Y-151395725D01*
X201355692Y-151422103D01*
X201357000Y-151448738D01*
X201357000Y-152405262D01*
X201355692Y-152431897D01*
X201351779Y-152458275D01*
X201345299Y-152484143D01*
X201336315Y-152509252D01*
X201324914Y-152533358D01*
X201311204Y-152556232D01*
X201295318Y-152577651D01*
X201277410Y-152597410D01*
X201257651Y-152615318D01*
X201236232Y-152631204D01*
X201213358Y-152644914D01*
X201189252Y-152656315D01*
X201164143Y-152665299D01*
X201138275Y-152671779D01*
X201111897Y-152675692D01*
X201085262Y-152677000D01*
X200378738Y-152677000D01*
X200352103Y-152675692D01*
X200325725Y-152671779D01*
X200299857Y-152665299D01*
X200274748Y-152656315D01*
X200250642Y-152644914D01*
X200227768Y-152631204D01*
X200206349Y-152615318D01*
X200186590Y-152597410D01*
X200168682Y-152577651D01*
X200152796Y-152556232D01*
X200139086Y-152533358D01*
X200127685Y-152509252D01*
X200118701Y-152484143D01*
X200112221Y-152458275D01*
X200108308Y-152431897D01*
X200107000Y-152405262D01*
X200107000Y-151448738D01*
X200108308Y-151422103D01*
X200112221Y-151395725D01*
X200118701Y-151369857D01*
X200127685Y-151344748D01*
X200139086Y-151320642D01*
X200152796Y-151297768D01*
X200168682Y-151276349D01*
X200186590Y-151256590D01*
X200206349Y-151238682D01*
X200227768Y-151222796D01*
X200250642Y-151209086D01*
X200274748Y-151197685D01*
X200299857Y-151188701D01*
X200325725Y-151182221D01*
X200352103Y-151178308D01*
X200378738Y-151177000D01*
X201085262Y-151177000D01*
X201111897Y-151178308D01*
X201111897Y-151178308D01*
G37*
D16*
X200732000Y-151927000D03*
D15*
G36*
X203161897Y-151178308D02*
G01*
X203188275Y-151182221D01*
X203214143Y-151188701D01*
X203239252Y-151197685D01*
X203263358Y-151209086D01*
X203286232Y-151222796D01*
X203307651Y-151238682D01*
X203327410Y-151256590D01*
X203345318Y-151276349D01*
X203361204Y-151297768D01*
X203374914Y-151320642D01*
X203386315Y-151344748D01*
X203395299Y-151369857D01*
X203401779Y-151395725D01*
X203405692Y-151422103D01*
X203407000Y-151448738D01*
X203407000Y-152405262D01*
X203405692Y-152431897D01*
X203401779Y-152458275D01*
X203395299Y-152484143D01*
X203386315Y-152509252D01*
X203374914Y-152533358D01*
X203361204Y-152556232D01*
X203345318Y-152577651D01*
X203327410Y-152597410D01*
X203307651Y-152615318D01*
X203286232Y-152631204D01*
X203263358Y-152644914D01*
X203239252Y-152656315D01*
X203214143Y-152665299D01*
X203188275Y-152671779D01*
X203161897Y-152675692D01*
X203135262Y-152677000D01*
X202428738Y-152677000D01*
X202402103Y-152675692D01*
X202375725Y-152671779D01*
X202349857Y-152665299D01*
X202324748Y-152656315D01*
X202300642Y-152644914D01*
X202277768Y-152631204D01*
X202256349Y-152615318D01*
X202236590Y-152597410D01*
X202218682Y-152577651D01*
X202202796Y-152556232D01*
X202189086Y-152533358D01*
X202177685Y-152509252D01*
X202168701Y-152484143D01*
X202162221Y-152458275D01*
X202158308Y-152431897D01*
X202157000Y-152405262D01*
X202157000Y-151448738D01*
X202158308Y-151422103D01*
X202162221Y-151395725D01*
X202168701Y-151369857D01*
X202177685Y-151344748D01*
X202189086Y-151320642D01*
X202202796Y-151297768D01*
X202218682Y-151276349D01*
X202236590Y-151256590D01*
X202256349Y-151238682D01*
X202277768Y-151222796D01*
X202300642Y-151209086D01*
X202324748Y-151197685D01*
X202349857Y-151188701D01*
X202375725Y-151182221D01*
X202402103Y-151178308D01*
X202428738Y-151177000D01*
X203135262Y-151177000D01*
X203161897Y-151178308D01*
X203161897Y-151178308D01*
G37*
D16*
X202782000Y-151927000D03*
%TD*%
D15*
%TO.C,R8*%
G36*
X185363897Y-151188308D02*
G01*
X185390275Y-151192221D01*
X185416143Y-151198701D01*
X185441252Y-151207685D01*
X185465358Y-151219086D01*
X185488232Y-151232796D01*
X185509651Y-151248682D01*
X185529410Y-151266590D01*
X185547318Y-151286349D01*
X185563204Y-151307768D01*
X185576914Y-151330642D01*
X185588315Y-151354748D01*
X185597299Y-151379857D01*
X185603779Y-151405725D01*
X185607692Y-151432103D01*
X185609000Y-151458738D01*
X185609000Y-152415262D01*
X185607692Y-152441897D01*
X185603779Y-152468275D01*
X185597299Y-152494143D01*
X185588315Y-152519252D01*
X185576914Y-152543358D01*
X185563204Y-152566232D01*
X185547318Y-152587651D01*
X185529410Y-152607410D01*
X185509651Y-152625318D01*
X185488232Y-152641204D01*
X185465358Y-152654914D01*
X185441252Y-152666315D01*
X185416143Y-152675299D01*
X185390275Y-152681779D01*
X185363897Y-152685692D01*
X185337262Y-152687000D01*
X184630738Y-152687000D01*
X184604103Y-152685692D01*
X184577725Y-152681779D01*
X184551857Y-152675299D01*
X184526748Y-152666315D01*
X184502642Y-152654914D01*
X184479768Y-152641204D01*
X184458349Y-152625318D01*
X184438590Y-152607410D01*
X184420682Y-152587651D01*
X184404796Y-152566232D01*
X184391086Y-152543358D01*
X184379685Y-152519252D01*
X184370701Y-152494143D01*
X184364221Y-152468275D01*
X184360308Y-152441897D01*
X184359000Y-152415262D01*
X184359000Y-151458738D01*
X184360308Y-151432103D01*
X184364221Y-151405725D01*
X184370701Y-151379857D01*
X184379685Y-151354748D01*
X184391086Y-151330642D01*
X184404796Y-151307768D01*
X184420682Y-151286349D01*
X184438590Y-151266590D01*
X184458349Y-151248682D01*
X184479768Y-151232796D01*
X184502642Y-151219086D01*
X184526748Y-151207685D01*
X184551857Y-151198701D01*
X184577725Y-151192221D01*
X184604103Y-151188308D01*
X184630738Y-151187000D01*
X185337262Y-151187000D01*
X185363897Y-151188308D01*
X185363897Y-151188308D01*
G37*
D16*
X184984000Y-151937000D03*
D15*
G36*
X187413897Y-151188308D02*
G01*
X187440275Y-151192221D01*
X187466143Y-151198701D01*
X187491252Y-151207685D01*
X187515358Y-151219086D01*
X187538232Y-151232796D01*
X187559651Y-151248682D01*
X187579410Y-151266590D01*
X187597318Y-151286349D01*
X187613204Y-151307768D01*
X187626914Y-151330642D01*
X187638315Y-151354748D01*
X187647299Y-151379857D01*
X187653779Y-151405725D01*
X187657692Y-151432103D01*
X187659000Y-151458738D01*
X187659000Y-152415262D01*
X187657692Y-152441897D01*
X187653779Y-152468275D01*
X187647299Y-152494143D01*
X187638315Y-152519252D01*
X187626914Y-152543358D01*
X187613204Y-152566232D01*
X187597318Y-152587651D01*
X187579410Y-152607410D01*
X187559651Y-152625318D01*
X187538232Y-152641204D01*
X187515358Y-152654914D01*
X187491252Y-152666315D01*
X187466143Y-152675299D01*
X187440275Y-152681779D01*
X187413897Y-152685692D01*
X187387262Y-152687000D01*
X186680738Y-152687000D01*
X186654103Y-152685692D01*
X186627725Y-152681779D01*
X186601857Y-152675299D01*
X186576748Y-152666315D01*
X186552642Y-152654914D01*
X186529768Y-152641204D01*
X186508349Y-152625318D01*
X186488590Y-152607410D01*
X186470682Y-152587651D01*
X186454796Y-152566232D01*
X186441086Y-152543358D01*
X186429685Y-152519252D01*
X186420701Y-152494143D01*
X186414221Y-152468275D01*
X186410308Y-152441897D01*
X186409000Y-152415262D01*
X186409000Y-151458738D01*
X186410308Y-151432103D01*
X186414221Y-151405725D01*
X186420701Y-151379857D01*
X186429685Y-151354748D01*
X186441086Y-151330642D01*
X186454796Y-151307768D01*
X186470682Y-151286349D01*
X186488590Y-151266590D01*
X186508349Y-151248682D01*
X186529768Y-151232796D01*
X186552642Y-151219086D01*
X186576748Y-151207685D01*
X186601857Y-151198701D01*
X186627725Y-151192221D01*
X186654103Y-151188308D01*
X186680738Y-151187000D01*
X187387262Y-151187000D01*
X187413897Y-151188308D01*
X187413897Y-151188308D01*
G37*
D16*
X187034000Y-151937000D03*
%TD*%
D15*
%TO.C,D3*%
G36*
X223648897Y-150889308D02*
G01*
X223675275Y-150893221D01*
X223701143Y-150899701D01*
X223726252Y-150908685D01*
X223750358Y-150920086D01*
X223773232Y-150933796D01*
X223794651Y-150949682D01*
X223814410Y-150967590D01*
X223832318Y-150987349D01*
X223848204Y-151008768D01*
X223861914Y-151031642D01*
X223873315Y-151055748D01*
X223882299Y-151080857D01*
X223888779Y-151106725D01*
X223892692Y-151133103D01*
X223894000Y-151159738D01*
X223894000Y-152116262D01*
X223892692Y-152142897D01*
X223888779Y-152169275D01*
X223882299Y-152195143D01*
X223873315Y-152220252D01*
X223861914Y-152244358D01*
X223848204Y-152267232D01*
X223832318Y-152288651D01*
X223814410Y-152308410D01*
X223794651Y-152326318D01*
X223773232Y-152342204D01*
X223750358Y-152355914D01*
X223726252Y-152367315D01*
X223701143Y-152376299D01*
X223675275Y-152382779D01*
X223648897Y-152386692D01*
X223622262Y-152388000D01*
X222915738Y-152388000D01*
X222889103Y-152386692D01*
X222862725Y-152382779D01*
X222836857Y-152376299D01*
X222811748Y-152367315D01*
X222787642Y-152355914D01*
X222764768Y-152342204D01*
X222743349Y-152326318D01*
X222723590Y-152308410D01*
X222705682Y-152288651D01*
X222689796Y-152267232D01*
X222676086Y-152244358D01*
X222664685Y-152220252D01*
X222655701Y-152195143D01*
X222649221Y-152169275D01*
X222645308Y-152142897D01*
X222644000Y-152116262D01*
X222644000Y-151159738D01*
X222645308Y-151133103D01*
X222649221Y-151106725D01*
X222655701Y-151080857D01*
X222664685Y-151055748D01*
X222676086Y-151031642D01*
X222689796Y-151008768D01*
X222705682Y-150987349D01*
X222723590Y-150967590D01*
X222743349Y-150949682D01*
X222764768Y-150933796D01*
X222787642Y-150920086D01*
X222811748Y-150908685D01*
X222836857Y-150899701D01*
X222862725Y-150893221D01*
X222889103Y-150889308D01*
X222915738Y-150888000D01*
X223622262Y-150888000D01*
X223648897Y-150889308D01*
X223648897Y-150889308D01*
G37*
D16*
X223269000Y-151638000D03*
D15*
G36*
X225698897Y-150889308D02*
G01*
X225725275Y-150893221D01*
X225751143Y-150899701D01*
X225776252Y-150908685D01*
X225800358Y-150920086D01*
X225823232Y-150933796D01*
X225844651Y-150949682D01*
X225864410Y-150967590D01*
X225882318Y-150987349D01*
X225898204Y-151008768D01*
X225911914Y-151031642D01*
X225923315Y-151055748D01*
X225932299Y-151080857D01*
X225938779Y-151106725D01*
X225942692Y-151133103D01*
X225944000Y-151159738D01*
X225944000Y-152116262D01*
X225942692Y-152142897D01*
X225938779Y-152169275D01*
X225932299Y-152195143D01*
X225923315Y-152220252D01*
X225911914Y-152244358D01*
X225898204Y-152267232D01*
X225882318Y-152288651D01*
X225864410Y-152308410D01*
X225844651Y-152326318D01*
X225823232Y-152342204D01*
X225800358Y-152355914D01*
X225776252Y-152367315D01*
X225751143Y-152376299D01*
X225725275Y-152382779D01*
X225698897Y-152386692D01*
X225672262Y-152388000D01*
X224965738Y-152388000D01*
X224939103Y-152386692D01*
X224912725Y-152382779D01*
X224886857Y-152376299D01*
X224861748Y-152367315D01*
X224837642Y-152355914D01*
X224814768Y-152342204D01*
X224793349Y-152326318D01*
X224773590Y-152308410D01*
X224755682Y-152288651D01*
X224739796Y-152267232D01*
X224726086Y-152244358D01*
X224714685Y-152220252D01*
X224705701Y-152195143D01*
X224699221Y-152169275D01*
X224695308Y-152142897D01*
X224694000Y-152116262D01*
X224694000Y-151159738D01*
X224695308Y-151133103D01*
X224699221Y-151106725D01*
X224705701Y-151080857D01*
X224714685Y-151055748D01*
X224726086Y-151031642D01*
X224739796Y-151008768D01*
X224755682Y-150987349D01*
X224773590Y-150967590D01*
X224793349Y-150949682D01*
X224814768Y-150933796D01*
X224837642Y-150920086D01*
X224861748Y-150908685D01*
X224886857Y-150899701D01*
X224912725Y-150893221D01*
X224939103Y-150889308D01*
X224965738Y-150888000D01*
X225672262Y-150888000D01*
X225698897Y-150889308D01*
X225698897Y-150889308D01*
G37*
D16*
X225319000Y-151638000D03*
%TD*%
D15*
%TO.C,D2*%
G36*
X205856897Y-151133308D02*
G01*
X205883275Y-151137221D01*
X205909143Y-151143701D01*
X205934252Y-151152685D01*
X205958358Y-151164086D01*
X205981232Y-151177796D01*
X206002651Y-151193682D01*
X206022410Y-151211590D01*
X206040318Y-151231349D01*
X206056204Y-151252768D01*
X206069914Y-151275642D01*
X206081315Y-151299748D01*
X206090299Y-151324857D01*
X206096779Y-151350725D01*
X206100692Y-151377103D01*
X206102000Y-151403738D01*
X206102000Y-152360262D01*
X206100692Y-152386897D01*
X206096779Y-152413275D01*
X206090299Y-152439143D01*
X206081315Y-152464252D01*
X206069914Y-152488358D01*
X206056204Y-152511232D01*
X206040318Y-152532651D01*
X206022410Y-152552410D01*
X206002651Y-152570318D01*
X205981232Y-152586204D01*
X205958358Y-152599914D01*
X205934252Y-152611315D01*
X205909143Y-152620299D01*
X205883275Y-152626779D01*
X205856897Y-152630692D01*
X205830262Y-152632000D01*
X205123738Y-152632000D01*
X205097103Y-152630692D01*
X205070725Y-152626779D01*
X205044857Y-152620299D01*
X205019748Y-152611315D01*
X204995642Y-152599914D01*
X204972768Y-152586204D01*
X204951349Y-152570318D01*
X204931590Y-152552410D01*
X204913682Y-152532651D01*
X204897796Y-152511232D01*
X204884086Y-152488358D01*
X204872685Y-152464252D01*
X204863701Y-152439143D01*
X204857221Y-152413275D01*
X204853308Y-152386897D01*
X204852000Y-152360262D01*
X204852000Y-151403738D01*
X204853308Y-151377103D01*
X204857221Y-151350725D01*
X204863701Y-151324857D01*
X204872685Y-151299748D01*
X204884086Y-151275642D01*
X204897796Y-151252768D01*
X204913682Y-151231349D01*
X204931590Y-151211590D01*
X204951349Y-151193682D01*
X204972768Y-151177796D01*
X204995642Y-151164086D01*
X205019748Y-151152685D01*
X205044857Y-151143701D01*
X205070725Y-151137221D01*
X205097103Y-151133308D01*
X205123738Y-151132000D01*
X205830262Y-151132000D01*
X205856897Y-151133308D01*
X205856897Y-151133308D01*
G37*
D16*
X205477000Y-151882000D03*
D15*
G36*
X207906897Y-151133308D02*
G01*
X207933275Y-151137221D01*
X207959143Y-151143701D01*
X207984252Y-151152685D01*
X208008358Y-151164086D01*
X208031232Y-151177796D01*
X208052651Y-151193682D01*
X208072410Y-151211590D01*
X208090318Y-151231349D01*
X208106204Y-151252768D01*
X208119914Y-151275642D01*
X208131315Y-151299748D01*
X208140299Y-151324857D01*
X208146779Y-151350725D01*
X208150692Y-151377103D01*
X208152000Y-151403738D01*
X208152000Y-152360262D01*
X208150692Y-152386897D01*
X208146779Y-152413275D01*
X208140299Y-152439143D01*
X208131315Y-152464252D01*
X208119914Y-152488358D01*
X208106204Y-152511232D01*
X208090318Y-152532651D01*
X208072410Y-152552410D01*
X208052651Y-152570318D01*
X208031232Y-152586204D01*
X208008358Y-152599914D01*
X207984252Y-152611315D01*
X207959143Y-152620299D01*
X207933275Y-152626779D01*
X207906897Y-152630692D01*
X207880262Y-152632000D01*
X207173738Y-152632000D01*
X207147103Y-152630692D01*
X207120725Y-152626779D01*
X207094857Y-152620299D01*
X207069748Y-152611315D01*
X207045642Y-152599914D01*
X207022768Y-152586204D01*
X207001349Y-152570318D01*
X206981590Y-152552410D01*
X206963682Y-152532651D01*
X206947796Y-152511232D01*
X206934086Y-152488358D01*
X206922685Y-152464252D01*
X206913701Y-152439143D01*
X206907221Y-152413275D01*
X206903308Y-152386897D01*
X206902000Y-152360262D01*
X206902000Y-151403738D01*
X206903308Y-151377103D01*
X206907221Y-151350725D01*
X206913701Y-151324857D01*
X206922685Y-151299748D01*
X206934086Y-151275642D01*
X206947796Y-151252768D01*
X206963682Y-151231349D01*
X206981590Y-151211590D01*
X207001349Y-151193682D01*
X207022768Y-151177796D01*
X207045642Y-151164086D01*
X207069748Y-151152685D01*
X207094857Y-151143701D01*
X207120725Y-151137221D01*
X207147103Y-151133308D01*
X207173738Y-151132000D01*
X207880262Y-151132000D01*
X207906897Y-151133308D01*
X207906897Y-151133308D01*
G37*
D16*
X207527000Y-151882000D03*
%TD*%
D15*
%TO.C,D1*%
G36*
X190108897Y-151143308D02*
G01*
X190135275Y-151147221D01*
X190161143Y-151153701D01*
X190186252Y-151162685D01*
X190210358Y-151174086D01*
X190233232Y-151187796D01*
X190254651Y-151203682D01*
X190274410Y-151221590D01*
X190292318Y-151241349D01*
X190308204Y-151262768D01*
X190321914Y-151285642D01*
X190333315Y-151309748D01*
X190342299Y-151334857D01*
X190348779Y-151360725D01*
X190352692Y-151387103D01*
X190354000Y-151413738D01*
X190354000Y-152370262D01*
X190352692Y-152396897D01*
X190348779Y-152423275D01*
X190342299Y-152449143D01*
X190333315Y-152474252D01*
X190321914Y-152498358D01*
X190308204Y-152521232D01*
X190292318Y-152542651D01*
X190274410Y-152562410D01*
X190254651Y-152580318D01*
X190233232Y-152596204D01*
X190210358Y-152609914D01*
X190186252Y-152621315D01*
X190161143Y-152630299D01*
X190135275Y-152636779D01*
X190108897Y-152640692D01*
X190082262Y-152642000D01*
X189375738Y-152642000D01*
X189349103Y-152640692D01*
X189322725Y-152636779D01*
X189296857Y-152630299D01*
X189271748Y-152621315D01*
X189247642Y-152609914D01*
X189224768Y-152596204D01*
X189203349Y-152580318D01*
X189183590Y-152562410D01*
X189165682Y-152542651D01*
X189149796Y-152521232D01*
X189136086Y-152498358D01*
X189124685Y-152474252D01*
X189115701Y-152449143D01*
X189109221Y-152423275D01*
X189105308Y-152396897D01*
X189104000Y-152370262D01*
X189104000Y-151413738D01*
X189105308Y-151387103D01*
X189109221Y-151360725D01*
X189115701Y-151334857D01*
X189124685Y-151309748D01*
X189136086Y-151285642D01*
X189149796Y-151262768D01*
X189165682Y-151241349D01*
X189183590Y-151221590D01*
X189203349Y-151203682D01*
X189224768Y-151187796D01*
X189247642Y-151174086D01*
X189271748Y-151162685D01*
X189296857Y-151153701D01*
X189322725Y-151147221D01*
X189349103Y-151143308D01*
X189375738Y-151142000D01*
X190082262Y-151142000D01*
X190108897Y-151143308D01*
X190108897Y-151143308D01*
G37*
D16*
X189729000Y-151892000D03*
D15*
G36*
X192158897Y-151143308D02*
G01*
X192185275Y-151147221D01*
X192211143Y-151153701D01*
X192236252Y-151162685D01*
X192260358Y-151174086D01*
X192283232Y-151187796D01*
X192304651Y-151203682D01*
X192324410Y-151221590D01*
X192342318Y-151241349D01*
X192358204Y-151262768D01*
X192371914Y-151285642D01*
X192383315Y-151309748D01*
X192392299Y-151334857D01*
X192398779Y-151360725D01*
X192402692Y-151387103D01*
X192404000Y-151413738D01*
X192404000Y-152370262D01*
X192402692Y-152396897D01*
X192398779Y-152423275D01*
X192392299Y-152449143D01*
X192383315Y-152474252D01*
X192371914Y-152498358D01*
X192358204Y-152521232D01*
X192342318Y-152542651D01*
X192324410Y-152562410D01*
X192304651Y-152580318D01*
X192283232Y-152596204D01*
X192260358Y-152609914D01*
X192236252Y-152621315D01*
X192211143Y-152630299D01*
X192185275Y-152636779D01*
X192158897Y-152640692D01*
X192132262Y-152642000D01*
X191425738Y-152642000D01*
X191399103Y-152640692D01*
X191372725Y-152636779D01*
X191346857Y-152630299D01*
X191321748Y-152621315D01*
X191297642Y-152609914D01*
X191274768Y-152596204D01*
X191253349Y-152580318D01*
X191233590Y-152562410D01*
X191215682Y-152542651D01*
X191199796Y-152521232D01*
X191186086Y-152498358D01*
X191174685Y-152474252D01*
X191165701Y-152449143D01*
X191159221Y-152423275D01*
X191155308Y-152396897D01*
X191154000Y-152370262D01*
X191154000Y-151413738D01*
X191155308Y-151387103D01*
X191159221Y-151360725D01*
X191165701Y-151334857D01*
X191174685Y-151309748D01*
X191186086Y-151285642D01*
X191199796Y-151262768D01*
X191215682Y-151241349D01*
X191233590Y-151221590D01*
X191253349Y-151203682D01*
X191274768Y-151187796D01*
X191297642Y-151174086D01*
X191321748Y-151162685D01*
X191346857Y-151153701D01*
X191372725Y-151147221D01*
X191399103Y-151143308D01*
X191425738Y-151142000D01*
X192132262Y-151142000D01*
X192158897Y-151143308D01*
X192158897Y-151143308D01*
G37*
D16*
X191779000Y-151892000D03*
%TD*%
D17*
%TO.C,SW2*%
X203304000Y-146304000D03*
X203304000Y-141804000D03*
X209804000Y-146304000D03*
X209804000Y-141804000D03*
%TD*%
D18*
%TO.C,U1*%
X199644000Y-124714000D03*
X214884000Y-132334000D03*
X202184000Y-124714000D03*
X212344000Y-132334000D03*
X204724000Y-124714000D03*
X209804000Y-132334000D03*
X207264000Y-124714000D03*
X207264000Y-132334000D03*
X209804000Y-124714000D03*
X204724000Y-132334000D03*
X212344000Y-124714000D03*
X202184000Y-132334000D03*
X214884000Y-124714000D03*
D19*
X199644000Y-132334000D03*
%TD*%
D15*
%TO.C,R3*%
G36*
X225294897Y-122294308D02*
G01*
X225321275Y-122298221D01*
X225347143Y-122304701D01*
X225372252Y-122313685D01*
X225396358Y-122325086D01*
X225419232Y-122338796D01*
X225440651Y-122354682D01*
X225460410Y-122372590D01*
X225478318Y-122392349D01*
X225494204Y-122413768D01*
X225507914Y-122436642D01*
X225519315Y-122460748D01*
X225528299Y-122485857D01*
X225534779Y-122511725D01*
X225538692Y-122538103D01*
X225540000Y-122564738D01*
X225540000Y-123271262D01*
X225538692Y-123297897D01*
X225534779Y-123324275D01*
X225528299Y-123350143D01*
X225519315Y-123375252D01*
X225507914Y-123399358D01*
X225494204Y-123422232D01*
X225478318Y-123443651D01*
X225460410Y-123463410D01*
X225440651Y-123481318D01*
X225419232Y-123497204D01*
X225396358Y-123510914D01*
X225372252Y-123522315D01*
X225347143Y-123531299D01*
X225321275Y-123537779D01*
X225294897Y-123541692D01*
X225268262Y-123543000D01*
X224311738Y-123543000D01*
X224285103Y-123541692D01*
X224258725Y-123537779D01*
X224232857Y-123531299D01*
X224207748Y-123522315D01*
X224183642Y-123510914D01*
X224160768Y-123497204D01*
X224139349Y-123481318D01*
X224119590Y-123463410D01*
X224101682Y-123443651D01*
X224085796Y-123422232D01*
X224072086Y-123399358D01*
X224060685Y-123375252D01*
X224051701Y-123350143D01*
X224045221Y-123324275D01*
X224041308Y-123297897D01*
X224040000Y-123271262D01*
X224040000Y-122564738D01*
X224041308Y-122538103D01*
X224045221Y-122511725D01*
X224051701Y-122485857D01*
X224060685Y-122460748D01*
X224072086Y-122436642D01*
X224085796Y-122413768D01*
X224101682Y-122392349D01*
X224119590Y-122372590D01*
X224139349Y-122354682D01*
X224160768Y-122338796D01*
X224183642Y-122325086D01*
X224207748Y-122313685D01*
X224232857Y-122304701D01*
X224258725Y-122298221D01*
X224285103Y-122294308D01*
X224311738Y-122293000D01*
X225268262Y-122293000D01*
X225294897Y-122294308D01*
X225294897Y-122294308D01*
G37*
D16*
X224790000Y-122918000D03*
D15*
G36*
X225294897Y-124344308D02*
G01*
X225321275Y-124348221D01*
X225347143Y-124354701D01*
X225372252Y-124363685D01*
X225396358Y-124375086D01*
X225419232Y-124388796D01*
X225440651Y-124404682D01*
X225460410Y-124422590D01*
X225478318Y-124442349D01*
X225494204Y-124463768D01*
X225507914Y-124486642D01*
X225519315Y-124510748D01*
X225528299Y-124535857D01*
X225534779Y-124561725D01*
X225538692Y-124588103D01*
X225540000Y-124614738D01*
X225540000Y-125321262D01*
X225538692Y-125347897D01*
X225534779Y-125374275D01*
X225528299Y-125400143D01*
X225519315Y-125425252D01*
X225507914Y-125449358D01*
X225494204Y-125472232D01*
X225478318Y-125493651D01*
X225460410Y-125513410D01*
X225440651Y-125531318D01*
X225419232Y-125547204D01*
X225396358Y-125560914D01*
X225372252Y-125572315D01*
X225347143Y-125581299D01*
X225321275Y-125587779D01*
X225294897Y-125591692D01*
X225268262Y-125593000D01*
X224311738Y-125593000D01*
X224285103Y-125591692D01*
X224258725Y-125587779D01*
X224232857Y-125581299D01*
X224207748Y-125572315D01*
X224183642Y-125560914D01*
X224160768Y-125547204D01*
X224139349Y-125531318D01*
X224119590Y-125513410D01*
X224101682Y-125493651D01*
X224085796Y-125472232D01*
X224072086Y-125449358D01*
X224060685Y-125425252D01*
X224051701Y-125400143D01*
X224045221Y-125374275D01*
X224041308Y-125347897D01*
X224040000Y-125321262D01*
X224040000Y-124614738D01*
X224041308Y-124588103D01*
X224045221Y-124561725D01*
X224051701Y-124535857D01*
X224060685Y-124510748D01*
X224072086Y-124486642D01*
X224085796Y-124463768D01*
X224101682Y-124442349D01*
X224119590Y-124422590D01*
X224139349Y-124404682D01*
X224160768Y-124388796D01*
X224183642Y-124375086D01*
X224207748Y-124363685D01*
X224232857Y-124354701D01*
X224258725Y-124348221D01*
X224285103Y-124344308D01*
X224311738Y-124343000D01*
X225268262Y-124343000D01*
X225294897Y-124344308D01*
X225294897Y-124344308D01*
G37*
D16*
X224790000Y-124968000D03*
%TD*%
D15*
%TO.C,C1*%
G36*
X197354897Y-128925308D02*
G01*
X197381275Y-128929221D01*
X197407143Y-128935701D01*
X197432252Y-128944685D01*
X197456358Y-128956086D01*
X197479232Y-128969796D01*
X197500651Y-128985682D01*
X197520410Y-129003590D01*
X197538318Y-129023349D01*
X197554204Y-129044768D01*
X197567914Y-129067642D01*
X197579315Y-129091748D01*
X197588299Y-129116857D01*
X197594779Y-129142725D01*
X197598692Y-129169103D01*
X197600000Y-129195738D01*
X197600000Y-129902262D01*
X197598692Y-129928897D01*
X197594779Y-129955275D01*
X197588299Y-129981143D01*
X197579315Y-130006252D01*
X197567914Y-130030358D01*
X197554204Y-130053232D01*
X197538318Y-130074651D01*
X197520410Y-130094410D01*
X197500651Y-130112318D01*
X197479232Y-130128204D01*
X197456358Y-130141914D01*
X197432252Y-130153315D01*
X197407143Y-130162299D01*
X197381275Y-130168779D01*
X197354897Y-130172692D01*
X197328262Y-130174000D01*
X196371738Y-130174000D01*
X196345103Y-130172692D01*
X196318725Y-130168779D01*
X196292857Y-130162299D01*
X196267748Y-130153315D01*
X196243642Y-130141914D01*
X196220768Y-130128204D01*
X196199349Y-130112318D01*
X196179590Y-130094410D01*
X196161682Y-130074651D01*
X196145796Y-130053232D01*
X196132086Y-130030358D01*
X196120685Y-130006252D01*
X196111701Y-129981143D01*
X196105221Y-129955275D01*
X196101308Y-129928897D01*
X196100000Y-129902262D01*
X196100000Y-129195738D01*
X196101308Y-129169103D01*
X196105221Y-129142725D01*
X196111701Y-129116857D01*
X196120685Y-129091748D01*
X196132086Y-129067642D01*
X196145796Y-129044768D01*
X196161682Y-129023349D01*
X196179590Y-129003590D01*
X196199349Y-128985682D01*
X196220768Y-128969796D01*
X196243642Y-128956086D01*
X196267748Y-128944685D01*
X196292857Y-128935701D01*
X196318725Y-128929221D01*
X196345103Y-128925308D01*
X196371738Y-128924000D01*
X197328262Y-128924000D01*
X197354897Y-128925308D01*
X197354897Y-128925308D01*
G37*
D16*
X196850000Y-129549000D03*
D15*
G36*
X197354897Y-126875308D02*
G01*
X197381275Y-126879221D01*
X197407143Y-126885701D01*
X197432252Y-126894685D01*
X197456358Y-126906086D01*
X197479232Y-126919796D01*
X197500651Y-126935682D01*
X197520410Y-126953590D01*
X197538318Y-126973349D01*
X197554204Y-126994768D01*
X197567914Y-127017642D01*
X197579315Y-127041748D01*
X197588299Y-127066857D01*
X197594779Y-127092725D01*
X197598692Y-127119103D01*
X197600000Y-127145738D01*
X197600000Y-127852262D01*
X197598692Y-127878897D01*
X197594779Y-127905275D01*
X197588299Y-127931143D01*
X197579315Y-127956252D01*
X197567914Y-127980358D01*
X197554204Y-128003232D01*
X197538318Y-128024651D01*
X197520410Y-128044410D01*
X197500651Y-128062318D01*
X197479232Y-128078204D01*
X197456358Y-128091914D01*
X197432252Y-128103315D01*
X197407143Y-128112299D01*
X197381275Y-128118779D01*
X197354897Y-128122692D01*
X197328262Y-128124000D01*
X196371738Y-128124000D01*
X196345103Y-128122692D01*
X196318725Y-128118779D01*
X196292857Y-128112299D01*
X196267748Y-128103315D01*
X196243642Y-128091914D01*
X196220768Y-128078204D01*
X196199349Y-128062318D01*
X196179590Y-128044410D01*
X196161682Y-128024651D01*
X196145796Y-128003232D01*
X196132086Y-127980358D01*
X196120685Y-127956252D01*
X196111701Y-127931143D01*
X196105221Y-127905275D01*
X196101308Y-127878897D01*
X196100000Y-127852262D01*
X196100000Y-127145738D01*
X196101308Y-127119103D01*
X196105221Y-127092725D01*
X196111701Y-127066857D01*
X196120685Y-127041748D01*
X196132086Y-127017642D01*
X196145796Y-126994768D01*
X196161682Y-126973349D01*
X196179590Y-126953590D01*
X196199349Y-126935682D01*
X196220768Y-126919796D01*
X196243642Y-126906086D01*
X196267748Y-126894685D01*
X196292857Y-126885701D01*
X196318725Y-126879221D01*
X196345103Y-126875308D01*
X196371738Y-126874000D01*
X197328262Y-126874000D01*
X197354897Y-126875308D01*
X197354897Y-126875308D01*
G37*
D16*
X196850000Y-127499000D03*
%TD*%
D15*
%TO.C,R7*%
G36*
X218944897Y-140600308D02*
G01*
X218971275Y-140604221D01*
X218997143Y-140610701D01*
X219022252Y-140619685D01*
X219046358Y-140631086D01*
X219069232Y-140644796D01*
X219090651Y-140660682D01*
X219110410Y-140678590D01*
X219128318Y-140698349D01*
X219144204Y-140719768D01*
X219157914Y-140742642D01*
X219169315Y-140766748D01*
X219178299Y-140791857D01*
X219184779Y-140817725D01*
X219188692Y-140844103D01*
X219190000Y-140870738D01*
X219190000Y-141577262D01*
X219188692Y-141603897D01*
X219184779Y-141630275D01*
X219178299Y-141656143D01*
X219169315Y-141681252D01*
X219157914Y-141705358D01*
X219144204Y-141728232D01*
X219128318Y-141749651D01*
X219110410Y-141769410D01*
X219090651Y-141787318D01*
X219069232Y-141803204D01*
X219046358Y-141816914D01*
X219022252Y-141828315D01*
X218997143Y-141837299D01*
X218971275Y-141843779D01*
X218944897Y-141847692D01*
X218918262Y-141849000D01*
X217961738Y-141849000D01*
X217935103Y-141847692D01*
X217908725Y-141843779D01*
X217882857Y-141837299D01*
X217857748Y-141828315D01*
X217833642Y-141816914D01*
X217810768Y-141803204D01*
X217789349Y-141787318D01*
X217769590Y-141769410D01*
X217751682Y-141749651D01*
X217735796Y-141728232D01*
X217722086Y-141705358D01*
X217710685Y-141681252D01*
X217701701Y-141656143D01*
X217695221Y-141630275D01*
X217691308Y-141603897D01*
X217690000Y-141577262D01*
X217690000Y-140870738D01*
X217691308Y-140844103D01*
X217695221Y-140817725D01*
X217701701Y-140791857D01*
X217710685Y-140766748D01*
X217722086Y-140742642D01*
X217735796Y-140719768D01*
X217751682Y-140698349D01*
X217769590Y-140678590D01*
X217789349Y-140660682D01*
X217810768Y-140644796D01*
X217833642Y-140631086D01*
X217857748Y-140619685D01*
X217882857Y-140610701D01*
X217908725Y-140604221D01*
X217935103Y-140600308D01*
X217961738Y-140599000D01*
X218918262Y-140599000D01*
X218944897Y-140600308D01*
X218944897Y-140600308D01*
G37*
D16*
X218440000Y-141224000D03*
D15*
G36*
X218944897Y-142650308D02*
G01*
X218971275Y-142654221D01*
X218997143Y-142660701D01*
X219022252Y-142669685D01*
X219046358Y-142681086D01*
X219069232Y-142694796D01*
X219090651Y-142710682D01*
X219110410Y-142728590D01*
X219128318Y-142748349D01*
X219144204Y-142769768D01*
X219157914Y-142792642D01*
X219169315Y-142816748D01*
X219178299Y-142841857D01*
X219184779Y-142867725D01*
X219188692Y-142894103D01*
X219190000Y-142920738D01*
X219190000Y-143627262D01*
X219188692Y-143653897D01*
X219184779Y-143680275D01*
X219178299Y-143706143D01*
X219169315Y-143731252D01*
X219157914Y-143755358D01*
X219144204Y-143778232D01*
X219128318Y-143799651D01*
X219110410Y-143819410D01*
X219090651Y-143837318D01*
X219069232Y-143853204D01*
X219046358Y-143866914D01*
X219022252Y-143878315D01*
X218997143Y-143887299D01*
X218971275Y-143893779D01*
X218944897Y-143897692D01*
X218918262Y-143899000D01*
X217961738Y-143899000D01*
X217935103Y-143897692D01*
X217908725Y-143893779D01*
X217882857Y-143887299D01*
X217857748Y-143878315D01*
X217833642Y-143866914D01*
X217810768Y-143853204D01*
X217789349Y-143837318D01*
X217769590Y-143819410D01*
X217751682Y-143799651D01*
X217735796Y-143778232D01*
X217722086Y-143755358D01*
X217710685Y-143731252D01*
X217701701Y-143706143D01*
X217695221Y-143680275D01*
X217691308Y-143653897D01*
X217690000Y-143627262D01*
X217690000Y-142920738D01*
X217691308Y-142894103D01*
X217695221Y-142867725D01*
X217701701Y-142841857D01*
X217710685Y-142816748D01*
X217722086Y-142792642D01*
X217735796Y-142769768D01*
X217751682Y-142748349D01*
X217769590Y-142728590D01*
X217789349Y-142710682D01*
X217810768Y-142694796D01*
X217833642Y-142681086D01*
X217857748Y-142669685D01*
X217882857Y-142660701D01*
X217908725Y-142654221D01*
X217935103Y-142650308D01*
X217961738Y-142649000D01*
X218918262Y-142649000D01*
X218944897Y-142650308D01*
X218944897Y-142650308D01*
G37*
D16*
X218440000Y-143274000D03*
%TD*%
D15*
%TO.C,R6*%
G36*
X218944897Y-144646308D02*
G01*
X218971275Y-144650221D01*
X218997143Y-144656701D01*
X219022252Y-144665685D01*
X219046358Y-144677086D01*
X219069232Y-144690796D01*
X219090651Y-144706682D01*
X219110410Y-144724590D01*
X219128318Y-144744349D01*
X219144204Y-144765768D01*
X219157914Y-144788642D01*
X219169315Y-144812748D01*
X219178299Y-144837857D01*
X219184779Y-144863725D01*
X219188692Y-144890103D01*
X219190000Y-144916738D01*
X219190000Y-145623262D01*
X219188692Y-145649897D01*
X219184779Y-145676275D01*
X219178299Y-145702143D01*
X219169315Y-145727252D01*
X219157914Y-145751358D01*
X219144204Y-145774232D01*
X219128318Y-145795651D01*
X219110410Y-145815410D01*
X219090651Y-145833318D01*
X219069232Y-145849204D01*
X219046358Y-145862914D01*
X219022252Y-145874315D01*
X218997143Y-145883299D01*
X218971275Y-145889779D01*
X218944897Y-145893692D01*
X218918262Y-145895000D01*
X217961738Y-145895000D01*
X217935103Y-145893692D01*
X217908725Y-145889779D01*
X217882857Y-145883299D01*
X217857748Y-145874315D01*
X217833642Y-145862914D01*
X217810768Y-145849204D01*
X217789349Y-145833318D01*
X217769590Y-145815410D01*
X217751682Y-145795651D01*
X217735796Y-145774232D01*
X217722086Y-145751358D01*
X217710685Y-145727252D01*
X217701701Y-145702143D01*
X217695221Y-145676275D01*
X217691308Y-145649897D01*
X217690000Y-145623262D01*
X217690000Y-144916738D01*
X217691308Y-144890103D01*
X217695221Y-144863725D01*
X217701701Y-144837857D01*
X217710685Y-144812748D01*
X217722086Y-144788642D01*
X217735796Y-144765768D01*
X217751682Y-144744349D01*
X217769590Y-144724590D01*
X217789349Y-144706682D01*
X217810768Y-144690796D01*
X217833642Y-144677086D01*
X217857748Y-144665685D01*
X217882857Y-144656701D01*
X217908725Y-144650221D01*
X217935103Y-144646308D01*
X217961738Y-144645000D01*
X218918262Y-144645000D01*
X218944897Y-144646308D01*
X218944897Y-144646308D01*
G37*
D16*
X218440000Y-145270000D03*
D15*
G36*
X218944897Y-146696308D02*
G01*
X218971275Y-146700221D01*
X218997143Y-146706701D01*
X219022252Y-146715685D01*
X219046358Y-146727086D01*
X219069232Y-146740796D01*
X219090651Y-146756682D01*
X219110410Y-146774590D01*
X219128318Y-146794349D01*
X219144204Y-146815768D01*
X219157914Y-146838642D01*
X219169315Y-146862748D01*
X219178299Y-146887857D01*
X219184779Y-146913725D01*
X219188692Y-146940103D01*
X219190000Y-146966738D01*
X219190000Y-147673262D01*
X219188692Y-147699897D01*
X219184779Y-147726275D01*
X219178299Y-147752143D01*
X219169315Y-147777252D01*
X219157914Y-147801358D01*
X219144204Y-147824232D01*
X219128318Y-147845651D01*
X219110410Y-147865410D01*
X219090651Y-147883318D01*
X219069232Y-147899204D01*
X219046358Y-147912914D01*
X219022252Y-147924315D01*
X218997143Y-147933299D01*
X218971275Y-147939779D01*
X218944897Y-147943692D01*
X218918262Y-147945000D01*
X217961738Y-147945000D01*
X217935103Y-147943692D01*
X217908725Y-147939779D01*
X217882857Y-147933299D01*
X217857748Y-147924315D01*
X217833642Y-147912914D01*
X217810768Y-147899204D01*
X217789349Y-147883318D01*
X217769590Y-147865410D01*
X217751682Y-147845651D01*
X217735796Y-147824232D01*
X217722086Y-147801358D01*
X217710685Y-147777252D01*
X217701701Y-147752143D01*
X217695221Y-147726275D01*
X217691308Y-147699897D01*
X217690000Y-147673262D01*
X217690000Y-146966738D01*
X217691308Y-146940103D01*
X217695221Y-146913725D01*
X217701701Y-146887857D01*
X217710685Y-146862748D01*
X217722086Y-146838642D01*
X217735796Y-146815768D01*
X217751682Y-146794349D01*
X217769590Y-146774590D01*
X217789349Y-146756682D01*
X217810768Y-146740796D01*
X217833642Y-146727086D01*
X217857748Y-146715685D01*
X217882857Y-146706701D01*
X217908725Y-146700221D01*
X217935103Y-146696308D01*
X217961738Y-146695000D01*
X218918262Y-146695000D01*
X218944897Y-146696308D01*
X218944897Y-146696308D01*
G37*
D16*
X218440000Y-147320000D03*
%TD*%
D15*
%TO.C,R5*%
G36*
X201164897Y-140836308D02*
G01*
X201191275Y-140840221D01*
X201217143Y-140846701D01*
X201242252Y-140855685D01*
X201266358Y-140867086D01*
X201289232Y-140880796D01*
X201310651Y-140896682D01*
X201330410Y-140914590D01*
X201348318Y-140934349D01*
X201364204Y-140955768D01*
X201377914Y-140978642D01*
X201389315Y-141002748D01*
X201398299Y-141027857D01*
X201404779Y-141053725D01*
X201408692Y-141080103D01*
X201410000Y-141106738D01*
X201410000Y-141813262D01*
X201408692Y-141839897D01*
X201404779Y-141866275D01*
X201398299Y-141892143D01*
X201389315Y-141917252D01*
X201377914Y-141941358D01*
X201364204Y-141964232D01*
X201348318Y-141985651D01*
X201330410Y-142005410D01*
X201310651Y-142023318D01*
X201289232Y-142039204D01*
X201266358Y-142052914D01*
X201242252Y-142064315D01*
X201217143Y-142073299D01*
X201191275Y-142079779D01*
X201164897Y-142083692D01*
X201138262Y-142085000D01*
X200181738Y-142085000D01*
X200155103Y-142083692D01*
X200128725Y-142079779D01*
X200102857Y-142073299D01*
X200077748Y-142064315D01*
X200053642Y-142052914D01*
X200030768Y-142039204D01*
X200009349Y-142023318D01*
X199989590Y-142005410D01*
X199971682Y-141985651D01*
X199955796Y-141964232D01*
X199942086Y-141941358D01*
X199930685Y-141917252D01*
X199921701Y-141892143D01*
X199915221Y-141866275D01*
X199911308Y-141839897D01*
X199910000Y-141813262D01*
X199910000Y-141106738D01*
X199911308Y-141080103D01*
X199915221Y-141053725D01*
X199921701Y-141027857D01*
X199930685Y-141002748D01*
X199942086Y-140978642D01*
X199955796Y-140955768D01*
X199971682Y-140934349D01*
X199989590Y-140914590D01*
X200009349Y-140896682D01*
X200030768Y-140880796D01*
X200053642Y-140867086D01*
X200077748Y-140855685D01*
X200102857Y-140846701D01*
X200128725Y-140840221D01*
X200155103Y-140836308D01*
X200181738Y-140835000D01*
X201138262Y-140835000D01*
X201164897Y-140836308D01*
X201164897Y-140836308D01*
G37*
D16*
X200660000Y-141460000D03*
D15*
G36*
X201164897Y-142886308D02*
G01*
X201191275Y-142890221D01*
X201217143Y-142896701D01*
X201242252Y-142905685D01*
X201266358Y-142917086D01*
X201289232Y-142930796D01*
X201310651Y-142946682D01*
X201330410Y-142964590D01*
X201348318Y-142984349D01*
X201364204Y-143005768D01*
X201377914Y-143028642D01*
X201389315Y-143052748D01*
X201398299Y-143077857D01*
X201404779Y-143103725D01*
X201408692Y-143130103D01*
X201410000Y-143156738D01*
X201410000Y-143863262D01*
X201408692Y-143889897D01*
X201404779Y-143916275D01*
X201398299Y-143942143D01*
X201389315Y-143967252D01*
X201377914Y-143991358D01*
X201364204Y-144014232D01*
X201348318Y-144035651D01*
X201330410Y-144055410D01*
X201310651Y-144073318D01*
X201289232Y-144089204D01*
X201266358Y-144102914D01*
X201242252Y-144114315D01*
X201217143Y-144123299D01*
X201191275Y-144129779D01*
X201164897Y-144133692D01*
X201138262Y-144135000D01*
X200181738Y-144135000D01*
X200155103Y-144133692D01*
X200128725Y-144129779D01*
X200102857Y-144123299D01*
X200077748Y-144114315D01*
X200053642Y-144102914D01*
X200030768Y-144089204D01*
X200009349Y-144073318D01*
X199989590Y-144055410D01*
X199971682Y-144035651D01*
X199955796Y-144014232D01*
X199942086Y-143991358D01*
X199930685Y-143967252D01*
X199921701Y-143942143D01*
X199915221Y-143916275D01*
X199911308Y-143889897D01*
X199910000Y-143863262D01*
X199910000Y-143156738D01*
X199911308Y-143130103D01*
X199915221Y-143103725D01*
X199921701Y-143077857D01*
X199930685Y-143052748D01*
X199942086Y-143028642D01*
X199955796Y-143005768D01*
X199971682Y-142984349D01*
X199989590Y-142964590D01*
X200009349Y-142946682D01*
X200030768Y-142930796D01*
X200053642Y-142917086D01*
X200077748Y-142905685D01*
X200102857Y-142896701D01*
X200128725Y-142890221D01*
X200155103Y-142886308D01*
X200181738Y-142885000D01*
X201138262Y-142885000D01*
X201164897Y-142886308D01*
X201164897Y-142886308D01*
G37*
D16*
X200660000Y-143510000D03*
%TD*%
D15*
%TO.C,R4*%
G36*
X201164897Y-144664308D02*
G01*
X201191275Y-144668221D01*
X201217143Y-144674701D01*
X201242252Y-144683685D01*
X201266358Y-144695086D01*
X201289232Y-144708796D01*
X201310651Y-144724682D01*
X201330410Y-144742590D01*
X201348318Y-144762349D01*
X201364204Y-144783768D01*
X201377914Y-144806642D01*
X201389315Y-144830748D01*
X201398299Y-144855857D01*
X201404779Y-144881725D01*
X201408692Y-144908103D01*
X201410000Y-144934738D01*
X201410000Y-145641262D01*
X201408692Y-145667897D01*
X201404779Y-145694275D01*
X201398299Y-145720143D01*
X201389315Y-145745252D01*
X201377914Y-145769358D01*
X201364204Y-145792232D01*
X201348318Y-145813651D01*
X201330410Y-145833410D01*
X201310651Y-145851318D01*
X201289232Y-145867204D01*
X201266358Y-145880914D01*
X201242252Y-145892315D01*
X201217143Y-145901299D01*
X201191275Y-145907779D01*
X201164897Y-145911692D01*
X201138262Y-145913000D01*
X200181738Y-145913000D01*
X200155103Y-145911692D01*
X200128725Y-145907779D01*
X200102857Y-145901299D01*
X200077748Y-145892315D01*
X200053642Y-145880914D01*
X200030768Y-145867204D01*
X200009349Y-145851318D01*
X199989590Y-145833410D01*
X199971682Y-145813651D01*
X199955796Y-145792232D01*
X199942086Y-145769358D01*
X199930685Y-145745252D01*
X199921701Y-145720143D01*
X199915221Y-145694275D01*
X199911308Y-145667897D01*
X199910000Y-145641262D01*
X199910000Y-144934738D01*
X199911308Y-144908103D01*
X199915221Y-144881725D01*
X199921701Y-144855857D01*
X199930685Y-144830748D01*
X199942086Y-144806642D01*
X199955796Y-144783768D01*
X199971682Y-144762349D01*
X199989590Y-144742590D01*
X200009349Y-144724682D01*
X200030768Y-144708796D01*
X200053642Y-144695086D01*
X200077748Y-144683685D01*
X200102857Y-144674701D01*
X200128725Y-144668221D01*
X200155103Y-144664308D01*
X200181738Y-144663000D01*
X201138262Y-144663000D01*
X201164897Y-144664308D01*
X201164897Y-144664308D01*
G37*
D16*
X200660000Y-145288000D03*
D15*
G36*
X201164897Y-146714308D02*
G01*
X201191275Y-146718221D01*
X201217143Y-146724701D01*
X201242252Y-146733685D01*
X201266358Y-146745086D01*
X201289232Y-146758796D01*
X201310651Y-146774682D01*
X201330410Y-146792590D01*
X201348318Y-146812349D01*
X201364204Y-146833768D01*
X201377914Y-146856642D01*
X201389315Y-146880748D01*
X201398299Y-146905857D01*
X201404779Y-146931725D01*
X201408692Y-146958103D01*
X201410000Y-146984738D01*
X201410000Y-147691262D01*
X201408692Y-147717897D01*
X201404779Y-147744275D01*
X201398299Y-147770143D01*
X201389315Y-147795252D01*
X201377914Y-147819358D01*
X201364204Y-147842232D01*
X201348318Y-147863651D01*
X201330410Y-147883410D01*
X201310651Y-147901318D01*
X201289232Y-147917204D01*
X201266358Y-147930914D01*
X201242252Y-147942315D01*
X201217143Y-147951299D01*
X201191275Y-147957779D01*
X201164897Y-147961692D01*
X201138262Y-147963000D01*
X200181738Y-147963000D01*
X200155103Y-147961692D01*
X200128725Y-147957779D01*
X200102857Y-147951299D01*
X200077748Y-147942315D01*
X200053642Y-147930914D01*
X200030768Y-147917204D01*
X200009349Y-147901318D01*
X199989590Y-147883410D01*
X199971682Y-147863651D01*
X199955796Y-147842232D01*
X199942086Y-147819358D01*
X199930685Y-147795252D01*
X199921701Y-147770143D01*
X199915221Y-147744275D01*
X199911308Y-147717897D01*
X199910000Y-147691262D01*
X199910000Y-146984738D01*
X199911308Y-146958103D01*
X199915221Y-146931725D01*
X199921701Y-146905857D01*
X199930685Y-146880748D01*
X199942086Y-146856642D01*
X199955796Y-146833768D01*
X199971682Y-146812349D01*
X199989590Y-146792590D01*
X200009349Y-146774682D01*
X200030768Y-146758796D01*
X200053642Y-146745086D01*
X200077748Y-146733685D01*
X200102857Y-146724701D01*
X200128725Y-146718221D01*
X200155103Y-146714308D01*
X200181738Y-146713000D01*
X201138262Y-146713000D01*
X201164897Y-146714308D01*
X201164897Y-146714308D01*
G37*
D16*
X200660000Y-147338000D03*
%TD*%
D15*
%TO.C,R2*%
G36*
X185416897Y-140591308D02*
G01*
X185443275Y-140595221D01*
X185469143Y-140601701D01*
X185494252Y-140610685D01*
X185518358Y-140622086D01*
X185541232Y-140635796D01*
X185562651Y-140651682D01*
X185582410Y-140669590D01*
X185600318Y-140689349D01*
X185616204Y-140710768D01*
X185629914Y-140733642D01*
X185641315Y-140757748D01*
X185650299Y-140782857D01*
X185656779Y-140808725D01*
X185660692Y-140835103D01*
X185662000Y-140861738D01*
X185662000Y-141568262D01*
X185660692Y-141594897D01*
X185656779Y-141621275D01*
X185650299Y-141647143D01*
X185641315Y-141672252D01*
X185629914Y-141696358D01*
X185616204Y-141719232D01*
X185600318Y-141740651D01*
X185582410Y-141760410D01*
X185562651Y-141778318D01*
X185541232Y-141794204D01*
X185518358Y-141807914D01*
X185494252Y-141819315D01*
X185469143Y-141828299D01*
X185443275Y-141834779D01*
X185416897Y-141838692D01*
X185390262Y-141840000D01*
X184433738Y-141840000D01*
X184407103Y-141838692D01*
X184380725Y-141834779D01*
X184354857Y-141828299D01*
X184329748Y-141819315D01*
X184305642Y-141807914D01*
X184282768Y-141794204D01*
X184261349Y-141778318D01*
X184241590Y-141760410D01*
X184223682Y-141740651D01*
X184207796Y-141719232D01*
X184194086Y-141696358D01*
X184182685Y-141672252D01*
X184173701Y-141647143D01*
X184167221Y-141621275D01*
X184163308Y-141594897D01*
X184162000Y-141568262D01*
X184162000Y-140861738D01*
X184163308Y-140835103D01*
X184167221Y-140808725D01*
X184173701Y-140782857D01*
X184182685Y-140757748D01*
X184194086Y-140733642D01*
X184207796Y-140710768D01*
X184223682Y-140689349D01*
X184241590Y-140669590D01*
X184261349Y-140651682D01*
X184282768Y-140635796D01*
X184305642Y-140622086D01*
X184329748Y-140610685D01*
X184354857Y-140601701D01*
X184380725Y-140595221D01*
X184407103Y-140591308D01*
X184433738Y-140590000D01*
X185390262Y-140590000D01*
X185416897Y-140591308D01*
X185416897Y-140591308D01*
G37*
D16*
X184912000Y-141215000D03*
D15*
G36*
X185416897Y-142641308D02*
G01*
X185443275Y-142645221D01*
X185469143Y-142651701D01*
X185494252Y-142660685D01*
X185518358Y-142672086D01*
X185541232Y-142685796D01*
X185562651Y-142701682D01*
X185582410Y-142719590D01*
X185600318Y-142739349D01*
X185616204Y-142760768D01*
X185629914Y-142783642D01*
X185641315Y-142807748D01*
X185650299Y-142832857D01*
X185656779Y-142858725D01*
X185660692Y-142885103D01*
X185662000Y-142911738D01*
X185662000Y-143618262D01*
X185660692Y-143644897D01*
X185656779Y-143671275D01*
X185650299Y-143697143D01*
X185641315Y-143722252D01*
X185629914Y-143746358D01*
X185616204Y-143769232D01*
X185600318Y-143790651D01*
X185582410Y-143810410D01*
X185562651Y-143828318D01*
X185541232Y-143844204D01*
X185518358Y-143857914D01*
X185494252Y-143869315D01*
X185469143Y-143878299D01*
X185443275Y-143884779D01*
X185416897Y-143888692D01*
X185390262Y-143890000D01*
X184433738Y-143890000D01*
X184407103Y-143888692D01*
X184380725Y-143884779D01*
X184354857Y-143878299D01*
X184329748Y-143869315D01*
X184305642Y-143857914D01*
X184282768Y-143844204D01*
X184261349Y-143828318D01*
X184241590Y-143810410D01*
X184223682Y-143790651D01*
X184207796Y-143769232D01*
X184194086Y-143746358D01*
X184182685Y-143722252D01*
X184173701Y-143697143D01*
X184167221Y-143671275D01*
X184163308Y-143644897D01*
X184162000Y-143618262D01*
X184162000Y-142911738D01*
X184163308Y-142885103D01*
X184167221Y-142858725D01*
X184173701Y-142832857D01*
X184182685Y-142807748D01*
X184194086Y-142783642D01*
X184207796Y-142760768D01*
X184223682Y-142739349D01*
X184241590Y-142719590D01*
X184261349Y-142701682D01*
X184282768Y-142685796D01*
X184305642Y-142672086D01*
X184329748Y-142660685D01*
X184354857Y-142651701D01*
X184380725Y-142645221D01*
X184407103Y-142641308D01*
X184433738Y-142640000D01*
X185390262Y-142640000D01*
X185416897Y-142641308D01*
X185416897Y-142641308D01*
G37*
D16*
X184912000Y-143265000D03*
%TD*%
D15*
%TO.C,R1*%
G36*
X185416897Y-144664308D02*
G01*
X185443275Y-144668221D01*
X185469143Y-144674701D01*
X185494252Y-144683685D01*
X185518358Y-144695086D01*
X185541232Y-144708796D01*
X185562651Y-144724682D01*
X185582410Y-144742590D01*
X185600318Y-144762349D01*
X185616204Y-144783768D01*
X185629914Y-144806642D01*
X185641315Y-144830748D01*
X185650299Y-144855857D01*
X185656779Y-144881725D01*
X185660692Y-144908103D01*
X185662000Y-144934738D01*
X185662000Y-145641262D01*
X185660692Y-145667897D01*
X185656779Y-145694275D01*
X185650299Y-145720143D01*
X185641315Y-145745252D01*
X185629914Y-145769358D01*
X185616204Y-145792232D01*
X185600318Y-145813651D01*
X185582410Y-145833410D01*
X185562651Y-145851318D01*
X185541232Y-145867204D01*
X185518358Y-145880914D01*
X185494252Y-145892315D01*
X185469143Y-145901299D01*
X185443275Y-145907779D01*
X185416897Y-145911692D01*
X185390262Y-145913000D01*
X184433738Y-145913000D01*
X184407103Y-145911692D01*
X184380725Y-145907779D01*
X184354857Y-145901299D01*
X184329748Y-145892315D01*
X184305642Y-145880914D01*
X184282768Y-145867204D01*
X184261349Y-145851318D01*
X184241590Y-145833410D01*
X184223682Y-145813651D01*
X184207796Y-145792232D01*
X184194086Y-145769358D01*
X184182685Y-145745252D01*
X184173701Y-145720143D01*
X184167221Y-145694275D01*
X184163308Y-145667897D01*
X184162000Y-145641262D01*
X184162000Y-144934738D01*
X184163308Y-144908103D01*
X184167221Y-144881725D01*
X184173701Y-144855857D01*
X184182685Y-144830748D01*
X184194086Y-144806642D01*
X184207796Y-144783768D01*
X184223682Y-144762349D01*
X184241590Y-144742590D01*
X184261349Y-144724682D01*
X184282768Y-144708796D01*
X184305642Y-144695086D01*
X184329748Y-144683685D01*
X184354857Y-144674701D01*
X184380725Y-144668221D01*
X184407103Y-144664308D01*
X184433738Y-144663000D01*
X185390262Y-144663000D01*
X185416897Y-144664308D01*
X185416897Y-144664308D01*
G37*
D16*
X184912000Y-145288000D03*
D15*
G36*
X185416897Y-146714308D02*
G01*
X185443275Y-146718221D01*
X185469143Y-146724701D01*
X185494252Y-146733685D01*
X185518358Y-146745086D01*
X185541232Y-146758796D01*
X185562651Y-146774682D01*
X185582410Y-146792590D01*
X185600318Y-146812349D01*
X185616204Y-146833768D01*
X185629914Y-146856642D01*
X185641315Y-146880748D01*
X185650299Y-146905857D01*
X185656779Y-146931725D01*
X185660692Y-146958103D01*
X185662000Y-146984738D01*
X185662000Y-147691262D01*
X185660692Y-147717897D01*
X185656779Y-147744275D01*
X185650299Y-147770143D01*
X185641315Y-147795252D01*
X185629914Y-147819358D01*
X185616204Y-147842232D01*
X185600318Y-147863651D01*
X185582410Y-147883410D01*
X185562651Y-147901318D01*
X185541232Y-147917204D01*
X185518358Y-147930914D01*
X185494252Y-147942315D01*
X185469143Y-147951299D01*
X185443275Y-147957779D01*
X185416897Y-147961692D01*
X185390262Y-147963000D01*
X184433738Y-147963000D01*
X184407103Y-147961692D01*
X184380725Y-147957779D01*
X184354857Y-147951299D01*
X184329748Y-147942315D01*
X184305642Y-147930914D01*
X184282768Y-147917204D01*
X184261349Y-147901318D01*
X184241590Y-147883410D01*
X184223682Y-147863651D01*
X184207796Y-147842232D01*
X184194086Y-147819358D01*
X184182685Y-147795252D01*
X184173701Y-147770143D01*
X184167221Y-147744275D01*
X184163308Y-147717897D01*
X184162000Y-147691262D01*
X184162000Y-146984738D01*
X184163308Y-146958103D01*
X184167221Y-146931725D01*
X184173701Y-146905857D01*
X184182685Y-146880748D01*
X184194086Y-146856642D01*
X184207796Y-146833768D01*
X184223682Y-146812349D01*
X184241590Y-146792590D01*
X184261349Y-146774682D01*
X184282768Y-146758796D01*
X184305642Y-146745086D01*
X184329748Y-146733685D01*
X184354857Y-146724701D01*
X184380725Y-146718221D01*
X184407103Y-146714308D01*
X184433738Y-146713000D01*
X185390262Y-146713000D01*
X185416897Y-146714308D01*
X185416897Y-146714308D01*
G37*
D16*
X184912000Y-147338000D03*
%TD*%
D15*
%TO.C,C4*%
G36*
X220869897Y-138189308D02*
G01*
X220896275Y-138193221D01*
X220922143Y-138199701D01*
X220947252Y-138208685D01*
X220971358Y-138220086D01*
X220994232Y-138233796D01*
X221015651Y-138249682D01*
X221035410Y-138267590D01*
X221053318Y-138287349D01*
X221069204Y-138308768D01*
X221082914Y-138331642D01*
X221094315Y-138355748D01*
X221103299Y-138380857D01*
X221109779Y-138406725D01*
X221113692Y-138433103D01*
X221115000Y-138459738D01*
X221115000Y-139416262D01*
X221113692Y-139442897D01*
X221109779Y-139469275D01*
X221103299Y-139495143D01*
X221094315Y-139520252D01*
X221082914Y-139544358D01*
X221069204Y-139567232D01*
X221053318Y-139588651D01*
X221035410Y-139608410D01*
X221015651Y-139626318D01*
X220994232Y-139642204D01*
X220971358Y-139655914D01*
X220947252Y-139667315D01*
X220922143Y-139676299D01*
X220896275Y-139682779D01*
X220869897Y-139686692D01*
X220843262Y-139688000D01*
X220136738Y-139688000D01*
X220110103Y-139686692D01*
X220083725Y-139682779D01*
X220057857Y-139676299D01*
X220032748Y-139667315D01*
X220008642Y-139655914D01*
X219985768Y-139642204D01*
X219964349Y-139626318D01*
X219944590Y-139608410D01*
X219926682Y-139588651D01*
X219910796Y-139567232D01*
X219897086Y-139544358D01*
X219885685Y-139520252D01*
X219876701Y-139495143D01*
X219870221Y-139469275D01*
X219866308Y-139442897D01*
X219865000Y-139416262D01*
X219865000Y-138459738D01*
X219866308Y-138433103D01*
X219870221Y-138406725D01*
X219876701Y-138380857D01*
X219885685Y-138355748D01*
X219897086Y-138331642D01*
X219910796Y-138308768D01*
X219926682Y-138287349D01*
X219944590Y-138267590D01*
X219964349Y-138249682D01*
X219985768Y-138233796D01*
X220008642Y-138220086D01*
X220032748Y-138208685D01*
X220057857Y-138199701D01*
X220083725Y-138193221D01*
X220110103Y-138189308D01*
X220136738Y-138188000D01*
X220843262Y-138188000D01*
X220869897Y-138189308D01*
X220869897Y-138189308D01*
G37*
D16*
X220490000Y-138938000D03*
D15*
G36*
X218819897Y-138189308D02*
G01*
X218846275Y-138193221D01*
X218872143Y-138199701D01*
X218897252Y-138208685D01*
X218921358Y-138220086D01*
X218944232Y-138233796D01*
X218965651Y-138249682D01*
X218985410Y-138267590D01*
X219003318Y-138287349D01*
X219019204Y-138308768D01*
X219032914Y-138331642D01*
X219044315Y-138355748D01*
X219053299Y-138380857D01*
X219059779Y-138406725D01*
X219063692Y-138433103D01*
X219065000Y-138459738D01*
X219065000Y-139416262D01*
X219063692Y-139442897D01*
X219059779Y-139469275D01*
X219053299Y-139495143D01*
X219044315Y-139520252D01*
X219032914Y-139544358D01*
X219019204Y-139567232D01*
X219003318Y-139588651D01*
X218985410Y-139608410D01*
X218965651Y-139626318D01*
X218944232Y-139642204D01*
X218921358Y-139655914D01*
X218897252Y-139667315D01*
X218872143Y-139676299D01*
X218846275Y-139682779D01*
X218819897Y-139686692D01*
X218793262Y-139688000D01*
X218086738Y-139688000D01*
X218060103Y-139686692D01*
X218033725Y-139682779D01*
X218007857Y-139676299D01*
X217982748Y-139667315D01*
X217958642Y-139655914D01*
X217935768Y-139642204D01*
X217914349Y-139626318D01*
X217894590Y-139608410D01*
X217876682Y-139588651D01*
X217860796Y-139567232D01*
X217847086Y-139544358D01*
X217835685Y-139520252D01*
X217826701Y-139495143D01*
X217820221Y-139469275D01*
X217816308Y-139442897D01*
X217815000Y-139416262D01*
X217815000Y-138459738D01*
X217816308Y-138433103D01*
X217820221Y-138406725D01*
X217826701Y-138380857D01*
X217835685Y-138355748D01*
X217847086Y-138331642D01*
X217860796Y-138308768D01*
X217876682Y-138287349D01*
X217894590Y-138267590D01*
X217914349Y-138249682D01*
X217935768Y-138233796D01*
X217958642Y-138220086D01*
X217982748Y-138208685D01*
X218007857Y-138199701D01*
X218033725Y-138193221D01*
X218060103Y-138189308D01*
X218086738Y-138188000D01*
X218793262Y-138188000D01*
X218819897Y-138189308D01*
X218819897Y-138189308D01*
G37*
D16*
X218440000Y-138938000D03*
%TD*%
D15*
%TO.C,C3*%
G36*
X207153897Y-137935308D02*
G01*
X207180275Y-137939221D01*
X207206143Y-137945701D01*
X207231252Y-137954685D01*
X207255358Y-137966086D01*
X207278232Y-137979796D01*
X207299651Y-137995682D01*
X207319410Y-138013590D01*
X207337318Y-138033349D01*
X207353204Y-138054768D01*
X207366914Y-138077642D01*
X207378315Y-138101748D01*
X207387299Y-138126857D01*
X207393779Y-138152725D01*
X207397692Y-138179103D01*
X207399000Y-138205738D01*
X207399000Y-139162262D01*
X207397692Y-139188897D01*
X207393779Y-139215275D01*
X207387299Y-139241143D01*
X207378315Y-139266252D01*
X207366914Y-139290358D01*
X207353204Y-139313232D01*
X207337318Y-139334651D01*
X207319410Y-139354410D01*
X207299651Y-139372318D01*
X207278232Y-139388204D01*
X207255358Y-139401914D01*
X207231252Y-139413315D01*
X207206143Y-139422299D01*
X207180275Y-139428779D01*
X207153897Y-139432692D01*
X207127262Y-139434000D01*
X206420738Y-139434000D01*
X206394103Y-139432692D01*
X206367725Y-139428779D01*
X206341857Y-139422299D01*
X206316748Y-139413315D01*
X206292642Y-139401914D01*
X206269768Y-139388204D01*
X206248349Y-139372318D01*
X206228590Y-139354410D01*
X206210682Y-139334651D01*
X206194796Y-139313232D01*
X206181086Y-139290358D01*
X206169685Y-139266252D01*
X206160701Y-139241143D01*
X206154221Y-139215275D01*
X206150308Y-139188897D01*
X206149000Y-139162262D01*
X206149000Y-138205738D01*
X206150308Y-138179103D01*
X206154221Y-138152725D01*
X206160701Y-138126857D01*
X206169685Y-138101748D01*
X206181086Y-138077642D01*
X206194796Y-138054768D01*
X206210682Y-138033349D01*
X206228590Y-138013590D01*
X206248349Y-137995682D01*
X206269768Y-137979796D01*
X206292642Y-137966086D01*
X206316748Y-137954685D01*
X206341857Y-137945701D01*
X206367725Y-137939221D01*
X206394103Y-137935308D01*
X206420738Y-137934000D01*
X207127262Y-137934000D01*
X207153897Y-137935308D01*
X207153897Y-137935308D01*
G37*
D16*
X206774000Y-138684000D03*
D15*
G36*
X205103897Y-137935308D02*
G01*
X205130275Y-137939221D01*
X205156143Y-137945701D01*
X205181252Y-137954685D01*
X205205358Y-137966086D01*
X205228232Y-137979796D01*
X205249651Y-137995682D01*
X205269410Y-138013590D01*
X205287318Y-138033349D01*
X205303204Y-138054768D01*
X205316914Y-138077642D01*
X205328315Y-138101748D01*
X205337299Y-138126857D01*
X205343779Y-138152725D01*
X205347692Y-138179103D01*
X205349000Y-138205738D01*
X205349000Y-139162262D01*
X205347692Y-139188897D01*
X205343779Y-139215275D01*
X205337299Y-139241143D01*
X205328315Y-139266252D01*
X205316914Y-139290358D01*
X205303204Y-139313232D01*
X205287318Y-139334651D01*
X205269410Y-139354410D01*
X205249651Y-139372318D01*
X205228232Y-139388204D01*
X205205358Y-139401914D01*
X205181252Y-139413315D01*
X205156143Y-139422299D01*
X205130275Y-139428779D01*
X205103897Y-139432692D01*
X205077262Y-139434000D01*
X204370738Y-139434000D01*
X204344103Y-139432692D01*
X204317725Y-139428779D01*
X204291857Y-139422299D01*
X204266748Y-139413315D01*
X204242642Y-139401914D01*
X204219768Y-139388204D01*
X204198349Y-139372318D01*
X204178590Y-139354410D01*
X204160682Y-139334651D01*
X204144796Y-139313232D01*
X204131086Y-139290358D01*
X204119685Y-139266252D01*
X204110701Y-139241143D01*
X204104221Y-139215275D01*
X204100308Y-139188897D01*
X204099000Y-139162262D01*
X204099000Y-138205738D01*
X204100308Y-138179103D01*
X204104221Y-138152725D01*
X204110701Y-138126857D01*
X204119685Y-138101748D01*
X204131086Y-138077642D01*
X204144796Y-138054768D01*
X204160682Y-138033349D01*
X204178590Y-138013590D01*
X204198349Y-137995682D01*
X204219768Y-137979796D01*
X204242642Y-137966086D01*
X204266748Y-137954685D01*
X204291857Y-137945701D01*
X204317725Y-137939221D01*
X204344103Y-137935308D01*
X204370738Y-137934000D01*
X205077262Y-137934000D01*
X205103897Y-137935308D01*
X205103897Y-137935308D01*
G37*
D16*
X204724000Y-138684000D03*
%TD*%
D15*
%TO.C,C2*%
G36*
X194707897Y-138189308D02*
G01*
X194734275Y-138193221D01*
X194760143Y-138199701D01*
X194785252Y-138208685D01*
X194809358Y-138220086D01*
X194832232Y-138233796D01*
X194853651Y-138249682D01*
X194873410Y-138267590D01*
X194891318Y-138287349D01*
X194907204Y-138308768D01*
X194920914Y-138331642D01*
X194932315Y-138355748D01*
X194941299Y-138380857D01*
X194947779Y-138406725D01*
X194951692Y-138433103D01*
X194953000Y-138459738D01*
X194953000Y-139416262D01*
X194951692Y-139442897D01*
X194947779Y-139469275D01*
X194941299Y-139495143D01*
X194932315Y-139520252D01*
X194920914Y-139544358D01*
X194907204Y-139567232D01*
X194891318Y-139588651D01*
X194873410Y-139608410D01*
X194853651Y-139626318D01*
X194832232Y-139642204D01*
X194809358Y-139655914D01*
X194785252Y-139667315D01*
X194760143Y-139676299D01*
X194734275Y-139682779D01*
X194707897Y-139686692D01*
X194681262Y-139688000D01*
X193974738Y-139688000D01*
X193948103Y-139686692D01*
X193921725Y-139682779D01*
X193895857Y-139676299D01*
X193870748Y-139667315D01*
X193846642Y-139655914D01*
X193823768Y-139642204D01*
X193802349Y-139626318D01*
X193782590Y-139608410D01*
X193764682Y-139588651D01*
X193748796Y-139567232D01*
X193735086Y-139544358D01*
X193723685Y-139520252D01*
X193714701Y-139495143D01*
X193708221Y-139469275D01*
X193704308Y-139442897D01*
X193703000Y-139416262D01*
X193703000Y-138459738D01*
X193704308Y-138433103D01*
X193708221Y-138406725D01*
X193714701Y-138380857D01*
X193723685Y-138355748D01*
X193735086Y-138331642D01*
X193748796Y-138308768D01*
X193764682Y-138287349D01*
X193782590Y-138267590D01*
X193802349Y-138249682D01*
X193823768Y-138233796D01*
X193846642Y-138220086D01*
X193870748Y-138208685D01*
X193895857Y-138199701D01*
X193921725Y-138193221D01*
X193948103Y-138189308D01*
X193974738Y-138188000D01*
X194681262Y-138188000D01*
X194707897Y-138189308D01*
X194707897Y-138189308D01*
G37*
D16*
X194328000Y-138938000D03*
D15*
G36*
X192657897Y-138189308D02*
G01*
X192684275Y-138193221D01*
X192710143Y-138199701D01*
X192735252Y-138208685D01*
X192759358Y-138220086D01*
X192782232Y-138233796D01*
X192803651Y-138249682D01*
X192823410Y-138267590D01*
X192841318Y-138287349D01*
X192857204Y-138308768D01*
X192870914Y-138331642D01*
X192882315Y-138355748D01*
X192891299Y-138380857D01*
X192897779Y-138406725D01*
X192901692Y-138433103D01*
X192903000Y-138459738D01*
X192903000Y-139416262D01*
X192901692Y-139442897D01*
X192897779Y-139469275D01*
X192891299Y-139495143D01*
X192882315Y-139520252D01*
X192870914Y-139544358D01*
X192857204Y-139567232D01*
X192841318Y-139588651D01*
X192823410Y-139608410D01*
X192803651Y-139626318D01*
X192782232Y-139642204D01*
X192759358Y-139655914D01*
X192735252Y-139667315D01*
X192710143Y-139676299D01*
X192684275Y-139682779D01*
X192657897Y-139686692D01*
X192631262Y-139688000D01*
X191924738Y-139688000D01*
X191898103Y-139686692D01*
X191871725Y-139682779D01*
X191845857Y-139676299D01*
X191820748Y-139667315D01*
X191796642Y-139655914D01*
X191773768Y-139642204D01*
X191752349Y-139626318D01*
X191732590Y-139608410D01*
X191714682Y-139588651D01*
X191698796Y-139567232D01*
X191685086Y-139544358D01*
X191673685Y-139520252D01*
X191664701Y-139495143D01*
X191658221Y-139469275D01*
X191654308Y-139442897D01*
X191653000Y-139416262D01*
X191653000Y-138459738D01*
X191654308Y-138433103D01*
X191658221Y-138406725D01*
X191664701Y-138380857D01*
X191673685Y-138355748D01*
X191685086Y-138331642D01*
X191698796Y-138308768D01*
X191714682Y-138287349D01*
X191732590Y-138267590D01*
X191752349Y-138249682D01*
X191773768Y-138233796D01*
X191796642Y-138220086D01*
X191820748Y-138208685D01*
X191845857Y-138199701D01*
X191871725Y-138193221D01*
X191898103Y-138189308D01*
X191924738Y-138188000D01*
X192631262Y-138188000D01*
X192657897Y-138189308D01*
X192657897Y-138189308D01*
G37*
D16*
X192278000Y-138938000D03*
%TD*%
D20*
%TO.C,J4*%
X273558000Y-108712000D03*
X271018000Y-108712000D03*
X273558000Y-106172000D03*
X271018000Y-106172000D03*
X273558000Y-103632000D03*
X271018000Y-103632000D03*
X273558000Y-101092000D03*
X271018000Y-101092000D03*
X273558000Y-98552000D03*
X271018000Y-98552000D03*
X273558000Y-96012000D03*
X271018000Y-96012000D03*
X273558000Y-93472000D03*
X271018000Y-93472000D03*
X273558000Y-90932000D03*
X271018000Y-90932000D03*
X273558000Y-88392000D03*
X271018000Y-88392000D03*
X273558000Y-85852000D03*
D21*
X271018000Y-85852000D03*
%TD*%
D20*
%TO.C,J3*%
X185928000Y-108712000D03*
X183388000Y-108712000D03*
X185928000Y-106172000D03*
X183388000Y-106172000D03*
X185928000Y-103632000D03*
X183388000Y-103632000D03*
X185928000Y-101092000D03*
X183388000Y-101092000D03*
X185928000Y-98552000D03*
X183388000Y-98552000D03*
X185928000Y-96012000D03*
X183388000Y-96012000D03*
X185928000Y-93472000D03*
X183388000Y-93472000D03*
X185928000Y-90932000D03*
X183388000Y-90932000D03*
X185928000Y-88392000D03*
X183388000Y-88392000D03*
X185928000Y-85852000D03*
D21*
X183388000Y-85852000D03*
%TD*%
D20*
%TO.C,J2*%
X272034000Y-125730000D03*
X272034000Y-123190000D03*
D21*
X272034000Y-120650000D03*
%TD*%
D22*
%TO.C,A1*%
X271272000Y-136652000D03*
X271272000Y-151892000D03*
X235712000Y-136652000D03*
X268732000Y-151892000D03*
X238252000Y-136652000D03*
X266192000Y-151892000D03*
X240792000Y-136652000D03*
X263652000Y-151892000D03*
X243332000Y-136652000D03*
X261112000Y-151892000D03*
X245872000Y-136652000D03*
X258572000Y-151892000D03*
X248412000Y-136652000D03*
X256032000Y-151892000D03*
X250952000Y-136652000D03*
X253492000Y-151892000D03*
X253492000Y-136652000D03*
X250952000Y-151892000D03*
X256032000Y-136652000D03*
X248412000Y-151892000D03*
X258572000Y-136652000D03*
X245872000Y-151892000D03*
X261112000Y-136652000D03*
X243332000Y-151892000D03*
X263652000Y-136652000D03*
X240792000Y-151892000D03*
X266192000Y-136652000D03*
X238252000Y-151892000D03*
X268732000Y-136652000D03*
D23*
X235712000Y-151892000D03*
%TD*%
D17*
%TO.C,SW3*%
X220980000Y-146304000D03*
X220980000Y-141804000D03*
X227480000Y-146304000D03*
X227480000Y-141804000D03*
%TD*%
%TO.C,SW1*%
X187810000Y-146304000D03*
X187810000Y-141804000D03*
X194310000Y-146304000D03*
X194310000Y-141804000D03*
%TD*%
M02*
