%TF.GenerationSoftware,KiCad,Pcbnew,(5.1.6)-1*%
%TF.CreationDate,2020-10-03T16:08:42+08:00*%
%TF.ProjectId,odometer_project,6f646f6d-6574-4657-925f-70726f6a6563,rev?*%
%TF.SameCoordinates,Original*%
%TF.FileFunction,Paste,Top*%
%TF.FilePolarity,Positive*%
%FSLAX46Y46*%
G04 Gerber Fmt 4.6, Leading zero omitted, Abs format (unit mm)*
G04 Created by KiCad (PCBNEW (5.1.6)-1) date 2020-10-03 16:08:42*
%MOMM*%
%LPD*%
G01*
G04 APERTURE LIST*
G04 APERTURE END LIST*
%TO.C,R12*%
G36*
G01*
X191458001Y-125289000D02*
X190557999Y-125289000D01*
G75*
G02*
X190308000Y-125039001I0J249999D01*
G01*
X190308000Y-124388999D01*
G75*
G02*
X190557999Y-124139000I249999J0D01*
G01*
X191458001Y-124139000D01*
G75*
G02*
X191708000Y-124388999I0J-249999D01*
G01*
X191708000Y-125039001D01*
G75*
G02*
X191458001Y-125289000I-249999J0D01*
G01*
G37*
G36*
G01*
X191458001Y-127339000D02*
X190557999Y-127339000D01*
G75*
G02*
X190308000Y-127089001I0J249999D01*
G01*
X190308000Y-126438999D01*
G75*
G02*
X190557999Y-126189000I249999J0D01*
G01*
X191458001Y-126189000D01*
G75*
G02*
X191708000Y-126438999I0J-249999D01*
G01*
X191708000Y-127089001D01*
G75*
G02*
X191458001Y-127339000I-249999J0D01*
G01*
G37*
%TD*%
%TO.C,R11*%
G36*
G01*
X267150001Y-125017000D02*
X266249999Y-125017000D01*
G75*
G02*
X266000000Y-124767001I0J249999D01*
G01*
X266000000Y-124116999D01*
G75*
G02*
X266249999Y-123867000I249999J0D01*
G01*
X267150001Y-123867000D01*
G75*
G02*
X267400000Y-124116999I0J-249999D01*
G01*
X267400000Y-124767001D01*
G75*
G02*
X267150001Y-125017000I-249999J0D01*
G01*
G37*
G36*
G01*
X267150001Y-127067000D02*
X266249999Y-127067000D01*
G75*
G02*
X266000000Y-126817001I0J249999D01*
G01*
X266000000Y-126166999D01*
G75*
G02*
X266249999Y-125917000I249999J0D01*
G01*
X267150001Y-125917000D01*
G75*
G02*
X267400000Y-126166999I0J-249999D01*
G01*
X267400000Y-126817001D01*
G75*
G02*
X267150001Y-127067000I-249999J0D01*
G01*
G37*
%TD*%
%TO.C,D5*%
G36*
G01*
X189426001Y-125289000D02*
X188525999Y-125289000D01*
G75*
G02*
X188276000Y-125039001I0J249999D01*
G01*
X188276000Y-124388999D01*
G75*
G02*
X188525999Y-124139000I249999J0D01*
G01*
X189426001Y-124139000D01*
G75*
G02*
X189676000Y-124388999I0J-249999D01*
G01*
X189676000Y-125039001D01*
G75*
G02*
X189426001Y-125289000I-249999J0D01*
G01*
G37*
G36*
G01*
X189426001Y-127339000D02*
X188525999Y-127339000D01*
G75*
G02*
X188276000Y-127089001I0J249999D01*
G01*
X188276000Y-126438999D01*
G75*
G02*
X188525999Y-126189000I249999J0D01*
G01*
X189426001Y-126189000D01*
G75*
G02*
X189676000Y-126438999I0J-249999D01*
G01*
X189676000Y-127089001D01*
G75*
G02*
X189426001Y-127339000I-249999J0D01*
G01*
G37*
%TD*%
%TO.C,D4*%
G36*
G01*
X269436001Y-125035000D02*
X268535999Y-125035000D01*
G75*
G02*
X268286000Y-124785001I0J249999D01*
G01*
X268286000Y-124134999D01*
G75*
G02*
X268535999Y-123885000I249999J0D01*
G01*
X269436001Y-123885000D01*
G75*
G02*
X269686000Y-124134999I0J-249999D01*
G01*
X269686000Y-124785001D01*
G75*
G02*
X269436001Y-125035000I-249999J0D01*
G01*
G37*
G36*
G01*
X269436001Y-127085000D02*
X268535999Y-127085000D01*
G75*
G02*
X268286000Y-126835001I0J249999D01*
G01*
X268286000Y-126184999D01*
G75*
G02*
X268535999Y-125935000I249999J0D01*
G01*
X269436001Y-125935000D01*
G75*
G02*
X269686000Y-126184999I0J-249999D01*
G01*
X269686000Y-126835001D01*
G75*
G02*
X269436001Y-127085000I-249999J0D01*
G01*
G37*
%TD*%
%TO.C,R10*%
G36*
G01*
X219099000Y-151232999D02*
X219099000Y-152133001D01*
G75*
G02*
X218849001Y-152383000I-249999J0D01*
G01*
X218198999Y-152383000D01*
G75*
G02*
X217949000Y-152133001I0J249999D01*
G01*
X217949000Y-151232999D01*
G75*
G02*
X218198999Y-150983000I249999J0D01*
G01*
X218849001Y-150983000D01*
G75*
G02*
X219099000Y-151232999I0J-249999D01*
G01*
G37*
G36*
G01*
X221149000Y-151232999D02*
X221149000Y-152133001D01*
G75*
G02*
X220899001Y-152383000I-249999J0D01*
G01*
X220248999Y-152383000D01*
G75*
G02*
X219999000Y-152133001I0J249999D01*
G01*
X219999000Y-151232999D01*
G75*
G02*
X220248999Y-150983000I249999J0D01*
G01*
X220899001Y-150983000D01*
G75*
G02*
X221149000Y-151232999I0J-249999D01*
G01*
G37*
%TD*%
%TO.C,R9*%
G36*
G01*
X201307000Y-151476999D02*
X201307000Y-152377001D01*
G75*
G02*
X201057001Y-152627000I-249999J0D01*
G01*
X200406999Y-152627000D01*
G75*
G02*
X200157000Y-152377001I0J249999D01*
G01*
X200157000Y-151476999D01*
G75*
G02*
X200406999Y-151227000I249999J0D01*
G01*
X201057001Y-151227000D01*
G75*
G02*
X201307000Y-151476999I0J-249999D01*
G01*
G37*
G36*
G01*
X203357000Y-151476999D02*
X203357000Y-152377001D01*
G75*
G02*
X203107001Y-152627000I-249999J0D01*
G01*
X202456999Y-152627000D01*
G75*
G02*
X202207000Y-152377001I0J249999D01*
G01*
X202207000Y-151476999D01*
G75*
G02*
X202456999Y-151227000I249999J0D01*
G01*
X203107001Y-151227000D01*
G75*
G02*
X203357000Y-151476999I0J-249999D01*
G01*
G37*
%TD*%
%TO.C,R8*%
G36*
G01*
X185559000Y-151486999D02*
X185559000Y-152387001D01*
G75*
G02*
X185309001Y-152637000I-249999J0D01*
G01*
X184658999Y-152637000D01*
G75*
G02*
X184409000Y-152387001I0J249999D01*
G01*
X184409000Y-151486999D01*
G75*
G02*
X184658999Y-151237000I249999J0D01*
G01*
X185309001Y-151237000D01*
G75*
G02*
X185559000Y-151486999I0J-249999D01*
G01*
G37*
G36*
G01*
X187609000Y-151486999D02*
X187609000Y-152387001D01*
G75*
G02*
X187359001Y-152637000I-249999J0D01*
G01*
X186708999Y-152637000D01*
G75*
G02*
X186459000Y-152387001I0J249999D01*
G01*
X186459000Y-151486999D01*
G75*
G02*
X186708999Y-151237000I249999J0D01*
G01*
X187359001Y-151237000D01*
G75*
G02*
X187609000Y-151486999I0J-249999D01*
G01*
G37*
%TD*%
%TO.C,D3*%
G36*
G01*
X223844000Y-151187999D02*
X223844000Y-152088001D01*
G75*
G02*
X223594001Y-152338000I-249999J0D01*
G01*
X222943999Y-152338000D01*
G75*
G02*
X222694000Y-152088001I0J249999D01*
G01*
X222694000Y-151187999D01*
G75*
G02*
X222943999Y-150938000I249999J0D01*
G01*
X223594001Y-150938000D01*
G75*
G02*
X223844000Y-151187999I0J-249999D01*
G01*
G37*
G36*
G01*
X225894000Y-151187999D02*
X225894000Y-152088001D01*
G75*
G02*
X225644001Y-152338000I-249999J0D01*
G01*
X224993999Y-152338000D01*
G75*
G02*
X224744000Y-152088001I0J249999D01*
G01*
X224744000Y-151187999D01*
G75*
G02*
X224993999Y-150938000I249999J0D01*
G01*
X225644001Y-150938000D01*
G75*
G02*
X225894000Y-151187999I0J-249999D01*
G01*
G37*
%TD*%
%TO.C,D2*%
G36*
G01*
X206052000Y-151431999D02*
X206052000Y-152332001D01*
G75*
G02*
X205802001Y-152582000I-249999J0D01*
G01*
X205151999Y-152582000D01*
G75*
G02*
X204902000Y-152332001I0J249999D01*
G01*
X204902000Y-151431999D01*
G75*
G02*
X205151999Y-151182000I249999J0D01*
G01*
X205802001Y-151182000D01*
G75*
G02*
X206052000Y-151431999I0J-249999D01*
G01*
G37*
G36*
G01*
X208102000Y-151431999D02*
X208102000Y-152332001D01*
G75*
G02*
X207852001Y-152582000I-249999J0D01*
G01*
X207201999Y-152582000D01*
G75*
G02*
X206952000Y-152332001I0J249999D01*
G01*
X206952000Y-151431999D01*
G75*
G02*
X207201999Y-151182000I249999J0D01*
G01*
X207852001Y-151182000D01*
G75*
G02*
X208102000Y-151431999I0J-249999D01*
G01*
G37*
%TD*%
%TO.C,D1*%
G36*
G01*
X190304000Y-151441999D02*
X190304000Y-152342001D01*
G75*
G02*
X190054001Y-152592000I-249999J0D01*
G01*
X189403999Y-152592000D01*
G75*
G02*
X189154000Y-152342001I0J249999D01*
G01*
X189154000Y-151441999D01*
G75*
G02*
X189403999Y-151192000I249999J0D01*
G01*
X190054001Y-151192000D01*
G75*
G02*
X190304000Y-151441999I0J-249999D01*
G01*
G37*
G36*
G01*
X192354000Y-151441999D02*
X192354000Y-152342001D01*
G75*
G02*
X192104001Y-152592000I-249999J0D01*
G01*
X191453999Y-152592000D01*
G75*
G02*
X191204000Y-152342001I0J249999D01*
G01*
X191204000Y-151441999D01*
G75*
G02*
X191453999Y-151192000I249999J0D01*
G01*
X192104001Y-151192000D01*
G75*
G02*
X192354000Y-151441999I0J-249999D01*
G01*
G37*
%TD*%
%TO.C,R3*%
G36*
G01*
X225240001Y-123493000D02*
X224339999Y-123493000D01*
G75*
G02*
X224090000Y-123243001I0J249999D01*
G01*
X224090000Y-122592999D01*
G75*
G02*
X224339999Y-122343000I249999J0D01*
G01*
X225240001Y-122343000D01*
G75*
G02*
X225490000Y-122592999I0J-249999D01*
G01*
X225490000Y-123243001D01*
G75*
G02*
X225240001Y-123493000I-249999J0D01*
G01*
G37*
G36*
G01*
X225240001Y-125543000D02*
X224339999Y-125543000D01*
G75*
G02*
X224090000Y-125293001I0J249999D01*
G01*
X224090000Y-124642999D01*
G75*
G02*
X224339999Y-124393000I249999J0D01*
G01*
X225240001Y-124393000D01*
G75*
G02*
X225490000Y-124642999I0J-249999D01*
G01*
X225490000Y-125293001D01*
G75*
G02*
X225240001Y-125543000I-249999J0D01*
G01*
G37*
%TD*%
%TO.C,C1*%
G36*
G01*
X196399999Y-128974000D02*
X197300001Y-128974000D01*
G75*
G02*
X197550000Y-129223999I0J-249999D01*
G01*
X197550000Y-129874001D01*
G75*
G02*
X197300001Y-130124000I-249999J0D01*
G01*
X196399999Y-130124000D01*
G75*
G02*
X196150000Y-129874001I0J249999D01*
G01*
X196150000Y-129223999D01*
G75*
G02*
X196399999Y-128974000I249999J0D01*
G01*
G37*
G36*
G01*
X196399999Y-126924000D02*
X197300001Y-126924000D01*
G75*
G02*
X197550000Y-127173999I0J-249999D01*
G01*
X197550000Y-127824001D01*
G75*
G02*
X197300001Y-128074000I-249999J0D01*
G01*
X196399999Y-128074000D01*
G75*
G02*
X196150000Y-127824001I0J249999D01*
G01*
X196150000Y-127173999D01*
G75*
G02*
X196399999Y-126924000I249999J0D01*
G01*
G37*
%TD*%
%TO.C,R7*%
G36*
G01*
X218890001Y-141799000D02*
X217989999Y-141799000D01*
G75*
G02*
X217740000Y-141549001I0J249999D01*
G01*
X217740000Y-140898999D01*
G75*
G02*
X217989999Y-140649000I249999J0D01*
G01*
X218890001Y-140649000D01*
G75*
G02*
X219140000Y-140898999I0J-249999D01*
G01*
X219140000Y-141549001D01*
G75*
G02*
X218890001Y-141799000I-249999J0D01*
G01*
G37*
G36*
G01*
X218890001Y-143849000D02*
X217989999Y-143849000D01*
G75*
G02*
X217740000Y-143599001I0J249999D01*
G01*
X217740000Y-142948999D01*
G75*
G02*
X217989999Y-142699000I249999J0D01*
G01*
X218890001Y-142699000D01*
G75*
G02*
X219140000Y-142948999I0J-249999D01*
G01*
X219140000Y-143599001D01*
G75*
G02*
X218890001Y-143849000I-249999J0D01*
G01*
G37*
%TD*%
%TO.C,R6*%
G36*
G01*
X218890001Y-145845000D02*
X217989999Y-145845000D01*
G75*
G02*
X217740000Y-145595001I0J249999D01*
G01*
X217740000Y-144944999D01*
G75*
G02*
X217989999Y-144695000I249999J0D01*
G01*
X218890001Y-144695000D01*
G75*
G02*
X219140000Y-144944999I0J-249999D01*
G01*
X219140000Y-145595001D01*
G75*
G02*
X218890001Y-145845000I-249999J0D01*
G01*
G37*
G36*
G01*
X218890001Y-147895000D02*
X217989999Y-147895000D01*
G75*
G02*
X217740000Y-147645001I0J249999D01*
G01*
X217740000Y-146994999D01*
G75*
G02*
X217989999Y-146745000I249999J0D01*
G01*
X218890001Y-146745000D01*
G75*
G02*
X219140000Y-146994999I0J-249999D01*
G01*
X219140000Y-147645001D01*
G75*
G02*
X218890001Y-147895000I-249999J0D01*
G01*
G37*
%TD*%
%TO.C,R5*%
G36*
G01*
X201110001Y-142035000D02*
X200209999Y-142035000D01*
G75*
G02*
X199960000Y-141785001I0J249999D01*
G01*
X199960000Y-141134999D01*
G75*
G02*
X200209999Y-140885000I249999J0D01*
G01*
X201110001Y-140885000D01*
G75*
G02*
X201360000Y-141134999I0J-249999D01*
G01*
X201360000Y-141785001D01*
G75*
G02*
X201110001Y-142035000I-249999J0D01*
G01*
G37*
G36*
G01*
X201110001Y-144085000D02*
X200209999Y-144085000D01*
G75*
G02*
X199960000Y-143835001I0J249999D01*
G01*
X199960000Y-143184999D01*
G75*
G02*
X200209999Y-142935000I249999J0D01*
G01*
X201110001Y-142935000D01*
G75*
G02*
X201360000Y-143184999I0J-249999D01*
G01*
X201360000Y-143835001D01*
G75*
G02*
X201110001Y-144085000I-249999J0D01*
G01*
G37*
%TD*%
%TO.C,R4*%
G36*
G01*
X201110001Y-145863000D02*
X200209999Y-145863000D01*
G75*
G02*
X199960000Y-145613001I0J249999D01*
G01*
X199960000Y-144962999D01*
G75*
G02*
X200209999Y-144713000I249999J0D01*
G01*
X201110001Y-144713000D01*
G75*
G02*
X201360000Y-144962999I0J-249999D01*
G01*
X201360000Y-145613001D01*
G75*
G02*
X201110001Y-145863000I-249999J0D01*
G01*
G37*
G36*
G01*
X201110001Y-147913000D02*
X200209999Y-147913000D01*
G75*
G02*
X199960000Y-147663001I0J249999D01*
G01*
X199960000Y-147012999D01*
G75*
G02*
X200209999Y-146763000I249999J0D01*
G01*
X201110001Y-146763000D01*
G75*
G02*
X201360000Y-147012999I0J-249999D01*
G01*
X201360000Y-147663001D01*
G75*
G02*
X201110001Y-147913000I-249999J0D01*
G01*
G37*
%TD*%
%TO.C,R2*%
G36*
G01*
X185362001Y-141790000D02*
X184461999Y-141790000D01*
G75*
G02*
X184212000Y-141540001I0J249999D01*
G01*
X184212000Y-140889999D01*
G75*
G02*
X184461999Y-140640000I249999J0D01*
G01*
X185362001Y-140640000D01*
G75*
G02*
X185612000Y-140889999I0J-249999D01*
G01*
X185612000Y-141540001D01*
G75*
G02*
X185362001Y-141790000I-249999J0D01*
G01*
G37*
G36*
G01*
X185362001Y-143840000D02*
X184461999Y-143840000D01*
G75*
G02*
X184212000Y-143590001I0J249999D01*
G01*
X184212000Y-142939999D01*
G75*
G02*
X184461999Y-142690000I249999J0D01*
G01*
X185362001Y-142690000D01*
G75*
G02*
X185612000Y-142939999I0J-249999D01*
G01*
X185612000Y-143590001D01*
G75*
G02*
X185362001Y-143840000I-249999J0D01*
G01*
G37*
%TD*%
%TO.C,R1*%
G36*
G01*
X185362001Y-145863000D02*
X184461999Y-145863000D01*
G75*
G02*
X184212000Y-145613001I0J249999D01*
G01*
X184212000Y-144962999D01*
G75*
G02*
X184461999Y-144713000I249999J0D01*
G01*
X185362001Y-144713000D01*
G75*
G02*
X185612000Y-144962999I0J-249999D01*
G01*
X185612000Y-145613001D01*
G75*
G02*
X185362001Y-145863000I-249999J0D01*
G01*
G37*
G36*
G01*
X185362001Y-147913000D02*
X184461999Y-147913000D01*
G75*
G02*
X184212000Y-147663001I0J249999D01*
G01*
X184212000Y-147012999D01*
G75*
G02*
X184461999Y-146763000I249999J0D01*
G01*
X185362001Y-146763000D01*
G75*
G02*
X185612000Y-147012999I0J-249999D01*
G01*
X185612000Y-147663001D01*
G75*
G02*
X185362001Y-147913000I-249999J0D01*
G01*
G37*
%TD*%
%TO.C,C4*%
G36*
G01*
X219915000Y-139388001D02*
X219915000Y-138487999D01*
G75*
G02*
X220164999Y-138238000I249999J0D01*
G01*
X220815001Y-138238000D01*
G75*
G02*
X221065000Y-138487999I0J-249999D01*
G01*
X221065000Y-139388001D01*
G75*
G02*
X220815001Y-139638000I-249999J0D01*
G01*
X220164999Y-139638000D01*
G75*
G02*
X219915000Y-139388001I0J249999D01*
G01*
G37*
G36*
G01*
X217865000Y-139388001D02*
X217865000Y-138487999D01*
G75*
G02*
X218114999Y-138238000I249999J0D01*
G01*
X218765001Y-138238000D01*
G75*
G02*
X219015000Y-138487999I0J-249999D01*
G01*
X219015000Y-139388001D01*
G75*
G02*
X218765001Y-139638000I-249999J0D01*
G01*
X218114999Y-139638000D01*
G75*
G02*
X217865000Y-139388001I0J249999D01*
G01*
G37*
%TD*%
%TO.C,C3*%
G36*
G01*
X206199000Y-139134001D02*
X206199000Y-138233999D01*
G75*
G02*
X206448999Y-137984000I249999J0D01*
G01*
X207099001Y-137984000D01*
G75*
G02*
X207349000Y-138233999I0J-249999D01*
G01*
X207349000Y-139134001D01*
G75*
G02*
X207099001Y-139384000I-249999J0D01*
G01*
X206448999Y-139384000D01*
G75*
G02*
X206199000Y-139134001I0J249999D01*
G01*
G37*
G36*
G01*
X204149000Y-139134001D02*
X204149000Y-138233999D01*
G75*
G02*
X204398999Y-137984000I249999J0D01*
G01*
X205049001Y-137984000D01*
G75*
G02*
X205299000Y-138233999I0J-249999D01*
G01*
X205299000Y-139134001D01*
G75*
G02*
X205049001Y-139384000I-249999J0D01*
G01*
X204398999Y-139384000D01*
G75*
G02*
X204149000Y-139134001I0J249999D01*
G01*
G37*
%TD*%
%TO.C,C2*%
G36*
G01*
X193753000Y-139388001D02*
X193753000Y-138487999D01*
G75*
G02*
X194002999Y-138238000I249999J0D01*
G01*
X194653001Y-138238000D01*
G75*
G02*
X194903000Y-138487999I0J-249999D01*
G01*
X194903000Y-139388001D01*
G75*
G02*
X194653001Y-139638000I-249999J0D01*
G01*
X194002999Y-139638000D01*
G75*
G02*
X193753000Y-139388001I0J249999D01*
G01*
G37*
G36*
G01*
X191703000Y-139388001D02*
X191703000Y-138487999D01*
G75*
G02*
X191952999Y-138238000I249999J0D01*
G01*
X192603001Y-138238000D01*
G75*
G02*
X192853000Y-138487999I0J-249999D01*
G01*
X192853000Y-139388001D01*
G75*
G02*
X192603001Y-139638000I-249999J0D01*
G01*
X191952999Y-139638000D01*
G75*
G02*
X191703000Y-139388001I0J249999D01*
G01*
G37*
%TD*%
M02*
