%TF.GenerationSoftware,KiCad,Pcbnew,(5.1.6)-1*%
%TF.CreationDate,2020-10-03T16:08:43+08:00*%
%TF.ProjectId,odometer_project,6f646f6d-6574-4657-925f-70726f6a6563,rev?*%
%TF.SameCoordinates,Original*%
%TF.FileFunction,Legend,Bot*%
%TF.FilePolarity,Positive*%
%FSLAX46Y46*%
G04 Gerber Fmt 4.6, Leading zero omitted, Abs format (unit mm)*
G04 Created by KiCad (PCBNEW (5.1.6)-1) date 2020-10-03 16:08:43*
%MOMM*%
%LPD*%
G01*
G04 APERTURE LIST*
%ADD10C,0.150000*%
%ADD11C,0.500000*%
%ADD12C,0.010000*%
G04 APERTURE END LIST*
D10*
X265397428Y-106342571D02*
X265397428Y-104842571D01*
X265040285Y-104842571D01*
X264826000Y-104914000D01*
X264683142Y-105056857D01*
X264611714Y-105199714D01*
X264540285Y-105485428D01*
X264540285Y-105699714D01*
X264611714Y-105985428D01*
X264683142Y-106128285D01*
X264826000Y-106271142D01*
X265040285Y-106342571D01*
X265397428Y-106342571D01*
X263254571Y-106342571D02*
X263254571Y-105556857D01*
X263326000Y-105414000D01*
X263468857Y-105342571D01*
X263754571Y-105342571D01*
X263897428Y-105414000D01*
X263254571Y-106271142D02*
X263397428Y-106342571D01*
X263754571Y-106342571D01*
X263897428Y-106271142D01*
X263968857Y-106128285D01*
X263968857Y-105985428D01*
X263897428Y-105842571D01*
X263754571Y-105771142D01*
X263397428Y-105771142D01*
X263254571Y-105699714D01*
X262683142Y-105342571D02*
X262326000Y-106342571D01*
X261968857Y-105342571D01*
X261397428Y-106342571D02*
X261397428Y-105342571D01*
X261397428Y-104842571D02*
X261468857Y-104914000D01*
X261397428Y-104985428D01*
X261326000Y-104914000D01*
X261397428Y-104842571D01*
X261397428Y-104985428D01*
X260040285Y-106342571D02*
X260040285Y-104842571D01*
X260040285Y-106271142D02*
X260183142Y-106342571D01*
X260468857Y-106342571D01*
X260611714Y-106271142D01*
X260683142Y-106199714D01*
X260754571Y-106056857D01*
X260754571Y-105628285D01*
X260683142Y-105485428D01*
X260611714Y-105414000D01*
X260468857Y-105342571D01*
X260183142Y-105342571D01*
X260040285Y-105414000D01*
X258254571Y-106271142D02*
X258040285Y-106342571D01*
X257683142Y-106342571D01*
X257540285Y-106271142D01*
X257468857Y-106199714D01*
X257397428Y-106056857D01*
X257397428Y-105914000D01*
X257468857Y-105771142D01*
X257540285Y-105699714D01*
X257683142Y-105628285D01*
X257968857Y-105556857D01*
X258111714Y-105485428D01*
X258183142Y-105414000D01*
X258254571Y-105271142D01*
X258254571Y-105128285D01*
X258183142Y-104985428D01*
X258111714Y-104914000D01*
X257968857Y-104842571D01*
X257611714Y-104842571D01*
X257397428Y-104914000D01*
X256540285Y-106342571D02*
X256683142Y-106271142D01*
X256754571Y-106128285D01*
X256754571Y-104842571D01*
X255326000Y-106342571D02*
X255326000Y-105556857D01*
X255397428Y-105414000D01*
X255540285Y-105342571D01*
X255826000Y-105342571D01*
X255968857Y-105414000D01*
X255326000Y-106271142D02*
X255468857Y-106342571D01*
X255826000Y-106342571D01*
X255968857Y-106271142D01*
X256040285Y-106128285D01*
X256040285Y-105985428D01*
X255968857Y-105842571D01*
X255826000Y-105771142D01*
X255468857Y-105771142D01*
X255326000Y-105699714D01*
X254826000Y-105342571D02*
X254254571Y-105342571D01*
X254611714Y-104842571D02*
X254611714Y-106128285D01*
X254540285Y-106271142D01*
X254397428Y-106342571D01*
X254254571Y-106342571D01*
X253183142Y-106271142D02*
X253326000Y-106342571D01*
X253611714Y-106342571D01*
X253754571Y-106271142D01*
X253826000Y-106128285D01*
X253826000Y-105556857D01*
X253754571Y-105414000D01*
X253611714Y-105342571D01*
X253326000Y-105342571D01*
X253183142Y-105414000D01*
X253111714Y-105556857D01*
X253111714Y-105699714D01*
X253826000Y-105842571D01*
X252468857Y-106342571D02*
X252468857Y-105342571D01*
X252468857Y-105628285D02*
X252397428Y-105485428D01*
X252326000Y-105414000D01*
X252183142Y-105342571D01*
X252040285Y-105342571D01*
X265326000Y-103120000D02*
X264611714Y-103120000D01*
X265468857Y-103548571D02*
X264968857Y-102048571D01*
X264468857Y-103548571D01*
X263968857Y-103548571D02*
X263968857Y-102048571D01*
X263968857Y-102620000D02*
X263826000Y-102548571D01*
X263540285Y-102548571D01*
X263397428Y-102620000D01*
X263326000Y-102691428D01*
X263254571Y-102834285D01*
X263254571Y-103262857D01*
X263326000Y-103405714D01*
X263397428Y-103477142D01*
X263540285Y-103548571D01*
X263826000Y-103548571D01*
X263968857Y-103477142D01*
X262040285Y-103477142D02*
X262183142Y-103548571D01*
X262468857Y-103548571D01*
X262611714Y-103477142D01*
X262683142Y-103334285D01*
X262683142Y-102762857D01*
X262611714Y-102620000D01*
X262468857Y-102548571D01*
X262183142Y-102548571D01*
X262040285Y-102620000D01*
X261968857Y-102762857D01*
X261968857Y-102905714D01*
X262683142Y-103048571D01*
X261111714Y-103548571D02*
X261254571Y-103477142D01*
X261326000Y-103334285D01*
X261326000Y-102048571D01*
X259397428Y-103548571D02*
X259397428Y-102048571D01*
X258897428Y-103120000D01*
X258397428Y-102048571D01*
X258397428Y-103548571D01*
X257111714Y-103477142D02*
X257254571Y-103548571D01*
X257540285Y-103548571D01*
X257683142Y-103477142D01*
X257754571Y-103334285D01*
X257754571Y-102762857D01*
X257683142Y-102620000D01*
X257540285Y-102548571D01*
X257254571Y-102548571D01*
X257111714Y-102620000D01*
X257040285Y-102762857D01*
X257040285Y-102905714D01*
X257754571Y-103048571D01*
X256183142Y-103548571D02*
X256326000Y-103477142D01*
X256397428Y-103334285D01*
X256397428Y-102048571D01*
X254968857Y-103548571D02*
X254968857Y-102762857D01*
X255040285Y-102620000D01*
X255183142Y-102548571D01*
X255468857Y-102548571D01*
X255611714Y-102620000D01*
X254968857Y-103477142D02*
X255111714Y-103548571D01*
X255468857Y-103548571D01*
X255611714Y-103477142D01*
X255683142Y-103334285D01*
X255683142Y-103191428D01*
X255611714Y-103048571D01*
X255468857Y-102977142D01*
X255111714Y-102977142D01*
X254968857Y-102905714D01*
X254254571Y-103548571D02*
X254254571Y-102048571D01*
X254111714Y-102977142D02*
X253683142Y-103548571D01*
X253683142Y-102548571D02*
X254254571Y-103120000D01*
X252397428Y-102548571D02*
X252397428Y-103548571D01*
X253040285Y-102548571D02*
X253040285Y-103334285D01*
X252968857Y-103477142D01*
X252826000Y-103548571D01*
X252611714Y-103548571D01*
X252468857Y-103477142D01*
X252397428Y-103405714D01*
X265560000Y-100683142D02*
X265345714Y-100754571D01*
X264988571Y-100754571D01*
X264845714Y-100683142D01*
X264774285Y-100611714D01*
X264702857Y-100468857D01*
X264702857Y-100326000D01*
X264774285Y-100183142D01*
X264845714Y-100111714D01*
X264988571Y-100040285D01*
X265274285Y-99968857D01*
X265417142Y-99897428D01*
X265488571Y-99826000D01*
X265560000Y-99683142D01*
X265560000Y-99540285D01*
X265488571Y-99397428D01*
X265417142Y-99326000D01*
X265274285Y-99254571D01*
X264917142Y-99254571D01*
X264702857Y-99326000D01*
X264060000Y-100754571D02*
X264060000Y-99254571D01*
X263417142Y-100754571D02*
X263417142Y-99968857D01*
X263488571Y-99826000D01*
X263631428Y-99754571D01*
X263845714Y-99754571D01*
X263988571Y-99826000D01*
X264060000Y-99897428D01*
X262060000Y-100754571D02*
X262060000Y-99968857D01*
X262131428Y-99826000D01*
X262274285Y-99754571D01*
X262560000Y-99754571D01*
X262702857Y-99826000D01*
X262060000Y-100683142D02*
X262202857Y-100754571D01*
X262560000Y-100754571D01*
X262702857Y-100683142D01*
X262774285Y-100540285D01*
X262774285Y-100397428D01*
X262702857Y-100254571D01*
X262560000Y-100183142D01*
X262202857Y-100183142D01*
X262060000Y-100111714D01*
X261345714Y-100754571D02*
X261345714Y-99754571D01*
X261345714Y-99897428D02*
X261274285Y-99826000D01*
X261131428Y-99754571D01*
X260917142Y-99754571D01*
X260774285Y-99826000D01*
X260702857Y-99968857D01*
X260702857Y-100754571D01*
X260702857Y-99968857D02*
X260631428Y-99826000D01*
X260488571Y-99754571D01*
X260274285Y-99754571D01*
X260131428Y-99826000D01*
X260060000Y-99968857D01*
X260060000Y-100754571D01*
X259345714Y-100754571D02*
X259345714Y-99754571D01*
X259345714Y-99254571D02*
X259417142Y-99326000D01*
X259345714Y-99397428D01*
X259274285Y-99326000D01*
X259345714Y-99254571D01*
X259345714Y-99397428D01*
X257488571Y-100754571D02*
X257488571Y-99254571D01*
X256988571Y-100326000D01*
X256488571Y-99254571D01*
X256488571Y-100754571D01*
X255560000Y-100754571D02*
X255702857Y-100683142D01*
X255774285Y-100611714D01*
X255845714Y-100468857D01*
X255845714Y-100040285D01*
X255774285Y-99897428D01*
X255702857Y-99826000D01*
X255560000Y-99754571D01*
X255345714Y-99754571D01*
X255202857Y-99826000D01*
X255131428Y-99897428D01*
X255060000Y-100040285D01*
X255060000Y-100468857D01*
X255131428Y-100611714D01*
X255202857Y-100683142D01*
X255345714Y-100754571D01*
X255560000Y-100754571D01*
X254417142Y-100754571D02*
X254417142Y-99254571D01*
X253774285Y-100754571D02*
X253774285Y-99968857D01*
X253845714Y-99826000D01*
X253988571Y-99754571D01*
X254202857Y-99754571D01*
X254345714Y-99826000D01*
X254417142Y-99897428D01*
X252417142Y-100754571D02*
X252417142Y-99254571D01*
X252417142Y-100683142D02*
X252560000Y-100754571D01*
X252845714Y-100754571D01*
X252988571Y-100683142D01*
X253060000Y-100611714D01*
X253131428Y-100468857D01*
X253131428Y-100040285D01*
X253060000Y-99897428D01*
X252988571Y-99826000D01*
X252845714Y-99754571D01*
X252560000Y-99754571D01*
X252417142Y-99826000D01*
X251060000Y-100754571D02*
X251060000Y-99968857D01*
X251131428Y-99826000D01*
X251274285Y-99754571D01*
X251560000Y-99754571D01*
X251702857Y-99826000D01*
X251060000Y-100683142D02*
X251202857Y-100754571D01*
X251560000Y-100754571D01*
X251702857Y-100683142D01*
X251774285Y-100540285D01*
X251774285Y-100397428D01*
X251702857Y-100254571D01*
X251560000Y-100183142D01*
X251202857Y-100183142D01*
X251060000Y-100111714D01*
X250345714Y-100754571D02*
X250345714Y-99754571D01*
X250345714Y-100040285D02*
X250274285Y-99897428D01*
X250202857Y-99826000D01*
X250060000Y-99754571D01*
X249917142Y-99754571D01*
X265441142Y-97960571D02*
X265441142Y-96460571D01*
X265441142Y-97174857D02*
X264584000Y-97174857D01*
X264584000Y-97960571D02*
X264584000Y-96460571D01*
X263298285Y-97889142D02*
X263441142Y-97960571D01*
X263726857Y-97960571D01*
X263869714Y-97889142D01*
X263941142Y-97746285D01*
X263941142Y-97174857D01*
X263869714Y-97032000D01*
X263726857Y-96960571D01*
X263441142Y-96960571D01*
X263298285Y-97032000D01*
X263226857Y-97174857D01*
X263226857Y-97317714D01*
X263941142Y-97460571D01*
X262584000Y-96960571D02*
X262584000Y-97960571D01*
X262584000Y-97103428D02*
X262512571Y-97032000D01*
X262369714Y-96960571D01*
X262155428Y-96960571D01*
X262012571Y-97032000D01*
X261941142Y-97174857D01*
X261941142Y-97960571D01*
X261226857Y-97960571D02*
X261226857Y-96960571D01*
X261226857Y-97246285D02*
X261155428Y-97103428D01*
X261084000Y-97032000D01*
X260941142Y-96960571D01*
X260798285Y-96960571D01*
X260441142Y-96960571D02*
X260084000Y-97960571D01*
X259726857Y-96960571D02*
X260084000Y-97960571D01*
X260226857Y-98317714D01*
X260298285Y-98389142D01*
X260441142Y-98460571D01*
X257155428Y-97817714D02*
X257226857Y-97889142D01*
X257441142Y-97960571D01*
X257584000Y-97960571D01*
X257798285Y-97889142D01*
X257941142Y-97746285D01*
X258012571Y-97603428D01*
X258084000Y-97317714D01*
X258084000Y-97103428D01*
X258012571Y-96817714D01*
X257941142Y-96674857D01*
X257798285Y-96532000D01*
X257584000Y-96460571D01*
X257441142Y-96460571D01*
X257226857Y-96532000D01*
X257155428Y-96603428D01*
X256512571Y-97960571D02*
X256512571Y-96460571D01*
X255869714Y-97960571D02*
X255869714Y-97174857D01*
X255941142Y-97032000D01*
X256084000Y-96960571D01*
X256298285Y-96960571D01*
X256441142Y-97032000D01*
X256512571Y-97103428D01*
X254584000Y-97889142D02*
X254726857Y-97960571D01*
X255012571Y-97960571D01*
X255155428Y-97889142D01*
X255226857Y-97746285D01*
X255226857Y-97174857D01*
X255155428Y-97032000D01*
X255012571Y-96960571D01*
X254726857Y-96960571D01*
X254584000Y-97032000D01*
X254512571Y-97174857D01*
X254512571Y-97317714D01*
X255226857Y-97460571D01*
X253869714Y-96960571D02*
X253869714Y-97960571D01*
X253869714Y-97103428D02*
X253798285Y-97032000D01*
X253655428Y-96960571D01*
X253441142Y-96960571D01*
X253298285Y-97032000D01*
X253226857Y-97174857D01*
X253226857Y-97960571D01*
D11*
X265006571Y-93305142D02*
X265006571Y-90305142D01*
X264292285Y-90305142D01*
X263863714Y-90448000D01*
X263578000Y-90733714D01*
X263435142Y-91019428D01*
X263292285Y-91590857D01*
X263292285Y-92019428D01*
X263435142Y-92590857D01*
X263578000Y-92876571D01*
X263863714Y-93162285D01*
X264292285Y-93305142D01*
X265006571Y-93305142D01*
X262006571Y-91733714D02*
X261006571Y-91733714D01*
X260578000Y-93305142D02*
X262006571Y-93305142D01*
X262006571Y-90305142D01*
X260578000Y-90305142D01*
X259435142Y-93162285D02*
X259006571Y-93305142D01*
X258292285Y-93305142D01*
X258006571Y-93162285D01*
X257863714Y-93019428D01*
X257720857Y-92733714D01*
X257720857Y-92448000D01*
X257863714Y-92162285D01*
X258006571Y-92019428D01*
X258292285Y-91876571D01*
X258863714Y-91733714D01*
X259149428Y-91590857D01*
X259292285Y-91448000D01*
X259435142Y-91162285D01*
X259435142Y-90876571D01*
X259292285Y-90590857D01*
X259149428Y-90448000D01*
X258863714Y-90305142D01*
X258149428Y-90305142D01*
X257720857Y-90448000D01*
X252578000Y-90448000D02*
X252863714Y-90305142D01*
X253292285Y-90305142D01*
X253720857Y-90448000D01*
X254006571Y-90733714D01*
X254149428Y-91019428D01*
X254292285Y-91590857D01*
X254292285Y-92019428D01*
X254149428Y-92590857D01*
X254006571Y-92876571D01*
X253720857Y-93162285D01*
X253292285Y-93305142D01*
X253006571Y-93305142D01*
X252578000Y-93162285D01*
X252435142Y-93019428D01*
X252435142Y-92019428D01*
X253006571Y-92019428D01*
X249863714Y-93305142D02*
X249863714Y-91733714D01*
X250006571Y-91448000D01*
X250292285Y-91305142D01*
X250863714Y-91305142D01*
X251149428Y-91448000D01*
X249863714Y-93162285D02*
X250149428Y-93305142D01*
X250863714Y-93305142D01*
X251149428Y-93162285D01*
X251292285Y-92876571D01*
X251292285Y-92590857D01*
X251149428Y-92305142D01*
X250863714Y-92162285D01*
X250149428Y-92162285D01*
X249863714Y-92019428D01*
X248435142Y-91305142D02*
X248435142Y-93305142D01*
X248435142Y-91590857D02*
X248292285Y-91448000D01*
X248006571Y-91305142D01*
X247578000Y-91305142D01*
X247292285Y-91448000D01*
X247149428Y-91733714D01*
X247149428Y-93305142D01*
X244435142Y-91305142D02*
X244435142Y-93733714D01*
X244578000Y-94019428D01*
X244720857Y-94162285D01*
X245006571Y-94305142D01*
X245435142Y-94305142D01*
X245720857Y-94162285D01*
X244435142Y-93162285D02*
X244720857Y-93305142D01*
X245292285Y-93305142D01*
X245578000Y-93162285D01*
X245720857Y-93019428D01*
X245863714Y-92733714D01*
X245863714Y-91876571D01*
X245720857Y-91590857D01*
X245578000Y-91448000D01*
X245292285Y-91305142D01*
X244720857Y-91305142D01*
X244435142Y-91448000D01*
X241006571Y-90305142D02*
X240292285Y-93305142D01*
X239720857Y-91162285D01*
X239149428Y-93305142D01*
X238435142Y-90305142D01*
X236006571Y-93305142D02*
X236006571Y-91733714D01*
X236149428Y-91448000D01*
X236435142Y-91305142D01*
X237006571Y-91305142D01*
X237292285Y-91448000D01*
X236006571Y-93162285D02*
X236292285Y-93305142D01*
X237006571Y-93305142D01*
X237292285Y-93162285D01*
X237435142Y-92876571D01*
X237435142Y-92590857D01*
X237292285Y-92305142D01*
X237006571Y-92162285D01*
X236292285Y-92162285D01*
X236006571Y-92019428D01*
X234720857Y-93162285D02*
X234435142Y-93305142D01*
X233863714Y-93305142D01*
X233578000Y-93162285D01*
X233435142Y-92876571D01*
X233435142Y-92733714D01*
X233578000Y-92448000D01*
X233863714Y-92305142D01*
X234292285Y-92305142D01*
X234578000Y-92162285D01*
X234720857Y-91876571D01*
X234720857Y-91733714D01*
X234578000Y-91448000D01*
X234292285Y-91305142D01*
X233863714Y-91305142D01*
X233578000Y-91448000D01*
X229863714Y-93305142D02*
X229863714Y-90305142D01*
X229863714Y-91733714D02*
X228149428Y-91733714D01*
X228149428Y-93305142D02*
X228149428Y-90305142D01*
X225578000Y-93162285D02*
X225863714Y-93305142D01*
X226435142Y-93305142D01*
X226720857Y-93162285D01*
X226863714Y-92876571D01*
X226863714Y-91733714D01*
X226720857Y-91448000D01*
X226435142Y-91305142D01*
X225863714Y-91305142D01*
X225578000Y-91448000D01*
X225435142Y-91733714D01*
X225435142Y-92019428D01*
X226863714Y-92305142D01*
X224149428Y-93305142D02*
X224149428Y-91305142D01*
X224149428Y-91876571D02*
X224006571Y-91590857D01*
X223863714Y-91448000D01*
X223578000Y-91305142D01*
X223292285Y-91305142D01*
X221149428Y-93162285D02*
X221435142Y-93305142D01*
X222006571Y-93305142D01*
X222292285Y-93162285D01*
X222435142Y-92876571D01*
X222435142Y-91733714D01*
X222292285Y-91448000D01*
X222006571Y-91305142D01*
X221435142Y-91305142D01*
X221149428Y-91448000D01*
X221006571Y-91733714D01*
X221006571Y-92019428D01*
X222435142Y-92305142D01*
D12*
%TO.C,G\u002A\u002A\u002A*%
G36*
X203982119Y-97089429D02*
G01*
X201007292Y-97687576D01*
X199425629Y-98058946D01*
X196457701Y-98858296D01*
X194131068Y-99702873D01*
X192076380Y-100742107D01*
X190744640Y-101571055D01*
X187926605Y-103557439D01*
X185750714Y-105363932D01*
X184301820Y-106909797D01*
X183664779Y-108114298D01*
X183642001Y-108328944D01*
X183833924Y-109519795D01*
X184308372Y-110914600D01*
X184913363Y-112168192D01*
X185496914Y-112935402D01*
X185711945Y-113030000D01*
X186072177Y-113457822D01*
X186027378Y-114630734D01*
X185622488Y-116382899D01*
X184902447Y-118548484D01*
X183912193Y-120961652D01*
X183096664Y-122680812D01*
X181332220Y-126574852D01*
X180213509Y-130025425D01*
X179664946Y-133304575D01*
X179578000Y-135344965D01*
X179410506Y-137275854D01*
X178991632Y-139135107D01*
X178816001Y-139621644D01*
X178304602Y-141182386D01*
X178058030Y-142596662D01*
X178054001Y-142739379D01*
X177811185Y-143854400D01*
X177179416Y-145457652D01*
X176431931Y-146946695D01*
X173805171Y-151038490D01*
X170932495Y-154238322D01*
X167680068Y-156664028D01*
X163914058Y-158433443D01*
X163046207Y-158732411D01*
X160924014Y-159536229D01*
X159222881Y-160394284D01*
X158104360Y-161203504D01*
X157730007Y-161860814D01*
X157828206Y-162061538D01*
X158413174Y-162028353D01*
X159543023Y-161601719D01*
X160085984Y-161337841D01*
X163264994Y-160103338D01*
X167326681Y-159214365D01*
X169037000Y-158977273D01*
X170423949Y-158697973D01*
X171284114Y-158323411D01*
X171486385Y-157970271D01*
X170899650Y-157755236D01*
X170434000Y-157734000D01*
X169607339Y-157615950D01*
X169418000Y-157453191D01*
X169764489Y-156999993D01*
X170683228Y-156050232D01*
X171993128Y-154789056D01*
X172339000Y-154466708D01*
X174035417Y-152672559D01*
X175692999Y-150534996D01*
X177164917Y-148289304D01*
X178304340Y-146170768D01*
X178964439Y-144414673D01*
X179070000Y-143680732D01*
X179272731Y-142414150D01*
X179772351Y-140858166D01*
X179890881Y-140572683D01*
X180302059Y-139159492D01*
X180676828Y-137016745D01*
X180969579Y-134430842D01*
X181060607Y-133227210D01*
X181238834Y-130761302D01*
X181466787Y-128941234D01*
X181841453Y-127419423D01*
X182459818Y-125848286D01*
X183418869Y-123880241D01*
X183966441Y-122813210D01*
X185394077Y-119786643D01*
X186498026Y-116925956D01*
X187149889Y-114564067D01*
X187151810Y-114554000D01*
X187632477Y-112048773D01*
X187967588Y-110402778D01*
X188198855Y-109476653D01*
X188367991Y-109131037D01*
X188516705Y-109226569D01*
X188653208Y-109537715D01*
X189171539Y-110093355D01*
X190119000Y-109935085D01*
X191001349Y-109412434D01*
X191262000Y-108982369D01*
X191594459Y-108475432D01*
X191708454Y-108458000D01*
X192341503Y-108212649D01*
X193569569Y-107569805D01*
X194714178Y-106907595D01*
X186631560Y-106907595D01*
X186381650Y-107654451D01*
X185887635Y-108317583D01*
X185357035Y-108423756D01*
X185166000Y-108012201D01*
X185513555Y-107350150D01*
X185928000Y-106934000D01*
X186557854Y-106532805D01*
X186631560Y-106907595D01*
X194714178Y-106907595D01*
X195107569Y-106680000D01*
X196734173Y-105772512D01*
X198110882Y-105131813D01*
X198908226Y-104902000D01*
X199822759Y-105174420D01*
X201136210Y-105861172D01*
X201712600Y-106229634D01*
X202959251Y-107017752D01*
X203798458Y-107269905D01*
X204642531Y-107050341D01*
X205212490Y-106775006D01*
X207270102Y-106146799D01*
X209079673Y-106422440D01*
X209454185Y-106620782D01*
X210341528Y-106668199D01*
X210880971Y-106375399D01*
X211592354Y-105987396D01*
X212074683Y-106401216D01*
X212897051Y-106848101D01*
X213854005Y-106812341D01*
X215064623Y-106840691D01*
X215485937Y-107249612D01*
X215839327Y-107591568D01*
X216685979Y-107749106D01*
X218211419Y-107737827D01*
X219950494Y-107625058D01*
X224147192Y-107302474D01*
X224691222Y-109785237D01*
X224948748Y-111353563D01*
X225207098Y-113592062D01*
X225430001Y-116155580D01*
X225540569Y-117866881D01*
X225825874Y-121346149D01*
X226255940Y-124203197D01*
X226805107Y-126310114D01*
X227447713Y-127538993D01*
X227489849Y-127583181D01*
X227772212Y-128409708D01*
X227829102Y-129810931D01*
X227681889Y-131375992D01*
X227351948Y-132694029D01*
X227207946Y-133002396D01*
X226604378Y-134294674D01*
X226064946Y-135777954D01*
X225552000Y-137443909D01*
X223539588Y-136412954D01*
X221956275Y-135703760D01*
X220843888Y-135403936D01*
X220363713Y-135542481D01*
X220452119Y-135857831D01*
X221151328Y-136448776D01*
X222374357Y-137136288D01*
X223679563Y-137700487D01*
X224598105Y-137922000D01*
X225035644Y-138214416D01*
X224854483Y-138893417D01*
X224187225Y-139661628D01*
X223666306Y-140011636D01*
X222776491Y-140245185D01*
X221873712Y-139784204D01*
X221451688Y-139411886D01*
X219794929Y-138495381D01*
X217616613Y-138397600D01*
X215501030Y-138893923D01*
X213319921Y-139348798D01*
X210589964Y-139557477D01*
X207752325Y-139502067D01*
X205867000Y-139284684D01*
X204408075Y-139123215D01*
X203565861Y-139206234D01*
X203454000Y-139333331D01*
X203922169Y-139997302D01*
X205190836Y-140496683D01*
X207056244Y-140820908D01*
X209314632Y-140959413D01*
X211762244Y-140901633D01*
X214195321Y-140637004D01*
X216410103Y-140154962D01*
X216824071Y-140026552D01*
X218444980Y-139520439D01*
X219402899Y-139350157D01*
X219991238Y-139508682D01*
X220458926Y-139939552D01*
X221070226Y-140710845D01*
X221234000Y-141043574D01*
X220910428Y-141507426D01*
X220059844Y-142492528D01*
X218862444Y-143790674D01*
X218793411Y-143863534D01*
X215938633Y-146396196D01*
X212983953Y-148021265D01*
X210071272Y-148796759D01*
X208367797Y-149233837D01*
X207035808Y-149892267D01*
X206296972Y-150630614D01*
X206295082Y-151206179D01*
X206865225Y-151452046D01*
X206981301Y-151401737D01*
X207388814Y-151678479D01*
X207992354Y-152661306D01*
X208408460Y-153552450D01*
X209374291Y-155492908D01*
X210583771Y-157495667D01*
X211015448Y-158115000D01*
X212045328Y-159398860D01*
X212921848Y-160039855D01*
X214030415Y-160256503D01*
X214823318Y-160274000D01*
X218086407Y-160723951D01*
X221257235Y-161971382D01*
X222941046Y-163048321D01*
X224288027Y-163942911D01*
X225156654Y-164285180D01*
X225428486Y-164102001D01*
X224985081Y-163420249D01*
X224282000Y-162744068D01*
X221642284Y-160912640D01*
X218750048Y-159702450D01*
X215952380Y-159258096D01*
X215914163Y-159258000D01*
X213977635Y-159002880D01*
X212680960Y-158369000D01*
X211698001Y-157225229D01*
X210659202Y-155554199D01*
X209752082Y-153719752D01*
X209164161Y-152085732D01*
X209042000Y-151308338D01*
X209174660Y-150521894D01*
X209764024Y-150183071D01*
X210972400Y-150114000D01*
X212373394Y-149979821D01*
X213347475Y-149649152D01*
X213446006Y-149570794D01*
X214412406Y-148998115D01*
X214718961Y-148920485D01*
X215583965Y-148517364D01*
X216647859Y-147696180D01*
X216659146Y-147685690D01*
X217585429Y-146908171D01*
X218182199Y-146559404D01*
X218200248Y-146558000D01*
X218630380Y-146150813D01*
X219095050Y-145319864D01*
X219817009Y-144386780D01*
X221111037Y-143235294D01*
X222351591Y-142346132D01*
X224071468Y-141203038D01*
X225332104Y-140201092D01*
X226243050Y-139140588D01*
X226913860Y-137821820D01*
X227454085Y-136045083D01*
X227973278Y-133610671D01*
X228398343Y-131323365D01*
X228653194Y-129110004D01*
X228457136Y-127585916D01*
X228349498Y-127312808D01*
X227881074Y-125911081D01*
X227384438Y-123835101D01*
X226921239Y-121422633D01*
X226553132Y-119011443D01*
X226341766Y-116939295D01*
X226314088Y-116161650D01*
X226442055Y-114628625D01*
X226979668Y-113513693D01*
X228092000Y-112385178D01*
X229314538Y-111074619D01*
X229820807Y-109811465D01*
X229870000Y-109126528D01*
X230004145Y-107988999D01*
X230331744Y-107448975D01*
X230378000Y-107442000D01*
X230855339Y-107109556D01*
X230730995Y-106312649D01*
X230071777Y-105351913D01*
X229870000Y-105155999D01*
X229100290Y-104153968D01*
X228854000Y-103361468D01*
X228657964Y-102840019D01*
X195326000Y-102840019D01*
X194957238Y-103357326D01*
X194818000Y-103378000D01*
X194323208Y-103204678D01*
X194310000Y-103153980D01*
X194665974Y-102720265D01*
X194818000Y-102616000D01*
X195286114Y-102656277D01*
X195326000Y-102840019D01*
X228657964Y-102840019D01*
X228425860Y-102222635D01*
X227095536Y-101360115D01*
X226314000Y-101084292D01*
X225426845Y-100686977D01*
X214820817Y-100686977D01*
X214122000Y-100757789D01*
X213400828Y-100677956D01*
X213487000Y-100501561D01*
X214527053Y-100434465D01*
X214757000Y-100501561D01*
X214820817Y-100686977D01*
X225426845Y-100686977D01*
X224926635Y-100462957D01*
X224720644Y-100330000D01*
X198882000Y-100330000D01*
X198446366Y-100708637D01*
X197582020Y-100838000D01*
X196717715Y-100676742D01*
X196596000Y-100330000D01*
X197312519Y-99903246D01*
X197895981Y-99822000D01*
X198705046Y-100040514D01*
X198882000Y-100330000D01*
X224720644Y-100330000D01*
X223865247Y-99777884D01*
X222631517Y-99142121D01*
X220942356Y-98645098D01*
X220309247Y-98534858D01*
X218437242Y-98162475D01*
X216674354Y-97628093D01*
X216255839Y-97457319D01*
X214802923Y-97001517D01*
X213226114Y-97024058D01*
X212212678Y-97207283D01*
X210340804Y-97449155D01*
X209066870Y-97288971D01*
X208969236Y-97243057D01*
X207821829Y-96879246D01*
X206206544Y-96824011D01*
X203982119Y-97089429D01*
G37*
X203982119Y-97089429D02*
X201007292Y-97687576D01*
X199425629Y-98058946D01*
X196457701Y-98858296D01*
X194131068Y-99702873D01*
X192076380Y-100742107D01*
X190744640Y-101571055D01*
X187926605Y-103557439D01*
X185750714Y-105363932D01*
X184301820Y-106909797D01*
X183664779Y-108114298D01*
X183642001Y-108328944D01*
X183833924Y-109519795D01*
X184308372Y-110914600D01*
X184913363Y-112168192D01*
X185496914Y-112935402D01*
X185711945Y-113030000D01*
X186072177Y-113457822D01*
X186027378Y-114630734D01*
X185622488Y-116382899D01*
X184902447Y-118548484D01*
X183912193Y-120961652D01*
X183096664Y-122680812D01*
X181332220Y-126574852D01*
X180213509Y-130025425D01*
X179664946Y-133304575D01*
X179578000Y-135344965D01*
X179410506Y-137275854D01*
X178991632Y-139135107D01*
X178816001Y-139621644D01*
X178304602Y-141182386D01*
X178058030Y-142596662D01*
X178054001Y-142739379D01*
X177811185Y-143854400D01*
X177179416Y-145457652D01*
X176431931Y-146946695D01*
X173805171Y-151038490D01*
X170932495Y-154238322D01*
X167680068Y-156664028D01*
X163914058Y-158433443D01*
X163046207Y-158732411D01*
X160924014Y-159536229D01*
X159222881Y-160394284D01*
X158104360Y-161203504D01*
X157730007Y-161860814D01*
X157828206Y-162061538D01*
X158413174Y-162028353D01*
X159543023Y-161601719D01*
X160085984Y-161337841D01*
X163264994Y-160103338D01*
X167326681Y-159214365D01*
X169037000Y-158977273D01*
X170423949Y-158697973D01*
X171284114Y-158323411D01*
X171486385Y-157970271D01*
X170899650Y-157755236D01*
X170434000Y-157734000D01*
X169607339Y-157615950D01*
X169418000Y-157453191D01*
X169764489Y-156999993D01*
X170683228Y-156050232D01*
X171993128Y-154789056D01*
X172339000Y-154466708D01*
X174035417Y-152672559D01*
X175692999Y-150534996D01*
X177164917Y-148289304D01*
X178304340Y-146170768D01*
X178964439Y-144414673D01*
X179070000Y-143680732D01*
X179272731Y-142414150D01*
X179772351Y-140858166D01*
X179890881Y-140572683D01*
X180302059Y-139159492D01*
X180676828Y-137016745D01*
X180969579Y-134430842D01*
X181060607Y-133227210D01*
X181238834Y-130761302D01*
X181466787Y-128941234D01*
X181841453Y-127419423D01*
X182459818Y-125848286D01*
X183418869Y-123880241D01*
X183966441Y-122813210D01*
X185394077Y-119786643D01*
X186498026Y-116925956D01*
X187149889Y-114564067D01*
X187151810Y-114554000D01*
X187632477Y-112048773D01*
X187967588Y-110402778D01*
X188198855Y-109476653D01*
X188367991Y-109131037D01*
X188516705Y-109226569D01*
X188653208Y-109537715D01*
X189171539Y-110093355D01*
X190119000Y-109935085D01*
X191001349Y-109412434D01*
X191262000Y-108982369D01*
X191594459Y-108475432D01*
X191708454Y-108458000D01*
X192341503Y-108212649D01*
X193569569Y-107569805D01*
X194714178Y-106907595D01*
X186631560Y-106907595D01*
X186381650Y-107654451D01*
X185887635Y-108317583D01*
X185357035Y-108423756D01*
X185166000Y-108012201D01*
X185513555Y-107350150D01*
X185928000Y-106934000D01*
X186557854Y-106532805D01*
X186631560Y-106907595D01*
X194714178Y-106907595D01*
X195107569Y-106680000D01*
X196734173Y-105772512D01*
X198110882Y-105131813D01*
X198908226Y-104902000D01*
X199822759Y-105174420D01*
X201136210Y-105861172D01*
X201712600Y-106229634D01*
X202959251Y-107017752D01*
X203798458Y-107269905D01*
X204642531Y-107050341D01*
X205212490Y-106775006D01*
X207270102Y-106146799D01*
X209079673Y-106422440D01*
X209454185Y-106620782D01*
X210341528Y-106668199D01*
X210880971Y-106375399D01*
X211592354Y-105987396D01*
X212074683Y-106401216D01*
X212897051Y-106848101D01*
X213854005Y-106812341D01*
X215064623Y-106840691D01*
X215485937Y-107249612D01*
X215839327Y-107591568D01*
X216685979Y-107749106D01*
X218211419Y-107737827D01*
X219950494Y-107625058D01*
X224147192Y-107302474D01*
X224691222Y-109785237D01*
X224948748Y-111353563D01*
X225207098Y-113592062D01*
X225430001Y-116155580D01*
X225540569Y-117866881D01*
X225825874Y-121346149D01*
X226255940Y-124203197D01*
X226805107Y-126310114D01*
X227447713Y-127538993D01*
X227489849Y-127583181D01*
X227772212Y-128409708D01*
X227829102Y-129810931D01*
X227681889Y-131375992D01*
X227351948Y-132694029D01*
X227207946Y-133002396D01*
X226604378Y-134294674D01*
X226064946Y-135777954D01*
X225552000Y-137443909D01*
X223539588Y-136412954D01*
X221956275Y-135703760D01*
X220843888Y-135403936D01*
X220363713Y-135542481D01*
X220452119Y-135857831D01*
X221151328Y-136448776D01*
X222374357Y-137136288D01*
X223679563Y-137700487D01*
X224598105Y-137922000D01*
X225035644Y-138214416D01*
X224854483Y-138893417D01*
X224187225Y-139661628D01*
X223666306Y-140011636D01*
X222776491Y-140245185D01*
X221873712Y-139784204D01*
X221451688Y-139411886D01*
X219794929Y-138495381D01*
X217616613Y-138397600D01*
X215501030Y-138893923D01*
X213319921Y-139348798D01*
X210589964Y-139557477D01*
X207752325Y-139502067D01*
X205867000Y-139284684D01*
X204408075Y-139123215D01*
X203565861Y-139206234D01*
X203454000Y-139333331D01*
X203922169Y-139997302D01*
X205190836Y-140496683D01*
X207056244Y-140820908D01*
X209314632Y-140959413D01*
X211762244Y-140901633D01*
X214195321Y-140637004D01*
X216410103Y-140154962D01*
X216824071Y-140026552D01*
X218444980Y-139520439D01*
X219402899Y-139350157D01*
X219991238Y-139508682D01*
X220458926Y-139939552D01*
X221070226Y-140710845D01*
X221234000Y-141043574D01*
X220910428Y-141507426D01*
X220059844Y-142492528D01*
X218862444Y-143790674D01*
X218793411Y-143863534D01*
X215938633Y-146396196D01*
X212983953Y-148021265D01*
X210071272Y-148796759D01*
X208367797Y-149233837D01*
X207035808Y-149892267D01*
X206296972Y-150630614D01*
X206295082Y-151206179D01*
X206865225Y-151452046D01*
X206981301Y-151401737D01*
X207388814Y-151678479D01*
X207992354Y-152661306D01*
X208408460Y-153552450D01*
X209374291Y-155492908D01*
X210583771Y-157495667D01*
X211015448Y-158115000D01*
X212045328Y-159398860D01*
X212921848Y-160039855D01*
X214030415Y-160256503D01*
X214823318Y-160274000D01*
X218086407Y-160723951D01*
X221257235Y-161971382D01*
X222941046Y-163048321D01*
X224288027Y-163942911D01*
X225156654Y-164285180D01*
X225428486Y-164102001D01*
X224985081Y-163420249D01*
X224282000Y-162744068D01*
X221642284Y-160912640D01*
X218750048Y-159702450D01*
X215952380Y-159258096D01*
X215914163Y-159258000D01*
X213977635Y-159002880D01*
X212680960Y-158369000D01*
X211698001Y-157225229D01*
X210659202Y-155554199D01*
X209752082Y-153719752D01*
X209164161Y-152085732D01*
X209042000Y-151308338D01*
X209174660Y-150521894D01*
X209764024Y-150183071D01*
X210972400Y-150114000D01*
X212373394Y-149979821D01*
X213347475Y-149649152D01*
X213446006Y-149570794D01*
X214412406Y-148998115D01*
X214718961Y-148920485D01*
X215583965Y-148517364D01*
X216647859Y-147696180D01*
X216659146Y-147685690D01*
X217585429Y-146908171D01*
X218182199Y-146559404D01*
X218200248Y-146558000D01*
X218630380Y-146150813D01*
X219095050Y-145319864D01*
X219817009Y-144386780D01*
X221111037Y-143235294D01*
X222351591Y-142346132D01*
X224071468Y-141203038D01*
X225332104Y-140201092D01*
X226243050Y-139140588D01*
X226913860Y-137821820D01*
X227454085Y-136045083D01*
X227973278Y-133610671D01*
X228398343Y-131323365D01*
X228653194Y-129110004D01*
X228457136Y-127585916D01*
X228349498Y-127312808D01*
X227881074Y-125911081D01*
X227384438Y-123835101D01*
X226921239Y-121422633D01*
X226553132Y-119011443D01*
X226341766Y-116939295D01*
X226314088Y-116161650D01*
X226442055Y-114628625D01*
X226979668Y-113513693D01*
X228092000Y-112385178D01*
X229314538Y-111074619D01*
X229820807Y-109811465D01*
X229870000Y-109126528D01*
X230004145Y-107988999D01*
X230331744Y-107448975D01*
X230378000Y-107442000D01*
X230855339Y-107109556D01*
X230730995Y-106312649D01*
X230071777Y-105351913D01*
X229870000Y-105155999D01*
X229100290Y-104153968D01*
X228854000Y-103361468D01*
X228657964Y-102840019D01*
X195326000Y-102840019D01*
X194957238Y-103357326D01*
X194818000Y-103378000D01*
X194323208Y-103204678D01*
X194310000Y-103153980D01*
X194665974Y-102720265D01*
X194818000Y-102616000D01*
X195286114Y-102656277D01*
X195326000Y-102840019D01*
X228657964Y-102840019D01*
X228425860Y-102222635D01*
X227095536Y-101360115D01*
X226314000Y-101084292D01*
X225426845Y-100686977D01*
X214820817Y-100686977D01*
X214122000Y-100757789D01*
X213400828Y-100677956D01*
X213487000Y-100501561D01*
X214527053Y-100434465D01*
X214757000Y-100501561D01*
X214820817Y-100686977D01*
X225426845Y-100686977D01*
X224926635Y-100462957D01*
X224720644Y-100330000D01*
X198882000Y-100330000D01*
X198446366Y-100708637D01*
X197582020Y-100838000D01*
X196717715Y-100676742D01*
X196596000Y-100330000D01*
X197312519Y-99903246D01*
X197895981Y-99822000D01*
X198705046Y-100040514D01*
X198882000Y-100330000D01*
X224720644Y-100330000D01*
X223865247Y-99777884D01*
X222631517Y-99142121D01*
X220942356Y-98645098D01*
X220309247Y-98534858D01*
X218437242Y-98162475D01*
X216674354Y-97628093D01*
X216255839Y-97457319D01*
X214802923Y-97001517D01*
X213226114Y-97024058D01*
X212212678Y-97207283D01*
X210340804Y-97449155D01*
X209066870Y-97288971D01*
X208969236Y-97243057D01*
X207821829Y-96879246D01*
X206206544Y-96824011D01*
X203982119Y-97089429D01*
G36*
X200683470Y-155119113D02*
G01*
X200348125Y-156138592D01*
X200077153Y-157324640D01*
X199973275Y-158257465D01*
X200040658Y-158526776D01*
X200537883Y-158463787D01*
X200787000Y-158384119D01*
X201171766Y-157831269D01*
X201383899Y-156780092D01*
X201401739Y-155644648D01*
X201203623Y-154839001D01*
X200980468Y-154686000D01*
X200683470Y-155119113D01*
G37*
X200683470Y-155119113D02*
X200348125Y-156138592D01*
X200077153Y-157324640D01*
X199973275Y-158257465D01*
X200040658Y-158526776D01*
X200537883Y-158463787D01*
X200787000Y-158384119D01*
X201171766Y-157831269D01*
X201383899Y-156780092D01*
X201401739Y-155644648D01*
X201203623Y-154839001D01*
X200980468Y-154686000D01*
X200683470Y-155119113D01*
G36*
X201485005Y-138278591D02*
G01*
X201422000Y-138589443D01*
X201226301Y-139451048D01*
X200727091Y-140842469D01*
X200358360Y-141721383D01*
X199733857Y-143405411D01*
X199678326Y-144402433D01*
X199833707Y-144664906D01*
X200355620Y-144822213D01*
X200669313Y-144229946D01*
X201117227Y-143067920D01*
X201701967Y-141817831D01*
X202322713Y-140138681D01*
X202355716Y-138819247D01*
X201930000Y-138176000D01*
X201485005Y-138278591D01*
G37*
X201485005Y-138278591D02*
X201422000Y-138589443D01*
X201226301Y-139451048D01*
X200727091Y-140842469D01*
X200358360Y-141721383D01*
X199733857Y-143405411D01*
X199678326Y-144402433D01*
X199833707Y-144664906D01*
X200355620Y-144822213D01*
X200669313Y-144229946D01*
X201117227Y-143067920D01*
X201701967Y-141817831D01*
X202322713Y-140138681D01*
X202355716Y-138819247D01*
X201930000Y-138176000D01*
X201485005Y-138278591D01*
G36*
X197961724Y-135467735D02*
G01*
X197129075Y-135824871D01*
X195586756Y-136462488D01*
X194289177Y-136850793D01*
X193869739Y-136906000D01*
X193033288Y-137160545D01*
X192219188Y-137734658D01*
X191765816Y-138344052D01*
X191824610Y-138624213D01*
X192374532Y-138559066D01*
X193443578Y-138171957D01*
X193548000Y-138126849D01*
X195079412Y-137634473D01*
X196412722Y-137436912D01*
X197522076Y-137190388D01*
X198661790Y-136617873D01*
X199542786Y-135918799D01*
X199875986Y-135292598D01*
X199790539Y-135106599D01*
X199163541Y-135095500D01*
X197961724Y-135467735D01*
G37*
X197961724Y-135467735D02*
X197129075Y-135824871D01*
X195586756Y-136462488D01*
X194289177Y-136850793D01*
X193869739Y-136906000D01*
X193033288Y-137160545D01*
X192219188Y-137734658D01*
X191765816Y-138344052D01*
X191824610Y-138624213D01*
X192374532Y-138559066D01*
X193443578Y-138171957D01*
X193548000Y-138126849D01*
X195079412Y-137634473D01*
X196412722Y-137436912D01*
X197522076Y-137190388D01*
X198661790Y-136617873D01*
X199542786Y-135918799D01*
X199875986Y-135292598D01*
X199790539Y-135106599D01*
X199163541Y-135095500D01*
X197961724Y-135467735D01*
G36*
X214851012Y-121615473D02*
G01*
X214666827Y-122787699D01*
X214630000Y-123756485D01*
X214714059Y-125419050D01*
X215096984Y-126537096D01*
X215974901Y-127576898D01*
X216408000Y-127983556D01*
X217717302Y-129501496D01*
X218145241Y-131013618D01*
X217772696Y-132840223D01*
X217690574Y-133062929D01*
X217034127Y-134050013D01*
X215878404Y-134362144D01*
X215658574Y-134366000D01*
X214477746Y-134538430D01*
X214168175Y-134943360D01*
X214784964Y-135412248D01*
X215265000Y-135569814D01*
X216864151Y-135863917D01*
X217721711Y-135661825D01*
X217853231Y-135509000D01*
X218099360Y-134844614D01*
X218496155Y-133513369D01*
X218856239Y-132186885D01*
X219261800Y-130376566D01*
X219311408Y-129303613D01*
X219032028Y-128770504D01*
X217314027Y-127370456D01*
X216304300Y-126477610D01*
X215903489Y-125982732D01*
X216012236Y-125776590D01*
X216281000Y-125746053D01*
X217034859Y-125938652D01*
X217170000Y-126167240D01*
X217624125Y-126482514D01*
X218779812Y-126794688D01*
X219583000Y-126927141D01*
X221239146Y-127148544D01*
X222596628Y-127329932D01*
X222963374Y-127378901D01*
X223794651Y-127135911D01*
X224342928Y-126036713D01*
X224357932Y-125984000D01*
X224497262Y-125222000D01*
X219710000Y-125222000D01*
X219296508Y-125667827D01*
X218918020Y-125730000D01*
X218392211Y-125483725D01*
X218440000Y-125222000D01*
X219089457Y-124733377D01*
X219231981Y-124714000D01*
X219696318Y-125101473D01*
X219710000Y-125222000D01*
X224497262Y-125222000D01*
X224591859Y-124704649D01*
X224549502Y-123825000D01*
X223903258Y-123396634D01*
X222578754Y-123212278D01*
X220882539Y-123266118D01*
X219121159Y-123552340D01*
X217853645Y-123952000D01*
X216508049Y-124500353D01*
X215861217Y-124580040D01*
X215658673Y-124073943D01*
X215646000Y-122936000D01*
X215518408Y-121760795D01*
X215204669Y-121173356D01*
X215138000Y-121158000D01*
X214851012Y-121615473D01*
G37*
X214851012Y-121615473D02*
X214666827Y-122787699D01*
X214630000Y-123756485D01*
X214714059Y-125419050D01*
X215096984Y-126537096D01*
X215974901Y-127576898D01*
X216408000Y-127983556D01*
X217717302Y-129501496D01*
X218145241Y-131013618D01*
X217772696Y-132840223D01*
X217690574Y-133062929D01*
X217034127Y-134050013D01*
X215878404Y-134362144D01*
X215658574Y-134366000D01*
X214477746Y-134538430D01*
X214168175Y-134943360D01*
X214784964Y-135412248D01*
X215265000Y-135569814D01*
X216864151Y-135863917D01*
X217721711Y-135661825D01*
X217853231Y-135509000D01*
X218099360Y-134844614D01*
X218496155Y-133513369D01*
X218856239Y-132186885D01*
X219261800Y-130376566D01*
X219311408Y-129303613D01*
X219032028Y-128770504D01*
X217314027Y-127370456D01*
X216304300Y-126477610D01*
X215903489Y-125982732D01*
X216012236Y-125776590D01*
X216281000Y-125746053D01*
X217034859Y-125938652D01*
X217170000Y-126167240D01*
X217624125Y-126482514D01*
X218779812Y-126794688D01*
X219583000Y-126927141D01*
X221239146Y-127148544D01*
X222596628Y-127329932D01*
X222963374Y-127378901D01*
X223794651Y-127135911D01*
X224342928Y-126036713D01*
X224357932Y-125984000D01*
X224497262Y-125222000D01*
X219710000Y-125222000D01*
X219296508Y-125667827D01*
X218918020Y-125730000D01*
X218392211Y-125483725D01*
X218440000Y-125222000D01*
X219089457Y-124733377D01*
X219231981Y-124714000D01*
X219696318Y-125101473D01*
X219710000Y-125222000D01*
X224497262Y-125222000D01*
X224591859Y-124704649D01*
X224549502Y-123825000D01*
X223903258Y-123396634D01*
X222578754Y-123212278D01*
X220882539Y-123266118D01*
X219121159Y-123552340D01*
X217853645Y-123952000D01*
X216508049Y-124500353D01*
X215861217Y-124580040D01*
X215658673Y-124073943D01*
X215646000Y-122936000D01*
X215518408Y-121760795D01*
X215204669Y-121173356D01*
X215138000Y-121158000D01*
X214851012Y-121615473D01*
G36*
X202977660Y-130218531D02*
G01*
X201803000Y-130638745D01*
X200644756Y-131635380D01*
X200395177Y-132836307D01*
X201048165Y-134003706D01*
X201904773Y-134606954D01*
X203297365Y-135136610D01*
X204651936Y-135360415D01*
X205653841Y-135257822D01*
X205994000Y-134874000D01*
X205558266Y-134495727D01*
X204690604Y-134366000D01*
X202960304Y-134115516D01*
X201875543Y-133478686D01*
X201524524Y-132627441D01*
X201995450Y-131733711D01*
X203018101Y-131105843D01*
X203970356Y-130582198D01*
X203996485Y-130223755D01*
X203907101Y-130184067D01*
X202977660Y-130218531D01*
G37*
X202977660Y-130218531D02*
X201803000Y-130638745D01*
X200644756Y-131635380D01*
X200395177Y-132836307D01*
X201048165Y-134003706D01*
X201904773Y-134606954D01*
X203297365Y-135136610D01*
X204651936Y-135360415D01*
X205653841Y-135257822D01*
X205994000Y-134874000D01*
X205558266Y-134495727D01*
X204690604Y-134366000D01*
X202960304Y-134115516D01*
X201875543Y-133478686D01*
X201524524Y-132627441D01*
X201995450Y-131733711D01*
X203018101Y-131105843D01*
X203970356Y-130582198D01*
X203996485Y-130223755D01*
X203907101Y-130184067D01*
X202977660Y-130218531D01*
G36*
X208849311Y-133523894D02*
G01*
X208534000Y-133858000D01*
X208968737Y-134239875D01*
X209804000Y-134366000D01*
X210758690Y-134192105D01*
X211074000Y-133858000D01*
X210639264Y-133476124D01*
X209804000Y-133350000D01*
X208849311Y-133523894D01*
G37*
X208849311Y-133523894D02*
X208534000Y-133858000D01*
X208968737Y-134239875D01*
X209804000Y-134366000D01*
X210758690Y-134192105D01*
X211074000Y-133858000D01*
X210639264Y-133476124D01*
X209804000Y-133350000D01*
X208849311Y-133523894D01*
G36*
X191440296Y-131584300D02*
G01*
X190151649Y-131825916D01*
X189115560Y-132127458D01*
X188722000Y-132400887D01*
X189156556Y-132702444D01*
X190200220Y-132828574D01*
X191462990Y-132788327D01*
X192554864Y-132590753D01*
X193060889Y-132300202D01*
X193252615Y-131671550D01*
X193208145Y-131570811D01*
X192589722Y-131475101D01*
X191440296Y-131584300D01*
G37*
X191440296Y-131584300D02*
X190151649Y-131825916D01*
X189115560Y-132127458D01*
X188722000Y-132400887D01*
X189156556Y-132702444D01*
X190200220Y-132828574D01*
X191462990Y-132788327D01*
X192554864Y-132590753D01*
X193060889Y-132300202D01*
X193252615Y-131671550D01*
X193208145Y-131570811D01*
X192589722Y-131475101D01*
X191440296Y-131584300D01*
G36*
X196204728Y-121721694D02*
G01*
X194759767Y-121937077D01*
X193907556Y-122302963D01*
X193885068Y-122327910D01*
X193662147Y-123090451D01*
X194107688Y-124244151D01*
X194323399Y-124613910D01*
X194870358Y-125439406D01*
X195442878Y-125923527D01*
X196311239Y-126157322D01*
X197745721Y-126231843D01*
X199144477Y-126238000D01*
X201167212Y-126199639D01*
X202394631Y-126053392D01*
X203045576Y-125752506D01*
X203305890Y-125349000D01*
X203826454Y-124422412D01*
X204112726Y-124138455D01*
X204044017Y-123952000D01*
X196850000Y-123952000D01*
X196625827Y-124996536D01*
X196073159Y-125122597D01*
X195371778Y-124291431D01*
X195361747Y-124272793D01*
X195107922Y-123234310D01*
X195710875Y-122726530D01*
X196172667Y-122682000D01*
X196690896Y-123119550D01*
X196850000Y-123952000D01*
X204044017Y-123952000D01*
X203991232Y-123808758D01*
X203117916Y-123361720D01*
X202625780Y-123188087D01*
X201256108Y-122681914D01*
X200304162Y-122208448D01*
X200177400Y-122112632D01*
X199305415Y-121796065D01*
X197850567Y-121670221D01*
X196204728Y-121721694D01*
G37*
X196204728Y-121721694D02*
X194759767Y-121937077D01*
X193907556Y-122302963D01*
X193885068Y-122327910D01*
X193662147Y-123090451D01*
X194107688Y-124244151D01*
X194323399Y-124613910D01*
X194870358Y-125439406D01*
X195442878Y-125923527D01*
X196311239Y-126157322D01*
X197745721Y-126231843D01*
X199144477Y-126238000D01*
X201167212Y-126199639D01*
X202394631Y-126053392D01*
X203045576Y-125752506D01*
X203305890Y-125349000D01*
X203826454Y-124422412D01*
X204112726Y-124138455D01*
X204044017Y-123952000D01*
X196850000Y-123952000D01*
X196625827Y-124996536D01*
X196073159Y-125122597D01*
X195371778Y-124291431D01*
X195361747Y-124272793D01*
X195107922Y-123234310D01*
X195710875Y-122726530D01*
X196172667Y-122682000D01*
X196690896Y-123119550D01*
X196850000Y-123952000D01*
X204044017Y-123952000D01*
X203991232Y-123808758D01*
X203117916Y-123361720D01*
X202625780Y-123188087D01*
X201256108Y-122681914D01*
X200304162Y-122208448D01*
X200177400Y-122112632D01*
X199305415Y-121796065D01*
X197850567Y-121670221D01*
X196204728Y-121721694D01*
G36*
X202513681Y-118361759D02*
G01*
X200856636Y-118576732D01*
X198840293Y-118744573D01*
X198025832Y-118786787D01*
X196458904Y-118912741D01*
X195334578Y-119120817D01*
X195020165Y-119262501D01*
X194261690Y-119559131D01*
X193493314Y-119634000D01*
X192451445Y-119834450D01*
X192024000Y-120142000D01*
X191307482Y-120568753D01*
X190724020Y-120650000D01*
X189917105Y-120975399D01*
X189738000Y-121412000D01*
X189976725Y-122089698D01*
X190746554Y-121964240D01*
X191262000Y-121666000D01*
X192155240Y-121402352D01*
X193695251Y-121220588D01*
X195169020Y-121165778D01*
X196904745Y-121075651D01*
X198177535Y-120847658D01*
X198664026Y-120591709D01*
X199399513Y-120268445D01*
X200902428Y-120219073D01*
X201487716Y-120263111D01*
X203412009Y-120287819D01*
X204454083Y-119899595D01*
X204513444Y-119835654D01*
X204875850Y-118960955D01*
X204794617Y-118872000D01*
X203454000Y-118872000D01*
X203200000Y-119126000D01*
X202946000Y-118872000D01*
X203200000Y-118618000D01*
X203454000Y-118872000D01*
X204794617Y-118872000D01*
X204375291Y-118412814D01*
X203137518Y-118283913D01*
X202513681Y-118361759D01*
G37*
X202513681Y-118361759D02*
X200856636Y-118576732D01*
X198840293Y-118744573D01*
X198025832Y-118786787D01*
X196458904Y-118912741D01*
X195334578Y-119120817D01*
X195020165Y-119262501D01*
X194261690Y-119559131D01*
X193493314Y-119634000D01*
X192451445Y-119834450D01*
X192024000Y-120142000D01*
X191307482Y-120568753D01*
X190724020Y-120650000D01*
X189917105Y-120975399D01*
X189738000Y-121412000D01*
X189976725Y-122089698D01*
X190746554Y-121964240D01*
X191262000Y-121666000D01*
X192155240Y-121402352D01*
X193695251Y-121220588D01*
X195169020Y-121165778D01*
X196904745Y-121075651D01*
X198177535Y-120847658D01*
X198664026Y-120591709D01*
X199399513Y-120268445D01*
X200902428Y-120219073D01*
X201487716Y-120263111D01*
X203412009Y-120287819D01*
X204454083Y-119899595D01*
X204513444Y-119835654D01*
X204875850Y-118960955D01*
X204794617Y-118872000D01*
X203454000Y-118872000D01*
X203200000Y-119126000D01*
X202946000Y-118872000D01*
X203200000Y-118618000D01*
X203454000Y-118872000D01*
X204794617Y-118872000D01*
X204375291Y-118412814D01*
X203137518Y-118283913D01*
X202513681Y-118361759D01*
G36*
X221413318Y-117949650D02*
G01*
X221361000Y-117953994D01*
X219283180Y-118093874D01*
X217340871Y-118167024D01*
X216154000Y-118162700D01*
X213598744Y-118544375D01*
X211188202Y-119871936D01*
X211010582Y-120014283D01*
X210147554Y-120533580D01*
X209740582Y-120611035D01*
X208518694Y-120554974D01*
X207471120Y-120760436D01*
X207010440Y-121144775D01*
X207010000Y-121158000D01*
X207460221Y-121543160D01*
X208727034Y-121551668D01*
X210684667Y-121186613D01*
X211201000Y-121055032D01*
X212418170Y-120572312D01*
X213070940Y-120002875D01*
X213106000Y-119862510D01*
X213334251Y-119524612D01*
X214124913Y-119334747D01*
X215636850Y-119272977D01*
X217551000Y-119304637D01*
X220418855Y-119292645D01*
X222660083Y-119088317D01*
X224153683Y-118711917D01*
X224778653Y-118183710D01*
X224790000Y-118092322D01*
X224328361Y-117918124D01*
X223116348Y-117867079D01*
X221413318Y-117949650D01*
G37*
X221413318Y-117949650D02*
X221361000Y-117953994D01*
X219283180Y-118093874D01*
X217340871Y-118167024D01*
X216154000Y-118162700D01*
X213598744Y-118544375D01*
X211188202Y-119871936D01*
X211010582Y-120014283D01*
X210147554Y-120533580D01*
X209740582Y-120611035D01*
X208518694Y-120554974D01*
X207471120Y-120760436D01*
X207010440Y-121144775D01*
X207010000Y-121158000D01*
X207460221Y-121543160D01*
X208727034Y-121551668D01*
X210684667Y-121186613D01*
X211201000Y-121055032D01*
X212418170Y-120572312D01*
X213070940Y-120002875D01*
X213106000Y-119862510D01*
X213334251Y-119524612D01*
X214124913Y-119334747D01*
X215636850Y-119272977D01*
X217551000Y-119304637D01*
X220418855Y-119292645D01*
X222660083Y-119088317D01*
X224153683Y-118711917D01*
X224778653Y-118183710D01*
X224790000Y-118092322D01*
X224328361Y-117918124D01*
X223116348Y-117867079D01*
X221413318Y-117949650D01*
G36*
X205500762Y-120020575D02*
G01*
X205486000Y-120142000D01*
X205872576Y-120635238D01*
X205994000Y-120650000D01*
X206487239Y-120263424D01*
X206502000Y-120142000D01*
X206115425Y-119648761D01*
X205994000Y-119634000D01*
X205500762Y-120020575D01*
G37*
X205500762Y-120020575D02*
X205486000Y-120142000D01*
X205872576Y-120635238D01*
X205994000Y-120650000D01*
X206487239Y-120263424D01*
X206502000Y-120142000D01*
X206115425Y-119648761D01*
X205994000Y-119634000D01*
X205500762Y-120020575D01*
G36*
X206926524Y-112131763D02*
G01*
X205365747Y-112417273D01*
X204276963Y-112664137D01*
X201758583Y-113274752D01*
X198980300Y-113992355D01*
X197104000Y-114504999D01*
X195348998Y-115014678D01*
X194494292Y-115315853D01*
X194458556Y-115462074D01*
X195160462Y-115506893D01*
X195580000Y-115508515D01*
X197255403Y-115372647D01*
X198715677Y-115043027D01*
X198882000Y-114980214D01*
X200009583Y-114577745D01*
X201741582Y-114028962D01*
X203689596Y-113456539D01*
X205549392Y-112951747D01*
X206826355Y-112725747D01*
X207914696Y-112778681D01*
X209208622Y-113110689D01*
X210293596Y-113458901D01*
X211898594Y-113877994D01*
X213908468Y-114252348D01*
X216118326Y-114563799D01*
X218323277Y-114794179D01*
X220318428Y-114925323D01*
X221898889Y-114939066D01*
X222859768Y-114817240D01*
X223033269Y-114588412D01*
X222379089Y-114324386D01*
X220919737Y-114136629D01*
X218864703Y-114049327D01*
X218335177Y-114046000D01*
X215279965Y-113921573D01*
X212775320Y-113504400D01*
X210933120Y-112937854D01*
X209309914Y-112375593D01*
X208107814Y-112112383D01*
X206926524Y-112131763D01*
G37*
X206926524Y-112131763D02*
X205365747Y-112417273D01*
X204276963Y-112664137D01*
X201758583Y-113274752D01*
X198980300Y-113992355D01*
X197104000Y-114504999D01*
X195348998Y-115014678D01*
X194494292Y-115315853D01*
X194458556Y-115462074D01*
X195160462Y-115506893D01*
X195580000Y-115508515D01*
X197255403Y-115372647D01*
X198715677Y-115043027D01*
X198882000Y-114980214D01*
X200009583Y-114577745D01*
X201741582Y-114028962D01*
X203689596Y-113456539D01*
X205549392Y-112951747D01*
X206826355Y-112725747D01*
X207914696Y-112778681D01*
X209208622Y-113110689D01*
X210293596Y-113458901D01*
X211898594Y-113877994D01*
X213908468Y-114252348D01*
X216118326Y-114563799D01*
X218323277Y-114794179D01*
X220318428Y-114925323D01*
X221898889Y-114939066D01*
X222859768Y-114817240D01*
X223033269Y-114588412D01*
X222379089Y-114324386D01*
X220919737Y-114136629D01*
X218864703Y-114049327D01*
X218335177Y-114046000D01*
X215279965Y-113921573D01*
X212775320Y-113504400D01*
X210933120Y-112937854D01*
X209309914Y-112375593D01*
X208107814Y-112112383D01*
X206926524Y-112131763D01*
G36*
X201732434Y-108496466D02*
G01*
X198991137Y-108798405D01*
X197223106Y-109114718D01*
X196406988Y-109448617D01*
X196342000Y-109578950D01*
X196760605Y-109861027D01*
X197633687Y-109767949D01*
X198697952Y-109578704D01*
X200472688Y-109341984D01*
X202656007Y-109096218D01*
X203813696Y-108981275D01*
X206199733Y-108783883D01*
X207836702Y-108740577D01*
X208982030Y-108866784D01*
X209893143Y-109177926D01*
X210269009Y-109368070D01*
X211353459Y-109787677D01*
X212892591Y-110062429D01*
X215083960Y-110216901D01*
X217530059Y-110271280D01*
X219765882Y-110257581D01*
X221541136Y-110179673D01*
X222665102Y-110050607D01*
X222961079Y-109899606D01*
X222370353Y-109714869D01*
X221002086Y-109570601D01*
X219094529Y-109486917D01*
X217919773Y-109474000D01*
X215099743Y-109377822D01*
X212651352Y-109112474D01*
X210947101Y-108728979D01*
X208376351Y-108226558D01*
X205468348Y-108205688D01*
X201732434Y-108496466D01*
G37*
X201732434Y-108496466D02*
X198991137Y-108798405D01*
X197223106Y-109114718D01*
X196406988Y-109448617D01*
X196342000Y-109578950D01*
X196760605Y-109861027D01*
X197633687Y-109767949D01*
X198697952Y-109578704D01*
X200472688Y-109341984D01*
X202656007Y-109096218D01*
X203813696Y-108981275D01*
X206199733Y-108783883D01*
X207836702Y-108740577D01*
X208982030Y-108866784D01*
X209893143Y-109177926D01*
X210269009Y-109368070D01*
X211353459Y-109787677D01*
X212892591Y-110062429D01*
X215083960Y-110216901D01*
X217530059Y-110271280D01*
X219765882Y-110257581D01*
X221541136Y-110179673D01*
X222665102Y-110050607D01*
X222961079Y-109899606D01*
X222370353Y-109714869D01*
X221002086Y-109570601D01*
X219094529Y-109486917D01*
X217919773Y-109474000D01*
X215099743Y-109377822D01*
X212651352Y-109112474D01*
X210947101Y-108728979D01*
X208376351Y-108226558D01*
X205468348Y-108205688D01*
X201732434Y-108496466D01*
%TD*%
M02*
